<?xml version="1.0" encoding="UTF-8"?><svg xmlns="http://www.w3.org/2000/svg" xmlns:xlink="http://www.w3.org/1999/xlink" stroke-dasharray="none" shape-rendering="auto" font-family="'Dialog'" width="1581" text-rendering="auto" fill-opacity="1" contentScriptType="text/ecmascript" color-interpolation="auto" color-rendering="auto" preserveAspectRatio="xMidYMid meet" font-size="12" viewBox="0 0 1581 660" fill="black" stroke="black" image-rendering="auto" stroke-miterlimit="10" zoomAndPan="magnify" version="1.0" stroke-linecap="square" stroke-linejoin="miter" contentStyleType="text/css" font-style="normal" height="660" stroke-width="1" stroke-dashoffset="0" font-weight="normal" stroke-opacity="1">
<!--Generated by the Batik Graphics2D SVG Generator-->
<defs id="genericDefs"/>
<g>
<defs id="defs1">
<linearGradient x1="1130" x2="1130" y1="550" gradientUnits="userSpaceOnUse" y2="650" xlink:type="simple" xlink:actuate="onLoad" id="linearGradient1" xlink:show="other" spreadMethod="pad">
<stop stop-opacity="1" stop-color="white" offset="0%"/>
<stop stop-opacity="1" stop-color="white" offset="100%"/>
</linearGradient>
<linearGradient x1="10" x2="10" y1="310" gradientUnits="userSpaceOnUse" y2="410" xlink:type="simple" xlink:actuate="onLoad" id="linearGradient2" xlink:show="other" spreadMethod="pad">
<stop stop-opacity="1" stop-color="white" offset="0%"/>
<stop stop-opacity="1" stop-color="white" offset="100%"/>
</linearGradient>
<linearGradient x1="1450" x2="1450" y1="550" gradientUnits="userSpaceOnUse" y2="650" xlink:type="simple" xlink:actuate="onLoad" id="linearGradient3" xlink:show="other" spreadMethod="pad">
<stop stop-opacity="1" stop-color="white" offset="0%"/>
<stop stop-opacity="1" stop-color="white" offset="100%"/>
</linearGradient>
<linearGradient x1="330" x2="330" y1="310" gradientUnits="userSpaceOnUse" y2="410" xlink:type="simple" xlink:actuate="onLoad" id="linearGradient4" xlink:show="other" spreadMethod="pad">
<stop stop-opacity="1" stop-color="white" offset="0%"/>
<stop stop-opacity="1" stop-color="white" offset="100%"/>
</linearGradient>
<linearGradient x1="490" x2="490" y1="310" gradientUnits="userSpaceOnUse" y2="410" xlink:type="simple" xlink:actuate="onLoad" id="linearGradient5" xlink:show="other" spreadMethod="pad">
<stop stop-opacity="1" stop-color="white" offset="0%"/>
<stop stop-opacity="1" stop-color="white" offset="100%"/>
</linearGradient>
<linearGradient x1="650" x2="650" y1="310" gradientUnits="userSpaceOnUse" y2="410" xlink:type="simple" xlink:actuate="onLoad" id="linearGradient6" xlink:show="other" spreadMethod="pad">
<stop stop-opacity="1" stop-color="white" offset="0%"/>
<stop stop-opacity="1" stop-color="white" offset="100%"/>
</linearGradient>
<linearGradient x1="810" x2="810" y1="310" gradientUnits="userSpaceOnUse" y2="415" xlink:type="simple" xlink:actuate="onLoad" id="linearGradient7" xlink:show="other" spreadMethod="pad">
<stop stop-opacity="1" stop-color="white" offset="0%"/>
<stop stop-opacity="1" stop-color="white" offset="100%"/>
</linearGradient>
<linearGradient x1="1130" x2="1130" y1="310" gradientUnits="userSpaceOnUse" y2="415" xlink:type="simple" xlink:actuate="onLoad" id="linearGradient8" xlink:show="other" spreadMethod="pad">
<stop stop-opacity="1" stop-color="white" offset="0%"/>
<stop stop-opacity="1" stop-color="white" offset="100%"/>
</linearGradient>
<linearGradient x1="10" x2="10" y1="10" gradientUnits="userSpaceOnUse" y2="60" xlink:type="simple" xlink:actuate="onLoad" id="linearGradient9" xlink:show="other" spreadMethod="pad">
<stop stop-opacity="1" stop-color="white" offset="0%"/>
<stop stop-opacity="1" stop-color="white" offset="100%"/>
</linearGradient>
<linearGradient x1="170" x2="170" y1="10" gradientUnits="userSpaceOnUse" y2="60" xlink:type="simple" xlink:actuate="onLoad" id="linearGradient10" xlink:show="other" spreadMethod="pad">
<stop stop-opacity="1" stop-color="white" offset="0%"/>
<stop stop-opacity="1" stop-color="white" offset="100%"/>
</linearGradient>
<linearGradient x1="330" x2="330" y1="10" gradientUnits="userSpaceOnUse" y2="60" xlink:type="simple" xlink:actuate="onLoad" id="linearGradient11" xlink:show="other" spreadMethod="pad">
<stop stop-opacity="1" stop-color="white" offset="0%"/>
<stop stop-opacity="1" stop-color="white" offset="100%"/>
</linearGradient>
<linearGradient x1="490" x2="490" y1="10" gradientUnits="userSpaceOnUse" y2="60" xlink:type="simple" xlink:actuate="onLoad" id="linearGradient12" xlink:show="other" spreadMethod="pad">
<stop stop-opacity="1" stop-color="white" offset="0%"/>
<stop stop-opacity="1" stop-color="white" offset="100%"/>
</linearGradient>
<linearGradient x1="650" x2="650" y1="10" gradientUnits="userSpaceOnUse" y2="60" xlink:type="simple" xlink:actuate="onLoad" id="linearGradient13" xlink:show="other" spreadMethod="pad">
<stop stop-opacity="1" stop-color="white" offset="0%"/>
<stop stop-opacity="1" stop-color="white" offset="100%"/>
</linearGradient>
<linearGradient x1="810" x2="810" y1="10" gradientUnits="userSpaceOnUse" y2="60" xlink:type="simple" xlink:actuate="onLoad" id="linearGradient14" xlink:show="other" spreadMethod="pad">
<stop stop-opacity="1" stop-color="white" offset="0%"/>
<stop stop-opacity="1" stop-color="white" offset="100%"/>
</linearGradient>
<linearGradient x1="970" x2="970" y1="10" gradientUnits="userSpaceOnUse" y2="60" xlink:type="simple" xlink:actuate="onLoad" id="linearGradient15" xlink:show="other" spreadMethod="pad">
<stop stop-opacity="1" stop-color="white" offset="0%"/>
<stop stop-opacity="1" stop-color="white" offset="100%"/>
</linearGradient>
<linearGradient x1="1130" x2="1130" y1="10" gradientUnits="userSpaceOnUse" y2="60" xlink:type="simple" xlink:actuate="onLoad" id="linearGradient16" xlink:show="other" spreadMethod="pad">
<stop stop-opacity="1" stop-color="white" offset="0%"/>
<stop stop-opacity="1" stop-color="white" offset="100%"/>
</linearGradient>
<linearGradient x1="1290" x2="1290" y1="10" gradientUnits="userSpaceOnUse" y2="60" xlink:type="simple" xlink:actuate="onLoad" id="linearGradient17" xlink:show="other" spreadMethod="pad">
<stop stop-opacity="1" stop-color="white" offset="0%"/>
<stop stop-opacity="1" stop-color="white" offset="100%"/>
</linearGradient>
<linearGradient x1="1450" x2="1450" y1="10" gradientUnits="userSpaceOnUse" y2="60" xlink:type="simple" xlink:actuate="onLoad" id="linearGradient18" xlink:show="other" spreadMethod="pad">
<stop stop-opacity="1" stop-color="white" offset="0%"/>
<stop stop-opacity="1" stop-color="white" offset="100%"/>
</linearGradient>
<clipPath clipPathUnits="userSpaceOnUse" id="clipPath1">
<path d="M1130 550 L1130 649 L1250 649 L1250 550 Z"/>
</clipPath>
<clipPath clipPathUnits="userSpaceOnUse" id="clipPath2">
<path d="M1155 552 L1227 552 L1227 570 L1155 570 L1155 552 Z"/>
</clipPath>
<clipPath clipPathUnits="userSpaceOnUse" id="clipPath3">
<path d="M1159 569 L1223 569 L1223 587 L1159 587 L1159 569 Z"/>
</clipPath>
<clipPath clipPathUnits="userSpaceOnUse" id="clipPath4">
<path d="M1130 586 L1252 586 L1252 619 L1130 619 L1130 586 Z"/>
</clipPath>
<clipPath clipPathUnits="userSpaceOnUse" id="clipPath5">
<path d="M1130 618 L1252 618 L1252 651 L1130 651 L1130 618 Z"/>
</clipPath>
<clipPath clipPathUnits="userSpaceOnUse" id="clipPath6">
<path d="M1129 549 L1252 549 L1252 651 L1129 651 L1129 549 Z"/>
</clipPath>
<clipPath clipPathUnits="userSpaceOnUse" id="clipPath7">
<path d="M10 310 L10 409 L290 409 L290 310 Z"/>
</clipPath>
<clipPath clipPathUnits="userSpaceOnUse" id="clipPath8">
<path d="M115 312 L187 312 L187 330 L115 330 L115 312 Z"/>
</clipPath>
<clipPath clipPathUnits="userSpaceOnUse" id="clipPath9">
<path d="M106 329 L196 329 L196 347 L106 347 L106 329 Z"/>
</clipPath>
<clipPath clipPathUnits="userSpaceOnUse" id="clipPath10">
<path d="M10 346 L292 346 L292 379 L10 379 L10 346 Z"/>
</clipPath>
<clipPath clipPathUnits="userSpaceOnUse" id="clipPath11">
<path d="M10 378 L292 378 L292 411 L10 411 L10 378 Z"/>
</clipPath>
<clipPath clipPathUnits="userSpaceOnUse" id="clipPath12">
<path d="M9 309 L292 309 L292 411 L9 411 L9 309 Z"/>
</clipPath>
<clipPath clipPathUnits="userSpaceOnUse" id="clipPath13">
<path d="M1450 550 L1450 649 L1568 649 L1568 550 Z"/>
</clipPath>
<clipPath clipPathUnits="userSpaceOnUse" id="clipPath14">
<path d="M1474 552 L1546 552 L1546 570 L1474 570 L1474 552 Z"/>
</clipPath>
<clipPath clipPathUnits="userSpaceOnUse" id="clipPath15">
<path d="M1488 569 L1533 569 L1533 587 L1488 587 L1488 569 Z"/>
</clipPath>
<clipPath clipPathUnits="userSpaceOnUse" id="clipPath16">
<path d="M1450 586 L1570 586 L1570 619 L1450 619 L1450 586 Z"/>
</clipPath>
<clipPath clipPathUnits="userSpaceOnUse" id="clipPath17">
<path d="M1450 618 L1570 618 L1570 651 L1450 651 L1450 618 Z"/>
</clipPath>
<clipPath clipPathUnits="userSpaceOnUse" id="clipPath18">
<path d="M1449 549 L1570 549 L1570 651 L1449 651 L1449 549 Z"/>
</clipPath>
<clipPath clipPathUnits="userSpaceOnUse" id="clipPath19">
<path d="M330 310 L330 409 L450 409 L450 310 Z"/>
</clipPath>
<clipPath clipPathUnits="userSpaceOnUse" id="clipPath20">
<path d="M355 312 L427 312 L427 330 L355 330 L355 312 Z"/>
</clipPath>
<clipPath clipPathUnits="userSpaceOnUse" id="clipPath21">
<path d="M366 329 L417 329 L417 347 L366 347 L366 329 Z"/>
</clipPath>
<clipPath clipPathUnits="userSpaceOnUse" id="clipPath22">
<path d="M330 346 L452 346 L452 379 L330 379 L330 346 Z"/>
</clipPath>
<clipPath clipPathUnits="userSpaceOnUse" id="clipPath23">
<path d="M330 378 L452 378 L452 411 L330 411 L330 378 Z"/>
</clipPath>
<clipPath clipPathUnits="userSpaceOnUse" id="clipPath24">
<path d="M329 309 L452 309 L452 411 L329 411 L329 309 Z"/>
</clipPath>
<clipPath clipPathUnits="userSpaceOnUse" id="clipPath25">
<path d="M490 310 L490 409 L610 409 L610 310 Z"/>
</clipPath>
<clipPath clipPathUnits="userSpaceOnUse" id="clipPath26">
<path d="M515 312 L587 312 L587 330 L515 330 L515 312 Z"/>
</clipPath>
<clipPath clipPathUnits="userSpaceOnUse" id="clipPath27">
<path d="M527 329 L575 329 L575 347 L527 347 L527 329 Z"/>
</clipPath>
<clipPath clipPathUnits="userSpaceOnUse" id="clipPath28">
<path d="M490 346 L612 346 L612 379 L490 379 L490 346 Z"/>
</clipPath>
<clipPath clipPathUnits="userSpaceOnUse" id="clipPath29">
<path d="M490 378 L612 378 L612 411 L490 411 L490 378 Z"/>
</clipPath>
<clipPath clipPathUnits="userSpaceOnUse" id="clipPath30">
<path d="M489 309 L612 309 L612 411 L489 411 L489 309 Z"/>
</clipPath>
<clipPath clipPathUnits="userSpaceOnUse" id="clipPath31">
<path d="M650 310 L650 409 L770 409 L770 310 Z"/>
</clipPath>
<clipPath clipPathUnits="userSpaceOnUse" id="clipPath32">
<path d="M675 312 L747 312 L747 330 L675 330 L675 312 Z"/>
</clipPath>
<clipPath clipPathUnits="userSpaceOnUse" id="clipPath33">
<path d="M684 329 L738 329 L738 347 L684 347 L684 329 Z"/>
</clipPath>
<clipPath clipPathUnits="userSpaceOnUse" id="clipPath34">
<path d="M650 346 L772 346 L772 379 L650 379 L650 346 Z"/>
</clipPath>
<clipPath clipPathUnits="userSpaceOnUse" id="clipPath35">
<path d="M650 378 L772 378 L772 411 L650 411 L650 378 Z"/>
</clipPath>
<clipPath clipPathUnits="userSpaceOnUse" id="clipPath36">
<path d="M649 309 L772 309 L772 411 L649 411 L649 309 Z"/>
</clipPath>
<clipPath clipPathUnits="userSpaceOnUse" id="clipPath37">
<path d="M810 310 L810 414 L1090 414 L1090 310 Z"/>
</clipPath>
<clipPath clipPathUnits="userSpaceOnUse" id="clipPath38">
<path d="M915 312 L987 312 L987 330 L915 330 L915 312 Z"/>
</clipPath>
<clipPath clipPathUnits="userSpaceOnUse" id="clipPath39">
<path d="M922 329 L981 329 L981 347 L922 347 L922 329 Z"/>
</clipPath>
<clipPath clipPathUnits="userSpaceOnUse" id="clipPath40">
<path d="M815 348 L1010 348 L1010 366 L815 366 L815 348 Z"/>
</clipPath>
<clipPath clipPathUnits="userSpaceOnUse" id="clipPath41">
<path d="M810 346 L1092 346 L1092 386 L810 386 L810 346 Z"/>
</clipPath>
<clipPath clipPathUnits="userSpaceOnUse" id="clipPath42">
<path d="M810 385 L1092 385 L1092 416 L810 416 L810 385 Z"/>
</clipPath>
<clipPath clipPathUnits="userSpaceOnUse" id="clipPath43">
<path d="M809 309 L1092 309 L1092 416 L809 416 L809 309 Z"/>
</clipPath>
<clipPath clipPathUnits="userSpaceOnUse" id="clipPath44">
<path d="M1130 310 L1130 414 L1570 414 L1570 310 Z"/>
</clipPath>
<clipPath clipPathUnits="userSpaceOnUse" id="clipPath45">
<path d="M1315 312 L1387 312 L1387 330 L1315 330 L1315 312 Z"/>
</clipPath>
<clipPath clipPathUnits="userSpaceOnUse" id="clipPath46">
<path d="M1338 329 L1364 329 L1364 347 L1338 347 L1338 329 Z"/>
</clipPath>
<clipPath clipPathUnits="userSpaceOnUse" id="clipPath47">
<path d="M1135 348 L1308 348 L1308 366 L1135 366 L1135 348 Z"/>
</clipPath>
<clipPath clipPathUnits="userSpaceOnUse" id="clipPath48">
<path d="M1130 346 L1572 346 L1572 386 L1130 386 L1130 346 Z"/>
</clipPath>
<clipPath clipPathUnits="userSpaceOnUse" id="clipPath49">
<path d="M1130 385 L1572 385 L1572 416 L1130 416 L1130 385 Z"/>
</clipPath>
<clipPath clipPathUnits="userSpaceOnUse" id="clipPath50">
<path d="M1129 309 L1572 309 L1572 416 L1129 416 L1129 309 Z"/>
</clipPath>
<clipPath clipPathUnits="userSpaceOnUse" id="clipPath51">
<path d="M10 10 L10 59 L130 59 L130 10 Z"/>
</clipPath>
<clipPath clipPathUnits="userSpaceOnUse" id="clipPath52">
<path d="M38 18 L105 18 L105 36 L38 36 L38 18 Z"/>
</clipPath>
<clipPath clipPathUnits="userSpaceOnUse" id="clipPath53">
<path d="M46 35 L96 35 L96 53 L46 53 L46 35 Z"/>
</clipPath>
<clipPath clipPathUnits="userSpaceOnUse" id="clipPath54">
<path d="M9 9 L132 9 L132 61 L9 61 L9 9 Z"/>
</clipPath>
<clipPath clipPathUnits="userSpaceOnUse" id="clipPath55">
<path d="M170 10 L170 59 L290 59 L290 10 Z"/>
</clipPath>
<clipPath clipPathUnits="userSpaceOnUse" id="clipPath56">
<path d="M198 18 L265 18 L265 36 L198 36 L198 18 Z"/>
</clipPath>
<clipPath clipPathUnits="userSpaceOnUse" id="clipPath57">
<path d="M203 35 L259 35 L259 53 L203 53 L203 35 Z"/>
</clipPath>
<clipPath clipPathUnits="userSpaceOnUse" id="clipPath58">
<path d="M169 9 L292 9 L292 61 L169 61 L169 9 Z"/>
</clipPath>
<clipPath clipPathUnits="userSpaceOnUse" id="clipPath59">
<path d="M330 10 L330 59 L450 59 L450 10 Z"/>
</clipPath>
<clipPath clipPathUnits="userSpaceOnUse" id="clipPath60">
<path d="M358 18 L425 18 L425 36 L358 36 L358 18 Z"/>
</clipPath>
<clipPath clipPathUnits="userSpaceOnUse" id="clipPath61">
<path d="M358 35 L425 35 L425 53 L358 53 L358 35 Z"/>
</clipPath>
<clipPath clipPathUnits="userSpaceOnUse" id="clipPath62">
<path d="M329 9 L452 9 L452 61 L329 61 L329 9 Z"/>
</clipPath>
<clipPath clipPathUnits="userSpaceOnUse" id="clipPath63">
<path d="M490 10 L490 59 L610 59 L610 10 Z"/>
</clipPath>
<clipPath clipPathUnits="userSpaceOnUse" id="clipPath64">
<path d="M518 18 L585 18 L585 36 L518 36 L518 18 Z"/>
</clipPath>
<clipPath clipPathUnits="userSpaceOnUse" id="clipPath65">
<path d="M523 35 L579 35 L579 53 L523 53 L523 35 Z"/>
</clipPath>
<clipPath clipPathUnits="userSpaceOnUse" id="clipPath66">
<path d="M489 9 L612 9 L612 61 L489 61 L489 9 Z"/>
</clipPath>
<clipPath clipPathUnits="userSpaceOnUse" id="clipPath67">
<path d="M650 10 L650 59 L770 59 L770 10 Z"/>
</clipPath>
<clipPath clipPathUnits="userSpaceOnUse" id="clipPath68">
<path d="M678 18 L745 18 L745 36 L678 36 L678 18 Z"/>
</clipPath>
<clipPath clipPathUnits="userSpaceOnUse" id="clipPath69">
<path d="M678 35 L745 35 L745 53 L678 53 L678 35 Z"/>
</clipPath>
<clipPath clipPathUnits="userSpaceOnUse" id="clipPath70">
<path d="M649 9 L772 9 L772 61 L649 61 L649 9 Z"/>
</clipPath>
<clipPath clipPathUnits="userSpaceOnUse" id="clipPath71">
<path d="M810 10 L810 59 L930 59 L930 10 Z"/>
</clipPath>
<clipPath clipPathUnits="userSpaceOnUse" id="clipPath72">
<path d="M838 18 L905 18 L905 36 L838 36 L838 18 Z"/>
</clipPath>
<clipPath clipPathUnits="userSpaceOnUse" id="clipPath73">
<path d="M838 35 L905 35 L905 53 L838 53 L838 35 Z"/>
</clipPath>
<clipPath clipPathUnits="userSpaceOnUse" id="clipPath74">
<path d="M809 9 L932 9 L932 61 L809 61 L809 9 Z"/>
</clipPath>
<clipPath clipPathUnits="userSpaceOnUse" id="clipPath75">
<path d="M970 10 L970 59 L1090 59 L1090 10 Z"/>
</clipPath>
<clipPath clipPathUnits="userSpaceOnUse" id="clipPath76">
<path d="M998 18 L1065 18 L1065 36 L998 36 L998 18 Z"/>
</clipPath>
<clipPath clipPathUnits="userSpaceOnUse" id="clipPath77">
<path d="M995 35 L1068 35 L1068 53 L995 53 L995 35 Z"/>
</clipPath>
<clipPath clipPathUnits="userSpaceOnUse" id="clipPath78">
<path d="M969 9 L1092 9 L1092 61 L969 61 L969 9 Z"/>
</clipPath>
<clipPath clipPathUnits="userSpaceOnUse" id="clipPath79">
<path d="M1130 10 L1130 59 L1250 59 L1250 10 Z"/>
</clipPath>
<clipPath clipPathUnits="userSpaceOnUse" id="clipPath80">
<path d="M1158 18 L1225 18 L1225 36 L1158 36 L1158 18 Z"/>
</clipPath>
<clipPath clipPathUnits="userSpaceOnUse" id="clipPath81">
<path d="M1158 35 L1225 35 L1225 53 L1158 53 L1158 35 Z"/>
</clipPath>
<clipPath clipPathUnits="userSpaceOnUse" id="clipPath82">
<path d="M1129 9 L1252 9 L1252 61 L1129 61 L1129 9 Z"/>
</clipPath>
<clipPath clipPathUnits="userSpaceOnUse" id="clipPath83">
<path d="M1290 10 L1290 59 L1410 59 L1410 10 Z"/>
</clipPath>
<clipPath clipPathUnits="userSpaceOnUse" id="clipPath84">
<path d="M1318 18 L1385 18 L1385 36 L1318 36 L1318 18 Z"/>
</clipPath>
<clipPath clipPathUnits="userSpaceOnUse" id="clipPath85">
<path d="M1318 35 L1385 35 L1385 53 L1318 53 L1318 35 Z"/>
</clipPath>
<clipPath clipPathUnits="userSpaceOnUse" id="clipPath86">
<path d="M1289 9 L1412 9 L1412 61 L1289 61 L1289 9 Z"/>
</clipPath>
<clipPath clipPathUnits="userSpaceOnUse" id="clipPath87">
<path d="M1450 10 L1450 59 L1570 59 L1570 10 Z"/>
</clipPath>
<clipPath clipPathUnits="userSpaceOnUse" id="clipPath88">
<path d="M1478 18 L1545 18 L1545 36 L1478 36 L1478 18 Z"/>
</clipPath>
<clipPath clipPathUnits="userSpaceOnUse" id="clipPath89">
<path d="M1483 35 L1539 35 L1539 53 L1483 53 L1483 35 Z"/>
</clipPath>
<clipPath clipPathUnits="userSpaceOnUse" id="clipPath90">
<path d="M1449 9 L1572 9 L1572 61 L1449 61 L1449 9 Z"/>
</clipPath>
<clipPath clipPathUnits="userSpaceOnUse" id="clipPath91">
<path d="M-1 -1 L1582 -1 L1582 661 L-1 661 L-1 -1 Z"/>
</clipPath>
<clipPath clipPathUnits="userSpaceOnUse" id="clipPath92">
<path d="M64 59 L77 59 L77 77 L64 77 L64 59 Z"/>
</clipPath>
<clipPath clipPathUnits="userSpaceOnUse" id="clipPath93">
<path d="M224 59 L237 59 L237 77 L224 77 L224 59 Z"/>
</clipPath>
<clipPath clipPathUnits="userSpaceOnUse" id="clipPath94">
<path d="M384 59 L397 59 L397 77 L384 77 L384 59 Z"/>
</clipPath>
<clipPath clipPathUnits="userSpaceOnUse" id="clipPath95">
<path d="M544 59 L557 59 L557 77 L544 77 L544 59 Z"/>
</clipPath>
<clipPath clipPathUnits="userSpaceOnUse" id="clipPath96">
<path d="M704 59 L717 59 L717 77 L704 77 L704 59 Z"/>
</clipPath>
<clipPath clipPathUnits="userSpaceOnUse" id="clipPath97">
<path d="M864 59 L877 59 L877 77 L864 77 L864 59 Z"/>
</clipPath>
<clipPath clipPathUnits="userSpaceOnUse" id="clipPath98">
<path d="M1024 59 L1037 59 L1037 77 L1024 77 L1024 59 Z"/>
</clipPath>
<clipPath clipPathUnits="userSpaceOnUse" id="clipPath99">
<path d="M1184 59 L1197 59 L1197 77 L1184 77 L1184 59 Z"/>
</clipPath>
<clipPath clipPathUnits="userSpaceOnUse" id="clipPath100">
<path d="M1344 59 L1357 59 L1357 77 L1344 77 L1344 59 Z"/>
</clipPath>
<clipPath clipPathUnits="userSpaceOnUse" id="clipPath101">
<path d="M1504 59 L1517 59 L1517 77 L1504 77 L1504 59 Z"/>
</clipPath>
<clipPath clipPathUnits="userSpaceOnUse" id="clipPath102">
<path d="M1341 414 L1360 414 L1360 427 L1341 427 L1341 414 Z"/>
</clipPath>
</defs>
<g fill="url(#linearGradient1)" font-family="'Segoe UI'" stroke-linejoin="round" stroke="url(#linearGradient1)" stroke-width="0" stroke-miterlimit="0">
<rect x="1130" y="550" clip-path="url(#clipPath1)" width="121" height="100" stroke="none"/>
<text x="1156" y="566" clip-path="url(#clipPath2)" fill="black" stroke="none" xml:space="preserve">«Stereotype»</text>
<text x="1160" y="583" clip-path="url(#clipPath3)" fill="black" stroke="none" xml:space="preserve">Continuous</text>
</g>
<g stroke-width="1.1" font-family="'Segoe UI'" stroke-linecap="butt">
<line clip-path="url(#clipPath4)" fill="none" x1="1130" x2="1251" y1="587" y2="587"/>
<line clip-path="url(#clipPath5)" fill="none" x1="1130" x2="1251" y1="619" y2="619"/>
<rect x="1130" y="550" clip-path="url(#clipPath6)" fill="none" width="120" rx="0" ry="0" height="99"/>
<rect x="10" y="310" clip-path="url(#clipPath7)" fill="url(#linearGradient2)" width="281" height="100" stroke="none"/>
<text xml:space="preserve" x="116" y="326" clip-path="url(#clipPath8)" stroke="none">«Stereotype»</text>
<text xml:space="preserve" x="107" y="343" clip-path="url(#clipPath9)" stroke="none">ControlOperator</text>
<line clip-path="url(#clipPath10)" fill="none" x1="10" x2="291" y1="347" y2="347"/>
<line clip-path="url(#clipPath11)" fill="none" x1="10" x2="291" y1="379" y2="379"/>
<rect x="10" y="310" clip-path="url(#clipPath12)" fill="none" width="280" rx="0" ry="0" height="99"/>
<rect x="1450" y="550" clip-path="url(#clipPath13)" fill="url(#linearGradient3)" width="119" height="100" stroke="none"/>
<text xml:space="preserve" x="1475" y="566" clip-path="url(#clipPath14)" stroke="none">«Stereotype»</text>
<text xml:space="preserve" x="1489" y="583" clip-path="url(#clipPath15)" stroke="none">Discrete</text>
<line clip-path="url(#clipPath16)" fill="none" x1="1450" x2="1569" y1="587" y2="587"/>
<line clip-path="url(#clipPath17)" fill="none" x1="1450" x2="1569" y1="619" y2="619"/>
<rect x="1450" y="550" clip-path="url(#clipPath18)" fill="none" width="118" rx="0" ry="0" height="99"/>
<rect x="330" y="310" clip-path="url(#clipPath19)" fill="url(#linearGradient4)" width="121" height="100" stroke="none"/>
<text xml:space="preserve" x="356" y="326" clip-path="url(#clipPath20)" stroke="none">«Stereotype»</text>
<text xml:space="preserve" x="367" y="343" clip-path="url(#clipPath21)" stroke="none">NoBuffer</text>
<line clip-path="url(#clipPath22)" fill="none" x1="330" x2="451" y1="347" y2="347"/>
<line clip-path="url(#clipPath23)" fill="none" x1="330" x2="451" y1="379" y2="379"/>
<rect x="330" y="310" clip-path="url(#clipPath24)" fill="none" width="120" rx="0" ry="0" height="99"/>
<rect x="490" y="310" clip-path="url(#clipPath25)" fill="url(#linearGradient5)" width="121" height="100" stroke="none"/>
<text xml:space="preserve" x="516" y="326" clip-path="url(#clipPath26)" stroke="none">«Stereotype»</text>
<text xml:space="preserve" x="528" y="343" clip-path="url(#clipPath27)" stroke="none">Optional</text>
<line clip-path="url(#clipPath28)" fill="none" x1="490" x2="611" y1="347" y2="347"/>
<line clip-path="url(#clipPath29)" fill="none" x1="490" x2="611" y1="379" y2="379"/>
<rect x="490" y="310" clip-path="url(#clipPath30)" fill="none" width="120" rx="0" ry="0" height="99"/>
<rect x="650" y="310" clip-path="url(#clipPath31)" fill="url(#linearGradient6)" width="121" height="100" stroke="none"/>
<text xml:space="preserve" x="676" y="326" clip-path="url(#clipPath32)" stroke="none">«Stereotype»</text>
<text xml:space="preserve" x="685" y="343" clip-path="url(#clipPath33)" stroke="none">Overwrite</text>
<line clip-path="url(#clipPath34)" fill="none" x1="650" x2="771" y1="347" y2="347"/>
<line clip-path="url(#clipPath35)" fill="none" x1="650" x2="771" y1="379" y2="379"/>
<rect x="650" y="310" clip-path="url(#clipPath36)" fill="none" width="120" rx="0" ry="0" height="99"/>
<rect x="810" y="310" clip-path="url(#clipPath37)" fill="url(#linearGradient7)" width="281" height="105" stroke="none"/>
<text xml:space="preserve" x="916" y="326" clip-path="url(#clipPath38)" stroke="none">«Stereotype»</text>
<text xml:space="preserve" x="923" y="343" clip-path="url(#clipPath39)" stroke="none">Probability</text>
<text xml:space="preserve" x="816" y="362" clip-path="url(#clipPath40)" stroke="none"> + probability: ValueSpecification [1]</text>
<line clip-path="url(#clipPath41)" fill="none" x1="810" x2="1091" y1="347" y2="347"/>
<line clip-path="url(#clipPath42)" fill="none" x1="810" x2="1091" y1="386" y2="386"/>
<rect x="810" y="310" clip-path="url(#clipPath43)" fill="none" width="280" rx="0" ry="0" height="104"/>
<rect x="1130" y="310" clip-path="url(#clipPath44)" fill="url(#linearGradient8)" width="441" height="105" stroke="none"/>
<text xml:space="preserve" x="1316" y="326" clip-path="url(#clipPath45)" stroke="none">«Stereotype»</text>
<text xml:space="preserve" x="1339" y="343" clip-path="url(#clipPath46)" stroke="none">Rate</text>
<text xml:space="preserve" x="1136" y="362" clip-path="url(#clipPath47)" stroke="none"> + rate: InstanceSpecification [1]</text>
<line clip-path="url(#clipPath48)" fill="none" x1="1130" x2="1571" y1="347" y2="347"/>
<line clip-path="url(#clipPath49)" fill="none" x1="1130" x2="1571" y1="386" y2="386"/>
<rect x="1130" y="310" clip-path="url(#clipPath50)" fill="none" width="440" rx="0" ry="0" height="104"/>
<rect x="10" y="10" clip-path="url(#clipPath51)" fill="url(#linearGradient9)" width="121" height="50" stroke="none"/>
<text x="39" y="32" clip-path="url(#clipPath52)" font-style="italic" stroke="none" xml:space="preserve">«Metaclass»</text>
<text x="47" y="49" clip-path="url(#clipPath53)" font-style="italic" stroke="none" xml:space="preserve">Behavior</text>
<rect x="10" y="10" clip-path="url(#clipPath54)" fill="none" width="120" rx="0" ry="0" height="49"/>
<rect x="170" y="10" clip-path="url(#clipPath55)" fill="url(#linearGradient10)" width="121" height="50" stroke="none"/>
<text xml:space="preserve" x="199" y="32" clip-path="url(#clipPath56)" stroke="none">«Metaclass»</text>
<text xml:space="preserve" x="204" y="49" clip-path="url(#clipPath57)" stroke="none">Operation</text>
<rect x="170" y="10" clip-path="url(#clipPath58)" fill="none" width="120" rx="0" ry="0" height="49"/>
<rect x="330" y="10" clip-path="url(#clipPath59)" fill="url(#linearGradient11)" width="121" height="50" stroke="none"/>
<text x="359" y="32" clip-path="url(#clipPath60)" font-style="italic" stroke="none" xml:space="preserve">«Metaclass»</text>
<text x="359" y="49" clip-path="url(#clipPath61)" font-style="italic" stroke="none" xml:space="preserve">ObjectNode</text>
<rect x="330" y="10" clip-path="url(#clipPath62)" fill="none" width="120" rx="0" ry="0" height="49"/>
<rect x="490" y="10" clip-path="url(#clipPath63)" fill="url(#linearGradient12)" width="121" height="50" stroke="none"/>
<text xml:space="preserve" x="519" y="32" clip-path="url(#clipPath64)" stroke="none">«Metaclass»</text>
<text xml:space="preserve" x="524" y="49" clip-path="url(#clipPath65)" stroke="none">Parameter</text>
<rect x="490" y="10" clip-path="url(#clipPath66)" fill="none" width="120" rx="0" ry="0" height="49"/>
<rect x="650" y="10" clip-path="url(#clipPath67)" fill="url(#linearGradient13)" width="121" height="50" stroke="none"/>
<text x="679" y="32" clip-path="url(#clipPath68)" font-style="italic" stroke="none" xml:space="preserve">«Metaclass»</text>
<text x="679" y="49" clip-path="url(#clipPath69)" font-style="italic" stroke="none" xml:space="preserve">ObjectNode</text>
<rect x="650" y="10" clip-path="url(#clipPath70)" fill="none" width="120" rx="0" ry="0" height="49"/>
<rect x="810" y="10" clip-path="url(#clipPath71)" fill="url(#linearGradient14)" width="121" height="50" stroke="none"/>
<text x="839" y="32" clip-path="url(#clipPath72)" font-style="italic" stroke="none" xml:space="preserve">«Metaclass»</text>
<text x="839" y="49" clip-path="url(#clipPath73)" font-style="italic" stroke="none" xml:space="preserve">ActivityEdge</text>
<rect x="810" y="10" clip-path="url(#clipPath74)" fill="none" width="120" rx="0" ry="0" height="49"/>
<rect x="970" y="10" clip-path="url(#clipPath75)" fill="url(#linearGradient15)" width="121" height="50" stroke="none"/>
<text xml:space="preserve" x="999" y="32" clip-path="url(#clipPath76)" stroke="none">«Metaclass»</text>
<text xml:space="preserve" x="996" y="49" clip-path="url(#clipPath77)" stroke="none">ParameterSet</text>
<rect x="970" y="10" clip-path="url(#clipPath78)" fill="none" width="120" rx="0" ry="0" height="49"/>
<rect x="1130" y="10" clip-path="url(#clipPath79)" fill="url(#linearGradient16)" width="121" height="50" stroke="none"/>
<text x="1159" y="32" clip-path="url(#clipPath80)" font-style="italic" stroke="none" xml:space="preserve">«Metaclass»</text>
<text x="1159" y="49" clip-path="url(#clipPath81)" font-style="italic" stroke="none" xml:space="preserve">ActivityEdge</text>
<rect x="1130" y="10" clip-path="url(#clipPath82)" fill="none" width="120" rx="0" ry="0" height="49"/>
<rect x="1290" y="10" clip-path="url(#clipPath83)" fill="url(#linearGradient17)" width="121" height="50" stroke="none"/>
<text x="1319" y="32" clip-path="url(#clipPath84)" font-style="italic" stroke="none" xml:space="preserve">«Metaclass»</text>
<text x="1319" y="49" clip-path="url(#clipPath85)" font-style="italic" stroke="none" xml:space="preserve">ObjectNode</text>
<rect x="1290" y="10" clip-path="url(#clipPath86)" fill="none" width="120" rx="0" ry="0" height="49"/>
<rect x="1450" y="10" clip-path="url(#clipPath87)" fill="url(#linearGradient18)" width="121" height="50" stroke="none"/>
<text xml:space="preserve" x="1479" y="32" clip-path="url(#clipPath88)" stroke="none">«Metaclass»</text>
<text xml:space="preserve" x="1484" y="49" clip-path="url(#clipPath89)" stroke="none">Parameter</text>
<rect x="1450" y="10" clip-path="url(#clipPath90)" fill="none" width="120" rx="0" ry="0" height="49"/>
<line clip-path="url(#clipPath91)" fill="none" text-rendering="optimizeLegibility" x1="150" x2="150" y1="310" y2="130"/>
<line clip-path="url(#clipPath91)" fill="none" text-rendering="optimizeLegibility" x1="150" x2="70" y1="130" y2="130"/>
<line clip-path="url(#clipPath91)" fill="none" text-rendering="optimizeLegibility" x1="70" x2="70" y1="130" y2="60"/>
<polygon text-rendering="optimizeLegibility" clip-path="url(#clipPath92)" points=" 70 60 75 75 65 75" stroke="none"/>
<polygon text-rendering="optimizeLegibility" fill="none" clip-path="url(#clipPath92)" points=" 70 60 75 75 65 75"/>
<line clip-path="url(#clipPath91)" fill="none" text-rendering="optimizeLegibility" x1="150" x2="150" y1="310" y2="130"/>
<line clip-path="url(#clipPath91)" fill="none" text-rendering="optimizeLegibility" x1="150" x2="230" y1="130" y2="130"/>
<line clip-path="url(#clipPath91)" fill="none" text-rendering="optimizeLegibility" x1="230" x2="230" y1="130" y2="60"/>
<polygon text-rendering="optimizeLegibility" clip-path="url(#clipPath93)" points=" 230 60 235 75 225 75" stroke="none"/>
<polygon text-rendering="optimizeLegibility" fill="none" clip-path="url(#clipPath93)" points=" 230 60 235 75 225 75"/>
<line clip-path="url(#clipPath91)" fill="none" text-rendering="optimizeLegibility" x1="390" x2="390" y1="310" y2="60"/>
<polygon text-rendering="optimizeLegibility" clip-path="url(#clipPath94)" points=" 390 60 395 75 385 75" stroke="none"/>
<polygon text-rendering="optimizeLegibility" fill="none" clip-path="url(#clipPath94)" points=" 390 60 395 75 385 75"/>
<line clip-path="url(#clipPath91)" fill="none" text-rendering="optimizeLegibility" x1="550" x2="550" y1="310" y2="60"/>
<polygon text-rendering="optimizeLegibility" clip-path="url(#clipPath95)" points=" 550 60 555 75 545 75" stroke="none"/>
<polygon text-rendering="optimizeLegibility" fill="none" clip-path="url(#clipPath95)" points=" 550 60 555 75 545 75"/>
<line clip-path="url(#clipPath91)" fill="none" text-rendering="optimizeLegibility" x1="710" x2="710" y1="310" y2="60"/>
<polygon text-rendering="optimizeLegibility" clip-path="url(#clipPath96)" points=" 710 60 715 75 705 75" stroke="none"/>
<polygon text-rendering="optimizeLegibility" fill="none" clip-path="url(#clipPath96)" points=" 710 60 715 75 705 75"/>
<line clip-path="url(#clipPath91)" fill="none" text-rendering="optimizeLegibility" x1="950" x2="950" y1="310" y2="130"/>
<line clip-path="url(#clipPath91)" fill="none" text-rendering="optimizeLegibility" x1="950" x2="870" y1="130" y2="130"/>
<line clip-path="url(#clipPath91)" fill="none" text-rendering="optimizeLegibility" x1="870" x2="870" y1="130" y2="60"/>
<polygon text-rendering="optimizeLegibility" clip-path="url(#clipPath97)" points=" 870 60 875 75 865 75" stroke="none"/>
<polygon text-rendering="optimizeLegibility" fill="none" clip-path="url(#clipPath97)" points=" 870 60 875 75 865 75"/>
<line clip-path="url(#clipPath91)" fill="none" text-rendering="optimizeLegibility" x1="950" x2="950" y1="310" y2="130"/>
<line clip-path="url(#clipPath91)" fill="none" text-rendering="optimizeLegibility" x1="950" x2="1030" y1="130" y2="130"/>
<line clip-path="url(#clipPath91)" fill="none" text-rendering="optimizeLegibility" x1="1030" x2="1030" y1="130" y2="60"/>
<polygon text-rendering="optimizeLegibility" clip-path="url(#clipPath98)" points=" 1030 60 1035 75 1025 75" stroke="none"/>
<polygon text-rendering="optimizeLegibility" fill="none" clip-path="url(#clipPath98)" points=" 1030 60 1035 75 1025 75"/>
<line clip-path="url(#clipPath91)" fill="none" text-rendering="optimizeLegibility" x1="1350" x2="1350" y1="310" y2="130"/>
<line clip-path="url(#clipPath91)" fill="none" text-rendering="optimizeLegibility" x1="1350" x2="1190" y1="130" y2="130"/>
<line clip-path="url(#clipPath91)" fill="none" text-rendering="optimizeLegibility" x1="1190" x2="1190" y1="130" y2="60"/>
<polygon text-rendering="optimizeLegibility" clip-path="url(#clipPath99)" points=" 1190 60 1195 75 1185 75" stroke="none"/>
<polygon text-rendering="optimizeLegibility" fill="none" clip-path="url(#clipPath99)" points=" 1190 60 1195 75 1185 75"/>
<line clip-path="url(#clipPath91)" fill="none" text-rendering="optimizeLegibility" x1="1350" x2="1350" y1="310" y2="60"/>
<polygon text-rendering="optimizeLegibility" clip-path="url(#clipPath100)" points=" 1350 60 1355 75 1345 75" stroke="none"/>
<polygon text-rendering="optimizeLegibility" fill="none" clip-path="url(#clipPath100)" points=" 1350 60 1355 75 1345 75"/>
<line clip-path="url(#clipPath91)" fill="none" text-rendering="optimizeLegibility" x1="1350" x2="1350" y1="310" y2="130"/>
<line clip-path="url(#clipPath91)" fill="none" text-rendering="optimizeLegibility" x1="1350" x2="1510" y1="130" y2="130"/>
<line clip-path="url(#clipPath91)" fill="none" text-rendering="optimizeLegibility" x1="1510" x2="1510" y1="130" y2="60"/>
<polygon text-rendering="optimizeLegibility" clip-path="url(#clipPath101)" points=" 1510 60 1515 75 1505 75" stroke="none"/>
<polygon text-rendering="optimizeLegibility" fill="none" clip-path="url(#clipPath101)" points=" 1510 60 1515 75 1505 75"/>
<line clip-path="url(#clipPath91)" fill="none" text-rendering="optimizeLegibility" x1="1190" x2="1190" y1="550" y2="470"/>
<line clip-path="url(#clipPath91)" fill="none" text-rendering="optimizeLegibility" x1="1190" x2="1350" y1="470" y2="470"/>
<line clip-path="url(#clipPath91)" fill="none" text-rendering="optimizeLegibility" x1="1350" x2="1350" y1="470" y2="415"/>
<polygon fill="white" text-rendering="optimizeLegibility" clip-path="url(#clipPath102)" points=" 1350 415 1358 425 1342 425" stroke="none"/>
<polygon text-rendering="optimizeLegibility" fill="none" clip-path="url(#clipPath102)" points=" 1350 415 1358 425 1342 425"/>
<line clip-path="url(#clipPath91)" fill="none" text-rendering="optimizeLegibility" x1="1510" x2="1510" y1="550" y2="470"/>
<line clip-path="url(#clipPath91)" fill="none" text-rendering="optimizeLegibility" x1="1510" x2="1350" y1="470" y2="470"/>
<line clip-path="url(#clipPath91)" fill="none" text-rendering="optimizeLegibility" x1="1350" x2="1350" y1="470" y2="415"/>
<polygon fill="white" text-rendering="optimizeLegibility" clip-path="url(#clipPath102)" points=" 1350 415 1358 425 1342 425" stroke="none"/>
<polygon text-rendering="optimizeLegibility" fill="none" clip-path="url(#clipPath102)" points=" 1350 415 1358 425 1342 425"/>
</g>
</g>
</svg>
