<?xml version="1.0" encoding="UTF-8"?><svg xmlns="http://www.w3.org/2000/svg" xmlns:xlink="http://www.w3.org/1999/xlink" stroke-dasharray="none" shape-rendering="auto" font-family="'Dialog'" width="1204" text-rendering="auto" fill-opacity="1" contentScriptType="text/ecmascript" color-interpolation="auto" color-rendering="auto" preserveAspectRatio="xMidYMid meet" font-size="12" viewBox="0 0 1204 241" fill="black" stroke="black" image-rendering="auto" stroke-miterlimit="10" zoomAndPan="magnify" version="1.0" stroke-linecap="square" stroke-linejoin="miter" contentStyleType="text/css" font-style="normal" height="241" stroke-width="1" stroke-dashoffset="0" font-weight="normal" stroke-opacity="1">
<!--Generated by the Batik Graphics2D SVG Generator-->
<defs id="genericDefs"/>
<g>
<defs id="defs1">
<linearGradient x1="230" x2="230" y1="110" gradientUnits="userSpaceOnUse" y2="231" xlink:type="simple" xlink:actuate="onLoad" id="linearGradient1" xlink:show="other" spreadMethod="pad">
<stop stop-opacity="1" stop-color="white" offset="0%"/>
<stop stop-opacity="1" stop-color="white" offset="100%"/>
</linearGradient>
<linearGradient x1="750" x2="750" y1="110" gradientUnits="userSpaceOnUse" y2="231" xlink:type="simple" xlink:actuate="onLoad" id="linearGradient2" xlink:show="other" spreadMethod="pad">
<stop stop-opacity="1" stop-color="white" offset="0%"/>
<stop stop-opacity="1" stop-color="white" offset="100%"/>
</linearGradient>
<linearGradient x1="750" x2="750" y1="10" gradientUnits="userSpaceOnUse" y2="60" xlink:type="simple" xlink:actuate="onLoad" id="linearGradient3" xlink:show="other" spreadMethod="pad">
<stop stop-opacity="1" stop-color="white" offset="0%"/>
<stop stop-opacity="1" stop-color="white" offset="100%"/>
</linearGradient>
<linearGradient x1="230" x2="230" y1="10" gradientUnits="userSpaceOnUse" y2="60" xlink:type="simple" xlink:actuate="onLoad" id="linearGradient4" xlink:show="other" spreadMethod="pad">
<stop stop-opacity="1" stop-color="white" offset="0%"/>
<stop stop-opacity="1" stop-color="white" offset="100%"/>
</linearGradient>
<linearGradient x1="10" x2="10" y1="10" gradientUnits="userSpaceOnUse" y2="110" xlink:type="simple" xlink:actuate="onLoad" id="linearGradient5" xlink:show="other" spreadMethod="pad">
<stop stop-opacity="1" stop-color="white" offset="0%"/>
<stop stop-opacity="1" stop-color="white" offset="100%"/>
</linearGradient>
<clipPath clipPathUnits="userSpaceOnUse" id="clipPath1">
<path d="M230 110 L230 230 L670 230 L670 110 Z"/>
</clipPath>
<clipPath clipPathUnits="userSpaceOnUse" id="clipPath2">
<path d="M415 112 L487 112 L487 130 L415 130 L415 112 Z"/>
</clipPath>
<clipPath clipPathUnits="userSpaceOnUse" id="clipPath3">
<path d="M429 129 L474 129 L474 147 L429 147 L429 129 Z"/>
</clipPath>
<clipPath clipPathUnits="userSpaceOnUse" id="clipPath4">
<path d="M230 146 L672 146 L672 175 L230 175 L230 146 Z"/>
</clipPath>
<clipPath clipPathUnits="userSpaceOnUse" id="clipPath5">
<path d="M235 176 L622 176 L622 194 L235 194 L235 176 Z"/>
</clipPath>
<clipPath clipPathUnits="userSpaceOnUse" id="clipPath6">
<path d="M235 192 L607 192 L607 210 L235 210 L235 192 Z"/>
</clipPath>
<clipPath clipPathUnits="userSpaceOnUse" id="clipPath7">
<path d="M230 174 L672 174 L672 232 L230 232 L230 174 Z"/>
</clipPath>
<clipPath clipPathUnits="userSpaceOnUse" id="clipPath8">
<path d="M229 109 L672 109 L672 232 L229 232 L229 109 Z"/>
</clipPath>
<clipPath clipPathUnits="userSpaceOnUse" id="clipPath9">
<path d="M750 110 L750 230 L1187 230 L1187 110 Z"/>
</clipPath>
<clipPath clipPathUnits="userSpaceOnUse" id="clipPath10">
<path d="M934 112 L1006 112 L1006 130 L934 130 L934 112 Z"/>
</clipPath>
<clipPath clipPathUnits="userSpaceOnUse" id="clipPath11">
<path d="M906 129 L1034 129 L1034 147 L906 147 L906 129 Z"/>
</clipPath>
<clipPath clipPathUnits="userSpaceOnUse" id="clipPath12">
<path d="M750 146 L1189 146 L1189 190 L750 190 L750 146 Z"/>
</clipPath>
<clipPath clipPathUnits="userSpaceOnUse" id="clipPath13">
<path d="M750 189 L1189 189 L1189 232 L750 232 L750 189 Z"/>
</clipPath>
<clipPath clipPathUnits="userSpaceOnUse" id="clipPath14">
<path d="M749 109 L1189 109 L1189 232 L749 232 L749 109 Z"/>
</clipPath>
<clipPath clipPathUnits="userSpaceOnUse" id="clipPath15">
<path d="M750 10 L750 59 L1193 59 L1193 10 Z"/>
</clipPath>
<clipPath clipPathUnits="userSpaceOnUse" id="clipPath16">
<path d="M939 18 L1006 18 L1006 36 L939 36 L939 18 Z"/>
</clipPath>
<clipPath clipPathUnits="userSpaceOnUse" id="clipPath17">
<path d="M930 35 L1015 35 L1015 53 L930 53 L930 35 Z"/>
</clipPath>
<clipPath clipPathUnits="userSpaceOnUse" id="clipPath18">
<path d="M749 9 L1195 9 L1195 61 L749 61 L749 9 Z"/>
</clipPath>
<clipPath clipPathUnits="userSpaceOnUse" id="clipPath19">
<path d="M230 10 L230 59 L670 59 L670 10 Z"/>
</clipPath>
<clipPath clipPathUnits="userSpaceOnUse" id="clipPath20">
<path d="M418 18 L485 18 L485 36 L418 36 L418 18 Z"/>
</clipPath>
<clipPath clipPathUnits="userSpaceOnUse" id="clipPath21">
<path d="M420 35 L482 35 L482 53 L420 53 L420 35 Z"/>
</clipPath>
<clipPath clipPathUnits="userSpaceOnUse" id="clipPath22">
<path d="M229 9 L672 9 L672 61 L229 61 L229 9 Z"/>
</clipPath>
<clipPath clipPathUnits="userSpaceOnUse" id="clipPath23">
<path d="M10 10 L10 109 L199 109 L199 10 Z"/>
</clipPath>
<clipPath clipPathUnits="userSpaceOnUse" id="clipPath24">
<path d="M70 12 L142 12 L142 30 L70 30 L70 12 Z"/>
</clipPath>
<clipPath clipPathUnits="userSpaceOnUse" id="clipPath25">
<path d="M16 29 L196 29 L196 47 L16 47 L16 29 Z"/>
</clipPath>
<clipPath clipPathUnits="userSpaceOnUse" id="clipPath26">
<path d="M10 46 L201 46 L201 79 L10 79 L10 46 Z"/>
</clipPath>
<clipPath clipPathUnits="userSpaceOnUse" id="clipPath27">
<path d="M10 78 L201 78 L201 111 L10 111 L10 78 Z"/>
</clipPath>
<clipPath clipPathUnits="userSpaceOnUse" id="clipPath28">
<path d="M9 9 L201 9 L201 111 L9 111 L9 9 Z"/>
</clipPath>
<clipPath clipPathUnits="userSpaceOnUse" id="clipPath29">
<path d="M-1 -1 L1205 -1 L1205 242 L-1 242 L-1 -1 Z"/>
</clipPath>
<clipPath clipPathUnits="userSpaceOnUse" id="clipPath30">
<path d="M964 59 L977 59 L977 77 L964 77 L964 59 Z"/>
</clipPath>
<clipPath clipPathUnits="userSpaceOnUse" id="clipPath31">
<path d="M444 59 L457 59 L457 77 L444 77 L444 59 Z"/>
</clipPath>
<clipPath clipPathUnits="userSpaceOnUse" id="clipPath32">
<path d="M99 109 L118 109 L118 122 L99 122 L99 109 Z"/>
</clipPath>
</defs>
<g fill="url(#linearGradient1)" font-family="'Segoe UI'" stroke-linejoin="round" stroke="url(#linearGradient1)" stroke-width="0" stroke-miterlimit="0">
<rect x="230" y="110" clip-path="url(#clipPath1)" width="441" height="121" stroke="none"/>
<text x="416" y="126" clip-path="url(#clipPath2)" fill="black" stroke="none" xml:space="preserve">«Stereotype»</text>
<text x="430" y="143" clip-path="url(#clipPath3)" fill="black" stroke="none" xml:space="preserve">Allocate</text>
</g>
<g stroke-width="1.1" font-family="'Segoe UI'" stroke-linecap="butt">
<line clip-path="url(#clipPath4)" fill="none" x1="230" x2="671" y1="147" y2="147"/>
<text xml:space="preserve" x="236" y="190" clip-path="url(#clipPath5)" stroke="none"> + getAllocatedFrom(  in ref: NamedElement,   in result: NamedElement)</text>
<line clip-path="url(#clipPath5)" fill="none" x1="236" x2="621" y1="191" y2="191" stroke-width="0.1"/>
<text x="236" y="206" clip-path="url(#clipPath6)" stroke="none" stroke-width="0.1" xml:space="preserve"> + getAllocatedTo(  in ref: NamedElement,   in result: NamedElement)</text>
<line clip-path="url(#clipPath6)" fill="none" x1="236" x2="606" y1="207" y2="207" stroke-width="0.1"/>
<line clip-path="url(#clipPath7)" fill="none" x1="230" x2="671" y1="175" y2="175"/>
<rect x="230" y="110" clip-path="url(#clipPath8)" fill="none" width="440" rx="0" ry="0" height="120"/>
<rect x="750" y="110" clip-path="url(#clipPath9)" fill="url(#linearGradient2)" width="438" height="121" stroke="none"/>
<text xml:space="preserve" x="935" y="126" clip-path="url(#clipPath10)" stroke="none">«Stereotype»</text>
<text xml:space="preserve" x="907" y="143" clip-path="url(#clipPath11)" stroke="none">AllocateActivityPartition</text>
<line clip-path="url(#clipPath12)" fill="none" x1="750" x2="1188" y1="147" y2="147"/>
<line clip-path="url(#clipPath13)" fill="none" x1="750" x2="1188" y1="190" y2="190"/>
<rect x="750" y="110" clip-path="url(#clipPath14)" fill="none" width="437" rx="0" ry="0" height="120"/>
<rect x="750" y="10" clip-path="url(#clipPath15)" fill="url(#linearGradient3)" width="444" height="50" stroke="none"/>
<text xml:space="preserve" x="940" y="32" clip-path="url(#clipPath16)" stroke="none">«Metaclass»</text>
<text xml:space="preserve" x="931" y="49" clip-path="url(#clipPath17)" stroke="none">ActivityPartition</text>
<rect x="750" y="10" clip-path="url(#clipPath18)" fill="none" width="443" rx="0" ry="0" height="49"/>
<rect x="230" y="10" clip-path="url(#clipPath19)" fill="url(#linearGradient4)" width="441" height="50" stroke="none"/>
<text xml:space="preserve" x="419" y="32" clip-path="url(#clipPath20)" stroke="none">«Metaclass»</text>
<text xml:space="preserve" x="421" y="49" clip-path="url(#clipPath21)" stroke="none">Abstraction</text>
<rect x="230" y="10" clip-path="url(#clipPath22)" fill="none" width="440" rx="0" ry="0" height="49"/>
<rect x="10" y="10" clip-path="url(#clipPath23)" fill="url(#linearGradient5)" width="190" height="100" stroke="none"/>
<text x="71" y="26" clip-path="url(#clipPath24)" font-style="italic" stroke="none" xml:space="preserve">«Stereotype»</text>
<text x="17" y="43" clip-path="url(#clipPath25)" font-style="italic" stroke="none" xml:space="preserve">DirectedRelationshipPropertyPath</text>
<line clip-path="url(#clipPath26)" fill="none" x1="10" x2="200" y1="47" y2="47"/>
<line clip-path="url(#clipPath27)" fill="none" x1="10" x2="200" y1="79" y2="79"/>
<rect x="10" y="10" clip-path="url(#clipPath28)" fill="none" width="189" rx="0" ry="0" height="99"/>
<line clip-path="url(#clipPath29)" fill="none" text-rendering="optimizeLegibility" x1="970" x2="970" y1="110" y2="60"/>
<polygon text-rendering="optimizeLegibility" clip-path="url(#clipPath30)" points=" 970 60 975 75 965 75" stroke="none"/>
<polygon text-rendering="optimizeLegibility" fill="none" clip-path="url(#clipPath30)" points=" 970 60 975 75 965 75"/>
<line clip-path="url(#clipPath29)" fill="none" text-rendering="optimizeLegibility" x1="450" x2="450" y1="110" y2="60"/>
<polygon text-rendering="optimizeLegibility" clip-path="url(#clipPath31)" points=" 450 60 455 75 445 75" stroke="none"/>
<polygon text-rendering="optimizeLegibility" fill="none" clip-path="url(#clipPath31)" points=" 450 60 455 75 445 75"/>
<line clip-path="url(#clipPath29)" fill="none" text-rendering="optimizeLegibility" x1="230" x2="110" y1="171" y2="171"/>
<line clip-path="url(#clipPath29)" fill="none" text-rendering="optimizeLegibility" x1="110" x2="110" y1="171" y2="170"/>
<line clip-path="url(#clipPath29)" fill="none" text-rendering="optimizeLegibility" x1="110" x2="108" y1="170" y2="170"/>
<line clip-path="url(#clipPath29)" fill="none" text-rendering="optimizeLegibility" x1="108" x2="108" y1="170" y2="110"/>
<polygon fill="white" text-rendering="optimizeLegibility" clip-path="url(#clipPath32)" points=" 108 110 116 120 100 120" stroke="none"/>
<polygon text-rendering="optimizeLegibility" fill="none" clip-path="url(#clipPath32)" points=" 108 110 116 120 100 120"/>
</g>
</g>
</svg>
