<?xml version="1.0" encoding="UTF-8"?><svg xmlns="http://www.w3.org/2000/svg" xmlns:xlink="http://www.w3.org/1999/xlink" stroke-dasharray="none" shape-rendering="auto" font-family="'Dialog'" width="1011" text-rendering="auto" fill-opacity="1" contentScriptType="text/ecmascript" color-interpolation="auto" color-rendering="auto" preserveAspectRatio="xMidYMid meet" font-size="12" viewBox="0 0 1011 526" fill="black" stroke="black" image-rendering="auto" stroke-miterlimit="10" zoomAndPan="magnify" version="1.0" stroke-linecap="square" stroke-linejoin="miter" contentStyleType="text/css" font-style="normal" height="526" stroke-width="1" stroke-dashoffset="0" font-weight="normal" stroke-opacity="1">
<!--Generated by the Batik Graphics2D SVG Generator-->
<defs id="genericDefs"/>
<g>
<defs id="defs1">
<linearGradient x1="10" x2="10" y1="10" gradientUnits="userSpaceOnUse" y2="516" xlink:type="simple" xlink:actuate="onLoad" id="linearGradient1" xlink:show="other" spreadMethod="pad">
<stop stop-opacity="1" stop-color="white" offset="0%"/>
<stop stop-opacity="1" stop-color="white" offset="100%"/>
</linearGradient>
<linearGradient x1="858" x2="858" y1="170" gradientUnits="userSpaceOnUse" y2="210" xlink:type="simple" xlink:actuate="onLoad" id="linearGradient2" xlink:show="other" spreadMethod="pad">
<stop stop-opacity="1" stop-color="white" offset="0%"/>
<stop stop-opacity="1" stop-color="white" offset="100%"/>
</linearGradient>
<linearGradient x1="860" x2="860" y1="280" gradientUnits="userSpaceOnUse" y2="320" xlink:type="simple" xlink:actuate="onLoad" id="linearGradient3" xlink:show="other" spreadMethod="pad">
<stop stop-opacity="1" stop-color="white" offset="0%"/>
<stop stop-opacity="1" stop-color="white" offset="100%"/>
</linearGradient>
<linearGradient x1="260" x2="260" y1="170" gradientUnits="userSpaceOnUse" y2="376" xlink:type="simple" xlink:actuate="onLoad" id="linearGradient4" xlink:show="other" spreadMethod="pad">
<stop stop-opacity="1" stop-color="white" offset="0%"/>
<stop stop-opacity="1" stop-color="white" offset="100%"/>
</linearGradient>
<linearGradient x1="27" x2="27" y1="202" gradientUnits="userSpaceOnUse" y2="242" xlink:type="simple" xlink:actuate="onLoad" id="linearGradient5" xlink:show="other" spreadMethod="pad">
<stop stop-opacity="1" stop-color="white" offset="0%"/>
<stop stop-opacity="1" stop-color="white" offset="100%"/>
</linearGradient>
<linearGradient x1="27" x2="27" y1="265" gradientUnits="userSpaceOnUse" y2="305" xlink:type="simple" xlink:actuate="onLoad" id="linearGradient6" xlink:show="other" spreadMethod="pad">
<stop stop-opacity="1" stop-color="white" offset="0%"/>
<stop stop-opacity="1" stop-color="white" offset="100%"/>
</linearGradient>
<linearGradient x1="858" x2="858" y1="336" gradientUnits="userSpaceOnUse" y2="376" xlink:type="simple" xlink:actuate="onLoad" id="linearGradient7" xlink:show="other" spreadMethod="pad">
<stop stop-opacity="1" stop-color="white" offset="0%"/>
<stop stop-opacity="1" stop-color="white" offset="100%"/>
</linearGradient>
<linearGradient x1="858" x2="858" y1="225" gradientUnits="userSpaceOnUse" y2="265" xlink:type="simple" xlink:actuate="onLoad" id="linearGradient8" xlink:show="other" spreadMethod="pad">
<stop stop-opacity="1" stop-color="white" offset="0%"/>
<stop stop-opacity="1" stop-color="white" offset="100%"/>
</linearGradient>
<linearGradient x1="260" x2="260" y1="450" gradientUnits="userSpaceOnUse" y2="490" xlink:type="simple" xlink:actuate="onLoad" id="linearGradient9" xlink:show="other" spreadMethod="pad">
<stop stop-opacity="1" stop-color="white" offset="0%"/>
<stop stop-opacity="1" stop-color="white" offset="100%"/>
</linearGradient>
<linearGradient x1="611" x2="611" y1="450" gradientUnits="userSpaceOnUse" y2="490" xlink:type="simple" xlink:actuate="onLoad" id="linearGradient10" xlink:show="other" spreadMethod="pad">
<stop stop-opacity="1" stop-color="white" offset="0%"/>
<stop stop-opacity="1" stop-color="white" offset="100%"/>
</linearGradient>
<linearGradient x1="435" x2="435" y1="450" gradientUnits="userSpaceOnUse" y2="490" xlink:type="simple" xlink:actuate="onLoad" id="linearGradient11" xlink:show="other" spreadMethod="pad">
<stop stop-opacity="1" stop-color="white" offset="0%"/>
<stop stop-opacity="1" stop-color="white" offset="100%"/>
</linearGradient>
<linearGradient x1="260" x2="260" y1="65" gradientUnits="userSpaceOnUse" y2="105" xlink:type="simple" xlink:actuate="onLoad" id="linearGradient12" xlink:show="other" spreadMethod="pad">
<stop stop-opacity="1" stop-color="white" offset="0%"/>
<stop stop-opacity="1" stop-color="white" offset="100%"/>
</linearGradient>
<linearGradient x1="427" x2="427" y1="65" gradientUnits="userSpaceOnUse" y2="105" xlink:type="simple" xlink:actuate="onLoad" id="linearGradient13" xlink:show="other" spreadMethod="pad">
<stop stop-opacity="1" stop-color="white" offset="0%"/>
<stop stop-opacity="1" stop-color="white" offset="100%"/>
</linearGradient>
<linearGradient x1="610" x2="610" y1="65" gradientUnits="userSpaceOnUse" y2="105" xlink:type="simple" xlink:actuate="onLoad" id="linearGradient14" xlink:show="other" spreadMethod="pad">
<stop stop-opacity="1" stop-color="white" offset="0%"/>
<stop stop-opacity="1" stop-color="white" offset="100%"/>
</linearGradient>
<clipPath clipPathUnits="userSpaceOnUse" id="clipPath1">
<path d="M10 10 L10 515 L1000 515 L1000 10 Z"/>
</clipPath>
<clipPath clipPathUnits="userSpaceOnUse" id="clipPath2">
<path d="M485 12 L528 12 L528 30 L485 30 L485 12 Z"/>
</clipPath>
<clipPath clipPathUnits="userSpaceOnUse" id="clipPath3">
<path d="M420 29 L592 29 L592 47 L420 47 L420 29 Z"/>
</clipPath>
<clipPath clipPathUnits="userSpaceOnUse" id="clipPath4">
<path d="M858 170 L858 209 L981 209 L981 170 Z"/>
</clipPath>
<clipPath clipPathUnits="userSpaceOnUse" id="clipPath5">
<path d="M874 181 L967 181 L967 199 L874 199 L874 181 Z"/>
</clipPath>
<clipPath clipPathUnits="userSpaceOnUse" id="clipPath6">
<path d="M857 169 L983 169 L983 211 L857 211 L857 169 Z"/>
</clipPath>
<clipPath clipPathUnits="userSpaceOnUse" id="clipPath7">
<path d="M860 280 L860 319 L983 319 L983 280 Z"/>
</clipPath>
<clipPath clipPathUnits="userSpaceOnUse" id="clipPath8">
<path d="M870 291 L976 291 L976 309 L870 309 L870 291 Z"/>
</clipPath>
<clipPath clipPathUnits="userSpaceOnUse" id="clipPath9">
<path d="M859 279 L985 279 L985 321 L859 321 L859 279 Z"/>
</clipPath>
<clipPath clipPathUnits="userSpaceOnUse" id="clipPath10">
<path d="M260 170 L260 375 L733 375 L733 170 Z"/>
</clipPath>
<clipPath clipPathUnits="userSpaceOnUse" id="clipPath11">
<path d="M432 264 L563 264 L563 282 L432 282 L432 264 Z"/>
</clipPath>
<clipPath clipPathUnits="userSpaceOnUse" id="clipPath12">
<path d="M259 169 L735 169 L735 377 L259 377 L259 169 Z"/>
</clipPath>
<clipPath clipPathUnits="userSpaceOnUse" id="clipPath13">
<path d="M27 202 L27 241 L136 241 L136 202 Z"/>
</clipPath>
<clipPath clipPathUnits="userSpaceOnUse" id="clipPath14">
<path d="M43 213 L122 213 L122 231 L43 231 L43 213 Z"/>
</clipPath>
<clipPath clipPathUnits="userSpaceOnUse" id="clipPath15">
<path d="M26 201 L138 201 L138 243 L26 243 L26 201 Z"/>
</clipPath>
<clipPath clipPathUnits="userSpaceOnUse" id="clipPath16">
<path d="M27 265 L27 304 L136 304 L136 265 Z"/>
</clipPath>
<clipPath clipPathUnits="userSpaceOnUse" id="clipPath17">
<path d="M33 276 L133 276 L133 294 L33 294 L33 276 Z"/>
</clipPath>
<clipPath clipPathUnits="userSpaceOnUse" id="clipPath18">
<path d="M26 264 L138 264 L138 306 L26 306 L26 264 Z"/>
</clipPath>
<clipPath clipPathUnits="userSpaceOnUse" id="clipPath19">
<path d="M858 336 L858 375 L981 375 L981 336 Z"/>
</clipPath>
<clipPath clipPathUnits="userSpaceOnUse" id="clipPath20">
<path d="M864 347 L978 347 L978 365 L864 365 L864 347 Z"/>
</clipPath>
<clipPath clipPathUnits="userSpaceOnUse" id="clipPath21">
<path d="M857 335 L983 335 L983 377 L857 377 L857 335 Z"/>
</clipPath>
<clipPath clipPathUnits="userSpaceOnUse" id="clipPath22">
<path d="M858 225 L858 264 L981 264 L981 225 Z"/>
</clipPath>
<clipPath clipPathUnits="userSpaceOnUse" id="clipPath23">
<path d="M867 236 L974 236 L974 254 L867 254 L867 236 Z"/>
</clipPath>
<clipPath clipPathUnits="userSpaceOnUse" id="clipPath24">
<path d="M857 224 L983 224 L983 266 L857 266 L857 224 Z"/>
</clipPath>
<clipPath clipPathUnits="userSpaceOnUse" id="clipPath25">
<path d="M260 450 L260 489 L382 489 L382 450 Z"/>
</clipPath>
<clipPath clipPathUnits="userSpaceOnUse" id="clipPath26">
<path d="M266 461 L379 461 L379 479 L266 479 L266 461 Z"/>
</clipPath>
<clipPath clipPathUnits="userSpaceOnUse" id="clipPath27">
<path d="M259 449 L384 449 L384 491 L259 491 L259 449 Z"/>
</clipPath>
<clipPath clipPathUnits="userSpaceOnUse" id="clipPath28">
<path d="M611 450 L611 489 L733 489 L733 450 Z"/>
</clipPath>
<clipPath clipPathUnits="userSpaceOnUse" id="clipPath29">
<path d="M638 461 L709 461 L709 479 L638 479 L638 461 Z"/>
</clipPath>
<clipPath clipPathUnits="userSpaceOnUse" id="clipPath30">
<path d="M610 449 L735 449 L735 491 L610 491 L610 449 Z"/>
</clipPath>
<clipPath clipPathUnits="userSpaceOnUse" id="clipPath31">
<path d="M435 450 L435 489 L557 489 L557 450 Z"/>
</clipPath>
<clipPath clipPathUnits="userSpaceOnUse" id="clipPath32">
<path d="M442 461 L552 461 L552 479 L442 479 L442 461 Z"/>
</clipPath>
<clipPath clipPathUnits="userSpaceOnUse" id="clipPath33">
<path d="M434 449 L559 449 L559 491 L434 491 L434 449 Z"/>
</clipPath>
<clipPath clipPathUnits="userSpaceOnUse" id="clipPath34">
<path d="M260 65 L260 104 L410 104 L410 65 Z"/>
</clipPath>
<clipPath clipPathUnits="userSpaceOnUse" id="clipPath35">
<path d="M266 76 L407 76 L407 94 L266 94 L266 76 Z"/>
</clipPath>
<clipPath clipPathUnits="userSpaceOnUse" id="clipPath36">
<path d="M259 64 L412 64 L412 106 L259 106 L259 64 Z"/>
</clipPath>
<clipPath clipPathUnits="userSpaceOnUse" id="clipPath37">
<path d="M427 65 L427 104 L592 104 L592 65 Z"/>
</clipPath>
<clipPath clipPathUnits="userSpaceOnUse" id="clipPath38">
<path d="M433 76 L589 76 L589 94 L433 94 L433 76 Z"/>
</clipPath>
<clipPath clipPathUnits="userSpaceOnUse" id="clipPath39">
<path d="M426 64 L594 64 L594 106 L426 106 L426 64 Z"/>
</clipPath>
<clipPath clipPathUnits="userSpaceOnUse" id="clipPath40">
<path d="M610 65 L610 104 L733 104 L733 65 Z"/>
</clipPath>
<clipPath clipPathUnits="userSpaceOnUse" id="clipPath41">
<path d="M616 76 L730 76 L730 94 L616 94 L616 76 Z"/>
</clipPath>
<clipPath clipPathUnits="userSpaceOnUse" id="clipPath42">
<path d="M609 64 L735 64 L735 106 L609 106 L609 64 Z"/>
</clipPath>
<clipPath clipPathUnits="userSpaceOnUse" id="clipPath43">
<path d="M10 46 L1002 46 L1002 517 L10 517 L10 46 Z"/>
</clipPath>
<clipPath clipPathUnits="userSpaceOnUse" id="clipPath44">
<path d="M9 9 L1002 9 L1002 517 L9 517 L9 9 Z"/>
</clipPath>
<clipPath clipPathUnits="userSpaceOnUse" id="clipPath45">
<path d="M-1 -1 L1012 -1 L1012 527 L-1 527 L-1 -1 Z"/>
</clipPath>
</defs>
<g fill="url(#linearGradient1)" font-family="'Segoe UI'" stroke-linejoin="round" stroke="url(#linearGradient1)" stroke-width="0" stroke-miterlimit="0">
<rect x="10" y="10" clip-path="url(#clipPath1)" width="991" height="506" stroke="none"/>
<text x="486" y="26" clip-path="url(#clipPath2)" fill="black" stroke="none" xml:space="preserve">«Block»</text>
<text x="421" y="43" clip-path="url(#clipPath3)" fill="black" stroke="none" xml:space="preserve">SmartHomeSystemEnvironment</text>
<rect x="858" y="170" clip-path="url(#clipPath4)" fill="url(#linearGradient2)" width="124" height="40" stroke="none"/>
<text x="875" y="195" clip-path="url(#clipPath5)" fill="black" stroke="none" xml:space="preserve"> : Inhabitant [1..*]</text>
</g>
<g stroke-width="1.1" font-family="'Segoe UI'" stroke-linecap="butt">
<rect x="858" y="170" clip-path="url(#clipPath6)" fill="none" width="123" rx="0" ry="0" height="39"/>
<rect x="860" y="280" clip-path="url(#clipPath7)" fill="url(#linearGradient3)" width="124" height="40" stroke="none"/>
<text xml:space="preserve" x="871" y="305" clip-path="url(#clipPath8)" stroke="none"> : MedicalPeople [*]</text>
<rect x="860" y="280" clip-path="url(#clipPath9)" fill="none" width="123" rx="0" ry="0" height="39"/>
<rect x="260" y="170" clip-path="url(#clipPath10)" fill="url(#linearGradient4)" width="474" height="206" stroke="none"/>
<text xml:space="preserve" x="433" y="278" clip-path="url(#clipPath11)" stroke="none"> : SmartHomeSystem [1]</text>
<rect x="260" y="170" clip-path="url(#clipPath12)" fill="none" width="473" rx="0" ry="0" height="205"/>
<rect x="27" y="202" clip-path="url(#clipPath13)" fill="url(#linearGradient5)" width="110" height="40" stroke="none"/>
<text xml:space="preserve" x="44" y="227" clip-path="url(#clipPath14)" stroke="none"> : Pharmacy [*]</text>
<rect x="27" y="202" clip-path="url(#clipPath15)" fill="none" width="109" rx="0" ry="0" height="39"/>
<rect x="27" y="265" clip-path="url(#clipPath16)" fill="url(#linearGradient6)" width="110" height="40" stroke="none"/>
<text xml:space="preserve" x="34" y="290" clip-path="url(#clipPath17)" stroke="none"> : SensorDevice [*]</text>
<rect x="27" y="265" clip-path="url(#clipPath18)" fill="none" width="109" rx="0" ry="0" height="39"/>
<rect x="858" y="336" clip-path="url(#clipPath19)" fill="url(#linearGradient7)" width="124" height="40" stroke="none"/>
<text xml:space="preserve" x="865" y="361" clip-path="url(#clipPath20)" stroke="none"> : ActuactorDevice [*]</text>
<rect x="858" y="336" clip-path="url(#clipPath21)" fill="none" width="123" rx="0" ry="0" height="39"/>
<rect x="858" y="225" clip-path="url(#clipPath22)" fill="url(#linearGradient8)" width="124" height="40" stroke="none"/>
<text xml:space="preserve" x="868" y="250" clip-path="url(#clipPath23)" stroke="none"> : PoliceStation [1..*]</text>
<rect x="858" y="225" clip-path="url(#clipPath24)" fill="none" width="123" rx="0" ry="0" height="39"/>
<rect x="260" y="450" clip-path="url(#clipPath25)" fill="url(#linearGradient9)" width="123" height="40" stroke="none"/>
<text xml:space="preserve" x="267" y="475" clip-path="url(#clipPath26)" stroke="none"> : ProjectManager [1]</text>
<rect x="260" y="450" clip-path="url(#clipPath27)" fill="none" width="122" rx="0" ry="0" height="39"/>
<rect x="611" y="450" clip-path="url(#clipPath28)" fill="url(#linearGradient10)" width="123" height="40" stroke="none"/>
<text xml:space="preserve" x="639" y="475" clip-path="url(#clipPath29)" stroke="none"> : Internet [1]</text>
<rect x="611" y="450" clip-path="url(#clipPath30)" fill="none" width="122" rx="0" ry="0" height="39"/>
<rect x="435" y="450" clip-path="url(#clipPath31)" fill="url(#linearGradient11)" width="123" height="40" stroke="none"/>
<text xml:space="preserve" x="443" y="475" clip-path="url(#clipPath32)" stroke="none"> : EnergyProvider [1]</text>
<rect x="435" y="450" clip-path="url(#clipPath33)" fill="none" width="122" rx="0" ry="0" height="39"/>
<rect x="260" y="65" clip-path="url(#clipPath34)" fill="url(#linearGradient12)" width="151" height="40" stroke="none"/>
<text xml:space="preserve" x="267" y="90" clip-path="url(#clipPath35)" stroke="none"> : InsuranceCompany [1..*]</text>
<rect x="260" y="65" clip-path="url(#clipPath36)" fill="none" width="150" rx="0" ry="0" height="39"/>
<rect x="427" y="65" clip-path="url(#clipPath37)" fill="url(#linearGradient13)" width="166" height="40" stroke="none"/>
<text xml:space="preserve" x="434" y="90" clip-path="url(#clipPath38)" stroke="none"> : EnvironmentalAuthority [1]</text>
<rect x="427" y="65" clip-path="url(#clipPath39)" fill="none" width="165" rx="0" ry="0" height="39"/>
<rect x="610" y="65" clip-path="url(#clipPath40)" fill="url(#linearGradient14)" width="124" height="40" stroke="none"/>
<text xml:space="preserve" x="617" y="90" clip-path="url(#clipPath41)" stroke="none"> : HealthAuthority [1]</text>
<rect x="610" y="65" clip-path="url(#clipPath42)" fill="none" width="123" rx="0" ry="0" height="39"/>
<line clip-path="url(#clipPath43)" fill="none" x1="10" x2="1001" y1="47" y2="47"/>
<rect x="10" y="10" clip-path="url(#clipPath44)" fill="none" width="990" rx="0" ry="0" height="505"/>
<line clip-path="url(#clipPath45)" fill="none" text-rendering="optimizeLegibility" x1="859" x2="732" y1="300" y2="300"/>
<line clip-path="url(#clipPath45)" fill="none" text-rendering="optimizeLegibility" x1="505" x2="505" y1="104" y2="170"/>
<line clip-path="url(#clipPath45)" fill="none" text-rendering="optimizeLegibility" x1="495" x2="495" y1="450" y2="375"/>
<line clip-path="url(#clipPath45)" fill="none" text-rendering="optimizeLegibility" x1="670" x2="670" y1="450" y2="375"/>
<line clip-path="url(#clipPath45)" fill="none" text-rendering="optimizeLegibility" x1="670" x2="670" y1="104" y2="170"/>
<line clip-path="url(#clipPath45)" fill="none" text-rendering="optimizeLegibility" x1="335" x2="335" y1="104" y2="170"/>
<line clip-path="url(#clipPath45)" fill="none" text-rendering="optimizeLegibility" x1="320" x2="320" y1="450" y2="375"/>
<line clip-path="url(#clipPath45)" fill="none" text-rendering="optimizeLegibility" x1="858" x2="732" y1="355" y2="355"/>
<line clip-path="url(#clipPath45)" fill="none" text-rendering="optimizeLegibility" x1="858" x2="732" y1="245" y2="245"/>
<line clip-path="url(#clipPath45)" fill="none" text-rendering="optimizeLegibility" x1="135" x2="259" y1="225" y2="225"/>
<line clip-path="url(#clipPath45)" fill="none" text-rendering="optimizeLegibility" x1="135" x2="259" y1="285" y2="285"/>
<line clip-path="url(#clipPath45)" fill="none" text-rendering="optimizeLegibility" x1="858" x2="732" y1="190" y2="190"/>
<line clip-path="url(#clipPath45)" fill="none" text-rendering="optimizeLegibility" x1="858" x2="732" y1="190" y2="190"/>
<line clip-path="url(#clipPath45)" fill="none" text-rendering="optimizeLegibility" x1="858" x2="732" y1="245" y2="245"/>
<line clip-path="url(#clipPath45)" fill="none" text-rendering="optimizeLegibility" x1="859" x2="732" y1="300" y2="300"/>
<line clip-path="url(#clipPath45)" fill="none" text-rendering="optimizeLegibility" x1="858" x2="732" y1="355" y2="355"/>
<line clip-path="url(#clipPath45)" fill="none" text-rendering="optimizeLegibility" x1="670" x2="670" y1="450" y2="375"/>
<line clip-path="url(#clipPath45)" fill="none" text-rendering="optimizeLegibility" x1="495" x2="495" y1="450" y2="375"/>
<line clip-path="url(#clipPath45)" fill="none" text-rendering="optimizeLegibility" x1="320" x2="320" y1="450" y2="375"/>
<line clip-path="url(#clipPath45)" fill="none" text-rendering="optimizeLegibility" x1="670" x2="670" y1="104" y2="170"/>
<line clip-path="url(#clipPath45)" fill="none" text-rendering="optimizeLegibility" x1="505" x2="505" y1="104" y2="170"/>
<line clip-path="url(#clipPath45)" fill="none" text-rendering="optimizeLegibility" x1="335" x2="335" y1="104" y2="170"/>
<line clip-path="url(#clipPath45)" fill="none" text-rendering="optimizeLegibility" x1="135" x2="259" y1="225" y2="225"/>
<line clip-path="url(#clipPath45)" fill="none" text-rendering="optimizeLegibility" x1="135" x2="259" y1="285" y2="285"/>
</g>
</g>
</svg>
