<?xml version="1.0" encoding="UTF-8"?><svg xmlns="http://www.w3.org/2000/svg" xmlns:xlink="http://www.w3.org/1999/xlink" stroke-dasharray="none" shape-rendering="auto" font-family="'Dialog'" width="360" text-rendering="auto" fill-opacity="1" contentScriptType="text/ecmascript" color-interpolation="auto" color-rendering="auto" preserveAspectRatio="xMidYMid meet" font-size="12" viewBox="0 0 360 285" fill="black" stroke="black" image-rendering="auto" stroke-miterlimit="10" zoomAndPan="magnify" version="1.0" stroke-linecap="square" stroke-linejoin="miter" contentStyleType="text/css" font-style="normal" height="285" stroke-width="1" stroke-dashoffset="0" font-weight="normal" stroke-opacity="1">
<!--Generated by the Batik Graphics2D SVG Generator-->
<defs id="genericDefs"/>
<g>
<defs id="defs1">
<linearGradient x1="10" x2="10" y1="170" gradientUnits="userSpaceOnUse" y2="275" xlink:type="simple" xlink:actuate="onLoad" id="linearGradient1" xlink:show="other" spreadMethod="pad">
<stop stop-opacity="1" stop-color="white" offset="0%"/>
<stop stop-opacity="1" stop-color="white" offset="100%"/>
</linearGradient>
<linearGradient x1="11" x2="11" y1="13" gradientUnits="userSpaceOnUse" y2="71" xlink:type="simple" xlink:actuate="onLoad" id="linearGradient2" xlink:show="other" spreadMethod="pad">
<stop stop-opacity="1" stop-color="white" offset="0%"/>
<stop stop-opacity="1" stop-color="white" offset="100%"/>
</linearGradient>
<linearGradient x1="250" x2="250" y1="10" gradientUnits="userSpaceOnUse" y2="110" xlink:type="simple" xlink:actuate="onLoad" id="linearGradient3" xlink:show="other" spreadMethod="pad">
<stop stop-opacity="1" stop-color="white" offset="0%"/>
<stop stop-opacity="1" stop-color="white" offset="100%"/>
</linearGradient>
<clipPath clipPathUnits="userSpaceOnUse" id="clipPath1">
<path d="M10 170 L10 274 L210 274 L210 170 Z"/>
</clipPath>
<clipPath clipPathUnits="userSpaceOnUse" id="clipPath2">
<path d="M75 172 L147 172 L147 190 L75 190 L75 172 Z"/>
</clipPath>
<clipPath clipPathUnits="userSpaceOnUse" id="clipPath3">
<path d="M69 189 L154 189 L154 207 L69 207 L69 189 Z"/>
</clipPath>
<clipPath clipPathUnits="userSpaceOnUse" id="clipPath4">
<path d="M10 206 L212 206 L212 237 L10 237 L10 206 Z"/>
</clipPath>
<clipPath clipPathUnits="userSpaceOnUse" id="clipPath5">
<path d="M15 238 L166 238 L166 256 L15 256 L15 238 Z"/>
</clipPath>
<clipPath clipPathUnits="userSpaceOnUse" id="clipPath6">
<path d="M10 236 L212 236 L212 276 L10 276 L10 236 Z"/>
</clipPath>
<clipPath clipPathUnits="userSpaceOnUse" id="clipPath7">
<path d="M9 169 L212 169 L212 276 L9 276 L9 169 Z"/>
</clipPath>
<clipPath clipPathUnits="userSpaceOnUse" id="clipPath8">
<path d="M11 13 L11 70 L131 70 L131 13 Z"/>
</clipPath>
<clipPath clipPathUnits="userSpaceOnUse" id="clipPath9">
<path d="M39 25 L106 25 L106 43 L39 43 L39 25 Z"/>
</clipPath>
<clipPath clipPathUnits="userSpaceOnUse" id="clipPath10">
<path d="M58 42 L87 42 L87 60 L58 60 L58 42 Z"/>
</clipPath>
<clipPath clipPathUnits="userSpaceOnUse" id="clipPath11">
<path d="M10 12 L133 12 L133 72 L10 72 L10 12 Z"/>
</clipPath>
<clipPath clipPathUnits="userSpaceOnUse" id="clipPath12">
<path d="M250 10 L250 109 L349 109 L349 10 Z"/>
</clipPath>
<clipPath clipPathUnits="userSpaceOnUse" id="clipPath13">
<path d="M265 12 L337 12 L337 30 L265 30 L265 12 Z"/>
</clipPath>
<clipPath clipPathUnits="userSpaceOnUse" id="clipPath14">
<path d="M285 29 L316 29 L316 47 L285 47 L285 29 Z"/>
</clipPath>
<clipPath clipPathUnits="userSpaceOnUse" id="clipPath15">
<path d="M250 46 L351 46 L351 79 L250 79 L250 46 Z"/>
</clipPath>
<clipPath clipPathUnits="userSpaceOnUse" id="clipPath16">
<path d="M250 78 L351 78 L351 111 L250 111 L250 78 Z"/>
</clipPath>
<clipPath clipPathUnits="userSpaceOnUse" id="clipPath17">
<path d="M249 9 L351 9 L351 111 L249 111 L249 9 Z"/>
</clipPath>
<clipPath clipPathUnits="userSpaceOnUse" id="clipPath18">
<path d="M-1 -1 L361 -1 L361 286 L-1 286 L-1 -1 Z"/>
</clipPath>
<clipPath clipPathUnits="userSpaceOnUse" id="clipPath19">
<path d="M64 70 L77 70 L77 88 L64 88 L64 70 Z"/>
</clipPath>
<clipPath clipPathUnits="userSpaceOnUse" id="clipPath20">
<path d="M281 109 L300 109 L300 122 L281 122 L281 109 Z"/>
</clipPath>
</defs>
<g fill="url(#linearGradient1)" font-family="'Segoe UI'" stroke-linejoin="round" stroke="url(#linearGradient1)" stroke-width="0" stroke-miterlimit="0">
<rect x="10" y="170" clip-path="url(#clipPath1)" width="201" height="105" stroke="none"/>
<text x="76" y="186" clip-path="url(#clipPath2)" fill="black" stroke="none" xml:space="preserve">«Stereotype»</text>
<text x="70" y="203" clip-path="url(#clipPath3)" fill="black" stroke="none" xml:space="preserve">ConstraintBlock</text>
</g>
<g stroke-width="1.1" font-family="'Segoe UI'" stroke-linecap="butt">
<line clip-path="url(#clipPath4)" fill="none" x1="10" x2="211" y1="207" y2="207"/>
<text xml:space="preserve" x="16" y="252" clip-path="url(#clipPath5)" stroke="none"> + getParameters(): Property</text>
<line clip-path="url(#clipPath6)" fill="none" x1="10" x2="211" y1="237" y2="237"/>
<rect x="10" y="170" clip-path="url(#clipPath7)" fill="none" width="200" rx="0" ry="0" height="104"/>
<rect x="11" y="13" clip-path="url(#clipPath8)" fill="url(#linearGradient2)" width="121" height="58" stroke="none"/>
<text xml:space="preserve" x="40" y="39" clip-path="url(#clipPath9)" stroke="none">«Metaclass»</text>
<text xml:space="preserve" x="59" y="56" clip-path="url(#clipPath10)" stroke="none">Class</text>
<rect x="11" y="13" clip-path="url(#clipPath11)" fill="none" width="120" rx="0" ry="0" height="57"/>
<rect x="250" y="10" clip-path="url(#clipPath12)" fill="url(#linearGradient3)" width="100" height="100" stroke="none"/>
<text xml:space="preserve" x="266" y="26" clip-path="url(#clipPath13)" stroke="none">«Stereotype»</text>
<text xml:space="preserve" x="286" y="43" clip-path="url(#clipPath14)" stroke="none">Block</text>
<line clip-path="url(#clipPath15)" fill="none" x1="250" x2="350" y1="47" y2="47"/>
<line clip-path="url(#clipPath16)" fill="none" x1="250" x2="350" y1="79" y2="79"/>
<rect x="250" y="10" clip-path="url(#clipPath17)" fill="none" width="99" rx="0" ry="0" height="99"/>
<line clip-path="url(#clipPath18)" fill="none" text-rendering="optimizeLegibility" x1="70" x2="70" y1="170" y2="71"/>
<polygon text-rendering="optimizeLegibility" clip-path="url(#clipPath19)" points=" 70 71 75 86 65 86" stroke="none"/>
<polygon text-rendering="optimizeLegibility" fill="none" clip-path="url(#clipPath19)" points=" 70 71 75 86 65 86"/>
<line clip-path="url(#clipPath18)" fill="none" text-rendering="optimizeLegibility" x1="211" x2="290" y1="210" y2="210"/>
<line clip-path="url(#clipPath18)" fill="none" text-rendering="optimizeLegibility" x1="290" x2="290" y1="210" y2="110"/>
<polygon fill="white" text-rendering="optimizeLegibility" clip-path="url(#clipPath20)" points=" 290 110 298 120 282 120" stroke="none"/>
<polygon text-rendering="optimizeLegibility" fill="none" clip-path="url(#clipPath20)" points=" 290 110 298 120 282 120"/>
</g>
</g>
</svg>
