<?xml version="1.0" encoding="UTF-8"?><svg xmlns="http://www.w3.org/2000/svg" xmlns:xlink="http://www.w3.org/1999/xlink" stroke-dasharray="none" shape-rendering="auto" font-family="'Dialog'" width="621" text-rendering="auto" fill-opacity="1" contentScriptType="text/ecmascript" color-interpolation="auto" color-rendering="auto" preserveAspectRatio="xMidYMid meet" font-size="12" viewBox="0 0 621 301" fill="black" stroke="black" image-rendering="auto" stroke-miterlimit="10" zoomAndPan="magnify" version="1.0" stroke-linecap="square" stroke-linejoin="miter" contentStyleType="text/css" font-style="normal" height="301" stroke-width="1" stroke-dashoffset="0" font-weight="normal" stroke-opacity="1">
<!--Generated by the Batik Graphics2D SVG Generator-->
<defs id="genericDefs"/>
<g>
<defs id="defs1">
<linearGradient x1="10" x2="10" y1="190" gradientUnits="userSpaceOnUse" y2="291" xlink:type="simple" xlink:actuate="onLoad" id="linearGradient1" xlink:show="other" spreadMethod="pad">
<stop stop-opacity="1" stop-color="white" offset="0%"/>
<stop stop-opacity="1" stop-color="white" offset="100%"/>
</linearGradient>
<linearGradient x1="10" x2="10" y1="10" gradientUnits="userSpaceOnUse" y2="71" xlink:type="simple" xlink:actuate="onLoad" id="linearGradient2" xlink:show="other" spreadMethod="pad">
<stop stop-opacity="1" stop-color="white" offset="0%"/>
<stop stop-opacity="1" stop-color="white" offset="100%"/>
</linearGradient>
<linearGradient x1="370" x2="370" y1="190" gradientUnits="userSpaceOnUse" y2="291" xlink:type="simple" xlink:actuate="onLoad" id="linearGradient3" xlink:show="other" spreadMethod="pad">
<stop stop-opacity="1" stop-color="white" offset="0%"/>
<stop stop-opacity="1" stop-color="white" offset="100%"/>
</linearGradient>
<linearGradient x1="370" x2="370" y1="10" gradientUnits="userSpaceOnUse" y2="71" xlink:type="simple" xlink:actuate="onLoad" id="linearGradient4" xlink:show="other" spreadMethod="pad">
<stop stop-opacity="1" stop-color="white" offset="0%"/>
<stop stop-opacity="1" stop-color="white" offset="100%"/>
</linearGradient>
<clipPath clipPathUnits="userSpaceOnUse" id="clipPath1">
<path d="M10 190 L10 290 L250 290 L250 190 Z"/>
</clipPath>
<clipPath clipPathUnits="userSpaceOnUse" id="clipPath2">
<path d="M95 192 L167 192 L167 210 L95 210 L95 192 Z"/>
</clipPath>
<clipPath clipPathUnits="userSpaceOnUse" id="clipPath3">
<path d="M107 209 L155 209 L155 227 L107 227 L107 209 Z"/>
</clipPath>
<clipPath clipPathUnits="userSpaceOnUse" id="clipPath4">
<path d="M15 228 L200 228 L200 246 L15 246 L15 228 Z"/>
</clipPath>
<clipPath clipPathUnits="userSpaceOnUse" id="clipPath5">
<path d="M15 244 L149 244 L149 262 L15 262 L15 244 Z"/>
</clipPath>
<clipPath clipPathUnits="userSpaceOnUse" id="clipPath6">
<path d="M10 226 L252 226 L252 266 L10 266 L10 226 Z"/>
</clipPath>
<clipPath clipPathUnits="userSpaceOnUse" id="clipPath7">
<path d="M15 267 L118 267 L118 285 L15 285 L15 267 Z"/>
</clipPath>
<clipPath clipPathUnits="userSpaceOnUse" id="clipPath8">
<path d="M10 265 L252 265 L252 292 L10 292 L10 265 Z"/>
</clipPath>
<clipPath clipPathUnits="userSpaceOnUse" id="clipPath9">
<path d="M9 189 L252 189 L252 292 L9 292 L9 189 Z"/>
</clipPath>
<clipPath clipPathUnits="userSpaceOnUse" id="clipPath10">
<path d="M10 10 L10 70 L250 70 L250 10 Z"/>
</clipPath>
<clipPath clipPathUnits="userSpaceOnUse" id="clipPath11">
<path d="M98 23 L165 23 L165 41 L98 41 L98 23 Z"/>
</clipPath>
<clipPath clipPathUnits="userSpaceOnUse" id="clipPath12">
<path d="M119 40 L143 40 L143 58 L119 58 L119 40 Z"/>
</clipPath>
<clipPath clipPathUnits="userSpaceOnUse" id="clipPath13">
<path d="M9 9 L252 9 L252 72 L9 72 L9 9 Z"/>
</clipPath>
<clipPath clipPathUnits="userSpaceOnUse" id="clipPath14">
<path d="M370 190 L370 290 L610 290 L610 190 Z"/>
</clipPath>
<clipPath clipPathUnits="userSpaceOnUse" id="clipPath15">
<path d="M455 192 L527 192 L527 210 L455 210 L455 192 Z"/>
</clipPath>
<clipPath clipPathUnits="userSpaceOnUse" id="clipPath16">
<path d="M444 209 L539 209 L539 227 L444 227 L444 209 Z"/>
</clipPath>
<clipPath clipPathUnits="userSpaceOnUse" id="clipPath17">
<path d="M370 226 L612 226 L612 255 L370 255 L370 226 Z"/>
</clipPath>
<clipPath clipPathUnits="userSpaceOnUse" id="clipPath18">
<path d="M375 256 L546 256 L546 274 L375 274 L375 256 Z"/>
</clipPath>
<clipPath clipPathUnits="userSpaceOnUse" id="clipPath19">
<path d="M370 254 L612 254 L612 292 L370 292 L370 254 Z"/>
</clipPath>
<clipPath clipPathUnits="userSpaceOnUse" id="clipPath20">
<path d="M369 189 L612 189 L612 292 L369 292 L369 189 Z"/>
</clipPath>
<clipPath clipPathUnits="userSpaceOnUse" id="clipPath21">
<path d="M370 10 L370 70 L610 70 L610 10 Z"/>
</clipPath>
<clipPath clipPathUnits="userSpaceOnUse" id="clipPath22">
<path d="M458 23 L525 23 L525 41 L458 41 L458 23 Z"/>
</clipPath>
<clipPath clipPathUnits="userSpaceOnUse" id="clipPath23">
<path d="M467 40 L516 40 L516 58 L467 58 L467 40 Z"/>
</clipPath>
<clipPath clipPathUnits="userSpaceOnUse" id="clipPath24">
<path d="M369 9 L612 9 L612 72 L369 72 L369 9 Z"/>
</clipPath>
<clipPath clipPathUnits="userSpaceOnUse" id="clipPath25">
<path d="M-1 -1 L622 -1 L622 302 L-1 302 L-1 -1 Z"/>
</clipPath>
<clipPath clipPathUnits="userSpaceOnUse" id="clipPath26">
<path d="M124 70 L137 70 L137 88 L124 88 L124 70 Z"/>
</clipPath>
<clipPath clipPathUnits="userSpaceOnUse" id="clipPath27">
<path d="M484 70 L497 70 L497 88 L484 88 L484 70 Z"/>
</clipPath>
</defs>
<g fill="url(#linearGradient1)" font-family="'Segoe UI'" stroke-linejoin="round" stroke="url(#linearGradient1)" stroke-width="0" stroke-miterlimit="0">
<rect x="10" y="190" clip-path="url(#clipPath1)" width="241" height="101" stroke="none"/>
<text x="96" y="206" clip-path="url(#clipPath2)" fill="black" stroke="none" xml:space="preserve">«Stereotype»</text>
<text x="108" y="223" clip-path="url(#clipPath3)" fill="black" stroke="none" xml:space="preserve">FlowPort</text>
<text x="16" y="242" clip-path="url(#clipPath4)" fill="black" stroke="none" xml:space="preserve"> + direction: FlowDirectionKind [1]</text>
<text x="16" y="258" clip-path="url(#clipPath5)" fill="black" stroke="none" xml:space="preserve"> +/ isAtomic: Boolean [1]</text>
</g>
<g stroke-width="1.1" font-family="'Segoe UI'" stroke-linecap="butt">
<line clip-path="url(#clipPath6)" fill="none" x1="10" x2="251" y1="227" y2="227"/>
<text xml:space="preserve" x="16" y="281" clip-path="url(#clipPath7)" stroke="none"> + getIcon(): Image</text>
<line clip-path="url(#clipPath8)" fill="none" x1="10" x2="251" y1="266" y2="266"/>
<rect x="10" y="190" clip-path="url(#clipPath9)" fill="none" width="240" rx="0" ry="0" height="100"/>
<rect x="10" y="10" clip-path="url(#clipPath10)" fill="url(#linearGradient2)" width="241" height="61" stroke="none"/>
<text xml:space="preserve" x="99" y="37" clip-path="url(#clipPath11)" stroke="none">«Metaclass»</text>
<text xml:space="preserve" x="120" y="54" clip-path="url(#clipPath12)" stroke="none">Port</text>
<rect x="10" y="10" clip-path="url(#clipPath13)" fill="none" width="240" rx="0" ry="0" height="60"/>
<rect x="370" y="190" clip-path="url(#clipPath14)" fill="url(#linearGradient3)" width="241" height="101" stroke="none"/>
<text xml:space="preserve" x="456" y="206" clip-path="url(#clipPath15)" stroke="none">«Stereotype»</text>
<text xml:space="preserve" x="445" y="223" clip-path="url(#clipPath16)" stroke="none">FlowSpecification</text>
<line clip-path="url(#clipPath17)" fill="none" x1="370" x2="611" y1="227" y2="227"/>
<text xml:space="preserve" x="376" y="270" clip-path="url(#clipPath18)" stroke="none"> + getFlowProperties(): Property</text>
<line clip-path="url(#clipPath19)" fill="none" x1="370" x2="611" y1="255" y2="255"/>
<rect x="370" y="190" clip-path="url(#clipPath20)" fill="none" width="240" rx="0" ry="0" height="100"/>
<rect x="370" y="10" clip-path="url(#clipPath21)" fill="url(#linearGradient4)" width="241" height="61" stroke="none"/>
<text xml:space="preserve" x="459" y="37" clip-path="url(#clipPath22)" stroke="none">«Metaclass»</text>
<text xml:space="preserve" x="468" y="54" clip-path="url(#clipPath23)" stroke="none">Interface</text>
<rect x="370" y="10" clip-path="url(#clipPath24)" fill="none" width="240" rx="0" ry="0" height="60"/>
<line clip-path="url(#clipPath25)" fill="none" text-rendering="optimizeLegibility" x1="130" x2="130" y1="190" y2="71"/>
<polygon text-rendering="optimizeLegibility" clip-path="url(#clipPath26)" points=" 130 71 135 86 125 86" stroke="none"/>
<polygon text-rendering="optimizeLegibility" fill="none" clip-path="url(#clipPath26)" points=" 130 71 135 86 125 86"/>
<line clip-path="url(#clipPath25)" fill="none" text-rendering="optimizeLegibility" x1="490" x2="490" y1="190" y2="71"/>
<polygon text-rendering="optimizeLegibility" clip-path="url(#clipPath27)" points=" 490 71 495 86 485 86" stroke="none"/>
<polygon text-rendering="optimizeLegibility" fill="none" clip-path="url(#clipPath27)" points=" 490 71 495 86 485 86"/>
</g>
</g>
</svg>
