<?xml version="1.0" encoding="UTF-8"?><svg xmlns="http://www.w3.org/2000/svg" xmlns:xlink="http://www.w3.org/1999/xlink" stroke-dasharray="none" shape-rendering="auto" font-family="'Dialog'" width="1201" text-rendering="auto" fill-opacity="1" contentScriptType="text/ecmascript" color-interpolation="auto" color-rendering="auto" preserveAspectRatio="xMidYMid meet" font-size="12" viewBox="0 0 1201 703" fill="black" stroke="black" image-rendering="auto" stroke-miterlimit="10" zoomAndPan="magnify" version="1.0" stroke-linecap="square" stroke-linejoin="miter" contentStyleType="text/css" font-style="normal" height="703" stroke-width="1" stroke-dashoffset="0" font-weight="normal" stroke-opacity="1">
<!--Generated by the Batik Graphics2D SVG Generator-->
<defs id="genericDefs"/>
<g>
<defs id="defs1">
<linearGradient x1="10" x2="10" y1="170" gradientUnits="userSpaceOnUse" y2="271" xlink:type="simple" xlink:actuate="onLoad" id="linearGradient1" xlink:show="other" spreadMethod="pad">
<stop stop-opacity="1" stop-color="white" offset="0%"/>
<stop stop-opacity="1" stop-color="white" offset="100%"/>
</linearGradient>
<linearGradient x1="10" x2="10" y1="10" gradientUnits="userSpaceOnUse" y2="71" xlink:type="simple" xlink:actuate="onLoad" id="linearGradient2" xlink:show="other" spreadMethod="pad">
<stop stop-opacity="1" stop-color="white" offset="0%"/>
<stop stop-opacity="1" stop-color="white" offset="100%"/>
</linearGradient>
<linearGradient x1="370" x2="370" y1="470" gradientUnits="userSpaceOnUse" y2="693" xlink:type="simple" xlink:actuate="onLoad" id="linearGradient3" xlink:show="other" spreadMethod="pad">
<stop stop-opacity="1" stop-color="white" offset="0%"/>
<stop stop-opacity="1" stop-color="white" offset="100%"/>
</linearGradient>
<linearGradient x1="370" x2="370" y1="330" gradientUnits="userSpaceOnUse" y2="391" xlink:type="simple" xlink:actuate="onLoad" id="linearGradient4" xlink:show="other" spreadMethod="pad">
<stop stop-opacity="1" stop-color="white" offset="0%"/>
<stop stop-opacity="1" stop-color="white" offset="100%"/>
</linearGradient>
<linearGradient x1="190" x2="190" y1="170" gradientUnits="userSpaceOnUse" y2="271" xlink:type="simple" xlink:actuate="onLoad" id="linearGradient5" xlink:show="other" spreadMethod="pad">
<stop stop-opacity="1" stop-color="white" offset="0%"/>
<stop stop-opacity="1" stop-color="white" offset="100%"/>
</linearGradient>
<linearGradient x1="190" x2="190" y1="10" gradientUnits="userSpaceOnUse" y2="71" xlink:type="simple" xlink:actuate="onLoad" id="linearGradient6" xlink:show="other" spreadMethod="pad">
<stop stop-opacity="1" stop-color="white" offset="0%"/>
<stop stop-opacity="1" stop-color="white" offset="100%"/>
</linearGradient>
<linearGradient x1="370" x2="370" y1="170" gradientUnits="userSpaceOnUse" y2="271" xlink:type="simple" xlink:actuate="onLoad" id="linearGradient7" xlink:show="other" spreadMethod="pad">
<stop stop-opacity="1" stop-color="white" offset="0%"/>
<stop stop-opacity="1" stop-color="white" offset="100%"/>
</linearGradient>
<linearGradient x1="370" x2="370" y1="10" gradientUnits="userSpaceOnUse" y2="71" xlink:type="simple" xlink:actuate="onLoad" id="linearGradient8" xlink:show="other" spreadMethod="pad">
<stop stop-opacity="1" stop-color="white" offset="0%"/>
<stop stop-opacity="1" stop-color="white" offset="100%"/>
</linearGradient>
<linearGradient x1="550" x2="550" y1="170" gradientUnits="userSpaceOnUse" y2="271" xlink:type="simple" xlink:actuate="onLoad" id="linearGradient9" xlink:show="other" spreadMethod="pad">
<stop stop-opacity="1" stop-color="white" offset="0%"/>
<stop stop-opacity="1" stop-color="white" offset="100%"/>
</linearGradient>
<linearGradient x1="550" x2="550" y1="10" gradientUnits="userSpaceOnUse" y2="71" xlink:type="simple" xlink:actuate="onLoad" id="linearGradient10" xlink:show="other" spreadMethod="pad">
<stop stop-opacity="1" stop-color="white" offset="0%"/>
<stop stop-opacity="1" stop-color="white" offset="100%"/>
</linearGradient>
<linearGradient x1="990" x2="990" y1="170" gradientUnits="userSpaceOnUse" y2="290" xlink:type="simple" xlink:actuate="onLoad" id="linearGradient11" xlink:show="other" spreadMethod="pad">
<stop stop-opacity="1" stop-color="white" offset="0%"/>
<stop stop-opacity="1" stop-color="white" offset="100%"/>
</linearGradient>
<linearGradient x1="990" x2="990" y1="10" gradientUnits="userSpaceOnUse" y2="71" xlink:type="simple" xlink:actuate="onLoad" id="linearGradient12" xlink:show="other" spreadMethod="pad">
<stop stop-opacity="1" stop-color="white" offset="0%"/>
<stop stop-opacity="1" stop-color="white" offset="100%"/>
</linearGradient>
<linearGradient x1="730" x2="730" y1="170" gradientUnits="userSpaceOnUse" y2="271" xlink:type="simple" xlink:actuate="onLoad" id="linearGradient13" xlink:show="other" spreadMethod="pad">
<stop stop-opacity="1" stop-color="white" offset="0%"/>
<stop stop-opacity="1" stop-color="white" offset="100%"/>
</linearGradient>
<linearGradient x1="730" x2="730" y1="10" gradientUnits="userSpaceOnUse" y2="71" xlink:type="simple" xlink:actuate="onLoad" id="linearGradient14" xlink:show="other" spreadMethod="pad">
<stop stop-opacity="1" stop-color="white" offset="0%"/>
<stop stop-opacity="1" stop-color="white" offset="100%"/>
</linearGradient>
<linearGradient x1="10" x2="10" y1="470" gradientUnits="userSpaceOnUse" y2="670" xlink:type="simple" xlink:actuate="onLoad" id="linearGradient15" xlink:show="other" spreadMethod="pad">
<stop stop-opacity="1" stop-color="white" offset="0%"/>
<stop stop-opacity="1" stop-color="white" offset="100%"/>
</linearGradient>
<linearGradient x1="10" x2="10" y1="330" gradientUnits="userSpaceOnUse" y2="391" xlink:type="simple" xlink:actuate="onLoad" id="linearGradient16" xlink:show="other" spreadMethod="pad">
<stop stop-opacity="1" stop-color="white" offset="0%"/>
<stop stop-opacity="1" stop-color="white" offset="100%"/>
</linearGradient>
<clipPath clipPathUnits="userSpaceOnUse" id="clipPath1">
<path d="M10 170 L10 270 L130 270 L130 170 Z"/>
</clipPath>
<clipPath clipPathUnits="userSpaceOnUse" id="clipPath2">
<path d="M35 172 L107 172 L107 190 L35 190 L35 172 Z"/>
</clipPath>
<clipPath clipPathUnits="userSpaceOnUse" id="clipPath3">
<path d="M47 189 L96 189 L96 207 L47 207 L47 189 Z"/>
</clipPath>
<clipPath clipPathUnits="userSpaceOnUse" id="clipPath4">
<path d="M10 206 L132 206 L132 240 L10 240 L10 206 Z"/>
</clipPath>
<clipPath clipPathUnits="userSpaceOnUse" id="clipPath5">
<path d="M10 239 L132 239 L132 272 L10 272 L10 239 Z"/>
</clipPath>
<clipPath clipPathUnits="userSpaceOnUse" id="clipPath6">
<path d="M9 169 L132 169 L132 272 L9 272 L9 169 Z"/>
</clipPath>
<clipPath clipPathUnits="userSpaceOnUse" id="clipPath7">
<path d="M10 10 L10 70 L130 70 L130 10 Z"/>
</clipPath>
<clipPath clipPathUnits="userSpaceOnUse" id="clipPath8">
<path d="M38 23 L105 23 L105 41 L38 41 L38 23 Z"/>
</clipPath>
<clipPath clipPathUnits="userSpaceOnUse" id="clipPath9">
<path d="M32 40 L111 40 L111 58 L32 58 L32 40 Z"/>
</clipPath>
<clipPath clipPathUnits="userSpaceOnUse" id="clipPath10">
<path d="M9 9 L132 9 L132 72 L9 72 L9 9 Z"/>
</clipPath>
<clipPath clipPathUnits="userSpaceOnUse" id="clipPath11">
<path d="M370 470 L370 692 L690 692 L690 470 Z"/>
</clipPath>
<clipPath clipPathUnits="userSpaceOnUse" id="clipPath12">
<path d="M495 472 L567 472 L567 490 L495 490 L495 472 Z"/>
</clipPath>
<clipPath clipPathUnits="userSpaceOnUse" id="clipPath13">
<path d="M492 489 L571 489 L571 507 L492 507 L492 489 Z"/>
</clipPath>
<clipPath clipPathUnits="userSpaceOnUse" id="clipPath14">
<path d="M375 508 L495 508 L495 526 L375 526 L375 508 Z"/>
</clipPath>
<clipPath clipPathUnits="userSpaceOnUse" id="clipPath15">
<path d="M375 524 L507 524 L507 542 L375 542 L375 524 Z"/>
</clipPath>
<clipPath clipPathUnits="userSpaceOnUse" id="clipPath16">
<path d="M375 540 L477 540 L477 558 L375 558 L375 540 Z"/>
</clipPath>
<clipPath clipPathUnits="userSpaceOnUse" id="clipPath17">
<path d="M375 556 L545 556 L545 574 L375 574 L375 556 Z"/>
</clipPath>
<clipPath clipPathUnits="userSpaceOnUse" id="clipPath18">
<path d="M375 572 L478 572 L478 590 L375 590 L375 572 Z"/>
</clipPath>
<clipPath clipPathUnits="userSpaceOnUse" id="clipPath19">
<path d="M370 506 L692 506 L692 609 L370 609 L370 506 Z"/>
</clipPath>
<clipPath clipPathUnits="userSpaceOnUse" id="clipPath20">
<path d="M375 610 L665 610 L665 628 L375 628 L375 610 Z"/>
</clipPath>
<clipPath clipPathUnits="userSpaceOnUse" id="clipPath21">
<path d="M375 626 L531 626 L531 644 L375 644 L375 626 Z"/>
</clipPath>
<clipPath clipPathUnits="userSpaceOnUse" id="clipPath22">
<path d="M375 642 L544 642 L544 660 L375 660 L375 642 Z"/>
</clipPath>
<clipPath clipPathUnits="userSpaceOnUse" id="clipPath23">
<path d="M375 658 L514 658 L514 676 L375 676 L375 658 Z"/>
</clipPath>
<clipPath clipPathUnits="userSpaceOnUse" id="clipPath24">
<path d="M370 608 L692 608 L692 694 L370 694 L370 608 Z"/>
</clipPath>
<clipPath clipPathUnits="userSpaceOnUse" id="clipPath25">
<path d="M369 469 L692 469 L692 694 L369 694 L369 469 Z"/>
</clipPath>
<clipPath clipPathUnits="userSpaceOnUse" id="clipPath26">
<path d="M370 330 L370 390 L690 390 L690 330 Z"/>
</clipPath>
<clipPath clipPathUnits="userSpaceOnUse" id="clipPath27">
<path d="M498 343 L565 343 L565 361 L498 361 L498 343 Z"/>
</clipPath>
<clipPath clipPathUnits="userSpaceOnUse" id="clipPath28">
<path d="M503 360 L559 360 L559 378 L503 378 L503 360 Z"/>
</clipPath>
<clipPath clipPathUnits="userSpaceOnUse" id="clipPath29">
<path d="M369 329 L692 329 L692 392 L369 392 L369 329 Z"/>
</clipPath>
<clipPath clipPathUnits="userSpaceOnUse" id="clipPath30">
<path d="M190 170 L190 270 L310 270 L310 170 Z"/>
</clipPath>
<clipPath clipPathUnits="userSpaceOnUse" id="clipPath31">
<path d="M215 172 L287 172 L287 190 L215 190 L215 172 Z"/>
</clipPath>
<clipPath clipPathUnits="userSpaceOnUse" id="clipPath32">
<path d="M232 189 L271 189 L271 207 L232 207 L232 189 Z"/>
</clipPath>
<clipPath clipPathUnits="userSpaceOnUse" id="clipPath33">
<path d="M190 206 L312 206 L312 240 L190 240 L190 206 Z"/>
</clipPath>
<clipPath clipPathUnits="userSpaceOnUse" id="clipPath34">
<path d="M190 239 L312 239 L312 272 L190 272 L190 239 Z"/>
</clipPath>
<clipPath clipPathUnits="userSpaceOnUse" id="clipPath35">
<path d="M189 169 L312 169 L312 272 L189 272 L189 169 Z"/>
</clipPath>
<clipPath clipPathUnits="userSpaceOnUse" id="clipPath36">
<path d="M190 10 L190 70 L310 70 L310 10 Z"/>
</clipPath>
<clipPath clipPathUnits="userSpaceOnUse" id="clipPath37">
<path d="M218 23 L285 23 L285 41 L218 41 L218 23 Z"/>
</clipPath>
<clipPath clipPathUnits="userSpaceOnUse" id="clipPath38">
<path d="M216 40 L286 40 L286 58 L216 58 L216 40 Z"/>
</clipPath>
<clipPath clipPathUnits="userSpaceOnUse" id="clipPath39">
<path d="M189 9 L312 9 L312 72 L189 72 L189 9 Z"/>
</clipPath>
<clipPath clipPathUnits="userSpaceOnUse" id="clipPath40">
<path d="M370 170 L370 270 L490 270 L490 170 Z"/>
</clipPath>
<clipPath clipPathUnits="userSpaceOnUse" id="clipPath41">
<path d="M395 172 L467 172 L467 190 L395 190 L395 172 Z"/>
</clipPath>
<clipPath clipPathUnits="userSpaceOnUse" id="clipPath42">
<path d="M408 189 L455 189 L455 207 L408 207 L408 189 Z"/>
</clipPath>
<clipPath clipPathUnits="userSpaceOnUse" id="clipPath43">
<path d="M370 206 L492 206 L492 240 L370 240 L370 206 Z"/>
</clipPath>
<clipPath clipPathUnits="userSpaceOnUse" id="clipPath44">
<path d="M370 239 L492 239 L492 272 L370 272 L370 239 Z"/>
</clipPath>
<clipPath clipPathUnits="userSpaceOnUse" id="clipPath45">
<path d="M369 169 L492 169 L492 272 L369 272 L369 169 Z"/>
</clipPath>
<clipPath clipPathUnits="userSpaceOnUse" id="clipPath46">
<path d="M370 10 L370 70 L490 70 L490 10 Z"/>
</clipPath>
<clipPath clipPathUnits="userSpaceOnUse" id="clipPath47">
<path d="M398 23 L465 23 L465 41 L398 41 L398 23 Z"/>
</clipPath>
<clipPath clipPathUnits="userSpaceOnUse" id="clipPath48">
<path d="M403 40 L459 40 L459 58 L403 58 L403 40 Z"/>
</clipPath>
<clipPath clipPathUnits="userSpaceOnUse" id="clipPath49">
<path d="M369 9 L492 9 L492 72 L369 72 L369 9 Z"/>
</clipPath>
<clipPath clipPathUnits="userSpaceOnUse" id="clipPath50">
<path d="M550 170 L550 270 L670 270 L670 170 Z"/>
</clipPath>
<clipPath clipPathUnits="userSpaceOnUse" id="clipPath51">
<path d="M575 172 L647 172 L647 190 L575 190 L575 172 Z"/>
</clipPath>
<clipPath clipPathUnits="userSpaceOnUse" id="clipPath52">
<path d="M585 189 L637 189 L637 207 L585 207 L585 189 Z"/>
</clipPath>
<clipPath clipPathUnits="userSpaceOnUse" id="clipPath53">
<path d="M550 206 L672 206 L672 240 L550 240 L550 206 Z"/>
</clipPath>
<clipPath clipPathUnits="userSpaceOnUse" id="clipPath54">
<path d="M550 239 L672 239 L672 272 L550 272 L550 239 Z"/>
</clipPath>
<clipPath clipPathUnits="userSpaceOnUse" id="clipPath55">
<path d="M549 169 L672 169 L672 272 L549 272 L549 169 Z"/>
</clipPath>
<clipPath clipPathUnits="userSpaceOnUse" id="clipPath56">
<path d="M550 10 L550 70 L670 70 L670 10 Z"/>
</clipPath>
<clipPath clipPathUnits="userSpaceOnUse" id="clipPath57">
<path d="M578 23 L645 23 L645 41 L578 41 L578 23 Z"/>
</clipPath>
<clipPath clipPathUnits="userSpaceOnUse" id="clipPath58">
<path d="M583 40 L639 40 L639 58 L583 58 L583 40 Z"/>
</clipPath>
<clipPath clipPathUnits="userSpaceOnUse" id="clipPath59">
<path d="M549 9 L672 9 L672 72 L549 72 L549 9 Z"/>
</clipPath>
<clipPath clipPathUnits="userSpaceOnUse" id="clipPath60">
<path d="M990 170 L990 289 L1190 289 L1190 170 Z"/>
</clipPath>
<clipPath clipPathUnits="userSpaceOnUse" id="clipPath61">
<path d="M1055 172 L1127 172 L1127 190 L1055 190 L1055 172 Z"/>
</clipPath>
<clipPath clipPathUnits="userSpaceOnUse" id="clipPath62">
<path d="M1058 189 L1124 189 L1124 207 L1058 207 L1058 189 Z"/>
</clipPath>
<clipPath clipPathUnits="userSpaceOnUse" id="clipPath63">
<path d="M995 208 L1147 208 L1147 226 L995 226 L995 208 Z"/>
</clipPath>
<clipPath clipPathUnits="userSpaceOnUse" id="clipPath64">
<path d="M995 224 L1112 224 L1112 242 L995 242 L995 224 Z"/>
</clipPath>
<clipPath clipPathUnits="userSpaceOnUse" id="clipPath65">
<path d="M990 206 L1192 206 L1192 263 L990 263 L990 206 Z"/>
</clipPath>
<clipPath clipPathUnits="userSpaceOnUse" id="clipPath66">
<path d="M990 262 L1192 262 L1192 291 L990 291 L990 262 Z"/>
</clipPath>
<clipPath clipPathUnits="userSpaceOnUse" id="clipPath67">
<path d="M989 169 L1192 169 L1192 291 L989 291 L989 169 Z"/>
</clipPath>
<clipPath clipPathUnits="userSpaceOnUse" id="clipPath68">
<path d="M990 10 L990 70 L1190 70 L1190 10 Z"/>
</clipPath>
<clipPath clipPathUnits="userSpaceOnUse" id="clipPath69">
<path d="M1058 23 L1125 23 L1125 41 L1058 41 L1058 23 Z"/>
</clipPath>
<clipPath clipPathUnits="userSpaceOnUse" id="clipPath70">
<path d="M1066 40 L1116 40 L1116 58 L1066 58 L1066 40 Z"/>
</clipPath>
<clipPath clipPathUnits="userSpaceOnUse" id="clipPath71">
<path d="M989 9 L1192 9 L1192 72 L989 72 L989 9 Z"/>
</clipPath>
<clipPath clipPathUnits="userSpaceOnUse" id="clipPath72">
<path d="M730 170 L730 270 L930 270 L930 170 Z"/>
</clipPath>
<clipPath clipPathUnits="userSpaceOnUse" id="clipPath73">
<path d="M795 172 L867 172 L867 190 L795 190 L795 172 Z"/>
</clipPath>
<clipPath clipPathUnits="userSpaceOnUse" id="clipPath74">
<path d="M817 189 L845 189 L845 207 L817 207 L817 189 Z"/>
</clipPath>
<clipPath clipPathUnits="userSpaceOnUse" id="clipPath75">
<path d="M735 208 L904 208 L904 226 L735 226 L735 208 Z"/>
</clipPath>
<clipPath clipPathUnits="userSpaceOnUse" id="clipPath76">
<path d="M735 224 L885 224 L885 242 L735 242 L735 224 Z"/>
</clipPath>
<clipPath clipPathUnits="userSpaceOnUse" id="clipPath77">
<path d="M730 206 L932 206 L932 250 L730 250 L730 206 Z"/>
</clipPath>
<clipPath clipPathUnits="userSpaceOnUse" id="clipPath78">
<path d="M730 249 L932 249 L932 272 L730 272 L730 249 Z"/>
</clipPath>
<clipPath clipPathUnits="userSpaceOnUse" id="clipPath79">
<path d="M729 169 L932 169 L932 272 L729 272 L729 169 Z"/>
</clipPath>
<clipPath clipPathUnits="userSpaceOnUse" id="clipPath80">
<path d="M730 10 L730 70 L930 70 L930 10 Z"/>
</clipPath>
<clipPath clipPathUnits="userSpaceOnUse" id="clipPath81">
<path d="M798 23 L865 23 L865 41 L798 41 L798 23 Z"/>
</clipPath>
<clipPath clipPathUnits="userSpaceOnUse" id="clipPath82">
<path d="M817 40 L846 40 L846 58 L817 58 L817 40 Z"/>
</clipPath>
<clipPath clipPathUnits="userSpaceOnUse" id="clipPath83">
<path d="M729 9 L932 9 L932 72 L729 72 L729 9 Z"/>
</clipPath>
<clipPath clipPathUnits="userSpaceOnUse" id="clipPath84">
<path d="M10 470 L10 669 L230 669 L230 470 Z"/>
</clipPath>
<clipPath clipPathUnits="userSpaceOnUse" id="clipPath85">
<path d="M85 472 L157 472 L157 490 L85 490 L85 472 Z"/>
</clipPath>
<clipPath clipPathUnits="userSpaceOnUse" id="clipPath86">
<path d="M93 489 L149 489 L149 507 L93 507 L93 489 Z"/>
</clipPath>
<clipPath clipPathUnits="userSpaceOnUse" id="clipPath87">
<path d="M15 508 L132 508 L132 526 L15 526 L15 508 Z"/>
</clipPath>
<clipPath clipPathUnits="userSpaceOnUse" id="clipPath88">
<path d="M15 524 L167 524 L167 542 L15 542 L15 524 Z"/>
</clipPath>
<clipPath clipPathUnits="userSpaceOnUse" id="clipPath89">
<path d="M15 540 L135 540 L135 558 L15 558 L15 540 Z"/>
</clipPath>
<clipPath clipPathUnits="userSpaceOnUse" id="clipPath90">
<path d="M15 556 L147 556 L147 574 L15 574 L15 556 Z"/>
</clipPath>
<clipPath clipPathUnits="userSpaceOnUse" id="clipPath91">
<path d="M15 572 L152 572 L152 590 L15 590 L15 572 Z"/>
</clipPath>
<clipPath clipPathUnits="userSpaceOnUse" id="clipPath92">
<path d="M15 588 L130 588 L130 606 L15 606 L15 588 Z"/>
</clipPath>
<clipPath clipPathUnits="userSpaceOnUse" id="clipPath93">
<path d="M15 604 L179 604 L179 622 L15 622 L15 604 Z"/>
</clipPath>
<clipPath clipPathUnits="userSpaceOnUse" id="clipPath94">
<path d="M10 506 L232 506 L232 646 L10 646 L10 506 Z"/>
</clipPath>
<clipPath clipPathUnits="userSpaceOnUse" id="clipPath95">
<path d="M10 645 L232 645 L232 671 L10 671 L10 645 Z"/>
</clipPath>
<clipPath clipPathUnits="userSpaceOnUse" id="clipPath96">
<path d="M9 469 L232 469 L232 671 L9 671 L9 469 Z"/>
</clipPath>
<clipPath clipPathUnits="userSpaceOnUse" id="clipPath97">
<path d="M10 330 L10 390 L230 390 L230 330 Z"/>
</clipPath>
<clipPath clipPathUnits="userSpaceOnUse" id="clipPath98">
<path d="M88 343 L155 343 L155 361 L88 361 L88 343 Z"/>
</clipPath>
<clipPath clipPathUnits="userSpaceOnUse" id="clipPath99">
<path d="M107 360 L136 360 L136 378 L107 378 L107 360 Z"/>
</clipPath>
<clipPath clipPathUnits="userSpaceOnUse" id="clipPath100">
<path d="M9 329 L232 329 L232 392 L9 392 L9 329 Z"/>
</clipPath>
<clipPath clipPathUnits="userSpaceOnUse" id="clipPath101">
<path d="M-1 -1 L1202 -1 L1202 704 L-1 704 L-1 -1 Z"/>
</clipPath>
<clipPath clipPathUnits="userSpaceOnUse" id="clipPath102">
<path d="M64 70 L77 70 L77 88 L64 88 L64 70 Z"/>
</clipPath>
<clipPath clipPathUnits="userSpaceOnUse" id="clipPath103">
<path d="M524 390 L537 390 L537 408 L524 408 L524 390 Z"/>
</clipPath>
<clipPath clipPathUnits="userSpaceOnUse" id="clipPath104">
<path d="M244 70 L257 70 L257 88 L244 88 L244 70 Z"/>
</clipPath>
<clipPath clipPathUnits="userSpaceOnUse" id="clipPath105">
<path d="M424 70 L437 70 L437 88 L424 88 L424 70 Z"/>
</clipPath>
<clipPath clipPathUnits="userSpaceOnUse" id="clipPath106">
<path d="M604 70 L617 70 L617 88 L604 88 L604 70 Z"/>
</clipPath>
<clipPath clipPathUnits="userSpaceOnUse" id="clipPath107">
<path d="M1084 70 L1097 70 L1097 88 L1084 88 L1084 70 Z"/>
</clipPath>
<clipPath clipPathUnits="userSpaceOnUse" id="clipPath108">
<path d="M824 70 L837 70 L837 88 L824 88 L824 70 Z"/>
</clipPath>
<clipPath clipPathUnits="userSpaceOnUse" id="clipPath109">
<path d="M124 390 L137 390 L137 408 L124 408 L124 390 Z"/>
</clipPath>
</defs>
<g fill="url(#linearGradient1)" font-family="'Segoe UI'" stroke-linejoin="round" stroke="url(#linearGradient1)" stroke-width="0" stroke-miterlimit="0">
<rect x="10" y="170" clip-path="url(#clipPath1)" width="121" height="101" stroke="none"/>
<text x="36" y="186" clip-path="url(#clipPath2)" fill="black" stroke="none" xml:space="preserve">«Stereotype»</text>
<text x="48" y="203" clip-path="url(#clipPath3)" fill="black" stroke="none" xml:space="preserve">Conform</text>
</g>
<g stroke-width="1.1" font-family="'Segoe UI'" stroke-linecap="butt">
<line clip-path="url(#clipPath4)" fill="none" x1="10" x2="131" y1="207" y2="207"/>
<line clip-path="url(#clipPath5)" fill="none" x1="10" x2="131" y1="240" y2="240"/>
<rect x="10" y="170" clip-path="url(#clipPath6)" fill="none" width="120" rx="0" ry="0" height="100"/>
<rect x="10" y="10" clip-path="url(#clipPath7)" fill="url(#linearGradient2)" width="121" height="61" stroke="none"/>
<text xml:space="preserve" x="39" y="37" clip-path="url(#clipPath8)" stroke="none">«Metaclass»</text>
<text xml:space="preserve" x="33" y="54" clip-path="url(#clipPath9)" stroke="none">Generalization</text>
<rect x="10" y="10" clip-path="url(#clipPath10)" fill="none" width="120" rx="0" ry="0" height="60"/>
<rect x="370" y="470" clip-path="url(#clipPath11)" fill="url(#linearGradient3)" width="321" height="223" stroke="none"/>
<text xml:space="preserve" x="496" y="486" clip-path="url(#clipPath12)" stroke="none">«Stereotype»</text>
<text xml:space="preserve" x="493" y="503" clip-path="url(#clipPath13)" stroke="none">ElementGroup</text>
<text xml:space="preserve" x="376" y="522" clip-path="url(#clipPath14)" stroke="none"> +/ criterion: String [1]</text>
<text xml:space="preserve" x="376" y="538" clip-path="url(#clipPath15)" stroke="none"> +/ member: Element [*]</text>
<text xml:space="preserve" x="376" y="554" clip-path="url(#clipPath16)" stroke="none"> + name: String [1]</text>
<text xml:space="preserve" x="376" y="570" clip-path="url(#clipPath17)" stroke="none"> + orderedMember: Element [*]</text>
<text xml:space="preserve" x="376" y="586" clip-path="url(#clipPath18)" stroke="none"> +/ size: Integer [1]</text>
<line clip-path="url(#clipPath19)" fill="none" x1="370" x2="691" y1="507" y2="507"/>
<text xml:space="preserve" x="376" y="624" clip-path="url(#clipPath20)" stroke="none"> + allGroups(  in e: Element,   in result: ElementGroup)</text>
<line clip-path="url(#clipPath20)" fill="none" x1="376" x2="664" y1="625" y2="625" stroke-width="0.1"/>
<text x="376" y="640" clip-path="url(#clipPath21)" stroke="none" stroke-width="0.1" xml:space="preserve"> + criterion(  in result: String)</text>
<text x="376" y="656" clip-path="url(#clipPath22)" stroke="none" stroke-width="0.1" xml:space="preserve"> + member(  in result: Element)</text>
<text x="376" y="672" clip-path="url(#clipPath23)" stroke="none" stroke-width="0.1" xml:space="preserve"> + size(  in result: Integer)</text>
<line clip-path="url(#clipPath24)" fill="none" x1="370" x2="691" y1="609" y2="609"/>
<rect x="370" y="470" clip-path="url(#clipPath25)" fill="none" width="320" rx="0" ry="0" height="222"/>
<rect x="370" y="330" clip-path="url(#clipPath26)" fill="url(#linearGradient4)" width="321" height="61" stroke="none"/>
<text xml:space="preserve" x="499" y="357" clip-path="url(#clipPath27)" stroke="none">«Metaclass»</text>
<text xml:space="preserve" x="504" y="374" clip-path="url(#clipPath28)" stroke="none">Comment</text>
<rect x="370" y="330" clip-path="url(#clipPath29)" fill="none" width="320" rx="0" ry="0" height="60"/>
<rect x="190" y="170" clip-path="url(#clipPath30)" fill="url(#linearGradient5)" width="121" height="101" stroke="none"/>
<text xml:space="preserve" x="216" y="186" clip-path="url(#clipPath31)" stroke="none">«Stereotype»</text>
<text xml:space="preserve" x="233" y="203" clip-path="url(#clipPath32)" stroke="none">Expose</text>
<line clip-path="url(#clipPath33)" fill="none" x1="190" x2="311" y1="207" y2="207"/>
<line clip-path="url(#clipPath34)" fill="none" x1="190" x2="311" y1="240" y2="240"/>
<rect x="190" y="170" clip-path="url(#clipPath35)" fill="none" width="120" rx="0" ry="0" height="100"/>
<rect x="190" y="10" clip-path="url(#clipPath36)" fill="url(#linearGradient6)" width="121" height="61" stroke="none"/>
<text xml:space="preserve" x="219" y="37" clip-path="url(#clipPath37)" stroke="none">«Metaclass»</text>
<text xml:space="preserve" x="217" y="54" clip-path="url(#clipPath38)" stroke="none">Dependency</text>
<rect x="190" y="10" clip-path="url(#clipPath39)" fill="none" width="120" rx="0" ry="0" height="60"/>
<rect x="370" y="170" clip-path="url(#clipPath40)" fill="url(#linearGradient7)" width="121" height="101" stroke="none"/>
<text xml:space="preserve" x="396" y="186" clip-path="url(#clipPath41)" stroke="none">«Stereotype»</text>
<text xml:space="preserve" x="409" y="203" clip-path="url(#clipPath42)" stroke="none">Problem</text>
<line clip-path="url(#clipPath43)" fill="none" x1="370" x2="491" y1="207" y2="207"/>
<line clip-path="url(#clipPath44)" fill="none" x1="370" x2="491" y1="240" y2="240"/>
<rect x="370" y="170" clip-path="url(#clipPath45)" fill="none" width="120" rx="0" ry="0" height="100"/>
<rect x="370" y="10" clip-path="url(#clipPath46)" fill="url(#linearGradient8)" width="121" height="61" stroke="none"/>
<text xml:space="preserve" x="399" y="37" clip-path="url(#clipPath47)" stroke="none">«Metaclass»</text>
<text xml:space="preserve" x="404" y="54" clip-path="url(#clipPath48)" stroke="none">Comment</text>
<rect x="370" y="10" clip-path="url(#clipPath49)" fill="none" width="120" rx="0" ry="0" height="60"/>
<rect x="550" y="170" clip-path="url(#clipPath50)" fill="url(#linearGradient9)" width="121" height="101" stroke="none"/>
<text xml:space="preserve" x="576" y="186" clip-path="url(#clipPath51)" stroke="none">«Stereotype»</text>
<text xml:space="preserve" x="586" y="203" clip-path="url(#clipPath52)" stroke="none">Rationale</text>
<line clip-path="url(#clipPath53)" fill="none" x1="550" x2="671" y1="207" y2="207"/>
<line clip-path="url(#clipPath54)" fill="none" x1="550" x2="671" y1="240" y2="240"/>
<rect x="550" y="170" clip-path="url(#clipPath55)" fill="none" width="120" rx="0" ry="0" height="100"/>
<rect x="550" y="10" clip-path="url(#clipPath56)" fill="url(#linearGradient10)" width="121" height="61" stroke="none"/>
<text xml:space="preserve" x="579" y="37" clip-path="url(#clipPath57)" stroke="none">«Metaclass»</text>
<text xml:space="preserve" x="584" y="54" clip-path="url(#clipPath58)" stroke="none">Comment</text>
<rect x="550" y="10" clip-path="url(#clipPath59)" fill="none" width="120" rx="0" ry="0" height="60"/>
<rect x="990" y="170" clip-path="url(#clipPath60)" fill="url(#linearGradient11)" width="201" height="120" stroke="none"/>
<text xml:space="preserve" x="1056" y="186" clip-path="url(#clipPath61)" stroke="none">«Stereotype»</text>
<text xml:space="preserve" x="1059" y="203" clip-path="url(#clipPath62)" stroke="none">Stakeholder</text>
<text xml:space="preserve" x="996" y="222" clip-path="url(#clipPath63)" stroke="none"> + concernList: Comment [*]</text>
<text xml:space="preserve" x="996" y="238" clip-path="url(#clipPath64)" stroke="none"> +/ concern: String [*]</text>
<line clip-path="url(#clipPath65)" fill="none" x1="990" x2="1191" y1="207" y2="207"/>
<line clip-path="url(#clipPath66)" fill="none" x1="990" x2="1191" y1="263" y2="263"/>
<rect x="990" y="170" clip-path="url(#clipPath67)" fill="none" width="200" rx="0" ry="0" height="119"/>
<rect x="990" y="10" clip-path="url(#clipPath68)" fill="url(#linearGradient12)" width="201" height="61" stroke="none"/>
<text x="1059" y="37" clip-path="url(#clipPath69)" font-style="italic" stroke="none" xml:space="preserve">«Metaclass»</text>
<text x="1067" y="54" clip-path="url(#clipPath70)" font-style="italic" stroke="none" xml:space="preserve">Classifier</text>
<rect x="990" y="10" clip-path="url(#clipPath71)" fill="none" width="200" rx="0" ry="0" height="60"/>
<rect x="730" y="170" clip-path="url(#clipPath72)" fill="url(#linearGradient13)" width="201" height="101" stroke="none"/>
<text xml:space="preserve" x="796" y="186" clip-path="url(#clipPath73)" stroke="none">«Stereotype»</text>
<text xml:space="preserve" x="818" y="203" clip-path="url(#clipPath74)" stroke="none">View</text>
<text xml:space="preserve" x="736" y="222" clip-path="url(#clipPath75)" stroke="none"> +/ stakeholder: Stakeholder [*]</text>
<text xml:space="preserve" x="736" y="238" clip-path="url(#clipPath76)" stroke="none"> +/ viewPoint: Viewpoint [1]</text>
<line clip-path="url(#clipPath77)" fill="none" x1="730" x2="931" y1="207" y2="207"/>
<line clip-path="url(#clipPath78)" fill="none" x1="730" x2="931" y1="250" y2="250"/>
<rect x="730" y="170" clip-path="url(#clipPath79)" fill="none" width="200" rx="0" ry="0" height="100"/>
<rect x="730" y="10" clip-path="url(#clipPath80)" fill="url(#linearGradient14)" width="201" height="61" stroke="none"/>
<text xml:space="preserve" x="799" y="37" clip-path="url(#clipPath81)" stroke="none">«Metaclass»</text>
<text xml:space="preserve" x="818" y="54" clip-path="url(#clipPath82)" stroke="none">Class</text>
<rect x="730" y="10" clip-path="url(#clipPath83)" fill="none" width="200" rx="0" ry="0" height="60"/>
<rect x="10" y="470" clip-path="url(#clipPath84)" fill="url(#linearGradient15)" width="221" height="200" stroke="none"/>
<text xml:space="preserve" x="86" y="486" clip-path="url(#clipPath85)" stroke="none">«Stereotype»</text>
<text xml:space="preserve" x="94" y="503" clip-path="url(#clipPath86)" stroke="none">Viewpoint</text>
<text xml:space="preserve" x="16" y="522" clip-path="url(#clipPath87)" stroke="none"> +/ concern: String [*]</text>
<text xml:space="preserve" x="16" y="538" clip-path="url(#clipPath88)" stroke="none"> + concernList: Comment [*]</text>
<text xml:space="preserve" x="16" y="554" clip-path="url(#clipPath89)" stroke="none"> + language: String [*]</text>
<text xml:space="preserve" x="16" y="570" clip-path="url(#clipPath90)" stroke="none"> +/ method: Behavior [*]</text>
<text xml:space="preserve" x="16" y="586" clip-path="url(#clipPath91)" stroke="none"> + presentation: String [*]</text>
<text xml:space="preserve" x="16" y="602" clip-path="url(#clipPath92)" stroke="none"> + purpose: String [1]</text>
<text xml:space="preserve" x="16" y="618" clip-path="url(#clipPath93)" stroke="none"> + stakeholder: Stakeholder [*]</text>
<line clip-path="url(#clipPath94)" fill="none" x1="10" x2="231" y1="507" y2="507"/>
<line clip-path="url(#clipPath95)" fill="none" x1="10" x2="231" y1="646" y2="646"/>
<rect x="10" y="470" clip-path="url(#clipPath96)" fill="none" width="220" rx="0" ry="0" height="199"/>
<rect x="10" y="330" clip-path="url(#clipPath97)" fill="url(#linearGradient16)" width="221" height="61" stroke="none"/>
<text xml:space="preserve" x="89" y="357" clip-path="url(#clipPath98)" stroke="none">«Metaclass»</text>
<text xml:space="preserve" x="108" y="374" clip-path="url(#clipPath99)" stroke="none">Class</text>
<rect x="10" y="330" clip-path="url(#clipPath100)" fill="none" width="220" rx="0" ry="0" height="60"/>
<line clip-path="url(#clipPath101)" fill="none" text-rendering="optimizeLegibility" x1="70" x2="70" y1="170" y2="71"/>
<polygon text-rendering="optimizeLegibility" clip-path="url(#clipPath102)" points=" 70 71 75 86 65 86" stroke="none"/>
<polygon text-rendering="optimizeLegibility" fill="none" clip-path="url(#clipPath102)" points=" 70 71 75 86 65 86"/>
<line clip-path="url(#clipPath101)" fill="none" text-rendering="optimizeLegibility" x1="530" x2="530" y1="470" y2="391"/>
<polygon text-rendering="optimizeLegibility" clip-path="url(#clipPath103)" points=" 530 391 535 406 525 406" stroke="none"/>
<polygon text-rendering="optimizeLegibility" fill="none" clip-path="url(#clipPath103)" points=" 530 391 535 406 525 406"/>
<line clip-path="url(#clipPath101)" fill="none" text-rendering="optimizeLegibility" x1="250" x2="250" y1="170" y2="71"/>
<polygon text-rendering="optimizeLegibility" clip-path="url(#clipPath104)" points=" 250 71 255 86 245 86" stroke="none"/>
<polygon text-rendering="optimizeLegibility" fill="none" clip-path="url(#clipPath104)" points=" 250 71 255 86 245 86"/>
<line clip-path="url(#clipPath101)" fill="none" text-rendering="optimizeLegibility" x1="430" x2="430" y1="170" y2="71"/>
<polygon text-rendering="optimizeLegibility" clip-path="url(#clipPath105)" points=" 430 71 435 86 425 86" stroke="none"/>
<polygon text-rendering="optimizeLegibility" fill="none" clip-path="url(#clipPath105)" points=" 430 71 435 86 425 86"/>
<line clip-path="url(#clipPath101)" fill="none" text-rendering="optimizeLegibility" x1="610" x2="610" y1="170" y2="71"/>
<polygon text-rendering="optimizeLegibility" clip-path="url(#clipPath106)" points=" 610 71 615 86 605 86" stroke="none"/>
<polygon text-rendering="optimizeLegibility" fill="none" clip-path="url(#clipPath106)" points=" 610 71 615 86 605 86"/>
<line clip-path="url(#clipPath101)" fill="none" text-rendering="optimizeLegibility" x1="1090" x2="1090" y1="170" y2="71"/>
<polygon text-rendering="optimizeLegibility" clip-path="url(#clipPath107)" points=" 1090 71 1095 86 1085 86" stroke="none"/>
<polygon text-rendering="optimizeLegibility" fill="none" clip-path="url(#clipPath107)" points=" 1090 71 1095 86 1085 86"/>
<line clip-path="url(#clipPath101)" fill="none" text-rendering="optimizeLegibility" x1="830" x2="830" y1="170" y2="71"/>
<polygon text-rendering="optimizeLegibility" clip-path="url(#clipPath108)" points=" 830 71 835 86 825 86" stroke="none"/>
<polygon text-rendering="optimizeLegibility" fill="none" clip-path="url(#clipPath108)" points=" 830 71 835 86 825 86"/>
<line clip-path="url(#clipPath101)" fill="none" text-rendering="optimizeLegibility" x1="130" x2="130" y1="470" y2="391"/>
<polygon text-rendering="optimizeLegibility" clip-path="url(#clipPath109)" points=" 130 391 135 406 125 406" stroke="none"/>
<polygon text-rendering="optimizeLegibility" fill="none" clip-path="url(#clipPath109)" points=" 130 391 135 406 125 406"/>
</g>
</g>
</svg>
