<?xml version="1.0" encoding="UTF-8"?><svg xmlns="http://www.w3.org/2000/svg" xmlns:xlink="http://www.w3.org/1999/xlink" stroke-dasharray="none" shape-rendering="auto" font-family="'Dialog'" width="311" text-rendering="auto" fill-opacity="1" contentScriptType="text/ecmascript" color-interpolation="auto" color-rendering="auto" preserveAspectRatio="xMidYMid meet" font-size="12" viewBox="0 0 311 120" fill="black" stroke="black" image-rendering="auto" stroke-miterlimit="10" zoomAndPan="magnify" version="1.0" stroke-linecap="square" stroke-linejoin="miter" contentStyleType="text/css" font-style="normal" height="120" stroke-width="1" stroke-dashoffset="0" font-weight="normal" stroke-opacity="1">
<!--Generated by the Batik Graphics2D SVG Generator-->
<defs id="genericDefs"/>
<g>
<defs id="defs1">
<linearGradient x1="10" x2="10" y1="10" gradientUnits="userSpaceOnUse" y2="110" xlink:type="simple" xlink:actuate="onLoad" id="linearGradient1" xlink:show="other" spreadMethod="pad">
<stop stop-opacity="1" stop-color="white" offset="0%"/>
<stop stop-opacity="1" stop-color="white" offset="100%"/>
</linearGradient>
<clipPath clipPathUnits="userSpaceOnUse" id="clipPath1">
<path d="M10 10 L10 109 L300 109 L300 10 Z"/>
</clipPath>
<clipPath clipPathUnits="userSpaceOnUse" id="clipPath2">
<path d="M115 20 L198 20 L198 38 L115 38 L115 20 Z"/>
</clipPath>
<clipPath clipPathUnits="userSpaceOnUse" id="clipPath3">
<path d="M118 37 L195 37 L195 55 L118 55 L118 37 Z"/>
</clipPath>
<clipPath clipPathUnits="userSpaceOnUse" id="clipPath4">
<path d="M15 56 L39 56 L39 74 L15 74 L15 56 Z"/>
</clipPath>
<clipPath clipPathUnits="userSpaceOnUse" id="clipPath5">
<path d="M15 72 L49 72 L49 90 L15 90 L15 72 Z"/>
</clipPath>
<clipPath clipPathUnits="userSpaceOnUse" id="clipPath6">
<path d="M10 54 L302 54 L302 101 L10 101 L10 54 Z"/>
</clipPath>
<clipPath clipPathUnits="userSpaceOnUse" id="clipPath7">
<path d="M9 9 L302 9 L302 111 L9 111 L9 9 Z"/>
</clipPath>
</defs>
<g fill="url(#linearGradient1)" font-family="'Segoe UI'" stroke-linejoin="round" stroke="url(#linearGradient1)" stroke-width="0" stroke-miterlimit="0">
<rect x="10" y="10" clip-path="url(#clipPath1)" width="291" height="100" stroke="none"/>
<text x="116" y="34" clip-path="url(#clipPath2)" fill="black" stroke="none" xml:space="preserve">«Requirement»</text>
<text x="119" y="51" clip-path="url(#clipPath3)" fill="black" stroke="none" xml:space="preserve">Requirement2</text>
<text x="16" y="70" clip-path="url(#clipPath4)" fill="black" stroke="none" xml:space="preserve">id= </text>
<text x="16" y="86" clip-path="url(#clipPath5)" fill="black" stroke="none" xml:space="preserve">text= </text>
</g>
<g stroke-width="1.1" font-family="'Segoe UI'" stroke-linecap="butt">
<line clip-path="url(#clipPath6)" fill="none" x1="10" x2="301" y1="55" y2="55"/>
<line clip-path="url(#clipPath7)" fill="none" x1="10" x2="301" y1="55" y2="55"/>
<rect x="10" y="10" clip-path="url(#clipPath7)" fill="none" width="290" rx="0" ry="0" height="99"/>
</g>
</g>
</svg>
