<?xml version="1.0" encoding="UTF-8"?><svg xmlns="http://www.w3.org/2000/svg" xmlns:xlink="http://www.w3.org/1999/xlink" stroke-dasharray="none" shape-rendering="auto" font-family="'Dialog'" width="580" text-rendering="auto" fill-opacity="1" contentScriptType="text/ecmascript" color-interpolation="auto" color-rendering="auto" preserveAspectRatio="xMidYMid meet" font-size="12" viewBox="0 0 580 337" fill="black" stroke="black" image-rendering="auto" stroke-miterlimit="10" zoomAndPan="magnify" version="1.0" stroke-linecap="square" stroke-linejoin="miter" contentStyleType="text/css" font-style="normal" height="337" stroke-width="1" stroke-dashoffset="0" font-weight="normal" stroke-opacity="1">
<!--Generated by the Batik Graphics2D SVG Generator-->
<defs id="genericDefs"/>
<g>
<defs id="defs1">
<linearGradient x1="140" x2="140" y1="10" gradientUnits="userSpaceOnUse" y2="110" xlink:type="simple" xlink:actuate="onLoad" id="linearGradient1" xlink:show="other" spreadMethod="pad">
<stop stop-opacity="1" stop-color="white" offset="0%"/>
<stop stop-opacity="1" stop-color="white" offset="100%"/>
</linearGradient>
<linearGradient x1="10" x2="10" y1="195" gradientUnits="userSpaceOnUse" y2="327" xlink:type="simple" xlink:actuate="onLoad" id="linearGradient2" xlink:show="other" spreadMethod="pad">
<stop stop-opacity="1" stop-color="white" offset="0%"/>
<stop stop-opacity="1" stop-color="white" offset="100%"/>
</linearGradient>
<linearGradient x1="275" x2="275" y1="200" gradientUnits="userSpaceOnUse" y2="300" xlink:type="simple" xlink:actuate="onLoad" id="linearGradient3" xlink:show="other" spreadMethod="pad">
<stop stop-opacity="1" stop-color="white" offset="0%"/>
<stop stop-opacity="1" stop-color="white" offset="100%"/>
</linearGradient>
<linearGradient x1="470" x2="470" y1="200" gradientUnits="userSpaceOnUse" y2="300" xlink:type="simple" xlink:actuate="onLoad" id="linearGradient4" xlink:show="other" spreadMethod="pad">
<stop stop-opacity="1" stop-color="white" offset="0%"/>
<stop stop-opacity="1" stop-color="white" offset="100%"/>
</linearGradient>
<clipPath clipPathUnits="userSpaceOnUse" id="clipPath1">
<path d="M140 10 L140 109 L470 109 L470 10 Z"/>
</clipPath>
<clipPath clipPathUnits="userSpaceOnUse" id="clipPath2">
<path d="M265 12 L348 12 L348 30 L265 30 L265 12 Z"/>
</clipPath>
<clipPath clipPathUnits="userSpaceOnUse" id="clipPath3">
<path d="M254 29 L359 29 L359 47 L254 47 L254 29 Z"/>
</clipPath>
<clipPath clipPathUnits="userSpaceOnUse" id="clipPath4">
<path d="M145 48 L169 48 L169 66 L145 66 L145 48 Z"/>
</clipPath>
<clipPath clipPathUnits="userSpaceOnUse" id="clipPath5">
<path d="M145 64 L446 64 L446 98 L145 98 L145 64 Z"/>
</clipPath>
<clipPath clipPathUnits="userSpaceOnUse" id="clipPath6">
<path d="M140 46 L472 46 L472 109 L140 109 L140 46 Z"/>
</clipPath>
<clipPath clipPathUnits="userSpaceOnUse" id="clipPath7">
<path d="M139 9 L472 9 L472 111 L139 111 L139 9 Z"/>
</clipPath>
<clipPath clipPathUnits="userSpaceOnUse" id="clipPath8">
<path d="M10 195 L10 326 L200 326 L200 195 Z"/>
</clipPath>
<clipPath clipPathUnits="userSpaceOnUse" id="clipPath9">
<path d="M65 197 L148 197 L148 215 L65 215 L65 197 Z"/>
</clipPath>
<clipPath clipPathUnits="userSpaceOnUse" id="clipPath10">
<path d="M61 214 L151 214 L151 232 L61 232 L61 214 Z"/>
</clipPath>
<clipPath clipPathUnits="userSpaceOnUse" id="clipPath11">
<path d="M15 233 L39 233 L39 251 L15 251 L15 233 Z"/>
</clipPath>
<clipPath clipPathUnits="userSpaceOnUse" id="clipPath12">
<path d="M15 249 L189 249 L189 315 L15 315 L15 249 Z"/>
</clipPath>
<clipPath clipPathUnits="userSpaceOnUse" id="clipPath13">
<path d="M10 231 L202 231 L202 326 L10 326 L10 231 Z"/>
</clipPath>
<clipPath clipPathUnits="userSpaceOnUse" id="clipPath14">
<path d="M9 194 L202 194 L202 328 L9 328 L9 194 Z"/>
</clipPath>
<clipPath clipPathUnits="userSpaceOnUse" id="clipPath15">
<path d="M275 200 L275 299 L383 299 L383 200 Z"/>
</clipPath>
<clipPath clipPathUnits="userSpaceOnUse" id="clipPath16">
<path d="M289 205 L372 205 L372 223 L289 223 L289 205 Z"/>
</clipPath>
<clipPath clipPathUnits="userSpaceOnUse" id="clipPath17">
<path d="M281 222 L380 222 L380 240 L281 240 L281 222 Z"/>
</clipPath>
<clipPath clipPathUnits="userSpaceOnUse" id="clipPath18">
<path d="M280 241 L304 241 L304 259 L280 259 L280 241 Z"/>
</clipPath>
<clipPath clipPathUnits="userSpaceOnUse" id="clipPath19">
<path d="M280 257 L314 257 L314 275 L280 275 L280 257 Z"/>
</clipPath>
<clipPath clipPathUnits="userSpaceOnUse" id="clipPath20">
<path d="M275 239 L385 239 L385 286 L275 286 L275 239 Z"/>
</clipPath>
<clipPath clipPathUnits="userSpaceOnUse" id="clipPath21">
<path d="M274 199 L385 199 L385 301 L274 301 L274 199 Z"/>
</clipPath>
<clipPath clipPathUnits="userSpaceOnUse" id="clipPath22">
<path d="M470 200 L470 299 L569 299 L569 200 Z"/>
</clipPath>
<clipPath clipPathUnits="userSpaceOnUse" id="clipPath23">
<path d="M479 210 L562 210 L562 228 L479 228 L479 210 Z"/>
</clipPath>
<clipPath clipPathUnits="userSpaceOnUse" id="clipPath24">
<path d="M482 227 L560 227 L560 245 L482 245 L482 227 Z"/>
</clipPath>
<clipPath clipPathUnits="userSpaceOnUse" id="clipPath25">
<path d="M475 246 L499 246 L499 264 L475 264 L475 246 Z"/>
</clipPath>
<clipPath clipPathUnits="userSpaceOnUse" id="clipPath26">
<path d="M475 262 L509 262 L509 280 L475 280 L475 262 Z"/>
</clipPath>
<clipPath clipPathUnits="userSpaceOnUse" id="clipPath27">
<path d="M470 244 L571 244 L571 291 L470 291 L470 244 Z"/>
</clipPath>
<clipPath clipPathUnits="userSpaceOnUse" id="clipPath28">
<path d="M469 199 L571 199 L571 301 L469 301 L469 199 Z"/>
</clipPath>
<clipPath clipPathUnits="userSpaceOnUse" id="clipPath29">
<path d="M-1 -1 L581 -1 L581 338 L-1 338 L-1 -1 Z"/>
</clipPath>
<clipPath clipPathUnits="userSpaceOnUse" id="clipPath30">
<path d="M184 109 L207 109 L207 132 L184 132 L184 109 Z"/>
</clipPath>
<clipPath clipPathUnits="userSpaceOnUse" id="clipPath31">
<path d="M264 109 L287 109 L287 132 L264 132 L264 109 Z"/>
</clipPath>
<clipPath clipPathUnits="userSpaceOnUse" id="clipPath32">
<path d="M389 109 L412 109 L412 132 L389 132 L389 109 Z"/>
</clipPath>
</defs>
<g fill="url(#linearGradient1)" font-family="'Segoe UI'" stroke-linejoin="round" stroke="url(#linearGradient1)" stroke-width="0" stroke-miterlimit="0">
<rect x="140" y="10" clip-path="url(#clipPath1)" width="331" height="100" stroke="none"/>
<text x="266" y="26" clip-path="url(#clipPath2)" fill="black" stroke="none" xml:space="preserve">«Requirement»</text>
<text x="255" y="43" clip-path="url(#clipPath3)" fill="black" stroke="none" xml:space="preserve">DisabilityAssistance</text>
<text x="146" y="62" clip-path="url(#clipPath4)" fill="black" stroke="none" xml:space="preserve">id= </text>
<text x="146" y="78" clip-path="url(#clipPath5)" fill="black" stroke="none" xml:space="preserve">text=Inhabitant shall be assisted by the SHS in his every</text>
<text x="146" y="94" clip-path="url(#clipPath5)" fill="black" stroke="none" xml:space="preserve">days housing to supply her/his diabilities. </text>
</g>
<g stroke-width="1.1" font-family="'Segoe UI'" stroke-linecap="butt">
<line clip-path="url(#clipPath6)" fill="none" x1="140" x2="471" y1="47" y2="47"/>
<line clip-path="url(#clipPath7)" fill="none" x1="140" x2="471" y1="47" y2="47"/>
<rect x="140" y="10" clip-path="url(#clipPath7)" fill="none" width="330" rx="0" ry="0" height="99"/>
<rect x="10" y="195" clip-path="url(#clipPath8)" fill="url(#linearGradient2)" width="191" height="132" stroke="none"/>
<text xml:space="preserve" x="66" y="211" clip-path="url(#clipPath9)" stroke="none">«Requirement»</text>
<text xml:space="preserve" x="62" y="228" clip-path="url(#clipPath10)" stroke="none">SafetyAssistance</text>
<text xml:space="preserve" x="16" y="247" clip-path="url(#clipPath11)" stroke="none">id= </text>
<text xml:space="preserve" x="16" y="263" clip-path="url(#clipPath12)" stroke="none">text=Inhabitant shall be assisted</text>
<text xml:space="preserve" x="16" y="279" clip-path="url(#clipPath12)" stroke="none">by the SHS in his/her every day</text>
<text xml:space="preserve" x="16" y="295" clip-path="url(#clipPath12)" stroke="none">housing to supply her/his</text>
<text xml:space="preserve" x="16" y="311" clip-path="url(#clipPath12)" stroke="none">diabilities. </text>
<line clip-path="url(#clipPath13)" fill="none" x1="10" x2="201" y1="232" y2="232"/>
<line clip-path="url(#clipPath14)" fill="none" x1="10" x2="201" y1="232" y2="232"/>
<rect x="10" y="195" clip-path="url(#clipPath14)" fill="none" width="190" rx="0" ry="0" height="131"/>
<rect x="275" y="200" clip-path="url(#clipPath15)" fill="url(#linearGradient3)" width="109" height="100" stroke="none"/>
<text xml:space="preserve" x="290" y="219" clip-path="url(#clipPath16)" stroke="none">«Requirement»</text>
<text xml:space="preserve" x="282" y="236" clip-path="url(#clipPath17)" stroke="none">SecurityAssistance</text>
<text xml:space="preserve" x="281" y="255" clip-path="url(#clipPath18)" stroke="none">id= </text>
<text xml:space="preserve" x="281" y="271" clip-path="url(#clipPath19)" stroke="none">text= </text>
<line clip-path="url(#clipPath20)" fill="none" x1="275" x2="384" y1="240" y2="240"/>
<line clip-path="url(#clipPath21)" fill="none" x1="275" x2="384" y1="240" y2="240"/>
<rect x="275" y="200" clip-path="url(#clipPath21)" fill="none" width="108" rx="0" ry="0" height="99"/>
<rect x="470" y="200" clip-path="url(#clipPath22)" fill="url(#linearGradient4)" width="100" height="100" stroke="none"/>
<text xml:space="preserve" x="480" y="224" clip-path="url(#clipPath23)" stroke="none">«Requirement»</text>
<text xml:space="preserve" x="483" y="241" clip-path="url(#clipPath24)" stroke="none">Entertainment</text>
<text xml:space="preserve" x="476" y="260" clip-path="url(#clipPath25)" stroke="none">id= </text>
<text xml:space="preserve" x="476" y="276" clip-path="url(#clipPath26)" stroke="none">text= </text>
<line clip-path="url(#clipPath27)" fill="none" x1="470" x2="570" y1="245" y2="245"/>
<line clip-path="url(#clipPath28)" fill="none" x1="470" x2="570" y1="245" y2="245"/>
<rect x="470" y="200" clip-path="url(#clipPath28)" fill="none" width="99" rx="0" ry="0" height="99"/>
<line clip-path="url(#clipPath29)" fill="none" text-rendering="optimizeLegibility" x1="195" x2="195" y1="110" y2="159"/>
<line clip-path="url(#clipPath29)" fill="none" text-rendering="optimizeLegibility" x1="195" x2="70" y1="159" y2="159"/>
<line clip-path="url(#clipPath29)" fill="none" text-rendering="optimizeLegibility" x1="70" x2="70" y1="159" y2="195"/>
<circle clip-path="url(#clipPath30)" fill="white" text-rendering="optimizeLegibility" r="9.5" cx="194.5" cy="119.5" stroke="none"/>
<line clip-path="url(#clipPath30)" fill="none" text-rendering="optimizeLegibility" x1="185" x2="205" y1="120" y2="120" stroke-width="0.1"/>
<line clip-path="url(#clipPath30)" fill="none" text-rendering="optimizeLegibility" x1="195" x2="195" y1="110" y2="130" stroke-width="0.1"/>
<circle clip-path="url(#clipPath30)" fill="none" text-rendering="optimizeLegibility" r="10" cx="195" cy="120" stroke-width="0.1"/>
<line clip-path="url(#clipPath29)" fill="none" text-rendering="optimizeLegibility" x1="275" x2="275" y1="110" y2="155"/>
<line clip-path="url(#clipPath29)" fill="none" text-rendering="optimizeLegibility" x1="275" x2="330" y1="155" y2="155"/>
<line clip-path="url(#clipPath29)" fill="none" text-rendering="optimizeLegibility" x1="330" x2="330" y1="155" y2="200"/>
<circle clip-path="url(#clipPath31)" fill="white" text-rendering="optimizeLegibility" r="9.5" cx="274.5" cy="119.5" stroke="none"/>
<line clip-path="url(#clipPath31)" fill="none" text-rendering="optimizeLegibility" x1="265" x2="285" y1="120" y2="120" stroke-width="0.1"/>
<line clip-path="url(#clipPath31)" fill="none" text-rendering="optimizeLegibility" x1="275" x2="275" y1="110" y2="130" stroke-width="0.1"/>
<circle clip-path="url(#clipPath31)" fill="none" text-rendering="optimizeLegibility" r="10" cx="275" cy="120" stroke-width="0.1"/>
<line clip-path="url(#clipPath29)" fill="none" text-rendering="optimizeLegibility" x1="400" x2="400" y1="110" y2="159"/>
<line clip-path="url(#clipPath29)" fill="none" text-rendering="optimizeLegibility" x1="400" x2="520" y1="159" y2="159"/>
<line clip-path="url(#clipPath29)" fill="none" text-rendering="optimizeLegibility" x1="520" x2="520" y1="159" y2="200"/>
<circle clip-path="url(#clipPath32)" fill="white" text-rendering="optimizeLegibility" r="9.5" cx="399.5" cy="119.5" stroke="none"/>
<line clip-path="url(#clipPath32)" fill="none" text-rendering="optimizeLegibility" x1="390" x2="410" y1="120" y2="120" stroke-width="0.1"/>
<line clip-path="url(#clipPath32)" fill="none" text-rendering="optimizeLegibility" x1="400" x2="400" y1="110" y2="130" stroke-width="0.1"/>
<circle clip-path="url(#clipPath32)" fill="none" text-rendering="optimizeLegibility" r="10" cx="400" cy="120" stroke-width="0.1"/>
</g>
</g>
</svg>
