<?xml version="1.0" encoding="UTF-8"?><svg xmlns="http://www.w3.org/2000/svg" xmlns:xlink="http://www.w3.org/1999/xlink" stroke-dasharray="none" shape-rendering="auto" font-family="'Dialog'" width="486" text-rendering="auto" fill-opacity="1" contentScriptType="text/ecmascript" color-interpolation="auto" color-rendering="auto" preserveAspectRatio="xMidYMid meet" font-size="12" viewBox="0 0 486 311" fill="black" stroke="black" image-rendering="auto" stroke-miterlimit="10" zoomAndPan="magnify" version="1.0" stroke-linecap="square" stroke-linejoin="miter" contentStyleType="text/css" font-style="normal" height="311" stroke-width="1" stroke-dashoffset="0" font-weight="normal" stroke-opacity="1">
<!--Generated by the Batik Graphics2D SVG Generator-->
<defs id="genericDefs"/>
<g>
<defs id="defs1">
<linearGradient x1="160" x2="160" y1="65" gradientUnits="userSpaceOnUse" y2="165" xlink:type="simple" xlink:actuate="onLoad" id="linearGradient1" xlink:show="other" spreadMethod="pad">
<stop stop-opacity="1" stop-color="white" offset="0%"/>
<stop stop-opacity="1" stop-color="white" offset="100%"/>
</linearGradient>
<clipPath clipPathUnits="userSpaceOnUse" id="clipPath1">
<path d="M10 10 L10 300 L475 300 L475 32 L170 32 L170 10 Z"/>
</clipPath>
<clipPath clipPathUnits="userSpaceOnUse" id="clipPath2">
<path d="M7 7 L479 7 L479 304 L7 304 L7 7 Z"/>
</clipPath>
<clipPath clipPathUnits="userSpaceOnUse" id="clipPath3">
<path d="M15 12 L167 12 L167 30 L15 30 L15 12 Z"/>
</clipPath>
<clipPath clipPathUnits="userSpaceOnUse" id="clipPath4">
<path d="M25 190 L25 289 L455 289 L455 212 L108 212 L108 190 Z"/>
</clipPath>
<clipPath clipPathUnits="userSpaceOnUse" id="clipPath5">
<path d="M22 187 L459 187 L459 293 L22 293 L22 187 Z"/>
</clipPath>
<clipPath clipPathUnits="userSpaceOnUse" id="clipPath6">
<path d="M30 192 L105 192 L105 210 L30 210 L30 192 Z"/>
</clipPath>
<clipPath clipPathUnits="userSpaceOnUse" id="clipPath7">
<path d="M25 211 L457 211 L457 291 L25 291 L25 211 Z"/>
</clipPath>
<clipPath clipPathUnits="userSpaceOnUse" id="clipPath8">
<path d="M160 65 L160 164 L307 164 L307 65 Z"/>
</clipPath>
<clipPath clipPathUnits="userSpaceOnUse" id="clipPath9">
<path d="M166 106 L304 106 L304 124 L166 124 L166 106 Z"/>
</clipPath>
<clipPath clipPathUnits="userSpaceOnUse" id="clipPath10">
<path d="M159 64 L309 64 L309 166 L159 166 L159 64 Z"/>
</clipPath>
<clipPath clipPathUnits="userSpaceOnUse" id="clipPath11">
<path d="M10 31 L477 31 L477 302 L10 302 L10 31 Z"/>
</clipPath>
</defs>
<g fill="white" font-family="'Segoe UI'" stroke-linejoin="round" stroke="white" stroke-width="0" stroke-miterlimit="0">
<path d="M10 10 L170 10 L170 32 L475 32 L475 300 L10 300 L10 10 Z" clip-path="url(#clipPath1)" fill-rule="evenodd" stroke="none"/>
</g>
<g stroke-width="1.1" font-family="'Segoe UI'" stroke-linecap="butt">
<line clip-path="url(#clipPath2)" fill="none" x1="10" x2="170" y1="10" y2="10"/>
<line clip-path="url(#clipPath2)" fill="none" x1="170" x2="170" y1="10" y2="32"/>
<line clip-path="url(#clipPath2)" fill="none" x1="170" x2="475" y1="32" y2="32"/>
<line clip-path="url(#clipPath2)" fill="none" x1="475" x2="475" y1="32" y2="300"/>
<line clip-path="url(#clipPath2)" fill="none" x1="475" x2="10" y1="300" y2="300"/>
<line clip-path="url(#clipPath2)" fill="none" x1="10" x2="10" y1="300" y2="10"/>
<text xml:space="preserve" x="16" y="26" clip-path="url(#clipPath3)" stroke="none">SHS_OperationalDescription</text>
<path fill="white" d="M25 190 L108 190 L108 212 L455 212 L455 289 L25 289 L25 190 Z" clip-path="url(#clipPath4)" fill-rule="evenodd" stroke="none"/>
<line clip-path="url(#clipPath5)" fill="none" x1="25" x2="108" y1="190" y2="190"/>
<line clip-path="url(#clipPath5)" fill="none" x1="108" x2="108" y1="190" y2="212"/>
<line clip-path="url(#clipPath5)" fill="none" x1="108" x2="455" y1="212" y2="212"/>
<line clip-path="url(#clipPath5)" fill="none" x1="455" x2="455" y1="212" y2="289"/>
<line clip-path="url(#clipPath5)" fill="none" x1="455" x2="25" y1="289" y2="289"/>
<line clip-path="url(#clipPath5)" fill="none" x1="25" x2="25" y1="289" y2="190"/>
<text xml:space="preserve" x="31" y="206" clip-path="url(#clipPath6)" stroke="none">SHS_Missions</text>
<line clip-path="url(#clipPath7)" fill="none" x1="25" x2="455" y1="212" y2="212"/>
<rect x="160" y="65" clip-path="url(#clipPath8)" fill="url(#linearGradient1)" width="148" height="100" stroke="none"/>
<text xml:space="preserve" x="167" y="120" clip-path="url(#clipPath9)" stroke="none">SHS_OperationalContexts</text>
<rect x="160" y="65" clip-path="url(#clipPath10)" fill="none" width="147" rx="0" ry="0" height="99"/>
<line clip-path="url(#clipPath11)" fill="none" x1="10" x2="475" y1="32" y2="32"/>
</g>
</g>
</svg>
