<?xml version="1.0" encoding="UTF-8"?><svg xmlns="http://www.w3.org/2000/svg" xmlns:xlink="http://www.w3.org/1999/xlink" stroke-dasharray="none" shape-rendering="auto" font-family="'Dialog'" width="541" text-rendering="auto" fill-opacity="1" contentScriptType="text/ecmascript" color-interpolation="auto" color-rendering="auto" preserveAspectRatio="xMidYMid meet" font-size="12" viewBox="0 0 541 426" fill="black" stroke="black" image-rendering="auto" stroke-miterlimit="10" zoomAndPan="magnify" version="1.0" stroke-linecap="square" stroke-linejoin="miter" contentStyleType="text/css" font-style="normal" height="426" stroke-width="1" stroke-dashoffset="0" font-weight="normal" stroke-opacity="1">
<!--Generated by the Batik Graphics2D SVG Generator-->
<defs id="genericDefs"/>
<g>
<defs id="defs1">
<clipPath clipPathUnits="userSpaceOnUse" id="clipPath1">
<path d="M10 10 L10 415 L530 415 L530 32 L93 32 L93 10 Z"/>
</clipPath>
<clipPath clipPathUnits="userSpaceOnUse" id="clipPath2">
<path d="M7 7 L534 7 L534 419 L7 419 L7 7 Z"/>
</clipPath>
<clipPath clipPathUnits="userSpaceOnUse" id="clipPath3">
<path d="M15 12 L90 12 L90 30 L15 30 L15 12 Z"/>
</clipPath>
<clipPath clipPathUnits="userSpaceOnUse" id="clipPath4">
<path d="M30 50 L30 150 L506 150 L506 72 L165 72 L165 50 Z"/>
</clipPath>
<clipPath clipPathUnits="userSpaceOnUse" id="clipPath5">
<path d="M27 47 L510 47 L510 154 L27 154 L27 47 Z"/>
</clipPath>
<clipPath clipPathUnits="userSpaceOnUse" id="clipPath6">
<path d="M35 52 L162 52 L162 70 L35 70 L35 52 Z"/>
</clipPath>
<clipPath clipPathUnits="userSpaceOnUse" id="clipPath7">
<path d="M30 71 L508 71 L508 152 L30 152 L30 71 Z"/>
</clipPath>
<clipPath clipPathUnits="userSpaceOnUse" id="clipPath8">
<path d="M30 172 L30 272 L506 272 L506 194 L199 194 L199 172 Z"/>
</clipPath>
<clipPath clipPathUnits="userSpaceOnUse" id="clipPath9">
<path d="M27 169 L510 169 L510 276 L27 276 L27 169 Z"/>
</clipPath>
<clipPath clipPathUnits="userSpaceOnUse" id="clipPath10">
<path d="M35 174 L196 174 L196 192 L35 192 L35 174 Z"/>
</clipPath>
<clipPath clipPathUnits="userSpaceOnUse" id="clipPath11">
<path d="M30 193 L508 193 L508 274 L30 274 L30 193 Z"/>
</clipPath>
<clipPath clipPathUnits="userSpaceOnUse" id="clipPath12">
<path d="M30 295 L30 395 L506 395 L506 317 L174 317 L174 295 Z"/>
</clipPath>
<clipPath clipPathUnits="userSpaceOnUse" id="clipPath13">
<path d="M27 292 L510 292 L510 399 L27 399 L27 292 Z"/>
</clipPath>
<clipPath clipPathUnits="userSpaceOnUse" id="clipPath14">
<path d="M35 297 L171 297 L171 315 L35 315 L35 297 Z"/>
</clipPath>
<clipPath clipPathUnits="userSpaceOnUse" id="clipPath15">
<path d="M30 316 L508 316 L508 397 L30 397 L30 316 Z"/>
</clipPath>
<clipPath clipPathUnits="userSpaceOnUse" id="clipPath16">
<path d="M10 31 L532 31 L532 417 L10 417 L10 31 Z"/>
</clipPath>
</defs>
<g fill="white" font-family="'Segoe UI'" stroke-linejoin="round" stroke="white" stroke-width="0" stroke-miterlimit="0">
<path d="M10 10 L93 10 L93 32 L530 32 L530 415 L10 415 L10 10 Z" clip-path="url(#clipPath1)" fill-rule="evenodd" stroke="none"/>
</g>
<g stroke-width="1.1" font-family="'Segoe UI'" stroke-linecap="butt">
<line clip-path="url(#clipPath2)" fill="none" x1="10" x2="93" y1="10" y2="10"/>
<line clip-path="url(#clipPath2)" fill="none" x1="93" x2="93" y1="10" y2="32"/>
<line clip-path="url(#clipPath2)" fill="none" x1="93" x2="530" y1="32" y2="32"/>
<line clip-path="url(#clipPath2)" fill="none" x1="530" x2="530" y1="32" y2="415"/>
<line clip-path="url(#clipPath2)" fill="none" x1="530" x2="10" y1="415" y2="415"/>
<line clip-path="url(#clipPath2)" fill="none" x1="10" x2="10" y1="415" y2="10"/>
<text xml:space="preserve" x="16" y="26" clip-path="url(#clipPath3)" stroke="none">SHS_Missions</text>
<path fill="white" d="M30 50 L165 50 L165 72 L506 72 L506 150 L30 150 L30 50 Z" clip-path="url(#clipPath4)" fill-rule="evenodd" stroke="none"/>
<line clip-path="url(#clipPath5)" fill="none" x1="30" x2="165" y1="50" y2="50"/>
<line clip-path="url(#clipPath5)" fill="none" x1="165" x2="165" y1="50" y2="72"/>
<line clip-path="url(#clipPath5)" fill="none" x1="165" x2="506" y1="72" y2="72"/>
<line clip-path="url(#clipPath5)" fill="none" x1="506" x2="506" y1="72" y2="150"/>
<line clip-path="url(#clipPath5)" fill="none" x1="506" x2="30" y1="150" y2="150"/>
<line clip-path="url(#clipPath5)" fill="none" x1="30" x2="30" y1="150" y2="50"/>
<text xml:space="preserve" x="36" y="66" clip-path="url(#clipPath6)" stroke="none">SHS Security Use Cases</text>
<line clip-path="url(#clipPath7)" fill="none" x1="30" x2="506" y1="72" y2="72"/>
<path fill="white" d="M30 172 L199 172 L199 194 L506 194 L506 272 L30 272 L30 172 Z" clip-path="url(#clipPath8)" fill-rule="evenodd" stroke="none"/>
<line clip-path="url(#clipPath9)" fill="none" x1="30" x2="199" y1="172" y2="172"/>
<line clip-path="url(#clipPath9)" fill="none" x1="199" x2="199" y1="172" y2="194"/>
<line clip-path="url(#clipPath9)" fill="none" x1="199" x2="506" y1="194" y2="194"/>
<line clip-path="url(#clipPath9)" fill="none" x1="506" x2="506" y1="194" y2="272"/>
<line clip-path="url(#clipPath9)" fill="none" x1="506" x2="30" y1="272" y2="272"/>
<line clip-path="url(#clipPath9)" fill="none" x1="30" x2="30" y1="272" y2="172"/>
<text xml:space="preserve" x="36" y="188" clip-path="url(#clipPath10)" stroke="none">SHS Accomodation Use Cases</text>
<line clip-path="url(#clipPath11)" fill="none" x1="30" x2="506" y1="194" y2="194"/>
<path fill="white" d="M30 295 L174 295 L174 317 L506 317 L506 395 L30 395 L30 295 Z" clip-path="url(#clipPath12)" fill-rule="evenodd" stroke="none"/>
<line clip-path="url(#clipPath13)" fill="none" x1="30" x2="174" y1="295" y2="295"/>
<line clip-path="url(#clipPath13)" fill="none" x1="174" x2="174" y1="295" y2="317"/>
<line clip-path="url(#clipPath13)" fill="none" x1="174" x2="506" y1="317" y2="317"/>
<line clip-path="url(#clipPath13)" fill="none" x1="506" x2="506" y1="317" y2="395"/>
<line clip-path="url(#clipPath13)" fill="none" x1="506" x2="30" y1="395" y2="395"/>
<line clip-path="url(#clipPath13)" fill="none" x1="30" x2="30" y1="395" y2="295"/>
<text xml:space="preserve" x="36" y="311" clip-path="url(#clipPath14)" stroke="none">SHS Economic Use Cases</text>
<line clip-path="url(#clipPath15)" fill="none" x1="30" x2="506" y1="317" y2="317"/>
<line clip-path="url(#clipPath16)" fill="none" x1="10" x2="530" y1="32" y2="32"/>
</g>
</g>
</svg>
