<?xml version="1.0" encoding="UTF-8"?><svg xmlns="http://www.w3.org/2000/svg" xmlns:xlink="http://www.w3.org/1999/xlink" stroke-dasharray="none" shape-rendering="auto" font-family="'Dialog'" width="394" text-rendering="auto" fill-opacity="1" contentScriptType="text/ecmascript" color-interpolation="auto" color-rendering="auto" preserveAspectRatio="xMidYMid meet" font-size="12" viewBox="0 0 394 457" fill="black" stroke="black" image-rendering="auto" stroke-miterlimit="10" zoomAndPan="magnify" version="1.0" stroke-linecap="square" stroke-linejoin="miter" contentStyleType="text/css" font-style="normal" height="457" stroke-width="1" stroke-dashoffset="0" font-weight="normal" stroke-opacity="1">
<!--Generated by the Batik Graphics2D SVG Generator-->
<defs id="genericDefs"/>
<g>
<defs id="defs1">
<clipPath clipPathUnits="userSpaceOnUse" id="clipPath1">
<path d="M50 131 L50 203 L383 203 L383 153 L218 153 L218 131 Z"/>
</clipPath>
<clipPath clipPathUnits="userSpaceOnUse" id="clipPath2">
<path d="M47 128 L387 128 L387 207 L47 207 L47 128 Z"/>
</clipPath>
<clipPath clipPathUnits="userSpaceOnUse" id="clipPath3">
<path d="M55 133 L215 133 L215 151 L55 151 L55 133 Z"/>
</clipPath>
<clipPath clipPathUnits="userSpaceOnUse" id="clipPath4">
<path d="M50 152 L385 152 L385 205 L50 205 L50 152 Z"/>
</clipPath>
<clipPath clipPathUnits="userSpaceOnUse" id="clipPath5">
<path d="M50 252 L50 324 L383 324 L383 274 L210 274 L210 252 Z"/>
</clipPath>
<clipPath clipPathUnits="userSpaceOnUse" id="clipPath6">
<path d="M47 249 L387 249 L387 328 L47 328 L47 249 Z"/>
</clipPath>
<clipPath clipPathUnits="userSpaceOnUse" id="clipPath7">
<path d="M55 254 L207 254 L207 272 L55 272 L55 254 Z"/>
</clipPath>
<clipPath clipPathUnits="userSpaceOnUse" id="clipPath8">
<path d="M50 273 L385 273 L385 326 L50 326 L50 273 Z"/>
</clipPath>
<clipPath clipPathUnits="userSpaceOnUse" id="clipPath9">
<path d="M50 374 L50 446 L383 446 L383 396 L197 396 L197 374 Z"/>
</clipPath>
<clipPath clipPathUnits="userSpaceOnUse" id="clipPath10">
<path d="M47 371 L387 371 L387 450 L47 450 L47 371 Z"/>
</clipPath>
<clipPath clipPathUnits="userSpaceOnUse" id="clipPath11">
<path d="M55 376 L194 376 L194 394 L55 394 L55 376 Z"/>
</clipPath>
<clipPath clipPathUnits="userSpaceOnUse" id="clipPath12">
<path d="M50 395 L385 395 L385 448 L50 448 L50 395 Z"/>
</clipPath>
<clipPath clipPathUnits="userSpaceOnUse" id="clipPath13">
<path d="M-1 -1 L395 -1 L395 458 L-1 458 L-1 -1 Z"/>
</clipPath>
<clipPath clipPathUnits="userSpaceOnUse" id="clipPath14">
<path d="M141 212 L254 212 L254 230 L141 230 L141 212 Z"/>
</clipPath>
<clipPath clipPathUnits="userSpaceOnUse" id="clipPath15">
<path d="M146 203 L159 203 L159 222 L146 222 L146 203 Z"/>
</clipPath>
<clipPath clipPathUnits="userSpaceOnUse" id="clipPath16">
<path d="M138 345 L251 345 L251 363 L138 363 L138 345 Z"/>
</clipPath>
<clipPath clipPathUnits="userSpaceOnUse" id="clipPath17">
<path d="M143 324 L156 324 L156 342 L143 342 L143 324 Z"/>
</clipPath>
</defs>
<g fill="white" font-family="'Segoe UI'" stroke-linejoin="round" stroke="white" stroke-width="0" stroke-miterlimit="0">
<path d="M50 131 L218 131 L218 153 L383 153 L383 203 L50 203 L50 131 Z" clip-path="url(#clipPath1)" fill-rule="evenodd" stroke="none"/>
</g>
<g stroke-width="1.1" font-family="'Segoe UI'" stroke-linecap="butt">
<line clip-path="url(#clipPath2)" fill="none" x1="50" x2="218" y1="131" y2="131"/>
<line clip-path="url(#clipPath2)" fill="none" x1="218" x2="218" y1="131" y2="153"/>
<line clip-path="url(#clipPath2)" fill="none" x1="218" x2="383" y1="153" y2="153"/>
<line clip-path="url(#clipPath2)" fill="none" x1="383" x2="383" y1="153" y2="203"/>
<line clip-path="url(#clipPath2)" fill="none" x1="383" x2="50" y1="203" y2="203"/>
<line clip-path="url(#clipPath2)" fill="none" x1="50" x2="50" y1="203" y2="131"/>
<text xml:space="preserve" x="56" y="147" clip-path="url(#clipPath3)" stroke="none">SHS Functional Requirements</text>
<line clip-path="url(#clipPath4)" fill="none" x1="50" x2="383" y1="153" y2="153"/>
<path fill="white" d="M50 252 L210 252 L210 274 L383 274 L383 324 L50 324 L50 252 Z" clip-path="url(#clipPath5)" fill-rule="evenodd" stroke="none"/>
<line clip-path="url(#clipPath6)" fill="none" x1="50" x2="210" y1="252" y2="252"/>
<line clip-path="url(#clipPath6)" fill="none" x1="210" x2="210" y1="252" y2="274"/>
<line clip-path="url(#clipPath6)" fill="none" x1="210" x2="383" y1="274" y2="274"/>
<line clip-path="url(#clipPath6)" fill="none" x1="383" x2="383" y1="274" y2="324"/>
<line clip-path="url(#clipPath6)" fill="none" x1="383" x2="50" y1="324" y2="324"/>
<line clip-path="url(#clipPath6)" fill="none" x1="50" x2="50" y1="324" y2="252"/>
<text xml:space="preserve" x="56" y="268" clip-path="url(#clipPath7)" stroke="none">SHS_OperationalDescription</text>
<line clip-path="url(#clipPath8)" fill="none" x1="50" x2="383" y1="274" y2="274"/>
<path fill="white" d="M50 374 L197 374 L197 396 L383 396 L383 446 L50 446 L50 374 Z" clip-path="url(#clipPath9)" fill-rule="evenodd" stroke="none"/>
<line clip-path="url(#clipPath10)" fill="none" x1="50" x2="197" y1="374" y2="374"/>
<line clip-path="url(#clipPath10)" fill="none" x1="197" x2="197" y1="374" y2="396"/>
<line clip-path="url(#clipPath10)" fill="none" x1="197" x2="383" y1="396" y2="396"/>
<line clip-path="url(#clipPath10)" fill="none" x1="383" x2="383" y1="396" y2="446"/>
<line clip-path="url(#clipPath10)" fill="none" x1="383" x2="50" y1="446" y2="446"/>
<line clip-path="url(#clipPath10)" fill="none" x1="50" x2="50" y1="446" y2="374"/>
<text xml:space="preserve" x="56" y="390" clip-path="url(#clipPath11)" stroke="none">SHS Internal Specification</text>
<line clip-path="url(#clipPath12)" fill="none" x1="50" x2="383" y1="396" y2="396"/>
<line clip-path="url(#clipPath13)" fill="none" text-rendering="optimizeLegibility" x1="157" x2="150" y1="252" y2="204" stroke-dasharray="5,5,5,5,5,5,5,5,5,5"/>
<text x="142" y="226" clip-path="url(#clipPath14)" text-rendering="optimizeLegibility" stroke-dasharray="5,5,5,5,5,5,5,5,5,5" stroke="none" xml:space="preserve">«abstraction, Refine»</text>
<line clip-path="url(#clipPath15)" fill="none" text-rendering="optimizeLegibility" x1="157" x2="150" y1="218" y2="204"/>
<line clip-path="url(#clipPath15)" fill="none" text-rendering="optimizeLegibility" x1="150" x2="147" y1="204" y2="220"/>
<line clip-path="url(#clipPath13)" fill="none" text-rendering="optimizeLegibility" x1="149" x2="149" y1="374" y2="325" stroke-dasharray="5,5,5,5,5,5,5,5,5,5"/>
<text x="139" y="359" clip-path="url(#clipPath16)" text-rendering="optimizeLegibility" stroke-dasharray="5,5,5,5,5,5,5,5,5,5" stroke="none" xml:space="preserve">«abstraction, Refine»</text>
<line clip-path="url(#clipPath17)" fill="none" text-rendering="optimizeLegibility" x1="154" x2="149" y1="340" y2="325"/>
<line clip-path="url(#clipPath17)" fill="none" text-rendering="optimizeLegibility" x1="149" x2="144" y1="325" y2="340"/>
</g>
</g>
</svg>
