<?xml version="1.0" encoding="UTF-8"?><svg xmlns="http://www.w3.org/2000/svg" xmlns:xlink="http://www.w3.org/1999/xlink" stroke-dasharray="none" shape-rendering="auto" font-family="'Dialog'" width="689" text-rendering="auto" fill-opacity="1" contentScriptType="text/ecmascript" color-interpolation="auto" color-rendering="auto" preserveAspectRatio="xMidYMid meet" font-size="12" viewBox="0 0 689 404" fill="black" stroke="black" image-rendering="auto" stroke-miterlimit="10" zoomAndPan="magnify" version="1.0" stroke-linecap="square" stroke-linejoin="miter" contentStyleType="text/css" font-style="normal" height="404" stroke-width="1" stroke-dashoffset="0" font-weight="normal" stroke-opacity="1">
<!--Generated by the Batik Graphics2D SVG Generator-->
<defs id="genericDefs"/>
<g>
<defs id="defs1">
<clipPath clipPathUnits="userSpaceOnUse" id="clipPath1">
<path d="M10 10 L10 393 L678 393 L678 32 L81 32 L81 10 Z"/>
</clipPath>
<clipPath clipPathUnits="userSpaceOnUse" id="clipPath2">
<path d="M7 7 L682 7 L682 397 L7 397 L7 7 Z"/>
</clipPath>
<clipPath clipPathUnits="userSpaceOnUse" id="clipPath3">
<path d="M15 12 L78 12 L78 30 L15 30 L15 12 Z"/>
</clipPath>
<clipPath clipPathUnits="userSpaceOnUse" id="clipPath4">
<path d="M23 43 L23 142 L222 142 L222 65 L114 65 L114 43 Z"/>
</clipPath>
<clipPath clipPathUnits="userSpaceOnUse" id="clipPath5">
<path d="M20 40 L226 40 L226 146 L20 146 L20 40 Z"/>
</clipPath>
<clipPath clipPathUnits="userSpaceOnUse" id="clipPath6">
<path d="M28 45 L111 45 L111 63 L28 63 L28 45 Z"/>
</clipPath>
<clipPath clipPathUnits="userSpaceOnUse" id="clipPath7">
<path d="M23 64 L224 64 L224 144 L23 144 L23 64 Z"/>
</clipPath>
<clipPath clipPathUnits="userSpaceOnUse" id="clipPath8">
<path d="M243 43 L243 142 L442 142 L442 65 L360 65 L360 43 Z"/>
</clipPath>
<clipPath clipPathUnits="userSpaceOnUse" id="clipPath9">
<path d="M240 40 L446 40 L446 146 L240 146 L240 40 Z"/>
</clipPath>
<clipPath clipPathUnits="userSpaceOnUse" id="clipPath10">
<path d="M248 45 L357 45 L357 63 L248 63 L248 45 Z"/>
</clipPath>
<clipPath clipPathUnits="userSpaceOnUse" id="clipPath11">
<path d="M243 64 L444 64 L444 144 L243 144 L243 64 Z"/>
</clipPath>
<clipPath clipPathUnits="userSpaceOnUse" id="clipPath12">
<path d="M463 43 L463 142 L662 142 L662 65 L550 65 L550 43 Z"/>
</clipPath>
<clipPath clipPathUnits="userSpaceOnUse" id="clipPath13">
<path d="M460 40 L666 40 L666 146 L460 146 L460 40 Z"/>
</clipPath>
<clipPath clipPathUnits="userSpaceOnUse" id="clipPath14">
<path d="M468 45 L547 45 L547 63 L468 63 L468 45 Z"/>
</clipPath>
<clipPath clipPathUnits="userSpaceOnUse" id="clipPath15">
<path d="M463 64 L664 64 L664 144 L463 144 L463 64 Z"/>
</clipPath>
<clipPath clipPathUnits="userSpaceOnUse" id="clipPath16">
<path d="M23 163 L23 262 L222 262 L222 185 L148 185 L148 163 Z"/>
</clipPath>
<clipPath clipPathUnits="userSpaceOnUse" id="clipPath17">
<path d="M20 160 L226 160 L226 266 L20 266 L20 160 Z"/>
</clipPath>
<clipPath clipPathUnits="userSpaceOnUse" id="clipPath18">
<path d="M28 165 L145 165 L145 183 L28 183 L28 165 Z"/>
</clipPath>
<clipPath clipPathUnits="userSpaceOnUse" id="clipPath19">
<path d="M23 184 L224 184 L224 264 L23 264 L23 184 Z"/>
</clipPath>
<clipPath clipPathUnits="userSpaceOnUse" id="clipPath20">
<path d="M243 163 L243 262 L442 262 L442 185 L372 185 L372 163 Z"/>
</clipPath>
<clipPath clipPathUnits="userSpaceOnUse" id="clipPath21">
<path d="M240 160 L446 160 L446 266 L240 266 L240 160 Z"/>
</clipPath>
<clipPath clipPathUnits="userSpaceOnUse" id="clipPath22">
<path d="M248 165 L369 165 L369 183 L248 183 L248 165 Z"/>
</clipPath>
<clipPath clipPathUnits="userSpaceOnUse" id="clipPath23">
<path d="M243 184 L444 184 L444 264 L243 264 L243 184 Z"/>
</clipPath>
<clipPath clipPathUnits="userSpaceOnUse" id="clipPath24">
<path d="M463 163 L463 262 L662 262 L662 185 L595 185 L595 163 Z"/>
</clipPath>
<clipPath clipPathUnits="userSpaceOnUse" id="clipPath25">
<path d="M460 160 L666 160 L666 266 L460 266 L460 160 Z"/>
</clipPath>
<clipPath clipPathUnits="userSpaceOnUse" id="clipPath26">
<path d="M468 165 L592 165 L592 183 L468 183 L468 165 Z"/>
</clipPath>
<clipPath clipPathUnits="userSpaceOnUse" id="clipPath27">
<path d="M463 184 L664 184 L664 264 L463 264 L463 184 Z"/>
</clipPath>
<clipPath clipPathUnits="userSpaceOnUse" id="clipPath28">
<path d="M23 283 L23 382 L222 382 L222 305 L136 305 L136 283 Z"/>
</clipPath>
<clipPath clipPathUnits="userSpaceOnUse" id="clipPath29">
<path d="M20 280 L226 280 L226 386 L20 386 L20 280 Z"/>
</clipPath>
<clipPath clipPathUnits="userSpaceOnUse" id="clipPath30">
<path d="M28 285 L133 285 L133 303 L28 303 L28 285 Z"/>
</clipPath>
<clipPath clipPathUnits="userSpaceOnUse" id="clipPath31">
<path d="M23 304 L224 304 L224 384 L23 384 L23 304 Z"/>
</clipPath>
<clipPath clipPathUnits="userSpaceOnUse" id="clipPath32">
<path d="M243 283 L243 382 L442 382 L442 305 L366 305 L366 283 Z"/>
</clipPath>
<clipPath clipPathUnits="userSpaceOnUse" id="clipPath33">
<path d="M240 280 L446 280 L446 386 L240 386 L240 280 Z"/>
</clipPath>
<clipPath clipPathUnits="userSpaceOnUse" id="clipPath34">
<path d="M248 285 L363 285 L363 303 L248 303 L248 285 Z"/>
</clipPath>
<clipPath clipPathUnits="userSpaceOnUse" id="clipPath35">
<path d="M243 304 L444 304 L444 384 L243 384 L243 304 Z"/>
</clipPath>
<clipPath clipPathUnits="userSpaceOnUse" id="clipPath36">
<path d="M463 283 L463 382 L662 382 L662 305 L562 305 L562 283 Z"/>
</clipPath>
<clipPath clipPathUnits="userSpaceOnUse" id="clipPath37">
<path d="M460 280 L666 280 L666 386 L460 386 L460 280 Z"/>
</clipPath>
<clipPath clipPathUnits="userSpaceOnUse" id="clipPath38">
<path d="M468 285 L559 285 L559 303 L468 303 L468 285 Z"/>
</clipPath>
<clipPath clipPathUnits="userSpaceOnUse" id="clipPath39">
<path d="M463 304 L664 304 L664 384 L463 384 L463 304 Z"/>
</clipPath>
<clipPath clipPathUnits="userSpaceOnUse" id="clipPath40">
<path d="M10 31 L680 31 L680 395 L10 395 L10 31 Z"/>
</clipPath>
</defs>
<g fill="white" font-family="'Segoe UI'" stroke-linejoin="round" stroke="white" stroke-width="0" stroke-miterlimit="0">
<path d="M10 10 L81 10 L81 32 L678 32 L678 393 L10 393 L10 10 Z" clip-path="url(#clipPath1)" fill-rule="evenodd" stroke="none"/>
</g>
<g stroke-width="1.1" font-family="'Segoe UI'" stroke-linecap="butt">
<line clip-path="url(#clipPath2)" fill="none" x1="10" x2="81" y1="10" y2="10"/>
<line clip-path="url(#clipPath2)" fill="none" x1="81" x2="81" y1="10" y2="32"/>
<line clip-path="url(#clipPath2)" fill="none" x1="81" x2="678" y1="32" y2="32"/>
<line clip-path="url(#clipPath2)" fill="none" x1="678" x2="678" y1="32" y2="393"/>
<line clip-path="url(#clipPath2)" fill="none" x1="678" x2="10" y1="393" y2="393"/>
<line clip-path="url(#clipPath2)" fill="none" x1="10" x2="10" y1="393" y2="10"/>
<text xml:space="preserve" x="16" y="26" clip-path="url(#clipPath3)" stroke="none">SHS_Needs</text>
<path fill="white" d="M23 43 L114 43 L114 65 L222 65 L222 142 L23 142 L23 43 Z" clip-path="url(#clipPath4)" fill-rule="evenodd" stroke="none"/>
<line clip-path="url(#clipPath5)" fill="none" x1="23" x2="114" y1="43" y2="43"/>
<line clip-path="url(#clipPath5)" fill="none" x1="114" x2="114" y1="43" y2="65"/>
<line clip-path="url(#clipPath5)" fill="none" x1="114" x2="222" y1="65" y2="65"/>
<line clip-path="url(#clipPath5)" fill="none" x1="222" x2="222" y1="65" y2="142"/>
<line clip-path="url(#clipPath5)" fill="none" x1="222" x2="23" y1="142" y2="142"/>
<line clip-path="url(#clipPath5)" fill="none" x1="23" x2="23" y1="142" y2="43"/>
<text xml:space="preserve" x="29" y="59" clip-path="url(#clipPath6)" stroke="none">PharmayNeeds</text>
<line clip-path="url(#clipPath7)" fill="none" x1="23" x2="222" y1="65" y2="65"/>
<path fill="white" d="M243 43 L360 43 L360 65 L442 65 L442 142 L243 142 L243 43 Z" clip-path="url(#clipPath8)" fill-rule="evenodd" stroke="none"/>
<line clip-path="url(#clipPath9)" fill="none" x1="243" x2="360" y1="43" y2="43"/>
<line clip-path="url(#clipPath9)" fill="none" x1="360" x2="360" y1="43" y2="65"/>
<line clip-path="url(#clipPath9)" fill="none" x1="360" x2="442" y1="65" y2="65"/>
<line clip-path="url(#clipPath9)" fill="none" x1="442" x2="442" y1="65" y2="142"/>
<line clip-path="url(#clipPath9)" fill="none" x1="442" x2="243" y1="142" y2="142"/>
<line clip-path="url(#clipPath9)" fill="none" x1="243" x2="243" y1="142" y2="43"/>
<text xml:space="preserve" x="249" y="59" clip-path="url(#clipPath10)" stroke="none">SensorDeviceNeeds</text>
<line clip-path="url(#clipPath11)" fill="none" x1="243" x2="442" y1="65" y2="65"/>
<path fill="white" d="M463 43 L550 43 L550 65 L662 65 L662 142 L463 142 L463 43 Z" clip-path="url(#clipPath12)" fill-rule="evenodd" stroke="none"/>
<line clip-path="url(#clipPath13)" fill="none" x1="463" x2="550" y1="43" y2="43"/>
<line clip-path="url(#clipPath13)" fill="none" x1="550" x2="550" y1="43" y2="65"/>
<line clip-path="url(#clipPath13)" fill="none" x1="550" x2="662" y1="65" y2="65"/>
<line clip-path="url(#clipPath13)" fill="none" x1="662" x2="662" y1="65" y2="142"/>
<line clip-path="url(#clipPath13)" fill="none" x1="662" x2="463" y1="142" y2="142"/>
<line clip-path="url(#clipPath13)" fill="none" x1="463" x2="463" y1="142" y2="43"/>
<text xml:space="preserve" x="469" y="59" clip-path="url(#clipPath14)" stroke="none">InternetNeeds</text>
<line clip-path="url(#clipPath15)" fill="none" x1="463" x2="662" y1="65" y2="65"/>
<path fill="white" d="M23 163 L148 163 L148 185 L222 185 L222 262 L23 262 L23 163 Z" clip-path="url(#clipPath16)" fill-rule="evenodd" stroke="none"/>
<line clip-path="url(#clipPath17)" fill="none" x1="23" x2="148" y1="163" y2="163"/>
<line clip-path="url(#clipPath17)" fill="none" x1="148" x2="148" y1="163" y2="185"/>
<line clip-path="url(#clipPath17)" fill="none" x1="148" x2="222" y1="185" y2="185"/>
<line clip-path="url(#clipPath17)" fill="none" x1="222" x2="222" y1="185" y2="262"/>
<line clip-path="url(#clipPath17)" fill="none" x1="222" x2="23" y1="262" y2="262"/>
<line clip-path="url(#clipPath17)" fill="none" x1="23" x2="23" y1="262" y2="163"/>
<text xml:space="preserve" x="29" y="179" clip-path="url(#clipPath18)" stroke="none">EnergyProviderNeeds</text>
<line clip-path="url(#clipPath19)" fill="none" x1="23" x2="222" y1="185" y2="185"/>
<path fill="white" d="M243 163 L372 163 L372 185 L442 185 L442 262 L243 262 L243 163 Z" clip-path="url(#clipPath20)" fill-rule="evenodd" stroke="none"/>
<line clip-path="url(#clipPath21)" fill="none" x1="243" x2="372" y1="163" y2="163"/>
<line clip-path="url(#clipPath21)" fill="none" x1="372" x2="372" y1="163" y2="185"/>
<line clip-path="url(#clipPath21)" fill="none" x1="372" x2="442" y1="185" y2="185"/>
<line clip-path="url(#clipPath21)" fill="none" x1="442" x2="442" y1="185" y2="262"/>
<line clip-path="url(#clipPath21)" fill="none" x1="442" x2="243" y1="262" y2="262"/>
<line clip-path="url(#clipPath21)" fill="none" x1="243" x2="243" y1="262" y2="163"/>
<text xml:space="preserve" x="249" y="179" clip-path="url(#clipPath22)" stroke="none">HealthAuthorityNeeds</text>
<line clip-path="url(#clipPath23)" fill="none" x1="243" x2="442" y1="185" y2="185"/>
<path fill="white" d="M463 163 L595 163 L595 185 L662 185 L662 262 L463 262 L463 163 Z" clip-path="url(#clipPath24)" fill-rule="evenodd" stroke="none"/>
<line clip-path="url(#clipPath25)" fill="none" x1="463" x2="595" y1="163" y2="163"/>
<line clip-path="url(#clipPath25)" fill="none" x1="595" x2="595" y1="163" y2="185"/>
<line clip-path="url(#clipPath25)" fill="none" x1="595" x2="662" y1="185" y2="185"/>
<line clip-path="url(#clipPath25)" fill="none" x1="662" x2="662" y1="185" y2="262"/>
<line clip-path="url(#clipPath25)" fill="none" x1="662" x2="463" y1="262" y2="262"/>
<line clip-path="url(#clipPath25)" fill="none" x1="463" x2="463" y1="262" y2="163"/>
<text xml:space="preserve" x="469" y="179" clip-path="url(#clipPath26)" stroke="none">ElectronicDeviceNeeds</text>
<line clip-path="url(#clipPath27)" fill="none" x1="463" x2="662" y1="185" y2="185"/>
<path fill="white" d="M23 283 L136 283 L136 305 L222 305 L222 382 L23 382 L23 283 Z" clip-path="url(#clipPath28)" fill-rule="evenodd" stroke="none"/>
<line clip-path="url(#clipPath29)" fill="none" x1="23" x2="136" y1="283" y2="283"/>
<line clip-path="url(#clipPath29)" fill="none" x1="136" x2="136" y1="283" y2="305"/>
<line clip-path="url(#clipPath29)" fill="none" x1="136" x2="222" y1="305" y2="305"/>
<line clip-path="url(#clipPath29)" fill="none" x1="222" x2="222" y1="305" y2="382"/>
<line clip-path="url(#clipPath29)" fill="none" x1="222" x2="23" y1="382" y2="382"/>
<line clip-path="url(#clipPath29)" fill="none" x1="23" x2="23" y1="382" y2="283"/>
<text xml:space="preserve" x="29" y="299" clip-path="url(#clipPath30)" stroke="none">PoliceStationNeeds</text>
<line clip-path="url(#clipPath31)" fill="none" x1="23" x2="222" y1="305" y2="305"/>
<path fill="white" d="M243 283 L366 283 L366 305 L442 305 L442 382 L243 382 L243 283 Z" clip-path="url(#clipPath32)" fill-rule="evenodd" stroke="none"/>
<line clip-path="url(#clipPath33)" fill="none" x1="243" x2="366" y1="283" y2="283"/>
<line clip-path="url(#clipPath33)" fill="none" x1="366" x2="366" y1="283" y2="305"/>
<line clip-path="url(#clipPath33)" fill="none" x1="366" x2="442" y1="305" y2="305"/>
<line clip-path="url(#clipPath33)" fill="none" x1="442" x2="442" y1="305" y2="382"/>
<line clip-path="url(#clipPath33)" fill="none" x1="442" x2="243" y1="382" y2="382"/>
<line clip-path="url(#clipPath33)" fill="none" x1="243" x2="243" y1="382" y2="283"/>
<text xml:space="preserve" x="249" y="299" clip-path="url(#clipPath34)" stroke="none">MedicalPeopleNeeds</text>
<line clip-path="url(#clipPath35)" fill="none" x1="243" x2="442" y1="305" y2="305"/>
<path fill="white" d="M463 283 L562 283 L562 305 L662 305 L662 382 L463 382 L463 283 Z" clip-path="url(#clipPath36)" fill-rule="evenodd" stroke="none"/>
<line clip-path="url(#clipPath37)" fill="none" x1="463" x2="562" y1="283" y2="283"/>
<line clip-path="url(#clipPath37)" fill="none" x1="562" x2="562" y1="283" y2="305"/>
<line clip-path="url(#clipPath37)" fill="none" x1="562" x2="662" y1="305" y2="305"/>
<line clip-path="url(#clipPath37)" fill="none" x1="662" x2="662" y1="305" y2="382"/>
<line clip-path="url(#clipPath37)" fill="none" x1="662" x2="463" y1="382" y2="382"/>
<line clip-path="url(#clipPath37)" fill="none" x1="463" x2="463" y1="382" y2="283"/>
<text xml:space="preserve" x="469" y="299" clip-path="url(#clipPath38)" stroke="none">InhabitantNeeds</text>
<line clip-path="url(#clipPath39)" fill="none" x1="463" x2="662" y1="305" y2="305"/>
<line clip-path="url(#clipPath40)" fill="none" x1="10" x2="678" y1="32" y2="32"/>
</g>
</g>
</svg>
