<?xml version="1.0" encoding="UTF-8"?><svg xmlns="http://www.w3.org/2000/svg" xmlns:xlink="http://www.w3.org/1999/xlink" stroke-dasharray="none" shape-rendering="auto" font-family="'Dialog'" width="455" text-rendering="auto" fill-opacity="1" contentScriptType="text/ecmascript" color-interpolation="auto" color-rendering="auto" preserveAspectRatio="xMidYMid meet" font-size="12" viewBox="0 0 455 230" fill="black" stroke="black" image-rendering="auto" stroke-miterlimit="10" zoomAndPan="magnify" version="1.0" stroke-linecap="square" stroke-linejoin="miter" contentStyleType="text/css" font-style="normal" height="230" stroke-width="1" stroke-dashoffset="0" font-weight="normal" stroke-opacity="1">
<!--Generated by the Batik Graphics2D SVG Generator-->
<defs id="genericDefs"/>
<g>
<defs id="defs1">
<clipPath clipPathUnits="userSpaceOnUse" id="clipPath1">
<path d="M10 10 L10 109 L209 109 L209 32 L111 32 L111 10 Z"/>
</clipPath>
<clipPath clipPathUnits="userSpaceOnUse" id="clipPath2">
<path d="M7 7 L213 7 L213 113 L7 113 L7 7 Z"/>
</clipPath>
<clipPath clipPathUnits="userSpaceOnUse" id="clipPath3">
<path d="M15 12 L108 12 L108 30 L15 30 L15 12 Z"/>
</clipPath>
<clipPath clipPathUnits="userSpaceOnUse" id="clipPath4">
<path d="M10 31 L211 31 L211 111 L10 111 L10 31 Z"/>
</clipPath>
<clipPath clipPathUnits="userSpaceOnUse" id="clipPath5">
<path d="M10 120 L10 219 L209 219 L209 142 L121 142 L121 120 Z"/>
</clipPath>
<clipPath clipPathUnits="userSpaceOnUse" id="clipPath6">
<path d="M7 117 L213 117 L213 223 L7 223 L7 117 Z"/>
</clipPath>
<clipPath clipPathUnits="userSpaceOnUse" id="clipPath7">
<path d="M15 122 L118 122 L118 140 L15 140 L15 122 Z"/>
</clipPath>
<clipPath clipPathUnits="userSpaceOnUse" id="clipPath8">
<path d="M10 141 L211 141 L211 221 L10 221 L10 141 Z"/>
</clipPath>
<clipPath clipPathUnits="userSpaceOnUse" id="clipPath9">
<path d="M245 120 L245 219 L444 219 L444 142 L366 142 L366 120 Z"/>
</clipPath>
<clipPath clipPathUnits="userSpaceOnUse" id="clipPath10">
<path d="M242 117 L448 117 L448 223 L242 223 L242 117 Z"/>
</clipPath>
<clipPath clipPathUnits="userSpaceOnUse" id="clipPath11">
<path d="M250 122 L363 122 L363 140 L250 140 L250 122 Z"/>
</clipPath>
<clipPath clipPathUnits="userSpaceOnUse" id="clipPath12">
<path d="M245 141 L446 141 L446 221 L245 221 L245 141 Z"/>
</clipPath>
<clipPath clipPathUnits="userSpaceOnUse" id="clipPath13">
<path d="M245 10 L245 109 L444 109 L444 32 L386 32 L386 10 Z"/>
</clipPath>
<clipPath clipPathUnits="userSpaceOnUse" id="clipPath14">
<path d="M242 7 L448 7 L448 113 L242 113 L242 7 Z"/>
</clipPath>
<clipPath clipPathUnits="userSpaceOnUse" id="clipPath15">
<path d="M250 12 L383 12 L383 30 L250 30 L250 12 Z"/>
</clipPath>
<clipPath clipPathUnits="userSpaceOnUse" id="clipPath16">
<path d="M245 31 L446 31 L446 111 L245 111 L245 31 Z"/>
</clipPath>
</defs>
<g fill="white" font-family="'Segoe UI'" stroke-linejoin="round" stroke="white" stroke-width="0" stroke-miterlimit="0">
<path d="M10 10 L111 10 L111 32 L209 32 L209 109 L10 109 L10 10 Z" clip-path="url(#clipPath1)" fill-rule="evenodd" stroke="none"/>
</g>
<g stroke-width="1.1" font-family="'Segoe UI'" stroke-linecap="butt">
<line clip-path="url(#clipPath2)" fill="none" x1="10" x2="111" y1="10" y2="10"/>
<line clip-path="url(#clipPath2)" fill="none" x1="111" x2="111" y1="10" y2="32"/>
<line clip-path="url(#clipPath2)" fill="none" x1="111" x2="209" y1="32" y2="32"/>
<line clip-path="url(#clipPath2)" fill="none" x1="209" x2="209" y1="32" y2="109"/>
<line clip-path="url(#clipPath2)" fill="none" x1="209" x2="10" y1="109" y2="109"/>
<line clip-path="url(#clipPath2)" fill="none" x1="10" x2="10" y1="109" y2="10"/>
<text xml:space="preserve" x="16" y="26" clip-path="url(#clipPath3)" stroke="none">KeyInputSystems</text>
<line clip-path="url(#clipPath4)" fill="none" x1="10" x2="209" y1="32" y2="32"/>
<path fill="white" d="M10 120 L121 120 L121 142 L209 142 L209 219 L10 219 L10 120 Z" clip-path="url(#clipPath5)" fill-rule="evenodd" stroke="none"/>
<line clip-path="url(#clipPath6)" fill="none" x1="10" x2="121" y1="120" y2="120"/>
<line clip-path="url(#clipPath6)" fill="none" x1="121" x2="121" y1="120" y2="142"/>
<line clip-path="url(#clipPath6)" fill="none" x1="121" x2="209" y1="142" y2="142"/>
<line clip-path="url(#clipPath6)" fill="none" x1="209" x2="209" y1="142" y2="219"/>
<line clip-path="url(#clipPath6)" fill="none" x1="209" x2="10" y1="219" y2="219"/>
<line clip-path="url(#clipPath6)" fill="none" x1="10" x2="10" y1="219" y2="120"/>
<text xml:space="preserve" x="16" y="136" clip-path="url(#clipPath7)" stroke="none">KeyOutputSystems</text>
<line clip-path="url(#clipPath8)" fill="none" x1="10" x2="209" y1="142" y2="142"/>
<path fill="white" d="M245 120 L366 120 L366 142 L444 142 L444 219 L245 219 L245 120 Z" clip-path="url(#clipPath9)" fill-rule="evenodd" stroke="none"/>
<line clip-path="url(#clipPath10)" fill="none" x1="245" x2="366" y1="120" y2="120"/>
<line clip-path="url(#clipPath10)" fill="none" x1="366" x2="366" y1="120" y2="142"/>
<line clip-path="url(#clipPath10)" fill="none" x1="366" x2="444" y1="142" y2="142"/>
<line clip-path="url(#clipPath10)" fill="none" x1="444" x2="444" y1="142" y2="219"/>
<line clip-path="url(#clipPath10)" fill="none" x1="444" x2="245" y1="219" y2="219"/>
<line clip-path="url(#clipPath10)" fill="none" x1="245" x2="245" y1="219" y2="120"/>
<text xml:space="preserve" x="251" y="136" clip-path="url(#clipPath11)" stroke="none">KeyResourceSystems</text>
<line clip-path="url(#clipPath12)" fill="none" x1="245" x2="444" y1="142" y2="142"/>
<path fill="white" d="M245 10 L386 10 L386 32 L444 32 L444 109 L245 109 L245 10 Z" clip-path="url(#clipPath13)" fill-rule="evenodd" stroke="none"/>
<line clip-path="url(#clipPath14)" fill="none" x1="245" x2="386" y1="10" y2="10"/>
<line clip-path="url(#clipPath14)" fill="none" x1="386" x2="386" y1="10" y2="32"/>
<line clip-path="url(#clipPath14)" fill="none" x1="386" x2="444" y1="32" y2="32"/>
<line clip-path="url(#clipPath14)" fill="none" x1="444" x2="444" y1="32" y2="109"/>
<line clip-path="url(#clipPath14)" fill="none" x1="444" x2="245" y1="109" y2="109"/>
<line clip-path="url(#clipPath14)" fill="none" x1="245" x2="245" y1="109" y2="10"/>
<text xml:space="preserve" x="251" y="26" clip-path="url(#clipPath15)" stroke="none">KeyConstrainingSystems</text>
<line clip-path="url(#clipPath16)" fill="none" x1="245" x2="444" y1="32" y2="32"/>
</g>
</g>
</svg>
