<?xml version="1.0" encoding="UTF-8"?><svg xmlns="http://www.w3.org/2000/svg" xmlns:xlink="http://www.w3.org/1999/xlink" stroke-dasharray="none" shape-rendering="auto" font-family="'Dialog'" width="1011" text-rendering="auto" fill-opacity="1" contentScriptType="text/ecmascript" color-interpolation="auto" color-rendering="auto" preserveAspectRatio="xMidYMid meet" font-size="12" viewBox="0 0 1011 526" fill="black" stroke="black" image-rendering="auto" stroke-miterlimit="10" zoomAndPan="magnify" version="1.0" stroke-linecap="square" stroke-linejoin="miter" contentStyleType="text/css" font-style="normal" height="526" stroke-width="1" stroke-dashoffset="0" font-weight="normal" stroke-opacity="1">
<!--Generated by the Batik Graphics2D SVG Generator-->
<defs id="genericDefs"/>
<g>
<defs id="defs1">
<linearGradient x1="10" x2="10" y1="10" gradientUnits="userSpaceOnUse" y2="516" xlink:type="simple" xlink:actuate="onLoad" id="linearGradient1" xlink:show="other" spreadMethod="pad">
<stop stop-opacity="1" stop-color="white" offset="0%"/>
<stop stop-opacity="1" stop-color="white" offset="100%"/>
</linearGradient>
<linearGradient x1="843" x2="843" y1="170" gradientUnits="userSpaceOnUse" y2="210" xlink:type="simple" xlink:actuate="onLoad" id="linearGradient2" xlink:show="other" spreadMethod="pad">
<stop stop-opacity="1" stop-color="white" offset="0%"/>
<stop stop-opacity="1" stop-color="white" offset="100%"/>
</linearGradient>
<linearGradient x1="845" x2="845" y1="280" gradientUnits="userSpaceOnUse" y2="320" xlink:type="simple" xlink:actuate="onLoad" id="linearGradient3" xlink:show="other" spreadMethod="pad">
<stop stop-opacity="1" stop-color="white" offset="0%"/>
<stop stop-opacity="1" stop-color="white" offset="100%"/>
</linearGradient>
<linearGradient x1="260" x2="260" y1="170" gradientUnits="userSpaceOnUse" y2="376" xlink:type="simple" xlink:actuate="onLoad" id="linearGradient4" xlink:show="other" spreadMethod="pad">
<stop stop-opacity="1" stop-color="white" offset="0%"/>
<stop stop-opacity="1" stop-color="white" offset="100%"/>
</linearGradient>
<linearGradient x1="420" x2="420" y1="65" gradientUnits="userSpaceOnUse" y2="105" xlink:type="simple" xlink:actuate="onLoad" id="linearGradient5" xlink:show="other" spreadMethod="pad">
<stop stop-opacity="1" stop-color="white" offset="0%"/>
<stop stop-opacity="1" stop-color="white" offset="100%"/>
</linearGradient>
<linearGradient x1="260" x2="260" y1="65" gradientUnits="userSpaceOnUse" y2="105" xlink:type="simple" xlink:actuate="onLoad" id="linearGradient6" xlink:show="other" spreadMethod="pad">
<stop stop-opacity="1" stop-color="white" offset="0%"/>
<stop stop-opacity="1" stop-color="white" offset="100%"/>
</linearGradient>
<linearGradient x1="605" x2="605" y1="65" gradientUnits="userSpaceOnUse" y2="105" xlink:type="simple" xlink:actuate="onLoad" id="linearGradient7" xlink:show="other" spreadMethod="pad">
<stop stop-opacity="1" stop-color="white" offset="0%"/>
<stop stop-opacity="1" stop-color="white" offset="100%"/>
</linearGradient>
<linearGradient x1="843" x2="843" y1="224" gradientUnits="userSpaceOnUse" y2="264" xlink:type="simple" xlink:actuate="onLoad" id="linearGradient8" xlink:show="other" spreadMethod="pad">
<stop stop-opacity="1" stop-color="white" offset="0%"/>
<stop stop-opacity="1" stop-color="white" offset="100%"/>
</linearGradient>
<linearGradient x1="845" x2="845" y1="336" gradientUnits="userSpaceOnUse" y2="376" xlink:type="simple" xlink:actuate="onLoad" id="linearGradient9" xlink:show="other" spreadMethod="pad">
<stop stop-opacity="1" stop-color="white" offset="0%"/>
<stop stop-opacity="1" stop-color="white" offset="100%"/>
</linearGradient>
<linearGradient x1="653" x2="653" y1="450" gradientUnits="userSpaceOnUse" y2="490" xlink:type="simple" xlink:actuate="onLoad" id="linearGradient10" xlink:show="other" spreadMethod="pad">
<stop stop-opacity="1" stop-color="white" offset="0%"/>
<stop stop-opacity="1" stop-color="white" offset="100%"/>
</linearGradient>
<linearGradient x1="458" x2="458" y1="450" gradientUnits="userSpaceOnUse" y2="490" xlink:type="simple" xlink:actuate="onLoad" id="linearGradient11" xlink:show="other" spreadMethod="pad">
<stop stop-opacity="1" stop-color="white" offset="0%"/>
<stop stop-opacity="1" stop-color="white" offset="100%"/>
</linearGradient>
<linearGradient x1="260" x2="260" y1="450" gradientUnits="userSpaceOnUse" y2="490" xlink:type="simple" xlink:actuate="onLoad" id="linearGradient12" xlink:show="other" spreadMethod="pad">
<stop stop-opacity="1" stop-color="white" offset="0%"/>
<stop stop-opacity="1" stop-color="white" offset="100%"/>
</linearGradient>
<linearGradient x1="51" x2="51" y1="306" gradientUnits="userSpaceOnUse" y2="346" xlink:type="simple" xlink:actuate="onLoad" id="linearGradient13" xlink:show="other" spreadMethod="pad">
<stop stop-opacity="1" stop-color="white" offset="0%"/>
<stop stop-opacity="1" stop-color="white" offset="100%"/>
</linearGradient>
<linearGradient x1="51" x2="51" y1="209" gradientUnits="userSpaceOnUse" y2="249" xlink:type="simple" xlink:actuate="onLoad" id="linearGradient14" xlink:show="other" spreadMethod="pad">
<stop stop-opacity="1" stop-color="white" offset="0%"/>
<stop stop-opacity="1" stop-color="white" offset="100%"/>
</linearGradient>
<clipPath clipPathUnits="userSpaceOnUse" id="clipPath1">
<path d="M10 10 L10 515 L1000 515 L1000 10 Z"/>
</clipPath>
<clipPath clipPathUnits="userSpaceOnUse" id="clipPath2">
<path d="M485 12 L528 12 L528 30 L485 30 L485 12 Z"/>
</clipPath>
<clipPath clipPathUnits="userSpaceOnUse" id="clipPath3">
<path d="M420 29 L592 29 L592 47 L420 47 L420 29 Z"/>
</clipPath>
<clipPath clipPathUnits="userSpaceOnUse" id="clipPath4">
<path d="M843 170 L843 209 L981 209 L981 170 Z"/>
</clipPath>
<clipPath clipPathUnits="userSpaceOnUse" id="clipPath5">
<path d="M867 181 L960 181 L960 199 L867 199 L867 181 Z"/>
</clipPath>
<clipPath clipPathUnits="userSpaceOnUse" id="clipPath6">
<path d="M842 169 L983 169 L983 211 L842 211 L842 169 Z"/>
</clipPath>
<clipPath clipPathUnits="userSpaceOnUse" id="clipPath7">
<path d="M845 280 L845 319 L983 319 L983 280 Z"/>
</clipPath>
<clipPath clipPathUnits="userSpaceOnUse" id="clipPath8">
<path d="M857 291 L974 291 L974 309 L857 309 L857 291 Z"/>
</clipPath>
<clipPath clipPathUnits="userSpaceOnUse" id="clipPath9">
<path d="M844 279 L985 279 L985 321 L844 321 L844 279 Z"/>
</clipPath>
<clipPath clipPathUnits="userSpaceOnUse" id="clipPath10">
<path d="M260 170 L260 375 L733 375 L733 170 Z"/>
</clipPath>
<clipPath clipPathUnits="userSpaceOnUse" id="clipPath11">
<path d="M432 264 L563 264 L563 282 L432 282 L432 264 Z"/>
</clipPath>
<clipPath clipPathUnits="userSpaceOnUse" id="clipPath12">
<path d="M259 169 L735 169 L735 377 L259 377 L259 169 Z"/>
</clipPath>
<clipPath clipPathUnits="userSpaceOnUse" id="clipPath13">
<path d="M420 65 L420 104 L585 104 L585 65 Z"/>
</clipPath>
<clipPath clipPathUnits="userSpaceOnUse" id="clipPath14">
<path d="M426 76 L582 76 L582 94 L426 94 L426 76 Z"/>
</clipPath>
<clipPath clipPathUnits="userSpaceOnUse" id="clipPath15">
<path d="M419 64 L587 64 L587 106 L419 106 L419 64 Z"/>
</clipPath>
<clipPath clipPathUnits="userSpaceOnUse" id="clipPath16">
<path d="M260 65 L260 104 L410 104 L410 65 Z"/>
</clipPath>
<clipPath clipPathUnits="userSpaceOnUse" id="clipPath17">
<path d="M266 76 L407 76 L407 94 L266 94 L266 76 Z"/>
</clipPath>
<clipPath clipPathUnits="userSpaceOnUse" id="clipPath18">
<path d="M259 64 L412 64 L412 106 L259 106 L259 64 Z"/>
</clipPath>
<clipPath clipPathUnits="userSpaceOnUse" id="clipPath19">
<path d="M605 65 L605 104 L735 104 L735 65 Z"/>
</clipPath>
<clipPath clipPathUnits="userSpaceOnUse" id="clipPath20">
<path d="M614 76 L728 76 L728 94 L614 94 L614 76 Z"/>
</clipPath>
<clipPath clipPathUnits="userSpaceOnUse" id="clipPath21">
<path d="M604 64 L737 64 L737 106 L604 106 L604 64 Z"/>
</clipPath>
<clipPath clipPathUnits="userSpaceOnUse" id="clipPath22">
<path d="M843 224 L843 263 L980 263 L980 224 Z"/>
</clipPath>
<clipPath clipPathUnits="userSpaceOnUse" id="clipPath23">
<path d="M859 235 L966 235 L966 253 L859 253 L859 235 Z"/>
</clipPath>
<clipPath clipPathUnits="userSpaceOnUse" id="clipPath24">
<path d="M842 223 L982 223 L982 265 L842 265 L842 223 Z"/>
</clipPath>
<clipPath clipPathUnits="userSpaceOnUse" id="clipPath25">
<path d="M845 336 L845 375 L982 375 L982 336 Z"/>
</clipPath>
<clipPath clipPathUnits="userSpaceOnUse" id="clipPath26">
<path d="M858 347 L972 347 L972 365 L858 365 L858 347 Z"/>
</clipPath>
<clipPath clipPathUnits="userSpaceOnUse" id="clipPath27">
<path d="M844 335 L984 335 L984 377 L844 377 L844 335 Z"/>
</clipPath>
<clipPath clipPathUnits="userSpaceOnUse" id="clipPath28">
<path d="M653 450 L653 489 L733 489 L733 450 Z"/>
</clipPath>
<clipPath clipPathUnits="userSpaceOnUse" id="clipPath29">
<path d="M659 461 L730 461 L730 479 L659 479 L659 461 Z"/>
</clipPath>
<clipPath clipPathUnits="userSpaceOnUse" id="clipPath30">
<path d="M652 449 L735 449 L735 491 L652 491 L652 449 Z"/>
</clipPath>
<clipPath clipPathUnits="userSpaceOnUse" id="clipPath31">
<path d="M458 450 L458 489 L577 489 L577 450 Z"/>
</clipPath>
<clipPath clipPathUnits="userSpaceOnUse" id="clipPath32">
<path d="M464 461 L574 461 L574 479 L464 479 L464 461 Z"/>
</clipPath>
<clipPath clipPathUnits="userSpaceOnUse" id="clipPath33">
<path d="M457 449 L579 449 L579 491 L457 491 L457 449 Z"/>
</clipPath>
<clipPath clipPathUnits="userSpaceOnUse" id="clipPath34">
<path d="M260 450 L260 489 L382 489 L382 450 Z"/>
</clipPath>
<clipPath clipPathUnits="userSpaceOnUse" id="clipPath35">
<path d="M266 461 L379 461 L379 479 L266 479 L266 461 Z"/>
</clipPath>
<clipPath clipPathUnits="userSpaceOnUse" id="clipPath36">
<path d="M259 449 L384 449 L384 491 L259 491 L259 449 Z"/>
</clipPath>
<clipPath clipPathUnits="userSpaceOnUse" id="clipPath37">
<path d="M51 306 L51 345 L160 345 L160 306 Z"/>
</clipPath>
<clipPath clipPathUnits="userSpaceOnUse" id="clipPath38">
<path d="M57 317 L157 317 L157 335 L57 335 L57 317 Z"/>
</clipPath>
<clipPath clipPathUnits="userSpaceOnUse" id="clipPath39">
<path d="M50 305 L162 305 L162 347 L50 347 L50 305 Z"/>
</clipPath>
<clipPath clipPathUnits="userSpaceOnUse" id="clipPath40">
<path d="M51 209 L51 248 L160 248 L160 209 Z"/>
</clipPath>
<clipPath clipPathUnits="userSpaceOnUse" id="clipPath41">
<path d="M61 220 L152 220 L152 238 L61 238 L61 220 Z"/>
</clipPath>
<clipPath clipPathUnits="userSpaceOnUse" id="clipPath42">
<path d="M50 208 L162 208 L162 250 L50 250 L50 208 Z"/>
</clipPath>
<clipPath clipPathUnits="userSpaceOnUse" id="clipPath43">
<path d="M10 46 L1002 46 L1002 517 L10 517 L10 46 Z"/>
</clipPath>
<clipPath clipPathUnits="userSpaceOnUse" id="clipPath44">
<path d="M9 9 L1002 9 L1002 517 L9 517 L9 9 Z"/>
</clipPath>
<clipPath clipPathUnits="userSpaceOnUse" id="clipPath45">
<path d="M-1 -1 L1012 -1 L1012 527 L-1 527 L-1 -1 Z"/>
</clipPath>
</defs>
<g fill="url(#linearGradient1)" font-family="'Segoe UI'" stroke-linejoin="round" stroke="url(#linearGradient1)" stroke-width="0" stroke-miterlimit="0">
<rect x="10" y="10" clip-path="url(#clipPath1)" width="991" height="506" stroke="none"/>
<text x="486" y="26" clip-path="url(#clipPath2)" fill="black" stroke="none" xml:space="preserve">«Block»</text>
<text x="421" y="43" clip-path="url(#clipPath3)" fill="black" stroke="none" xml:space="preserve">SmartHomeSystemEnvironment</text>
<rect x="843" y="170" clip-path="url(#clipPath4)" fill="url(#linearGradient2)" width="139" height="40" stroke="none"/>
<text x="868" y="195" clip-path="url(#clipPath5)" fill="black" stroke="none" xml:space="preserve"> : Inhabitant [1..*]</text>
</g>
<g stroke-width="1.1" font-family="'Segoe UI'" stroke-linecap="butt">
<rect x="843" y="170" clip-path="url(#clipPath6)" fill="none" width="138" rx="0" ry="0" height="39"/>
<rect x="845" y="280" clip-path="url(#clipPath7)" fill="url(#linearGradient3)" width="139" height="40" stroke="none"/>
<text xml:space="preserve" x="858" y="305" clip-path="url(#clipPath8)" stroke="none"> : MedicalPeople [1..*]</text>
<rect x="845" y="280" clip-path="url(#clipPath9)" fill="none" width="138" rx="0" ry="0" height="39"/>
<rect x="260" y="170" clip-path="url(#clipPath10)" fill="url(#linearGradient4)" width="474" height="206" stroke="none"/>
<text xml:space="preserve" x="433" y="278" clip-path="url(#clipPath11)" stroke="none"> : SmartHomeSystem [1]</text>
<rect x="260" y="170" clip-path="url(#clipPath12)" fill="none" width="473" rx="0" ry="0" height="205"/>
<rect x="420" y="65" clip-path="url(#clipPath13)" fill="url(#linearGradient5)" width="166" height="40" stroke="none"/>
<text xml:space="preserve" x="427" y="90" clip-path="url(#clipPath14)" stroke="none"> : EnvironmentalAuthority [1]</text>
<rect x="420" y="65" clip-path="url(#clipPath15)" fill="none" width="165" rx="0" ry="0" height="39"/>
<rect x="260" y="65" clip-path="url(#clipPath16)" fill="url(#linearGradient6)" width="151" height="40" stroke="none"/>
<text xml:space="preserve" x="267" y="90" clip-path="url(#clipPath17)" stroke="none"> : InsuranceCompany [1..*]</text>
<rect x="260" y="65" clip-path="url(#clipPath18)" fill="none" width="150" rx="0" ry="0" height="39"/>
<rect x="605" y="65" clip-path="url(#clipPath19)" fill="url(#linearGradient7)" width="131" height="40" stroke="none"/>
<text xml:space="preserve" x="615" y="90" clip-path="url(#clipPath20)" stroke="none"> : HealthAuthority [1]</text>
<rect x="605" y="65" clip-path="url(#clipPath21)" fill="none" width="130" rx="0" ry="0" height="39"/>
<rect x="843" y="224" clip-path="url(#clipPath22)" fill="url(#linearGradient8)" width="138" height="40" stroke="none"/>
<text xml:space="preserve" x="860" y="249" clip-path="url(#clipPath23)" stroke="none"> : PoliceStation [1..*]</text>
<rect x="843" y="224" clip-path="url(#clipPath24)" fill="none" width="137" rx="0" ry="0" height="39"/>
<rect x="845" y="336" clip-path="url(#clipPath25)" fill="url(#linearGradient9)" width="138" height="40" stroke="none"/>
<text xml:space="preserve" x="859" y="361" clip-path="url(#clipPath26)" stroke="none"> : ActuactorDevice [*]</text>
<rect x="845" y="336" clip-path="url(#clipPath27)" fill="none" width="137" rx="0" ry="0" height="39"/>
<rect x="653" y="450" clip-path="url(#clipPath28)" fill="url(#linearGradient10)" width="81" height="40" stroke="none"/>
<text xml:space="preserve" x="660" y="475" clip-path="url(#clipPath29)" stroke="none"> : Internet [1]</text>
<rect x="653" y="450" clip-path="url(#clipPath30)" fill="none" width="80" rx="0" ry="0" height="39"/>
<rect x="458" y="450" clip-path="url(#clipPath31)" fill="url(#linearGradient11)" width="120" height="40" stroke="none"/>
<text xml:space="preserve" x="465" y="475" clip-path="url(#clipPath32)" stroke="none"> : EnergyProvider [1]</text>
<rect x="458" y="450" clip-path="url(#clipPath33)" fill="none" width="119" rx="0" ry="0" height="39"/>
<rect x="260" y="450" clip-path="url(#clipPath34)" fill="url(#linearGradient12)" width="123" height="40" stroke="none"/>
<text xml:space="preserve" x="267" y="475" clip-path="url(#clipPath35)" stroke="none"> : ProjectManager [1]</text>
<rect x="260" y="450" clip-path="url(#clipPath36)" fill="none" width="122" rx="0" ry="0" height="39"/>
<rect x="51" y="306" clip-path="url(#clipPath37)" fill="url(#linearGradient13)" width="110" height="40" stroke="none"/>
<text xml:space="preserve" x="58" y="331" clip-path="url(#clipPath38)" stroke="none"> : SensorDevice [*]</text>
<rect x="51" y="306" clip-path="url(#clipPath39)" fill="none" width="109" rx="0" ry="0" height="39"/>
<rect x="51" y="209" clip-path="url(#clipPath40)" fill="url(#linearGradient14)" width="110" height="40" stroke="none"/>
<text xml:space="preserve" x="62" y="234" clip-path="url(#clipPath41)" stroke="none"> : Pharmacy [1..*]</text>
<rect x="51" y="209" clip-path="url(#clipPath42)" fill="none" width="109" rx="0" ry="0" height="39"/>
<line clip-path="url(#clipPath43)" fill="none" x1="10" x2="1001" y1="47" y2="47"/>
<rect x="10" y="10" clip-path="url(#clipPath44)" fill="none" width="990" rx="0" ry="0" height="505"/>
<line clip-path="url(#clipPath45)" fill="none" text-rendering="optimizeLegibility" x1="690" x2="690" y1="450" y2="376"/>
<line clip-path="url(#clipPath45)" fill="none" text-rendering="optimizeLegibility" x1="843" x2="734" y1="190" y2="190"/>
<line clip-path="url(#clipPath45)" fill="none" text-rendering="optimizeLegibility" x1="335" x2="335" y1="105" y2="170"/>
<line clip-path="url(#clipPath45)" fill="none" text-rendering="optimizeLegibility" x1="845" x2="734" y1="300" y2="300"/>
<line clip-path="url(#clipPath45)" fill="none" text-rendering="optimizeLegibility" x1="515" x2="515" y1="450" y2="376"/>
<line clip-path="url(#clipPath45)" fill="none" text-rendering="optimizeLegibility" x1="843" x2="734" y1="245" y2="245"/>
<line clip-path="url(#clipPath45)" fill="none" text-rendering="optimizeLegibility" x1="161" x2="260" y1="230" y2="230"/>
<line clip-path="url(#clipPath45)" fill="none" text-rendering="optimizeLegibility" x1="495" x2="495" y1="105" y2="170"/>
<line clip-path="url(#clipPath45)" fill="none" text-rendering="optimizeLegibility" x1="845" x2="734" y1="355" y2="355"/>
<line clip-path="url(#clipPath45)" fill="none" text-rendering="optimizeLegibility" x1="161" x2="260" y1="325" y2="325"/>
<line clip-path="url(#clipPath45)" fill="none" text-rendering="optimizeLegibility" x1="670" x2="670" y1="105" y2="170"/>
<line clip-path="url(#clipPath45)" fill="none" text-rendering="optimizeLegibility" x1="325" x2="325" y1="450" y2="376"/>
<line clip-path="url(#clipPath45)" fill="none" text-rendering="optimizeLegibility" x1="843" x2="734" y1="190" y2="190"/>
<line clip-path="url(#clipPath45)" fill="none" text-rendering="optimizeLegibility" x1="845" x2="734" y1="300" y2="300"/>
<line clip-path="url(#clipPath45)" fill="none" text-rendering="optimizeLegibility" x1="843" x2="734" y1="245" y2="245"/>
<line clip-path="url(#clipPath45)" fill="none" text-rendering="optimizeLegibility" x1="845" x2="734" y1="355" y2="355"/>
<line clip-path="url(#clipPath45)" fill="none" text-rendering="optimizeLegibility" x1="670" x2="670" y1="105" y2="170"/>
<line clip-path="url(#clipPath45)" fill="none" text-rendering="optimizeLegibility" x1="495" x2="495" y1="105" y2="170"/>
<line clip-path="url(#clipPath45)" fill="none" text-rendering="optimizeLegibility" x1="335" x2="335" y1="105" y2="170"/>
<line clip-path="url(#clipPath45)" fill="none" text-rendering="optimizeLegibility" x1="690" x2="690" y1="450" y2="376"/>
<line clip-path="url(#clipPath45)" fill="none" text-rendering="optimizeLegibility" x1="515" x2="515" y1="450" y2="376"/>
<line clip-path="url(#clipPath45)" fill="none" text-rendering="optimizeLegibility" x1="325" x2="325" y1="450" y2="376"/>
<line clip-path="url(#clipPath45)" fill="none" text-rendering="optimizeLegibility" x1="161" x2="260" y1="230" y2="230"/>
<line clip-path="url(#clipPath45)" fill="none" text-rendering="optimizeLegibility" x1="161" x2="260" y1="325" y2="325"/>
</g>
</g>
</svg>
