<?xml version="1.0" encoding="UTF-8"?><svg xmlns="http://www.w3.org/2000/svg" xmlns:xlink="http://www.w3.org/1999/xlink" stroke-dasharray="none" shape-rendering="auto" font-family="'Dialog'" width="564" text-rendering="auto" fill-opacity="1" contentScriptType="text/ecmascript" color-interpolation="auto" color-rendering="auto" preserveAspectRatio="xMidYMid meet" font-size="12" viewBox="0 0 564 236" fill="black" stroke="black" image-rendering="auto" stroke-miterlimit="10" zoomAndPan="magnify" version="1.0" stroke-linecap="square" stroke-linejoin="miter" contentStyleType="text/css" font-style="normal" height="236" stroke-width="1" stroke-dashoffset="0" font-weight="normal" stroke-opacity="1">
<!--Generated by the Batik Graphics2D SVG Generator-->
<defs id="genericDefs"/>
<g>
<defs id="defs1">
<clipPath clipPathUnits="userSpaceOnUse" id="clipPath1">
<path d="M22 88 L218 88 L218 106 L22 106 L22 88 Z"/>
</clipPath>
<clipPath clipPathUnits="userSpaceOnUse" id="clipPath2">
<path d="M-1 -1 L565 -1 L565 237 L-1 237 L-1 -1 Z"/>
</clipPath>
<clipPath clipPathUnits="userSpaceOnUse" id="clipPath3">
<path d="M120 171 L316 171 L316 189 L120 189 L120 171 Z"/>
</clipPath>
</defs>
<g fill="rgb(255,203,203)" font-family="'Segoe UI'" stroke-linejoin="round" stroke="rgb(255,203,203)" stroke-width="0" stroke-miterlimit="0">
<rect width="40" x="88" height="40" y="145" stroke="none"/>
</g>
<g stroke-linecap="butt" font-family="'Segoe UI'">
<rect fill="none" width="39" x="88" height="39" y="145"/>
<text xml:space="preserve" x="10" y="169" stroke="none">Invalid view - remove from diagram.</text>
<rect x="113" y="10" fill="rgb(255,203,203)" width="40" height="40" stroke="none"/>
<rect x="113" y="10" fill="none" width="39" height="39" stroke-width="0.1"/>
<text x="37" y="34" font-style="italic" stroke="none" stroke-width="0.1" xml:space="preserve">Invalid view - remove from diagram.</text>
<rect x="308" y="160" fill="rgb(255,203,203)" width="246" height="66" stroke="none" stroke-width="0.1"/>
<rect x="308" y="160" fill="none" width="245" height="65" stroke-width="0.1"/>
<text xml:space="preserve" x="333" stroke-width="0.1" y="197" stroke="none">Invalid view - remove from diagram.</text>
<line fill="none" x1="111" x2="129" y1="145" y2="50" stroke="red" stroke-width="1.1"/>
<text x="23" y="102" clip-path="url(#clipPath1)" fill="red" stroke="none" stroke-width="1.1" xml:space="preserve">Invalid view - remove from diagram.</text>
<line clip-path="url(#clipPath2)" fill="none" x1="308" x2="128" y1="194" y2="165" stroke="red" stroke-width="1.1"/>
<text x="121" y="185" clip-path="url(#clipPath3)" fill="red" stroke="none" stroke-width="1.1" xml:space="preserve">Invalid view - remove from diagram.</text>
</g>
</g>
</svg>
