<?xml version="1.0" encoding="UTF-8"?><svg xmlns="http://www.w3.org/2000/svg" xmlns:xlink="http://www.w3.org/1999/xlink" stroke-dasharray="none" shape-rendering="auto" font-family="'Dialog'" width="359" text-rendering="auto" fill-opacity="1" contentScriptType="text/ecmascript" color-interpolation="auto" color-rendering="auto" preserveAspectRatio="xMidYMid meet" font-size="12" viewBox="0 0 359 359" fill="black" stroke="black" image-rendering="auto" stroke-miterlimit="10" zoomAndPan="magnify" version="1.0" stroke-linecap="square" stroke-linejoin="miter" contentStyleType="text/css" font-style="normal" height="359" stroke-width="1" stroke-dashoffset="0" font-weight="normal" stroke-opacity="1">
<!--Generated by the Batik Graphics2D SVG Generator-->
<defs id="genericDefs"/>
<g>
<defs id="defs1">
<linearGradient x1="68" x2="68" y1="253" gradientUnits="userSpaceOnUse" y2="349" xlink:type="simple" xlink:actuate="onLoad" id="linearGradient1" xlink:show="other" spreadMethod="pad">
<stop stop-opacity="1" stop-color="white" offset="0%"/>
<stop stop-opacity="1" stop-color="white" offset="100%"/>
</linearGradient>
<linearGradient x1="68" x2="68" y1="48" gradientUnits="userSpaceOnUse" y2="144" xlink:type="simple" xlink:actuate="onLoad" id="linearGradient2" xlink:show="other" spreadMethod="pad">
<stop stop-opacity="1" stop-color="white" offset="0%"/>
<stop stop-opacity="1" stop-color="white" offset="100%"/>
</linearGradient>
<clipPath clipPathUnits="userSpaceOnUse" id="clipPath1">
<path d="M68 253 L68 348 L348 348 L348 253 Z"/>
</clipPath>
<clipPath clipPathUnits="userSpaceOnUse" id="clipPath2">
<path d="M168 252 L251 252 L251 270 L168 270 L168 252 Z"/>
</clipPath>
<clipPath clipPathUnits="userSpaceOnUse" id="clipPath3">
<path d="M171 269 L247 269 L247 287 L171 287 L171 269 Z"/>
</clipPath>
<clipPath clipPathUnits="userSpaceOnUse" id="clipPath4">
<path d="M73 288 L171 288 L171 306 L73 306 L73 288 Z"/>
</clipPath>
<clipPath clipPathUnits="userSpaceOnUse" id="clipPath5">
<path d="M73 304 L346 304 L346 338 L73 338 L73 304 Z"/>
</clipPath>
<clipPath clipPathUnits="userSpaceOnUse" id="clipPath6">
<path d="M68 286 L350 286 L350 349 L68 349 L68 286 Z"/>
</clipPath>
<clipPath clipPathUnits="userSpaceOnUse" id="clipPath7">
<path d="M67 252 L350 252 L350 350 L67 350 L67 252 Z"/>
</clipPath>
<clipPath clipPathUnits="userSpaceOnUse" id="clipPath8">
<path d="M68 48 L68 143 L348 143 L348 48 Z"/>
</clipPath>
<clipPath clipPathUnits="userSpaceOnUse" id="clipPath9">
<path d="M168 47 L251 47 L251 65 L168 65 L168 47 Z"/>
</clipPath>
<clipPath clipPathUnits="userSpaceOnUse" id="clipPath10">
<path d="M170 64 L249 64 L249 82 L170 82 L170 64 Z"/>
</clipPath>
<clipPath clipPathUnits="userSpaceOnUse" id="clipPath11">
<path d="M73 83 L171 83 L171 101 L73 101 L73 83 Z"/>
</clipPath>
<clipPath clipPathUnits="userSpaceOnUse" id="clipPath12">
<path d="M73 99 L339 99 L339 133 L73 133 L73 99 Z"/>
</clipPath>
<clipPath clipPathUnits="userSpaceOnUse" id="clipPath13">
<path d="M68 81 L350 81 L350 144 L68 144 L68 81 Z"/>
</clipPath>
<clipPath clipPathUnits="userSpaceOnUse" id="clipPath14">
<path d="M67 47 L350 47 L350 145 L67 145 L67 47 Z"/>
</clipPath>
<clipPath clipPathUnits="userSpaceOnUse" id="clipPath15">
<path d="M-1 -1 L360 -1 L360 360 L-1 360 L-1 -1 Z"/>
</clipPath>
<clipPath clipPathUnits="userSpaceOnUse" id="clipPath16">
<path d="M221 196 L309 196 L309 214 L221 214 L221 196 Z"/>
</clipPath>
<clipPath clipPathUnits="userSpaceOnUse" id="clipPath17">
<path d="M202 143 L215 143 L215 161 L202 161 L202 143 Z"/>
</clipPath>
</defs>
<g fill="url(#linearGradient1)" font-family="'Segoe UI'" stroke-linejoin="round" stroke="url(#linearGradient1)" stroke-width="0" stroke-miterlimit="0">
<rect x="68" y="253" clip-path="url(#clipPath1)" width="281" height="96" stroke="none"/>
<text x="169" y="266" clip-path="url(#clipPath2)" fill="black" stroke="none" xml:space="preserve">«Requirement»</text>
<text x="172" y="283" clip-path="url(#clipPath3)" fill="black" stroke="none" xml:space="preserve">SmartBedMgt</text>
<text x="74" y="302" clip-path="url(#clipPath4)" fill="black" stroke="none" xml:space="preserve">id=SHS_ACO_070 </text>
<text x="74" y="318" clip-path="url(#clipPath5)" fill="black" stroke="none" xml:space="preserve">text=The system must have a bed that</text>
<text x="74" y="334" clip-path="url(#clipPath5)" fill="black" stroke="none" xml:space="preserve">accommodates to the disability of the inhabitants. </text>
</g>
<g stroke-width="1.1" font-family="'Segoe UI'" stroke-linecap="butt">
<line clip-path="url(#clipPath6)" fill="none" x1="68" x2="349" y1="287" y2="287"/>
<line clip-path="url(#clipPath7)" fill="none" x1="68" x2="349" y1="287" y2="287"/>
<rect x="68" y="253" clip-path="url(#clipPath7)" fill="none" width="280" rx="0" ry="0" height="95"/>
<rect x="68" y="48" clip-path="url(#clipPath8)" fill="url(#linearGradient2)" width="281" height="96" stroke="none"/>
<text xml:space="preserve" x="169" y="61" clip-path="url(#clipPath9)" stroke="none">«Requirement»</text>
<text xml:space="preserve" x="171" y="78" clip-path="url(#clipPath10)" stroke="none">DisabililityMgt</text>
<text xml:space="preserve" x="74" y="97" clip-path="url(#clipPath11)" stroke="none">id=SHS_ACO_040 </text>
<text xml:space="preserve" x="74" y="113" clip-path="url(#clipPath12)" stroke="none">text=The system must assist the inhabitants with</text>
<text xml:space="preserve" x="74" y="129" clip-path="url(#clipPath12)" stroke="none">the everyday tasks regardless of their disabilities. </text>
<line clip-path="url(#clipPath13)" fill="none" x1="68" x2="349" y1="82" y2="82"/>
<line clip-path="url(#clipPath14)" fill="none" x1="68" x2="349" y1="82" y2="82"/>
<rect x="68" y="48" clip-path="url(#clipPath14)" fill="none" width="280" rx="0" ry="0" height="95"/>
<line clip-path="url(#clipPath15)" fill="none" text-rendering="optimizeLegibility" x1="208" x2="208" y1="253" y2="144" stroke-dasharray="5,5,5,5,5,5,5,5,5,5"/>
<text x="222" y="210" clip-path="url(#clipPath16)" text-rendering="optimizeLegibility" stroke-dasharray="5,5,5,5,5,5,5,5,5,5" stroke="none" xml:space="preserve">«Refine, Refine»</text>
<line clip-path="url(#clipPath17)" fill="none" text-rendering="optimizeLegibility" x1="213" x2="208" y1="159" y2="144"/>
<line clip-path="url(#clipPath17)" fill="none" text-rendering="optimizeLegibility" x1="208" x2="203" y1="144" y2="159"/>
</g>
</g>
</svg>
