<?xml version="1.0" encoding="UTF-8"?><svg xmlns="http://www.w3.org/2000/svg" xmlns:xlink="http://www.w3.org/1999/xlink" stroke-dasharray="none" shape-rendering="auto" font-family="'Dialog'" width="1193" text-rendering="auto" fill-opacity="1" contentScriptType="text/ecmascript" color-interpolation="auto" color-rendering="auto" preserveAspectRatio="xMidYMid meet" font-size="12" viewBox="0 0 1193 484" fill="black" stroke="black" image-rendering="auto" stroke-miterlimit="10" zoomAndPan="magnify" version="1.0" stroke-linecap="square" stroke-linejoin="miter" contentStyleType="text/css" font-style="normal" height="484" stroke-width="1" stroke-dashoffset="0" font-weight="normal" stroke-opacity="1">
<!--Generated by the Batik Graphics2D SVG Generator-->
<defs id="genericDefs"/>
<g>
<defs id="defs1">
<clipPath clipPathUnits="userSpaceOnUse" id="clipPath1">
<path d="M47 35 L207 35 L207 48 L47 48 L47 35 Z"/>
</clipPath>
<clipPath clipPathUnits="userSpaceOnUse" id="clipPath2">
<path d="M-1 -1 L1194 -1 L1194 485 L-1 485 L-1 -1 Z"/>
</clipPath>
<clipPath clipPathUnits="userSpaceOnUse" id="clipPath3">
<path d="M106 27 L148 27 L148 69 L106 69 L106 27 Z"/>
</clipPath>
<clipPath clipPathUnits="userSpaceOnUse" id="clipPath4">
<path d="M22 22 L182 22 L182 35 L22 35 L22 22 Z"/>
</clipPath>
<clipPath clipPathUnits="userSpaceOnUse" id="clipPath5">
<path d="M33 36 L193 36 L193 49 L33 49 L33 36 Z"/>
</clipPath>
<clipPath clipPathUnits="userSpaceOnUse" id="clipPath6">
<path d="M402 40 L562 40 L562 53 L402 53 L402 40 Z"/>
</clipPath>
<clipPath clipPathUnits="userSpaceOnUse" id="clipPath7">
<path d="M402 39 L562 39 L562 52 L402 52 L402 39 Z"/>
</clipPath>
</defs>
<g font-size="9" fill="rgb(255,203,203)" stroke-linejoin="round" stroke="rgb(255,203,203)" stroke-width="0" stroke-miterlimit="0">
<rect width="341" x="842" height="431" y="43" stroke="none"/>
</g>
<g stroke-linecap="butt" font-size="9">
<rect fill="none" width="340" x="842" height="430" y="43"/>
<text xml:space="preserve" x="933" y="262" stroke="none">Invalid view - remove from diagram.</text>
<rect x="122" y="48" fill="rgb(255,203,203)" width="571" height="426" stroke="none"/>
<rect x="122" y="48" fill="none" width="570" height="425" stroke-width="0.1"/>
<text xml:space="preserve" x="328" stroke-width="0.1" y="264" stroke="none">Invalid view - remove from diagram.</text>
<line fill="none" x1="122" x2="165" y1="48" y2="48" stroke="red" stroke-width="1.1"/>
<line fill="none" x1="165" x2="165" y1="48" y2="41" stroke="red" stroke-width="1.1"/>
<line fill="none" x1="165" x2="84" y1="41" y2="41" stroke="red" stroke-width="1.1"/>
<line fill="none" x1="84" x2="84" y1="41" y2="48" stroke="red" stroke-width="1.1"/>
<line fill="none" x1="84" x2="122" y1="48" y2="48" stroke="red" stroke-width="1.1"/>
<text x="48" y="45" clip-path="url(#clipPath1)" fill="red" stroke="none" stroke-width="1.1" xml:space="preserve">Invalid view - remove from diagram.</text>
<line clip-path="url(#clipPath2)" fill="none" x1="122" x2="122" y1="48" y2="28" stroke="red" stroke-width="1.1"/>
<line clip-path="url(#clipPath2)" fill="none" x1="122" x2="102" y1="28" y2="28" stroke="red" stroke-width="1.1"/>
<line clip-path="url(#clipPath2)" fill="none" x1="102" x2="102" y1="28" y2="48" stroke="red" stroke-width="1.1"/>
<line clip-path="url(#clipPath2)" fill="none" x1="102" x2="122" y1="48" y2="48" stroke="red" stroke-width="1.1"/>
<rect x="107" y="28" clip-path="url(#clipPath3)" fill="rgb(255,203,203)" width="40" height="40" stroke="none" stroke-width="1.1"/>
<rect x="107" y="28" clip-path="url(#clipPath3)" fill="none" width="39" height="39" stroke-width="0.1"/>
<text x="47" y="51" clip-path="url(#clipPath3)" stroke="none" stroke-width="0.1" xml:space="preserve">Invalid view - remove from diagram.</text>
<rect x="107" y="28" clip-path="url(#clipPath3)" fill="rgb(255,203,203)" width="40" height="40" stroke="none" stroke-width="0.1"/>
<rect x="107" y="28" clip-path="url(#clipPath3)" fill="none" width="39" height="39" stroke-width="0.1"/>
<text x="47" y="51" clip-path="url(#clipPath3)" stroke="none" stroke-width="0.1" xml:space="preserve">Invalid view - remove from diagram.</text>
<rect x="107" y="28" clip-path="url(#clipPath3)" fill="rgb(255,203,203)" width="40" height="40" stroke="none" stroke-width="0.1"/>
<rect x="107" y="28" clip-path="url(#clipPath3)" fill="none" width="39" height="39" stroke-width="0.1"/>
<text x="47" y="51" clip-path="url(#clipPath3)" stroke="none" stroke-width="0.1" xml:space="preserve">Invalid view - remove from diagram.</text>
<rect x="107" y="28" clip-path="url(#clipPath3)" fill="rgb(255,203,203)" width="40" height="40" stroke="none" stroke-width="0.1"/>
<rect x="107" y="28" clip-path="url(#clipPath3)" fill="none" width="39" height="39" stroke-width="0.1"/>
<text x="47" y="51" clip-path="url(#clipPath3)" stroke="none" stroke-width="0.1" xml:space="preserve">Invalid view - remove from diagram.</text>
<text x="23" y="32" clip-path="url(#clipPath4)" fill="red" stroke="none" stroke-width="0.1" xml:space="preserve">Invalid view - remove from diagram.</text>
<line clip-path="url(#clipPath2)" fill="none" x1="122" x2="122" y1="48" y2="28" stroke="red" stroke-width="1.1"/>
<line clip-path="url(#clipPath2)" fill="none" x1="122" x2="102" y1="28" y2="28" stroke="red" stroke-width="1.1"/>
<line clip-path="url(#clipPath2)" fill="none" x1="102" x2="102" y1="28" y2="48" stroke="red" stroke-width="1.1"/>
<line clip-path="url(#clipPath2)" fill="none" x1="102" x2="122" y1="48" y2="48" stroke="red" stroke-width="1.1"/>
<rect x="107" y="28" clip-path="url(#clipPath3)" fill="rgb(255,203,203)" width="40" height="40" stroke="none" stroke-width="1.1"/>
<rect x="107" y="28" clip-path="url(#clipPath3)" fill="none" width="39" height="39" stroke-width="0.1"/>
<text x="47" y="51" clip-path="url(#clipPath3)" stroke="none" stroke-width="0.1" xml:space="preserve">Invalid view - remove from diagram.</text>
<rect x="107" y="28" clip-path="url(#clipPath3)" fill="rgb(255,203,203)" width="40" height="40" stroke="none" stroke-width="0.1"/>
<rect x="107" y="28" clip-path="url(#clipPath3)" fill="none" width="39" height="39" stroke-width="0.1"/>
<text x="47" y="51" clip-path="url(#clipPath3)" stroke="none" stroke-width="0.1" xml:space="preserve">Invalid view - remove from diagram.</text>
<rect x="107" y="28" clip-path="url(#clipPath3)" fill="rgb(255,203,203)" width="40" height="40" stroke="none" stroke-width="0.1"/>
<rect x="107" y="28" clip-path="url(#clipPath3)" fill="none" width="39" height="39" stroke-width="0.1"/>
<text x="47" y="51" clip-path="url(#clipPath3)" stroke="none" stroke-width="0.1" xml:space="preserve">Invalid view - remove from diagram.</text>
<rect x="107" y="28" clip-path="url(#clipPath3)" fill="rgb(255,203,203)" width="40" height="40" stroke="none" stroke-width="0.1"/>
<rect x="107" y="28" clip-path="url(#clipPath3)" fill="none" width="39" height="39" stroke-width="0.1"/>
<text x="47" y="51" clip-path="url(#clipPath3)" stroke="none" stroke-width="0.1" xml:space="preserve">Invalid view - remove from diagram.</text>
<text x="23" y="32" clip-path="url(#clipPath4)" fill="red" stroke="none" stroke-width="0.1" xml:space="preserve">Invalid view - remove from diagram.</text>
<line clip-path="url(#clipPath2)" fill="none" x1="122" x2="77" y1="48" y2="48" stroke="red" stroke-width="1.1"/>
<line clip-path="url(#clipPath2)" fill="none" x1="77" x2="77" y1="48" y2="42" stroke="red" stroke-width="1.1"/>
<line clip-path="url(#clipPath2)" fill="none" x1="77" x2="158" y1="42" y2="42" stroke="red" stroke-width="1.1"/>
<line clip-path="url(#clipPath2)" fill="none" x1="158" x2="158" y1="42" y2="48" stroke="red" stroke-width="1.1"/>
<line clip-path="url(#clipPath2)" fill="none" x1="158" x2="122" y1="48" y2="48" stroke="red" stroke-width="1.1"/>
<rect x="107" y="28" clip-path="url(#clipPath3)" fill="rgb(255,203,203)" width="40" height="40" stroke="none" stroke-width="1.1"/>
<rect x="107" y="28" clip-path="url(#clipPath3)" fill="none" width="39" height="39" stroke-width="0.1"/>
<text x="47" y="51" clip-path="url(#clipPath3)" stroke="none" stroke-width="0.1" xml:space="preserve">Invalid view - remove from diagram.</text>
<rect x="107" y="28" clip-path="url(#clipPath3)" fill="rgb(255,203,203)" width="40" height="40" stroke="none" stroke-width="0.1"/>
<rect x="107" y="28" clip-path="url(#clipPath3)" fill="none" width="39" height="39" stroke-width="0.1"/>
<text x="47" y="51" clip-path="url(#clipPath3)" stroke="none" stroke-width="0.1" xml:space="preserve">Invalid view - remove from diagram.</text>
<rect x="107" y="28" clip-path="url(#clipPath3)" fill="rgb(255,203,203)" width="40" height="40" stroke="none" stroke-width="0.1"/>
<rect x="107" y="28" clip-path="url(#clipPath3)" fill="none" width="39" height="39" stroke-width="0.1"/>
<text x="47" y="51" clip-path="url(#clipPath3)" stroke="none" stroke-width="0.1" xml:space="preserve">Invalid view - remove from diagram.</text>
<rect x="107" y="28" clip-path="url(#clipPath3)" fill="rgb(255,203,203)" width="40" height="40" stroke="none" stroke-width="0.1"/>
<rect x="107" y="28" clip-path="url(#clipPath3)" fill="none" width="39" height="39" stroke-width="0.1"/>
<text x="47" y="51" clip-path="url(#clipPath3)" stroke="none" stroke-width="0.1" xml:space="preserve">Invalid view - remove from diagram.</text>
<text x="34" y="46" clip-path="url(#clipPath5)" fill="red" stroke="none" stroke-width="0.1" xml:space="preserve">Invalid view - remove from diagram.</text>
<line clip-path="url(#clipPath2)" fill="none" x1="122" x2="77" y1="48" y2="48" stroke="red" stroke-width="1.1"/>
<line clip-path="url(#clipPath2)" fill="none" x1="77" x2="77" y1="48" y2="42" stroke="red" stroke-width="1.1"/>
<line clip-path="url(#clipPath2)" fill="none" x1="77" x2="158" y1="42" y2="42" stroke="red" stroke-width="1.1"/>
<line clip-path="url(#clipPath2)" fill="none" x1="158" x2="158" y1="42" y2="48" stroke="red" stroke-width="1.1"/>
<line clip-path="url(#clipPath2)" fill="none" x1="158" x2="122" y1="48" y2="48" stroke="red" stroke-width="1.1"/>
<rect x="107" y="28" clip-path="url(#clipPath3)" fill="rgb(255,203,203)" width="40" height="40" stroke="none" stroke-width="1.1"/>
<rect x="107" y="28" clip-path="url(#clipPath3)" fill="none" width="39" height="39" stroke-width="0.1"/>
<text x="47" y="51" clip-path="url(#clipPath3)" stroke="none" stroke-width="0.1" xml:space="preserve">Invalid view - remove from diagram.</text>
<rect x="107" y="28" clip-path="url(#clipPath3)" fill="rgb(255,203,203)" width="40" height="40" stroke="none" stroke-width="0.1"/>
<rect x="107" y="28" clip-path="url(#clipPath3)" fill="none" width="39" height="39" stroke-width="0.1"/>
<text x="47" y="51" clip-path="url(#clipPath3)" stroke="none" stroke-width="0.1" xml:space="preserve">Invalid view - remove from diagram.</text>
<rect x="107" y="28" clip-path="url(#clipPath3)" fill="rgb(255,203,203)" width="40" height="40" stroke="none" stroke-width="0.1"/>
<rect x="107" y="28" clip-path="url(#clipPath3)" fill="none" width="39" height="39" stroke-width="0.1"/>
<text x="47" y="51" clip-path="url(#clipPath3)" stroke="none" stroke-width="0.1" xml:space="preserve">Invalid view - remove from diagram.</text>
<rect x="107" y="28" clip-path="url(#clipPath3)" fill="rgb(255,203,203)" width="40" height="40" stroke="none" stroke-width="0.1"/>
<rect x="107" y="28" clip-path="url(#clipPath3)" fill="none" width="39" height="39" stroke-width="0.1"/>
<text x="47" y="51" clip-path="url(#clipPath3)" stroke="none" stroke-width="0.1" xml:space="preserve">Invalid view - remove from diagram.</text>
<text x="34" y="46" clip-path="url(#clipPath5)" fill="red" stroke="none" stroke-width="0.1" xml:space="preserve">Invalid view - remove from diagram.</text>
<line clip-path="url(#clipPath2)" fill="none" x1="842" x2="482" y1="43" y2="43" stroke="red" stroke-width="1.1"/>
<line clip-path="url(#clipPath2)" fill="none" x1="482" x2="482" y1="43" y2="48" stroke="red" stroke-width="1.1"/>
<line clip-path="url(#clipPath2)" fill="none" x1="482" x2="122" y1="48" y2="48" stroke="red" stroke-width="1.1"/>
<rect x="107" y="28" clip-path="url(#clipPath3)" fill="rgb(255,203,203)" width="40" height="40" stroke="none" stroke-width="1.1"/>
<rect x="107" y="28" clip-path="url(#clipPath3)" fill="none" width="39" height="39" stroke-width="0.1"/>
<text x="47" y="51" clip-path="url(#clipPath3)" stroke="none" stroke-width="0.1" xml:space="preserve">Invalid view - remove from diagram.</text>
<rect x="107" y="28" clip-path="url(#clipPath3)" fill="rgb(255,203,203)" width="40" height="40" stroke="none" stroke-width="0.1"/>
<rect x="107" y="28" clip-path="url(#clipPath3)" fill="none" width="39" height="39" stroke-width="0.1"/>
<text x="47" y="51" clip-path="url(#clipPath3)" stroke="none" stroke-width="0.1" xml:space="preserve">Invalid view - remove from diagram.</text>
<text x="403" y="50" clip-path="url(#clipPath6)" fill="red" stroke="none" stroke-width="0.1" xml:space="preserve">Invalid view - remove from diagram.</text>
<line clip-path="url(#clipPath2)" fill="none" x1="122" x2="122" y1="48" y2="28" stroke="red" stroke-width="1.1"/>
<line clip-path="url(#clipPath2)" fill="none" x1="122" x2="102" y1="28" y2="28" stroke="red" stroke-width="1.1"/>
<line clip-path="url(#clipPath2)" fill="none" x1="102" x2="102" y1="28" y2="48" stroke="red" stroke-width="1.1"/>
<line clip-path="url(#clipPath2)" fill="none" x1="102" x2="122" y1="48" y2="48" stroke="red" stroke-width="1.1"/>
<rect x="107" y="28" clip-path="url(#clipPath3)" fill="rgb(255,203,203)" width="40" height="40" stroke="none" stroke-width="1.1"/>
<rect x="107" y="28" clip-path="url(#clipPath3)" fill="none" width="39" height="39" stroke-width="0.1"/>
<text x="47" y="51" clip-path="url(#clipPath3)" stroke="none" stroke-width="0.1" xml:space="preserve">Invalid view - remove from diagram.</text>
<rect x="107" y="28" clip-path="url(#clipPath3)" fill="rgb(255,203,203)" width="40" height="40" stroke="none" stroke-width="0.1"/>
<rect x="107" y="28" clip-path="url(#clipPath3)" fill="none" width="39" height="39" stroke-width="0.1"/>
<text x="47" y="51" clip-path="url(#clipPath3)" stroke="none" stroke-width="0.1" xml:space="preserve">Invalid view - remove from diagram.</text>
<rect x="107" y="28" clip-path="url(#clipPath3)" fill="rgb(255,203,203)" width="40" height="40" stroke="none" stroke-width="0.1"/>
<rect x="107" y="28" clip-path="url(#clipPath3)" fill="none" width="39" height="39" stroke-width="0.1"/>
<text x="47" y="51" clip-path="url(#clipPath3)" stroke="none" stroke-width="0.1" xml:space="preserve">Invalid view - remove from diagram.</text>
<rect x="107" y="28" clip-path="url(#clipPath3)" fill="rgb(255,203,203)" width="40" height="40" stroke="none" stroke-width="0.1"/>
<rect x="107" y="28" clip-path="url(#clipPath3)" fill="none" width="39" height="39" stroke-width="0.1"/>
<text x="47" y="51" clip-path="url(#clipPath3)" stroke="none" stroke-width="0.1" xml:space="preserve">Invalid view - remove from diagram.</text>
<text x="23" y="32" clip-path="url(#clipPath4)" fill="red" stroke="none" stroke-width="0.1" xml:space="preserve">Invalid view - remove from diagram.</text>
<line clip-path="url(#clipPath2)" fill="none" x1="122" x2="122" y1="48" y2="28" stroke="red" stroke-width="1.1"/>
<line clip-path="url(#clipPath2)" fill="none" x1="122" x2="102" y1="28" y2="28" stroke="red" stroke-width="1.1"/>
<line clip-path="url(#clipPath2)" fill="none" x1="102" x2="102" y1="28" y2="48" stroke="red" stroke-width="1.1"/>
<line clip-path="url(#clipPath2)" fill="none" x1="102" x2="122" y1="48" y2="48" stroke="red" stroke-width="1.1"/>
<rect x="107" y="28" clip-path="url(#clipPath3)" fill="rgb(255,203,203)" width="40" height="40" stroke="none" stroke-width="1.1"/>
<rect x="107" y="28" clip-path="url(#clipPath3)" fill="none" width="39" height="39" stroke-width="0.1"/>
<text x="47" y="51" clip-path="url(#clipPath3)" stroke="none" stroke-width="0.1" xml:space="preserve">Invalid view - remove from diagram.</text>
<rect x="107" y="28" clip-path="url(#clipPath3)" fill="rgb(255,203,203)" width="40" height="40" stroke="none" stroke-width="0.1"/>
<rect x="107" y="28" clip-path="url(#clipPath3)" fill="none" width="39" height="39" stroke-width="0.1"/>
<text x="47" y="51" clip-path="url(#clipPath3)" stroke="none" stroke-width="0.1" xml:space="preserve">Invalid view - remove from diagram.</text>
<rect x="107" y="28" clip-path="url(#clipPath3)" fill="rgb(255,203,203)" width="40" height="40" stroke="none" stroke-width="0.1"/>
<rect x="107" y="28" clip-path="url(#clipPath3)" fill="none" width="39" height="39" stroke-width="0.1"/>
<text x="47" y="51" clip-path="url(#clipPath3)" stroke="none" stroke-width="0.1" xml:space="preserve">Invalid view - remove from diagram.</text>
<rect x="107" y="28" clip-path="url(#clipPath3)" fill="rgb(255,203,203)" width="40" height="40" stroke="none" stroke-width="0.1"/>
<rect x="107" y="28" clip-path="url(#clipPath3)" fill="none" width="39" height="39" stroke-width="0.1"/>
<text x="47" y="51" clip-path="url(#clipPath3)" stroke="none" stroke-width="0.1" xml:space="preserve">Invalid view - remove from diagram.</text>
<text x="23" y="32" clip-path="url(#clipPath4)" fill="red" stroke="none" stroke-width="0.1" xml:space="preserve">Invalid view - remove from diagram.</text>
<line clip-path="url(#clipPath2)" fill="none" x1="122" x2="482" y1="48" y2="48" stroke="red" stroke-width="1.1"/>
<line clip-path="url(#clipPath2)" fill="none" x1="482" x2="482" y1="48" y2="43" stroke="red" stroke-width="1.1"/>
<line clip-path="url(#clipPath2)" fill="none" x1="482" x2="842" y1="43" y2="43" stroke="red" stroke-width="1.1"/>
<rect x="107" y="28" clip-path="url(#clipPath3)" fill="rgb(255,203,203)" width="40" height="40" stroke="none" stroke-width="1.1"/>
<rect x="107" y="28" clip-path="url(#clipPath3)" fill="none" width="39" height="39" stroke-width="0.1"/>
<text x="47" y="51" clip-path="url(#clipPath3)" stroke="none" stroke-width="0.1" xml:space="preserve">Invalid view - remove from diagram.</text>
<rect x="107" y="28" clip-path="url(#clipPath3)" fill="rgb(255,203,203)" width="40" height="40" stroke="none" stroke-width="0.1"/>
<rect x="107" y="28" clip-path="url(#clipPath3)" fill="none" width="39" height="39" stroke-width="0.1"/>
<text x="47" y="51" clip-path="url(#clipPath3)" stroke="none" stroke-width="0.1" xml:space="preserve">Invalid view - remove from diagram.</text>
<text x="403" y="49" clip-path="url(#clipPath7)" fill="red" stroke="none" stroke-width="0.1" xml:space="preserve">Invalid view - remove from diagram.</text>
<line clip-path="url(#clipPath2)" fill="none" x1="122" x2="482" y1="48" y2="48" stroke="red" stroke-width="1.1"/>
<line clip-path="url(#clipPath2)" fill="none" x1="482" x2="482" y1="48" y2="43" stroke="red" stroke-width="1.1"/>
<line clip-path="url(#clipPath2)" fill="none" x1="482" x2="842" y1="43" y2="43" stroke="red" stroke-width="1.1"/>
<rect x="107" y="28" clip-path="url(#clipPath3)" fill="rgb(255,203,203)" width="40" height="40" stroke="none" stroke-width="1.1"/>
<rect x="107" y="28" clip-path="url(#clipPath3)" fill="none" width="39" height="39" stroke-width="0.1"/>
<text x="47" y="51" clip-path="url(#clipPath3)" stroke="none" stroke-width="0.1" xml:space="preserve">Invalid view - remove from diagram.</text>
<rect x="107" y="28" clip-path="url(#clipPath3)" fill="rgb(255,203,203)" width="40" height="40" stroke="none" stroke-width="0.1"/>
<rect x="107" y="28" clip-path="url(#clipPath3)" fill="none" width="39" height="39" stroke-width="0.1"/>
<text x="47" y="51" clip-path="url(#clipPath3)" stroke="none" stroke-width="0.1" xml:space="preserve">Invalid view - remove from diagram.</text>
<text x="403" y="49" clip-path="url(#clipPath7)" fill="red" stroke="none" stroke-width="0.1" xml:space="preserve">Invalid view - remove from diagram.</text>
<line clip-path="url(#clipPath2)" fill="none" x1="122" x2="165" y1="48" y2="48" stroke="red" stroke-width="1.1"/>
<line clip-path="url(#clipPath2)" fill="none" x1="165" x2="165" y1="48" y2="41" stroke="red" stroke-width="1.1"/>
<line clip-path="url(#clipPath2)" fill="none" x1="165" x2="84" y1="41" y2="41" stroke="red" stroke-width="1.1"/>
<line clip-path="url(#clipPath2)" fill="none" x1="84" x2="84" y1="41" y2="48" stroke="red" stroke-width="1.1"/>
<line clip-path="url(#clipPath2)" fill="none" x1="84" x2="122" y1="48" y2="48" stroke="red" stroke-width="1.1"/>
<text x="48" y="45" clip-path="url(#clipPath1)" fill="red" stroke="none" stroke-width="1.1" xml:space="preserve">Invalid view - remove from diagram.</text>
<line clip-path="url(#clipPath2)" fill="none" x1="842" x2="482" y1="43" y2="43" stroke="red" stroke-width="1.1"/>
<line clip-path="url(#clipPath2)" fill="none" x1="482" x2="482" y1="43" y2="48" stroke="red" stroke-width="1.1"/>
<line clip-path="url(#clipPath2)" fill="none" x1="482" x2="122" y1="48" y2="48" stroke="red" stroke-width="1.1"/>
<text x="403" y="50" clip-path="url(#clipPath6)" fill="red" stroke="none" stroke-width="1.1" xml:space="preserve">Invalid view - remove from diagram.</text>
</g>
</g>
</svg>
