<?xml version="1.0" encoding="UTF-8"?><svg xmlns="http://www.w3.org/2000/svg" xmlns:xlink="http://www.w3.org/1999/xlink" stroke-dasharray="none" shape-rendering="auto" font-family="'Dialog'" width="366" text-rendering="auto" fill-opacity="1" contentScriptType="text/ecmascript" color-interpolation="auto" color-rendering="auto" preserveAspectRatio="xMidYMid meet" font-size="12" viewBox="0 0 366 434" fill="black" stroke="black" image-rendering="auto" stroke-miterlimit="10" zoomAndPan="magnify" version="1.0" stroke-linecap="square" stroke-linejoin="miter" contentStyleType="text/css" font-style="normal" height="434" stroke-width="1" stroke-dashoffset="0" font-weight="normal" stroke-opacity="1">
<!--Generated by the Batik Graphics2D SVG Generator-->
<defs id="genericDefs"/>
<g>
<defs id="defs1">
<linearGradient x1="63" x2="63" y1="63" gradientUnits="userSpaceOnUse" y2="204" xlink:type="simple" xlink:actuate="onLoad" id="linearGradient1" xlink:show="other" spreadMethod="pad">
<stop stop-opacity="1" stop-color="white" offset="0%"/>
<stop stop-opacity="1" stop-color="white" offset="100%"/>
</linearGradient>
<linearGradient x1="223" x2="223" y1="63" gradientUnits="userSpaceOnUse" y2="204" xlink:type="simple" xlink:actuate="onLoad" id="linearGradient2" xlink:show="other" spreadMethod="pad">
<stop stop-opacity="1" stop-color="white" offset="0%"/>
<stop stop-opacity="1" stop-color="white" offset="100%"/>
</linearGradient>
<linearGradient x1="143" x2="143" y1="283" gradientUnits="userSpaceOnUse" y2="424" xlink:type="simple" xlink:actuate="onLoad" id="linearGradient3" xlink:show="other" spreadMethod="pad">
<stop stop-opacity="1" stop-color="white" offset="0%"/>
<stop stop-opacity="1" stop-color="white" offset="100%"/>
</linearGradient>
<clipPath clipPathUnits="userSpaceOnUse" id="clipPath1">
<path d="M63 63 L63 203 L165 203 L165 63 Z"/>
</clipPath>
<clipPath clipPathUnits="userSpaceOnUse" id="clipPath2">
<path d="M74 89 L157 89 L157 107 L74 107 L74 89 Z"/>
</clipPath>
<clipPath clipPathUnits="userSpaceOnUse" id="clipPath3">
<path d="M69 106 L162 106 L162 124 L69 124 L69 106 Z"/>
</clipPath>
<clipPath clipPathUnits="userSpaceOnUse" id="clipPath4">
<path d="M68 125 L163 125 L163 143 L68 143 L68 125 Z"/>
</clipPath>
<clipPath clipPathUnits="userSpaceOnUse" id="clipPath5">
<path d="M68 141 L159 141 L159 205 L68 205 L68 141 Z"/>
</clipPath>
<clipPath clipPathUnits="userSpaceOnUse" id="clipPath6">
<path d="M63 123 L167 123 L167 205 L63 205 L63 123 Z"/>
</clipPath>
<clipPath clipPathUnits="userSpaceOnUse" id="clipPath7">
<path d="M62 62 L167 62 L167 205 L62 205 L62 62 Z"/>
</clipPath>
<clipPath clipPathUnits="userSpaceOnUse" id="clipPath8">
<path d="M223 63 L223 203 L322 203 L322 63 Z"/>
</clipPath>
<clipPath clipPathUnits="userSpaceOnUse" id="clipPath9">
<path d="M232 89 L315 89 L315 107 L232 107 L232 89 Z"/>
</clipPath>
<clipPath clipPathUnits="userSpaceOnUse" id="clipPath10">
<path d="M234 106 L313 106 L313 124 L234 124 L234 106 Z"/>
</clipPath>
<clipPath clipPathUnits="userSpaceOnUse" id="clipPath11">
<path d="M228 125 L302 125 L302 143 L228 143 L228 125 Z"/>
</clipPath>
<clipPath clipPathUnits="userSpaceOnUse" id="clipPath12">
<path d="M228 141 L319 141 L319 205 L228 205 L228 141 Z"/>
</clipPath>
<clipPath clipPathUnits="userSpaceOnUse" id="clipPath13">
<path d="M223 123 L324 123 L324 205 L223 205 L223 123 Z"/>
</clipPath>
<clipPath clipPathUnits="userSpaceOnUse" id="clipPath14">
<path d="M222 62 L324 62 L324 205 L222 205 L222 62 Z"/>
</clipPath>
<clipPath clipPathUnits="userSpaceOnUse" id="clipPath15">
<path d="M143 283 L143 423 L242 423 L242 283 Z"/>
</clipPath>
<clipPath clipPathUnits="userSpaceOnUse" id="clipPath16">
<path d="M152 309 L235 309 L235 327 L152 327 L152 309 Z"/>
</clipPath>
<clipPath clipPathUnits="userSpaceOnUse" id="clipPath17">
<path d="M159 326 L228 326 L228 344 L159 344 L159 326 Z"/>
</clipPath>
<clipPath clipPathUnits="userSpaceOnUse" id="clipPath18">
<path d="M148 345 L237 345 L237 363 L148 363 L148 345 Z"/>
</clipPath>
<clipPath clipPathUnits="userSpaceOnUse" id="clipPath19">
<path d="M148 361 L239 361 L239 425 L148 425 L148 361 Z"/>
</clipPath>
<clipPath clipPathUnits="userSpaceOnUse" id="clipPath20">
<path d="M143 343 L244 343 L244 425 L143 425 L143 343 Z"/>
</clipPath>
<clipPath clipPathUnits="userSpaceOnUse" id="clipPath21">
<path d="M142 282 L244 282 L244 425 L142 425 L142 282 Z"/>
</clipPath>
<clipPath clipPathUnits="userSpaceOnUse" id="clipPath22">
<path d="M-1 -1 L367 -1 L367 435 L-1 435 L-1 -1 Z"/>
</clipPath>
<clipPath clipPathUnits="userSpaceOnUse" id="clipPath23">
<path d="M25 229 L163 229 L163 247 L25 247 L25 229 Z"/>
</clipPath>
<clipPath clipPathUnits="userSpaceOnUse" id="clipPath24">
<path d="M168 268 L185 268 L185 285 L168 285 L168 268 Z"/>
</clipPath>
<clipPath clipPathUnits="userSpaceOnUse" id="clipPath25">
<path d="M206 228 L344 228 L344 246 L206 246 L206 228 Z"/>
</clipPath>
<clipPath clipPathUnits="userSpaceOnUse" id="clipPath26">
<path d="M182 268 L199 268 L199 285 L182 285 L182 268 Z"/>
</clipPath>
</defs>
<g fill="url(#linearGradient1)" font-family="'Segoe UI'" stroke-linejoin="round" stroke="url(#linearGradient1)" stroke-width="0" stroke-miterlimit="0">
<rect x="63" y="63" clip-path="url(#clipPath1)" width="103" height="141" stroke="none"/>
<text x="75" y="103" clip-path="url(#clipPath2)" fill="black" stroke="none" xml:space="preserve">«Requirement»</text>
<text x="70" y="120" clip-path="url(#clipPath3)" fill="black" stroke="none" xml:space="preserve">ID_AccessControl</text>
<text x="69" y="139" clip-path="url(#clipPath4)" fill="black" stroke="none" xml:space="preserve">id=SHS_SEC_030 </text>
<text x="69" y="155" clip-path="url(#clipPath5)" fill="black" stroke="none" xml:space="preserve">text=The system</text>
<text x="69" y="171" clip-path="url(#clipPath5)" fill="black" stroke="none" xml:space="preserve">must provide an</text>
<text x="69" y="187" clip-path="url(#clipPath5)" fill="black" stroke="none" xml:space="preserve">identification-</text>
<text x="69" y="203" clip-path="url(#clipPath5)" fill="black" stroke="none" xml:space="preserve">based access</text>
</g>
<g stroke-width="1.1" font-family="'Segoe UI'" stroke-linecap="butt">
<line clip-path="url(#clipPath6)" fill="none" x1="63" x2="166" y1="124" y2="124"/>
<line clip-path="url(#clipPath7)" fill="none" x1="63" x2="166" y1="124" y2="124"/>
<rect x="63" y="63" clip-path="url(#clipPath7)" fill="none" width="102" rx="0" ry="0" height="140"/>
<rect x="223" y="63" clip-path="url(#clipPath8)" fill="url(#linearGradient2)" width="100" height="141" stroke="none"/>
<text xml:space="preserve" x="233" y="103" clip-path="url(#clipPath9)" stroke="none">«Requirement»</text>
<text xml:space="preserve" x="235" y="120" clip-path="url(#clipPath10)" stroke="none">Accomodation</text>
<text xml:space="preserve" x="229" y="139" clip-path="url(#clipPath11)" stroke="none">id=SHS_ACO </text>
<text xml:space="preserve" x="229" y="155" clip-path="url(#clipPath12)" stroke="none">text=The system</text>
<text xml:space="preserve" x="229" y="171" clip-path="url(#clipPath12)" stroke="none">must provide</text>
<text xml:space="preserve" x="229" y="187" clip-path="url(#clipPath12)" stroke="none">accomodation</text>
<text xml:space="preserve" x="229" y="203" clip-path="url(#clipPath12)" stroke="none">services  to its</text>
<line clip-path="url(#clipPath13)" fill="none" x1="223" x2="323" y1="124" y2="124"/>
<line clip-path="url(#clipPath14)" fill="none" x1="223" x2="323" y1="124" y2="124"/>
<rect x="223" y="63" clip-path="url(#clipPath14)" fill="none" width="99" rx="0" ry="0" height="140"/>
<rect x="143" y="283" clip-path="url(#clipPath15)" fill="url(#linearGradient3)" width="100" height="141" stroke="none"/>
<text xml:space="preserve" x="153" y="323" clip-path="url(#clipPath16)" stroke="none">«Requirement»</text>
<text xml:space="preserve" x="160" y="340" clip-path="url(#clipPath17)" stroke="none">ListOfPeople</text>
<text xml:space="preserve" x="149" y="359" clip-path="url(#clipPath18)" stroke="none">id=SH_DET_001 </text>
<text xml:space="preserve" x="149" y="375" clip-path="url(#clipPath19)" stroke="none">text=The system</text>
<text xml:space="preserve" x="149" y="391" clip-path="url(#clipPath19)" stroke="none">must have</text>
<text xml:space="preserve" x="149" y="407" clip-path="url(#clipPath19)" stroke="none">access to a list</text>
<text xml:space="preserve" x="149" y="423" clip-path="url(#clipPath19)" stroke="none">of authorized</text>
<line clip-path="url(#clipPath20)" fill="none" x1="143" x2="243" y1="344" y2="344"/>
<line clip-path="url(#clipPath21)" fill="none" x1="143" x2="243" y1="344" y2="344"/>
<rect x="143" y="283" clip-path="url(#clipPath21)" fill="none" width="99" rx="0" ry="0" height="140"/>
<line clip-path="url(#clipPath22)" fill="none" text-rendering="optimizeLegibility" x1="104" x2="183" y1="204" y2="283" stroke-dasharray="5,5,5,5,5,5,5,5,5,5"/>
<text x="26" y="243" clip-path="url(#clipPath23)" text-rendering="optimizeLegibility" stroke-dasharray="5,5,5,5,5,5,5,5,5,5" stroke="none" xml:space="preserve">«abstraction, DeriveReqt»</text>
<line clip-path="url(#clipPath24)" fill="none" text-rendering="optimizeLegibility" x1="169" x2="183" y1="276" y2="283"/>
<line clip-path="url(#clipPath24)" fill="none" text-rendering="optimizeLegibility" x1="183" x2="176" y1="283" y2="269"/>
<line clip-path="url(#clipPath22)" fill="none" text-rendering="optimizeLegibility" x1="263" x2="183" y1="204" y2="283" stroke-dasharray="5,5,5,5,5,5,5,5,5,5"/>
<text x="207" y="242" clip-path="url(#clipPath25)" text-rendering="optimizeLegibility" stroke-dasharray="5,5,5,5,5,5,5,5,5,5" stroke="none" xml:space="preserve">«abstraction, DeriveReqt»</text>
<line clip-path="url(#clipPath26)" fill="none" text-rendering="optimizeLegibility" x1="190" x2="183" y1="269" y2="283"/>
<line clip-path="url(#clipPath26)" fill="none" text-rendering="optimizeLegibility" x1="183" x2="197" y1="283" y2="276"/>
</g>
</g>
</svg>
