<?xml version="1.0" encoding="UTF-8"?><svg xmlns="http://www.w3.org/2000/svg" xmlns:xlink="http://www.w3.org/1999/xlink" stroke-dasharray="none" shape-rendering="auto" font-family="'Dialog'" width="918" text-rendering="auto" fill-opacity="1" contentScriptType="text/ecmascript" color-interpolation="auto" color-rendering="auto" preserveAspectRatio="xMidYMid meet" font-size="12" viewBox="0 0 918 546" fill="black" stroke="black" image-rendering="auto" stroke-miterlimit="10" zoomAndPan="magnify" version="1.0" stroke-linecap="square" stroke-linejoin="miter" contentStyleType="text/css" font-style="normal" height="546" stroke-width="1" stroke-dashoffset="0" font-weight="normal" stroke-opacity="1">
<!--Generated by the Batik Graphics2D SVG Generator-->
<defs id="genericDefs"/>
<g>
<defs id="defs1">
<linearGradient x1="10" x2="10" y1="100" gradientUnits="userSpaceOnUse" y2="181" xlink:type="simple" xlink:actuate="onLoad" id="linearGradient1" xlink:show="other" spreadMethod="pad">
<stop stop-opacity="1" stop-color="white" offset="0%"/>
<stop stop-opacity="1" stop-color="white" offset="100%"/>
</linearGradient>
<linearGradient x1="10" x2="10" y1="10" gradientUnits="userSpaceOnUse" y2="61" xlink:type="simple" xlink:actuate="onLoad" id="linearGradient2" xlink:show="other" spreadMethod="pad">
<stop stop-opacity="1" stop-color="white" offset="0%"/>
<stop stop-opacity="1" stop-color="white" offset="100%"/>
</linearGradient>
<linearGradient x1="10" x2="10" y1="290" gradientUnits="userSpaceOnUse" y2="516" xlink:type="simple" xlink:actuate="onLoad" id="linearGradient3" xlink:show="other" spreadMethod="pad">
<stop stop-opacity="1" stop-color="white" offset="0%"/>
<stop stop-opacity="1" stop-color="white" offset="100%"/>
</linearGradient>
<linearGradient x1="10" x2="10" y1="200" gradientUnits="userSpaceOnUse" y2="251" xlink:type="simple" xlink:actuate="onLoad" id="linearGradient4" xlink:show="other" spreadMethod="pad">
<stop stop-opacity="1" stop-color="white" offset="0%"/>
<stop stop-opacity="1" stop-color="white" offset="100%"/>
</linearGradient>
<linearGradient x1="495" x2="495" y1="290" gradientUnits="userSpaceOnUse" y2="516" xlink:type="simple" xlink:actuate="onLoad" id="linearGradient5" xlink:show="other" spreadMethod="pad">
<stop stop-opacity="1" stop-color="white" offset="0%"/>
<stop stop-opacity="1" stop-color="white" offset="100%"/>
</linearGradient>
<linearGradient x1="495" x2="495" y1="200" gradientUnits="userSpaceOnUse" y2="251" xlink:type="simple" xlink:actuate="onLoad" id="linearGradient6" xlink:show="other" spreadMethod="pad">
<stop stop-opacity="1" stop-color="white" offset="0%"/>
<stop stop-opacity="1" stop-color="white" offset="100%"/>
</linearGradient>
<clipPath clipPathUnits="userSpaceOnUse" id="clipPath1">
<path d="M10 100 L10 180 L675 180 L675 100 Z"/>
</clipPath>
<clipPath clipPathUnits="userSpaceOnUse" id="clipPath2">
<path d="M308 102 L380 102 L380 120 L308 120 L308 102 Z"/>
</clipPath>
<clipPath clipPathUnits="userSpaceOnUse" id="clipPath3">
<path d="M321 119 L367 119 L367 137 L321 137 L321 119 Z"/>
</clipPath>
<clipPath clipPathUnits="userSpaceOnUse" id="clipPath4">
<path d="M15 138 L527 138 L527 156 L15 156 L15 138 Z"/>
</clipPath>
<clipPath clipPathUnits="userSpaceOnUse" id="clipPath5">
<path d="M15 154 L650 154 L650 172 L15 172 L15 154 Z"/>
</clipPath>
<clipPath clipPathUnits="userSpaceOnUse" id="clipPath6">
<path d="M10 136 L677 136 L677 182 L10 182 L10 136 Z"/>
</clipPath>
<clipPath clipPathUnits="userSpaceOnUse" id="clipPath7">
<path d="M9 99 L677 99 L677 182 L9 182 L9 99 Z"/>
</clipPath>
<clipPath clipPathUnits="userSpaceOnUse" id="clipPath8">
<path d="M10 10 L10 60 L675 60 L675 10 Z"/>
</clipPath>
<clipPath clipPathUnits="userSpaceOnUse" id="clipPath9">
<path d="M310 18 L377 18 L377 36 L310 36 L310 18 Z"/>
</clipPath>
<clipPath clipPathUnits="userSpaceOnUse" id="clipPath10">
<path d="M325 35 L362 35 L362 53 L325 53 L325 35 Z"/>
</clipPath>
<clipPath clipPathUnits="userSpaceOnUse" id="clipPath11">
<path d="M9 9 L677 9 L677 62 L9 62 L9 9 Z"/>
</clipPath>
<clipPath clipPathUnits="userSpaceOnUse" id="clipPath12">
<path d="M10 290 L10 515 L220 515 L220 290 Z"/>
</clipPath>
<clipPath clipPathUnits="userSpaceOnUse" id="clipPath13">
<path d="M80 386 L152 386 L152 404 L80 404 L80 386 Z"/>
</clipPath>
<clipPath clipPathUnits="userSpaceOnUse" id="clipPath14">
<path d="M102 403 L131 403 L131 421 L102 421 L102 403 Z"/>
</clipPath>
<clipPath clipPathUnits="userSpaceOnUse" id="clipPath15">
<path d="M9 289 L222 289 L222 517 L9 517 L9 289 Z"/>
</clipPath>
<clipPath clipPathUnits="userSpaceOnUse" id="clipPath16">
<path d="M10 200 L10 250 L220 250 L220 200 Z"/>
</clipPath>
<clipPath clipPathUnits="userSpaceOnUse" id="clipPath17">
<path d="M83 208 L150 208 L150 226 L83 226 L83 208 Z"/>
</clipPath>
<clipPath clipPathUnits="userSpaceOnUse" id="clipPath18">
<path d="M102 225 L131 225 L131 243 L102 243 L102 225 Z"/>
</clipPath>
<clipPath clipPathUnits="userSpaceOnUse" id="clipPath19">
<path d="M9 199 L222 199 L222 252 L9 252 L9 199 Z"/>
</clipPath>
<clipPath clipPathUnits="userSpaceOnUse" id="clipPath20">
<path d="M495 290 L495 515 L675 515 L675 290 Z"/>
</clipPath>
<clipPath clipPathUnits="userSpaceOnUse" id="clipPath21">
<path d="M550 292 L622 292 L622 310 L550 310 L550 292 Z"/>
</clipPath>
<clipPath clipPathUnits="userSpaceOnUse" id="clipPath22">
<path d="M559 309 L614 309 L614 327 L559 327 L559 309 Z"/>
</clipPath>
<clipPath clipPathUnits="userSpaceOnUse" id="clipPath23">
<path d="M500 328 L673 328 L673 346 L500 346 L500 328 Z"/>
</clipPath>
<clipPath clipPathUnits="userSpaceOnUse" id="clipPath24">
<path d="M495 326 L677 326 L677 517 L495 517 L495 326 Z"/>
</clipPath>
<clipPath clipPathUnits="userSpaceOnUse" id="clipPath25">
<path d="M494 289 L677 289 L677 517 L494 517 L494 289 Z"/>
</clipPath>
<clipPath clipPathUnits="userSpaceOnUse" id="clipPath26">
<path d="M495 200 L495 250 L675 250 L675 200 Z"/>
</clipPath>
<clipPath clipPathUnits="userSpaceOnUse" id="clipPath27">
<path d="M553 208 L620 208 L620 226 L553 226 L553 208 Z"/>
</clipPath>
<clipPath clipPathUnits="userSpaceOnUse" id="clipPath28">
<path d="M558 225 L614 225 L614 243 L558 243 L558 225 Z"/>
</clipPath>
<clipPath clipPathUnits="userSpaceOnUse" id="clipPath29">
<path d="M494 199 L677 199 L677 252 L494 252 L494 199 Z"/>
</clipPath>
<clipPath clipPathUnits="userSpaceOnUse" id="clipPath30">
<path d="M-1 -1 L919 -1 L919 547 L-1 547 L-1 -1 Z"/>
</clipPath>
<clipPath clipPathUnits="userSpaceOnUse" id="clipPath31">
<path d="M334 60 L347 60 L347 78 L334 78 L334 60 Z"/>
</clipPath>
<clipPath clipPathUnits="userSpaceOnUse" id="clipPath32">
<path d="M114 250 L127 250 L127 268 L114 268 L114 250 Z"/>
</clipPath>
<clipPath clipPathUnits="userSpaceOnUse" id="clipPath33">
<path d="M579 250 L592 250 L592 268 L579 268 L579 250 Z"/>
</clipPath>
<clipPath clipPathUnits="userSpaceOnUse" id="clipPath34">
<path d="M395 299 L477 299 L477 317 L395 317 L395 299 Z"/>
</clipPath>
<clipPath clipPathUnits="userSpaceOnUse" id="clipPath35">
<path d="M229 299 L241 299 L241 317 L229 317 L229 299 Z"/>
</clipPath>
<clipPath clipPathUnits="userSpaceOnUse" id="clipPath36">
<path d="M476 313 L497 313 L497 328 L476 328 L476 313 Z"/>
</clipPath>
<clipPath clipPathUnits="userSpaceOnUse" id="clipPath37">
<path d="M234 424 L313 424 L313 442 L234 442 L234 424 Z"/>
</clipPath>
<clipPath clipPathUnits="userSpaceOnUse" id="clipPath38">
<path d="M220 418 L241 418 L241 433 L220 433 L220 418 Z"/>
</clipPath>
<clipPath clipPathUnits="userSpaceOnUse" id="clipPath39">
<path d="M234 449 L315 449 L315 467 L234 467 L234 449 Z"/>
</clipPath>
<clipPath clipPathUnits="userSpaceOnUse" id="clipPath40">
<path d="M234 494 L318 494 L318 512 L234 512 L234 494 Z"/>
</clipPath>
<clipPath clipPathUnits="userSpaceOnUse" id="clipPath41">
<path d="M220 488 L241 488 L241 503 L220 503 L220 488 Z"/>
</clipPath>
<clipPath clipPathUnits="userSpaceOnUse" id="clipPath42">
<path d="M220 463 L241 463 L241 478 L220 478 L220 463 Z"/>
</clipPath>
<clipPath clipPathUnits="userSpaceOnUse" id="clipPath43">
<path d="M339 339 L477 339 L477 357 L339 357 L339 339 Z"/>
</clipPath>
<clipPath clipPathUnits="userSpaceOnUse" id="clipPath44">
<path d="M229 339 L241 339 L241 357 L229 357 L229 339 Z"/>
</clipPath>
<clipPath clipPathUnits="userSpaceOnUse" id="clipPath45">
<path d="M302 364 L475 364 L475 382 L302 382 L302 364 Z"/>
</clipPath>
<clipPath clipPathUnits="userSpaceOnUse" id="clipPath46">
<path d="M476 353 L497 353 L497 368 L476 368 L476 353 Z"/>
</clipPath>
<clipPath clipPathUnits="userSpaceOnUse" id="clipPath47">
<path d="M674 139 L751 139 L751 157 L674 157 L674 139 Z"/>
</clipPath>
<clipPath clipPathUnits="userSpaceOnUse" id="clipPath48">
<path d="M696 104 L780 104 L780 122 L696 122 L696 104 Z"/>
</clipPath>
<clipPath clipPathUnits="userSpaceOnUse" id="clipPath49">
<path d="M675 118 L696 118 L696 133 L675 133 L675 118 Z"/>
</clipPath>
</defs>
<g fill="url(#linearGradient1)" font-family="'Segoe UI'" stroke-linejoin="round" stroke="url(#linearGradient1)" stroke-width="0" stroke-miterlimit="0">
<rect x="10" y="100" clip-path="url(#clipPath1)" width="666" height="81" stroke="none"/>
<text x="309" y="116" clip-path="url(#clipPath2)" fill="black" stroke="none" xml:space="preserve">«Stereotype»</text>
<text x="322" y="133" clip-path="url(#clipPath3)" fill="black" stroke="none" xml:space="preserve">Glossary</text>
<text x="16" y="152" clip-path="url(#clipPath4)" fill="black" stroke="none" xml:space="preserve">  knowledgeDomainName: String [0..1] = 'Specify the name of the glossary knowledge domain.'</text>
<text x="16" y="168" clip-path="url(#clipPath5)" fill="black" stroke="none" xml:space="preserve">  knowledgeDomainDescription: String [0..1] = 'Insert here a text of the description of the glossary knowledge domain.'</text>
</g>
<g stroke-width="1.1" font-family="'Segoe UI'" stroke-linecap="butt">
<line clip-path="url(#clipPath6)" fill="none" x1="10" x2="676" y1="137" y2="137"/>
<rect x="10" y="100" clip-path="url(#clipPath7)" fill="none" width="665" rx="0" ry="0" height="80"/>
<rect x="10" y="10" clip-path="url(#clipPath8)" fill="url(#linearGradient2)" width="666" height="51" stroke="none"/>
<text xml:space="preserve" x="311" y="32" clip-path="url(#clipPath9)" stroke="none">«Metaclass»</text>
<text xml:space="preserve" x="326" y="49" clip-path="url(#clipPath10)" stroke="none">Model</text>
<rect x="10" y="10" clip-path="url(#clipPath11)" fill="none" width="665" rx="0" ry="0" height="50"/>
<rect x="10" y="290" clip-path="url(#clipPath12)" fill="url(#linearGradient3)" width="211" height="226" stroke="none"/>
<text xml:space="preserve" x="81" y="400" clip-path="url(#clipPath13)" stroke="none">«Stereotype»</text>
<text xml:space="preserve" x="103" y="417" clip-path="url(#clipPath14)" stroke="none">Term</text>
<rect x="10" y="290" clip-path="url(#clipPath15)" fill="none" width="210" rx="0" ry="0" height="225"/>
<rect x="10" y="200" clip-path="url(#clipPath16)" fill="url(#linearGradient4)" width="211" height="51" stroke="none"/>
<text xml:space="preserve" x="84" y="222" clip-path="url(#clipPath17)" stroke="none">«Metaclass»</text>
<text xml:space="preserve" x="103" y="239" clip-path="url(#clipPath18)" stroke="none">Class</text>
<rect x="10" y="200" clip-path="url(#clipPath19)" fill="none" width="210" rx="0" ry="0" height="50"/>
<rect x="495" y="290" clip-path="url(#clipPath20)" fill="url(#linearGradient5)" width="181" height="226" stroke="none"/>
<text xml:space="preserve" x="551" y="306" clip-path="url(#clipPath21)" stroke="none">«Stereotype»</text>
<text xml:space="preserve" x="560" y="323" clip-path="url(#clipPath22)" stroke="none">Definition</text>
<text xml:space="preserve" x="501" y="342" clip-path="url(#clipPath23)" stroke="none">  isCommon: Boolean [1] = false</text>
<line clip-path="url(#clipPath24)" fill="none" x1="495" x2="676" y1="327" y2="327"/>
<rect x="495" y="290" clip-path="url(#clipPath25)" fill="none" width="180" rx="0" ry="0" height="225"/>
<rect x="495" y="200" clip-path="url(#clipPath26)" fill="url(#linearGradient6)" width="181" height="51" stroke="none"/>
<text xml:space="preserve" x="554" y="222" clip-path="url(#clipPath27)" stroke="none">«Metaclass»</text>
<text xml:space="preserve" x="559" y="239" clip-path="url(#clipPath28)" stroke="none">Comment</text>
<rect x="495" y="200" clip-path="url(#clipPath29)" fill="none" width="180" rx="0" ry="0" height="50"/>
<line clip-path="url(#clipPath30)" fill="none" text-rendering="optimizeLegibility" x1="340" x2="340" y1="100" y2="61"/>
<polygon text-rendering="optimizeLegibility" clip-path="url(#clipPath31)" points=" 340 61 345 76 335 76" stroke="none"/>
<polygon text-rendering="optimizeLegibility" fill="none" clip-path="url(#clipPath31)" points=" 340 61 345 76 335 76"/>
<line clip-path="url(#clipPath30)" fill="none" text-rendering="optimizeLegibility" x1="120" x2="120" y1="290" y2="251"/>
<polygon text-rendering="optimizeLegibility" clip-path="url(#clipPath32)" points=" 120 251 125 266 115 266" stroke="none"/>
<polygon text-rendering="optimizeLegibility" fill="none" clip-path="url(#clipPath32)" points=" 120 251 125 266 115 266"/>
<line clip-path="url(#clipPath30)" fill="none" text-rendering="optimizeLegibility" x1="585" x2="585" y1="290" y2="251"/>
<polygon text-rendering="optimizeLegibility" clip-path="url(#clipPath33)" points=" 585 251 590 266 580 266" stroke="none"/>
<polygon text-rendering="optimizeLegibility" fill="none" clip-path="url(#clipPath33)" points=" 585 251 590 266 580 266"/>
<line clip-path="url(#clipPath30)" fill="none" text-rendering="optimizeLegibility" x1="221" x2="495" y1="320" y2="320"/>
<text x="396" y="313" clip-path="url(#clipPath34)" text-rendering="optimizeLegibility" stroke="none" xml:space="preserve"> / meanings [*]</text>
<text x="230" y="313" clip-path="url(#clipPath35)" text-rendering="optimizeLegibility" stroke="none" xml:space="preserve"> 1</text>
<polygon text-rendering="optimizeLegibility" clip-path="url(#clipPath36)" points=" 495 321 493 323 491 323 489 321 489 320 477 326 489 320 477 314 489 320 489 319 491 317 493 317 495 319" stroke="none"/>
<polygon text-rendering="optimizeLegibility" fill="none" clip-path="url(#clipPath36)" points=" 495 321 493 323 491 323 489 321 489 320 477 326 489 320 477 314 489 320 489 319 491 317 493 317 495 319"/>
<line clip-path="url(#clipPath30)" fill="none" text-rendering="optimizeLegibility" x1="221" x2="329" y1="425" y2="425"/>
<path text-rendering="optimizeLegibility" fill="none" d="M328.5 425 A10.5 11 0 0 0 339 414" clip-path="url(#clipPath30)"/>
<line clip-path="url(#clipPath30)" fill="none" text-rendering="optimizeLegibility" x1="340" x2="340" y1="414" y2="411"/>
<path text-rendering="optimizeLegibility" fill="none" d="M339 411 A10.5 11 0 0 0 328.5 400" clip-path="url(#clipPath30)"/>
<line clip-path="url(#clipPath30)" fill="none" text-rendering="optimizeLegibility" x1="329" x2="221" y1="400" y2="400"/>
<text x="235" y="438" clip-path="url(#clipPath37)" text-rendering="optimizeLegibility" stroke="none" xml:space="preserve">  synonyms [*]</text>
<polygon text-rendering="optimizeLegibility" clip-path="url(#clipPath38)" points=" 221 424 223 422 225 422 227 424 227 425 239 419 227 425 239 431 227 425 227 426 225 428 223 428 221 426" stroke="none"/>
<polygon text-rendering="optimizeLegibility" fill="none" clip-path="url(#clipPath38)" points=" 221 424 223 422 225 422 227 424 227 425 239 419 227 425 239 431 227 425 227 426 225 428 223 428 221 426"/>
<line clip-path="url(#clipPath30)" fill="none" text-rendering="optimizeLegibility" x1="221" x2="329" y1="495" y2="495"/>
<path text-rendering="optimizeLegibility" fill="none" d="M328.5 495 A10.5 11 0 0 0 339 484" clip-path="url(#clipPath30)"/>
<line clip-path="url(#clipPath30)" fill="none" text-rendering="optimizeLegibility" x1="340" x2="340" y1="484" y2="481"/>
<path text-rendering="optimizeLegibility" fill="none" d="M339 481 A10.5 11 0 0 0 328.5 470" clip-path="url(#clipPath30)"/>
<line clip-path="url(#clipPath30)" fill="none" text-rendering="optimizeLegibility" x1="329" x2="221" y1="470" y2="470"/>
<text x="235" y="463" clip-path="url(#clipPath39)" text-rendering="optimizeLegibility" stroke="none" xml:space="preserve">  hyponyms [*]</text>
<text x="235" y="508" clip-path="url(#clipPath40)" text-rendering="optimizeLegibility" stroke="none" xml:space="preserve">  hypernyms [*]</text>
<polygon text-rendering="optimizeLegibility" clip-path="url(#clipPath41)" points=" 221 494 223 492 225 492 227 494 227 495 239 489 227 495 239 501 227 495 227 496 225 498 223 498 221 496" stroke="none"/>
<polygon text-rendering="optimizeLegibility" fill="none" clip-path="url(#clipPath41)" points=" 221 494 223 492 225 492 227 494 227 495 239 489 227 495 239 501 227 495 227 496 225 498 223 498 221 496"/>
<polygon text-rendering="optimizeLegibility" clip-path="url(#clipPath42)" points=" 221 469 223 467 225 467 227 469 227 470 239 464 227 470 239 476 227 470 227 471 225 473 223 473 221 471" stroke="none"/>
<polygon text-rendering="optimizeLegibility" fill="none" clip-path="url(#clipPath42)" points=" 221 469 223 467 225 467 227 469 227 470 239 464 227 470 239 476 227 470 227 471 225 473 223 473 221 471"/>
<line clip-path="url(#clipPath30)" fill="none" text-rendering="optimizeLegibility" x1="221" x2="495" y1="360" y2="360"/>
<text x="340" y="353" clip-path="url(#clipPath43)" text-rendering="optimizeLegibility" stroke="none" xml:space="preserve"> / commonMeaning [0..1]</text>
<text x="230" y="353" clip-path="url(#clipPath44)" text-rendering="optimizeLegibility" stroke="none" xml:space="preserve"> 1</text>
<text x="303" y="378" clip-path="url(#clipPath45)" text-rendering="optimizeLegibility" stroke="none" xml:space="preserve"> 0..1 {unique, subsets meanings}</text>
<polygon text-rendering="optimizeLegibility" clip-path="url(#clipPath46)" points=" 495 361 493 363 491 363 489 361 489 360 477 366 489 360 477 354 489 360 489 359 491 357 493 357 495 359" stroke="none"/>
<polygon text-rendering="optimizeLegibility" fill="none" clip-path="url(#clipPath46)" points=" 495 361 493 363 491 363 489 361 489 360 477 366 489 360 477 354 489 360 489 359 491 357 493 357 495 359"/>
<line clip-path="url(#clipPath30)" fill="none" text-rendering="optimizeLegibility" x1="676" x2="799" y1="125" y2="125"/>
<path text-rendering="optimizeLegibility" fill="none" d="M814 141 A15.5 16 0 0 0 798.5 125" clip-path="url(#clipPath30)"/>
<line clip-path="url(#clipPath30)" fill="none" text-rendering="optimizeLegibility" x1="815" x2="815" y1="141" y2="144"/>
<path text-rendering="optimizeLegibility" fill="none" d="M798.5 160 A15.5 16 0 0 0 814 144" clip-path="url(#clipPath30)"/>
<line clip-path="url(#clipPath30)" fill="none" text-rendering="optimizeLegibility" x1="799" x2="676" y1="160" y2="160"/>
<text x="675" y="153" clip-path="url(#clipPath47)" text-rendering="optimizeLegibility" stroke="none" xml:space="preserve">  referedBy [*]</text>
<text x="697" y="118" clip-path="url(#clipPath48)" text-rendering="optimizeLegibility" stroke="none" xml:space="preserve">  refGlossary [*]</text>
<polygon text-rendering="optimizeLegibility" clip-path="url(#clipPath49)" points=" 676 124 678 122 680 122 682 124 682 125 694 119 682 125 694 131 682 125 682 126 680 128 678 128 676 126" stroke="none"/>
<polygon text-rendering="optimizeLegibility" fill="none" clip-path="url(#clipPath49)" points=" 676 124 678 122 680 122 682 124 682 125 694 119 682 125 694 131 682 125 682 126 680 128 678 128 676 126"/>
</g>
</g>
</svg>
