<?xml version="1.0" encoding="UTF-8"?><svg xmlns="http://www.w3.org/2000/svg" xmlns:xlink="http://www.w3.org/1999/xlink" stroke-dasharray="none" shape-rendering="auto" font-family="'Dialog'" width="760" text-rendering="auto" fill-opacity="1" contentScriptType="text/ecmascript" color-interpolation="auto" color-rendering="auto" preserveAspectRatio="xMidYMid meet" font-size="12" viewBox="0 0 760 230" fill="black" stroke="black" image-rendering="auto" stroke-miterlimit="10" zoomAndPan="magnify" version="1.0" stroke-linecap="square" stroke-linejoin="miter" contentStyleType="text/css" font-style="normal" height="230" stroke-width="1" stroke-dashoffset="0" font-weight="normal" stroke-opacity="1">
<!--Generated by the Batik Graphics2D SVG Generator-->
<defs id="genericDefs"/>
<g>
<defs id="defs1">
<linearGradient x1="10" x2="10" y1="10" gradientUnits="userSpaceOnUse" y2="110" xlink:type="simple" xlink:actuate="onLoad" id="linearGradient1" xlink:show="other" spreadMethod="pad">
<stop stop-opacity="1" stop-color="white" offset="0%"/>
<stop stop-opacity="1" stop-color="rgb(195,209,213)" offset="100%"/>
</linearGradient>
<linearGradient x1="10" x2="10" y1="170" gradientUnits="userSpaceOnUse" y2="220" xlink:type="simple" xlink:actuate="onLoad" id="linearGradient2" xlink:show="other" spreadMethod="pad">
<stop stop-opacity="1" stop-color="white" offset="0%"/>
<stop stop-opacity="1" stop-color="rgb(195,215,221)" offset="100%"/>
</linearGradient>
<linearGradient x1="170" x2="170" y1="10" gradientUnits="userSpaceOnUse" y2="110" xlink:type="simple" xlink:actuate="onLoad" id="linearGradient3" xlink:show="other" spreadMethod="pad">
<stop stop-opacity="1" stop-color="white" offset="0%"/>
<stop stop-opacity="1" stop-color="rgb(195,209,213)" offset="100%"/>
</linearGradient>
<linearGradient x1="170" x2="170" y1="170" gradientUnits="userSpaceOnUse" y2="220" xlink:type="simple" xlink:actuate="onLoad" id="linearGradient4" xlink:show="other" spreadMethod="pad">
<stop stop-opacity="1" stop-color="white" offset="0%"/>
<stop stop-opacity="1" stop-color="rgb(195,215,221)" offset="100%"/>
</linearGradient>
<linearGradient x1="330" x2="330" y1="10" gradientUnits="userSpaceOnUse" y2="110" xlink:type="simple" xlink:actuate="onLoad" id="linearGradient5" xlink:show="other" spreadMethod="pad">
<stop stop-opacity="1" stop-color="white" offset="0%"/>
<stop stop-opacity="1" stop-color="rgb(195,209,213)" offset="100%"/>
</linearGradient>
<linearGradient x1="330" x2="330" y1="170" gradientUnits="userSpaceOnUse" y2="220" xlink:type="simple" xlink:actuate="onLoad" id="linearGradient6" xlink:show="other" spreadMethod="pad">
<stop stop-opacity="1" stop-color="white" offset="0%"/>
<stop stop-opacity="1" stop-color="rgb(195,215,221)" offset="100%"/>
</linearGradient>
<linearGradient x1="490" x2="490" y1="10" gradientUnits="userSpaceOnUse" y2="110" xlink:type="simple" xlink:actuate="onLoad" id="linearGradient7" xlink:show="other" spreadMethod="pad">
<stop stop-opacity="1" stop-color="white" offset="0%"/>
<stop stop-opacity="1" stop-color="rgb(195,209,213)" offset="100%"/>
</linearGradient>
<linearGradient x1="490" x2="490" y1="170" gradientUnits="userSpaceOnUse" y2="220" xlink:type="simple" xlink:actuate="onLoad" id="linearGradient8" xlink:show="other" spreadMethod="pad">
<stop stop-opacity="1" stop-color="white" offset="0%"/>
<stop stop-opacity="1" stop-color="rgb(195,215,221)" offset="100%"/>
</linearGradient>
<linearGradient x1="650" x2="650" y1="10" gradientUnits="userSpaceOnUse" y2="110" xlink:type="simple" xlink:actuate="onLoad" id="linearGradient9" xlink:show="other" spreadMethod="pad">
<stop stop-opacity="1" stop-color="white" offset="0%"/>
<stop stop-opacity="1" stop-color="rgb(195,209,213)" offset="100%"/>
</linearGradient>
<linearGradient x1="650" x2="650" y1="170" gradientUnits="userSpaceOnUse" y2="220" xlink:type="simple" xlink:actuate="onLoad" id="linearGradient10" xlink:show="other" spreadMethod="pad">
<stop stop-opacity="1" stop-color="white" offset="0%"/>
<stop stop-opacity="1" stop-color="rgb(195,215,221)" offset="100%"/>
</linearGradient>
<clipPath clipPathUnits="userSpaceOnUse" id="clipPath1">
<path d="M10 10 L10 109 L109 109 L109 10 Z"/>
</clipPath>
<clipPath clipPathUnits="userSpaceOnUse" id="clipPath2">
<path d="M29 12 L92 12 L92 25 L29 25 L29 12 Z"/>
</clipPath>
<clipPath clipPathUnits="userSpaceOnUse" id="clipPath3">
<path d="M46 24 L76 24 L76 37 L46 37 L46 24 Z"/>
</clipPath>
<clipPath clipPathUnits="userSpaceOnUse" id="clipPath4">
<path d="M10 36 L111 36 L111 74 L10 74 L10 36 Z"/>
</clipPath>
<clipPath clipPathUnits="userSpaceOnUse" id="clipPath5">
<path d="M10 73 L111 73 L111 111 L10 111 L10 73 Z"/>
</clipPath>
<clipPath clipPathUnits="userSpaceOnUse" id="clipPath6">
<path d="M9 9 L111 9 L111 111 L9 111 L9 9 Z"/>
</clipPath>
<clipPath clipPathUnits="userSpaceOnUse" id="clipPath7">
<path d="M10 170 L10 219 L109 219 L109 170 Z"/>
</clipPath>
<clipPath clipPathUnits="userSpaceOnUse" id="clipPath8">
<path d="M31 183 L90 183 L90 196 L31 196 L31 183 Z"/>
</clipPath>
<clipPath clipPathUnits="userSpaceOnUse" id="clipPath9">
<path d="M34 195 L87 195 L87 208 L34 208 L34 195 Z"/>
</clipPath>
<clipPath clipPathUnits="userSpaceOnUse" id="clipPath10">
<path d="M9 169 L111 169 L111 221 L9 221 L9 169 Z"/>
</clipPath>
<clipPath clipPathUnits="userSpaceOnUse" id="clipPath11">
<path d="M170 10 L170 109 L269 109 L269 10 Z"/>
</clipPath>
<clipPath clipPathUnits="userSpaceOnUse" id="clipPath12">
<path d="M189 12 L252 12 L252 25 L189 25 L189 12 Z"/>
</clipPath>
<clipPath clipPathUnits="userSpaceOnUse" id="clipPath13">
<path d="M192 24 L250 24 L250 37 L192 37 L192 24 Z"/>
</clipPath>
<clipPath clipPathUnits="userSpaceOnUse" id="clipPath14">
<path d="M170 36 L271 36 L271 74 L170 74 L170 36 Z"/>
</clipPath>
<clipPath clipPathUnits="userSpaceOnUse" id="clipPath15">
<path d="M170 73 L271 73 L271 111 L170 111 L170 73 Z"/>
</clipPath>
<clipPath clipPathUnits="userSpaceOnUse" id="clipPath16">
<path d="M169 9 L271 9 L271 111 L169 111 L169 9 Z"/>
</clipPath>
<clipPath clipPathUnits="userSpaceOnUse" id="clipPath17">
<path d="M170 170 L170 219 L269 219 L269 170 Z"/>
</clipPath>
<clipPath clipPathUnits="userSpaceOnUse" id="clipPath18">
<path d="M191 183 L250 183 L250 196 L191 196 L191 183 Z"/>
</clipPath>
<clipPath clipPathUnits="userSpaceOnUse" id="clipPath19">
<path d="M208 195 L234 195 L234 208 L208 208 L208 195 Z"/>
</clipPath>
<clipPath clipPathUnits="userSpaceOnUse" id="clipPath20">
<path d="M169 169 L271 169 L271 221 L169 221 L169 169 Z"/>
</clipPath>
<clipPath clipPathUnits="userSpaceOnUse" id="clipPath21">
<path d="M330 10 L330 109 L429 109 L429 10 Z"/>
</clipPath>
<clipPath clipPathUnits="userSpaceOnUse" id="clipPath22">
<path d="M349 12 L412 12 L412 25 L349 25 L349 12 Z"/>
</clipPath>
<clipPath clipPathUnits="userSpaceOnUse" id="clipPath23">
<path d="M359 24 L402 24 L402 37 L359 37 L359 24 Z"/>
</clipPath>
<clipPath clipPathUnits="userSpaceOnUse" id="clipPath24">
<path d="M330 36 L431 36 L431 74 L330 74 L330 36 Z"/>
</clipPath>
<clipPath clipPathUnits="userSpaceOnUse" id="clipPath25">
<path d="M330 73 L431 73 L431 111 L330 111 L330 73 Z"/>
</clipPath>
<clipPath clipPathUnits="userSpaceOnUse" id="clipPath26">
<path d="M329 9 L431 9 L431 111 L329 111 L329 9 Z"/>
</clipPath>
<clipPath clipPathUnits="userSpaceOnUse" id="clipPath27">
<path d="M330 170 L330 219 L429 219 L429 170 Z"/>
</clipPath>
<clipPath clipPathUnits="userSpaceOnUse" id="clipPath28">
<path d="M350 183 L411 183 L411 196 L350 196 L350 183 Z"/>
</clipPath>
<clipPath clipPathUnits="userSpaceOnUse" id="clipPath29">
<path d="M359 195 L402 195 L402 208 L359 208 L359 195 Z"/>
</clipPath>
<clipPath clipPathUnits="userSpaceOnUse" id="clipPath30">
<path d="M329 169 L431 169 L431 221 L329 221 L329 169 Z"/>
</clipPath>
<clipPath clipPathUnits="userSpaceOnUse" id="clipPath31">
<path d="M490 10 L490 109 L589 109 L589 10 Z"/>
</clipPath>
<clipPath clipPathUnits="userSpaceOnUse" id="clipPath32">
<path d="M509 12 L572 12 L572 25 L509 25 L509 12 Z"/>
</clipPath>
<clipPath clipPathUnits="userSpaceOnUse" id="clipPath33">
<path d="M519 24 L562 24 L562 37 L519 37 L519 24 Z"/>
</clipPath>
<clipPath clipPathUnits="userSpaceOnUse" id="clipPath34">
<path d="M490 36 L591 36 L591 74 L490 74 L490 36 Z"/>
</clipPath>
<clipPath clipPathUnits="userSpaceOnUse" id="clipPath35">
<path d="M490 73 L591 73 L591 111 L490 111 L490 73 Z"/>
</clipPath>
<clipPath clipPathUnits="userSpaceOnUse" id="clipPath36">
<path d="M489 9 L591 9 L591 111 L489 111 L489 9 Z"/>
</clipPath>
<clipPath clipPathUnits="userSpaceOnUse" id="clipPath37">
<path d="M490 170 L490 219 L589 219 L589 170 Z"/>
</clipPath>
<clipPath clipPathUnits="userSpaceOnUse" id="clipPath38">
<path d="M511 183 L570 183 L570 196 L511 196 L511 183 Z"/>
</clipPath>
<clipPath clipPathUnits="userSpaceOnUse" id="clipPath39">
<path d="M518 195 L564 195 L564 208 L518 208 L518 195 Z"/>
</clipPath>
<clipPath clipPathUnits="userSpaceOnUse" id="clipPath40">
<path d="M489 169 L591 169 L591 221 L489 221 L489 169 Z"/>
</clipPath>
<clipPath clipPathUnits="userSpaceOnUse" id="clipPath41">
<path d="M650 10 L650 109 L749 109 L749 10 Z"/>
</clipPath>
<clipPath clipPathUnits="userSpaceOnUse" id="clipPath42">
<path d="M669 12 L732 12 L732 25 L669 25 L669 12 Z"/>
</clipPath>
<clipPath clipPathUnits="userSpaceOnUse" id="clipPath43">
<path d="M687 24 L714 24 L714 37 L687 37 L687 24 Z"/>
</clipPath>
<clipPath clipPathUnits="userSpaceOnUse" id="clipPath44">
<path d="M650 36 L751 36 L751 74 L650 74 L650 36 Z"/>
</clipPath>
<clipPath clipPathUnits="userSpaceOnUse" id="clipPath45">
<path d="M650 73 L751 73 L751 111 L650 111 L650 73 Z"/>
</clipPath>
<clipPath clipPathUnits="userSpaceOnUse" id="clipPath46">
<path d="M649 9 L751 9 L751 111 L649 111 L649 9 Z"/>
</clipPath>
<clipPath clipPathUnits="userSpaceOnUse" id="clipPath47">
<path d="M650 170 L650 219 L749 219 L749 170 Z"/>
</clipPath>
<clipPath clipPathUnits="userSpaceOnUse" id="clipPath48">
<path d="M671 183 L730 183 L730 196 L671 196 L671 183 Z"/>
</clipPath>
<clipPath clipPathUnits="userSpaceOnUse" id="clipPath49">
<path d="M674 195 L727 195 L727 208 L674 208 L674 195 Z"/>
</clipPath>
<clipPath clipPathUnits="userSpaceOnUse" id="clipPath50">
<path d="M649 169 L751 169 L751 221 L649 221 L649 169 Z"/>
</clipPath>
<clipPath clipPathUnits="userSpaceOnUse" id="clipPath51">
<path d="M-1 -1 L761 -1 L761 231 L-1 231 L-1 -1 Z"/>
</clipPath>
<clipPath clipPathUnits="userSpaceOnUse" id="clipPath52">
<path d="M54 154 L67 154 L67 172 L54 172 L54 154 Z"/>
</clipPath>
<clipPath clipPathUnits="userSpaceOnUse" id="clipPath53">
<path d="M214 154 L227 154 L227 172 L214 172 L214 154 Z"/>
</clipPath>
<clipPath clipPathUnits="userSpaceOnUse" id="clipPath54">
<path d="M374 154 L387 154 L387 172 L374 172 L374 154 Z"/>
</clipPath>
<clipPath clipPathUnits="userSpaceOnUse" id="clipPath55">
<path d="M534 154 L547 154 L547 172 L534 172 L534 154 Z"/>
</clipPath>
<clipPath clipPathUnits="userSpaceOnUse" id="clipPath56">
<path d="M694 154 L707 154 L707 172 L694 172 L694 154 Z"/>
</clipPath>
</defs>
<g font-size="11" fill="url(#linearGradient1)" stroke-linejoin="round" stroke="url(#linearGradient1)" stroke-width="0" stroke-miterlimit="0">
<rect x="10" y="10" clip-path="url(#clipPath1)" width="100" height="100" stroke="none"/>
<text x="30" font-size="9" y="22" clip-path="url(#clipPath2)" fill="black" stroke="none" xml:space="preserve">«Stereotype»</text>
<text x="47" font-size="9" y="34" clip-path="url(#clipPath3)" fill="black" stroke="none" xml:space="preserve">Refine</text>
</g>
<g font-size="11" stroke-width="1.1" stroke-linecap="butt">
<line clip-path="url(#clipPath4)" fill="none" x1="10" x2="110" y1="37" y2="37"/>
<line clip-path="url(#clipPath5)" fill="none" x1="10" x2="110" y1="74" y2="74"/>
<rect x="10" y="10" clip-path="url(#clipPath6)" fill="none" width="99" rx="0" ry="0" height="99"/>
<rect x="10" y="170" clip-path="url(#clipPath7)" fill="url(#linearGradient2)" width="100" height="50" stroke="none"/>
<text x="32" font-size="9" y="193" clip-path="url(#clipPath8)" stroke="none" xml:space="preserve">«Metaclass»</text>
<text x="35" font-size="9" y="205" clip-path="url(#clipPath9)" stroke="none" xml:space="preserve">Abstraction</text>
<rect x="10" y="170" clip-path="url(#clipPath10)" fill="none" width="99" rx="0" ry="0" height="49"/>
<rect x="170" y="10" clip-path="url(#clipPath11)" fill="url(#linearGradient3)" width="100" height="100" stroke="none"/>
<text x="190" font-size="9" y="22" clip-path="url(#clipPath12)" stroke="none" xml:space="preserve">«Stereotype»</text>
<text x="193" font-size="9" y="34" clip-path="url(#clipPath13)" stroke="none" xml:space="preserve">Requirement</text>
<line clip-path="url(#clipPath14)" fill="none" x1="170" x2="270" y1="37" y2="37"/>
<line clip-path="url(#clipPath15)" fill="none" x1="170" x2="270" y1="74" y2="74"/>
<rect x="170" y="10" clip-path="url(#clipPath16)" fill="none" width="99" rx="0" ry="0" height="99"/>
<rect x="170" y="170" clip-path="url(#clipPath17)" fill="url(#linearGradient4)" width="100" height="50" stroke="none"/>
<text x="192" font-size="9" y="193" clip-path="url(#clipPath18)" stroke="none" xml:space="preserve">«Metaclass»</text>
<text x="209" font-size="9" y="205" clip-path="url(#clipPath19)" stroke="none" xml:space="preserve">Class</text>
<rect x="170" y="170" clip-path="url(#clipPath20)" fill="none" width="99" rx="0" ry="0" height="49"/>
<rect x="330" y="10" clip-path="url(#clipPath21)" fill="url(#linearGradient5)" width="100" height="100" stroke="none"/>
<text x="350" font-size="9" y="22" clip-path="url(#clipPath22)" stroke="none" xml:space="preserve">«Stereotype»</text>
<text x="360" font-size="9" y="34" clip-path="url(#clipPath23)" stroke="none" xml:space="preserve">TestCase</text>
<line clip-path="url(#clipPath24)" fill="none" x1="330" x2="430" y1="37" y2="37"/>
<line clip-path="url(#clipPath25)" fill="none" x1="330" x2="430" y1="74" y2="74"/>
<rect x="330" y="10" clip-path="url(#clipPath26)" fill="none" width="99" rx="0" ry="0" height="99"/>
<rect x="330" y="170" clip-path="url(#clipPath27)" fill="url(#linearGradient6)" width="100" height="50" stroke="none"/>
<text x="351" font-size="9" y="193" clip-path="url(#clipPath28)" font-style="italic" stroke="none" xml:space="preserve">«Metaclass»</text>
<text x="360" font-size="9" y="205" clip-path="url(#clipPath29)" font-style="italic" stroke="none" xml:space="preserve">Behavior</text>
<rect x="330" y="170" clip-path="url(#clipPath30)" fill="none" width="99" rx="0" ry="0" height="49"/>
<rect x="490" y="10" clip-path="url(#clipPath31)" fill="url(#linearGradient7)" width="100" height="100" stroke="none"/>
<text x="510" font-size="9" y="22" clip-path="url(#clipPath32)" stroke="none" xml:space="preserve">«Stereotype»</text>
<text x="520" font-size="9" y="34" clip-path="url(#clipPath33)" stroke="none" xml:space="preserve">TestCase</text>
<line clip-path="url(#clipPath34)" fill="none" x1="490" x2="590" y1="37" y2="37"/>
<line clip-path="url(#clipPath35)" fill="none" x1="490" x2="590" y1="74" y2="74"/>
<rect x="490" y="10" clip-path="url(#clipPath36)" fill="none" width="99" rx="0" ry="0" height="99"/>
<rect x="490" y="170" clip-path="url(#clipPath37)" fill="url(#linearGradient8)" width="100" height="50" stroke="none"/>
<text x="512" font-size="9" y="193" clip-path="url(#clipPath38)" stroke="none" xml:space="preserve">«Metaclass»</text>
<text x="519" font-size="9" y="205" clip-path="url(#clipPath39)" stroke="none" xml:space="preserve">Operation</text>
<rect x="490" y="170" clip-path="url(#clipPath40)" fill="none" width="99" rx="0" ry="0" height="49"/>
<rect x="650" y="10" clip-path="url(#clipPath41)" fill="url(#linearGradient9)" width="100" height="100" stroke="none"/>
<text x="670" font-size="9" y="22" clip-path="url(#clipPath42)" stroke="none" xml:space="preserve">«Stereotype»</text>
<text x="688" font-size="9" y="34" clip-path="url(#clipPath43)" stroke="none" xml:space="preserve">Trace</text>
<line clip-path="url(#clipPath44)" fill="none" x1="650" x2="750" y1="37" y2="37"/>
<line clip-path="url(#clipPath45)" fill="none" x1="650" x2="750" y1="74" y2="74"/>
<rect x="650" y="10" clip-path="url(#clipPath46)" fill="none" width="99" rx="0" ry="0" height="99"/>
<rect x="650" y="170" clip-path="url(#clipPath47)" fill="url(#linearGradient10)" width="100" height="50" stroke="none"/>
<text x="672" font-size="9" y="193" clip-path="url(#clipPath48)" stroke="none" xml:space="preserve">«Metaclass»</text>
<text x="675" font-size="9" y="205" clip-path="url(#clipPath49)" stroke="none" xml:space="preserve">Abstraction</text>
<rect x="650" y="170" clip-path="url(#clipPath50)" fill="none" width="99" rx="0" ry="0" height="49"/>
<line clip-path="url(#clipPath51)" fill="none" text-rendering="optimizeLegibility" x1="60" x2="60" y1="110" y2="170"/>
<polygon text-rendering="optimizeLegibility" clip-path="url(#clipPath52)" points=" 60 170 55 155 65 155" stroke="none"/>
<polygon fill="none" text-rendering="optimizeLegibility" clip-path="url(#clipPath52)" points=" 60 170 55 155 65 155"/>
<line clip-path="url(#clipPath51)" fill="none" text-rendering="optimizeLegibility" x1="220" x2="220" y1="110" y2="170"/>
<polygon text-rendering="optimizeLegibility" clip-path="url(#clipPath53)" points=" 220 170 215 155 225 155" stroke="none"/>
<polygon fill="none" text-rendering="optimizeLegibility" clip-path="url(#clipPath53)" points=" 220 170 215 155 225 155"/>
<line clip-path="url(#clipPath51)" fill="none" text-rendering="optimizeLegibility" x1="380" x2="380" y1="110" y2="170"/>
<polygon text-rendering="optimizeLegibility" clip-path="url(#clipPath54)" points=" 380 170 375 155 385 155" stroke="none"/>
<polygon fill="none" text-rendering="optimizeLegibility" clip-path="url(#clipPath54)" points=" 380 170 375 155 385 155"/>
<line clip-path="url(#clipPath51)" fill="none" text-rendering="optimizeLegibility" x1="540" x2="540" y1="110" y2="170"/>
<polygon text-rendering="optimizeLegibility" clip-path="url(#clipPath55)" points=" 540 170 535 155 545 155" stroke="none"/>
<polygon fill="none" text-rendering="optimizeLegibility" clip-path="url(#clipPath55)" points=" 540 170 535 155 545 155"/>
<line clip-path="url(#clipPath51)" fill="none" text-rendering="optimizeLegibility" x1="700" x2="700" y1="110" y2="170"/>
<polygon text-rendering="optimizeLegibility" clip-path="url(#clipPath56)" points=" 700 170 695 155 705 155" stroke="none"/>
<polygon fill="none" text-rendering="optimizeLegibility" clip-path="url(#clipPath56)" points=" 700 170 695 155 705 155"/>
</g>
</g>
</svg>
