<?xml version="1.0" encoding="UTF-8"?><svg xmlns="http://www.w3.org/2000/svg" xmlns:xlink="http://www.w3.org/1999/xlink" stroke-dasharray="none" shape-rendering="auto" font-family="'Dialog'" width="290" text-rendering="auto" fill-opacity="1" contentScriptType="text/ecmascript" color-interpolation="auto" color-rendering="auto" preserveAspectRatio="xMidYMid meet" font-size="12" viewBox="0 0 290 230" fill="black" stroke="black" image-rendering="auto" stroke-miterlimit="10" zoomAndPan="magnify" version="1.0" stroke-linecap="square" stroke-linejoin="miter" contentStyleType="text/css" font-style="normal" height="230" stroke-width="1" stroke-dashoffset="0" font-weight="normal" stroke-opacity="1">
<!--Generated by the Batik Graphics2D SVG Generator-->
<defs id="genericDefs"/>
<g>
<defs id="defs1">
<linearGradient x1="10" x2="10" y1="10" gradientUnits="userSpaceOnUse" y2="110" xlink:type="simple" xlink:actuate="onLoad" id="linearGradient1" xlink:show="other" spreadMethod="pad">
<stop stop-opacity="1" stop-color="white" offset="0%"/>
<stop stop-opacity="1" stop-color="rgb(195,209,213)" offset="100%"/>
</linearGradient>
<linearGradient x1="10" x2="10" y1="170" gradientUnits="userSpaceOnUse" y2="220" xlink:type="simple" xlink:actuate="onLoad" id="linearGradient2" xlink:show="other" spreadMethod="pad">
<stop stop-opacity="1" stop-color="white" offset="0%"/>
<stop stop-opacity="1" stop-color="rgb(195,215,221)" offset="100%"/>
</linearGradient>
<linearGradient x1="170" x2="170" y1="10" gradientUnits="userSpaceOnUse" y2="110" xlink:type="simple" xlink:actuate="onLoad" id="linearGradient3" xlink:show="other" spreadMethod="pad">
<stop stop-opacity="1" stop-color="white" offset="0%"/>
<stop stop-opacity="1" stop-color="rgb(195,209,213)" offset="100%"/>
</linearGradient>
<linearGradient x1="180" x2="180" y1="170" gradientUnits="userSpaceOnUse" y2="220" xlink:type="simple" xlink:actuate="onLoad" id="linearGradient4" xlink:show="other" spreadMethod="pad">
<stop stop-opacity="1" stop-color="white" offset="0%"/>
<stop stop-opacity="1" stop-color="rgb(195,215,221)" offset="100%"/>
</linearGradient>
<clipPath clipPathUnits="userSpaceOnUse" id="clipPath1">
<path d="M10 10 L10 109 L109 109 L109 10 Z"/>
</clipPath>
<clipPath clipPathUnits="userSpaceOnUse" id="clipPath2">
<path d="M29 12 L92 12 L92 25 L29 25 L29 12 Z"/>
</clipPath>
<clipPath clipPathUnits="userSpaceOnUse" id="clipPath3">
<path d="M40 24 L81 24 L81 37 L40 37 L40 24 Z"/>
</clipPath>
<clipPath clipPathUnits="userSpaceOnUse" id="clipPath4">
<path d="M10 36 L111 36 L111 74 L10 74 L10 36 Z"/>
</clipPath>
<clipPath clipPathUnits="userSpaceOnUse" id="clipPath5">
<path d="M10 73 L111 73 L111 111 L10 111 L10 73 Z"/>
</clipPath>
<clipPath clipPathUnits="userSpaceOnUse" id="clipPath6">
<path d="M9 9 L111 9 L111 111 L9 111 L9 9 Z"/>
</clipPath>
<clipPath clipPathUnits="userSpaceOnUse" id="clipPath7">
<path d="M10 170 L10 219 L109 219 L109 170 Z"/>
</clipPath>
<clipPath clipPathUnits="userSpaceOnUse" id="clipPath8">
<path d="M31 183 L90 183 L90 196 L31 196 L31 183 Z"/>
</clipPath>
<clipPath clipPathUnits="userSpaceOnUse" id="clipPath9">
<path d="M50 195 L71 195 L71 208 L50 208 L50 195 Z"/>
</clipPath>
<clipPath clipPathUnits="userSpaceOnUse" id="clipPath10">
<path d="M9 169 L111 169 L111 221 L9 221 L9 169 Z"/>
</clipPath>
<clipPath clipPathUnits="userSpaceOnUse" id="clipPath11">
<path d="M170 10 L170 109 L269 109 L269 10 Z"/>
</clipPath>
<clipPath clipPathUnits="userSpaceOnUse" id="clipPath12">
<path d="M189 12 L252 12 L252 25 L189 25 L189 12 Z"/>
</clipPath>
<clipPath clipPathUnits="userSpaceOnUse" id="clipPath13">
<path d="M181 24 L261 24 L261 37 L181 37 L181 24 Z"/>
</clipPath>
<clipPath clipPathUnits="userSpaceOnUse" id="clipPath14">
<path d="M170 36 L271 36 L271 74 L170 74 L170 36 Z"/>
</clipPath>
<clipPath clipPathUnits="userSpaceOnUse" id="clipPath15">
<path d="M170 73 L271 73 L271 111 L170 111 L170 73 Z"/>
</clipPath>
<clipPath clipPathUnits="userSpaceOnUse" id="clipPath16">
<path d="M169 9 L271 9 L271 111 L169 111 L169 9 Z"/>
</clipPath>
<clipPath clipPathUnits="userSpaceOnUse" id="clipPath17">
<path d="M180 170 L180 219 L279 219 L279 170 Z"/>
</clipPath>
<clipPath clipPathUnits="userSpaceOnUse" id="clipPath18">
<path d="M201 183 L260 183 L260 196 L201 196 L201 183 Z"/>
</clipPath>
<clipPath clipPathUnits="userSpaceOnUse" id="clipPath19">
<path d="M210 195 L252 195 L252 208 L210 208 L210 195 Z"/>
</clipPath>
<clipPath clipPathUnits="userSpaceOnUse" id="clipPath20">
<path d="M179 169 L281 169 L281 221 L179 221 L179 169 Z"/>
</clipPath>
<clipPath clipPathUnits="userSpaceOnUse" id="clipPath21">
<path d="M-1 -1 L291 -1 L291 231 L-1 231 L-1 -1 Z"/>
</clipPath>
<clipPath clipPathUnits="userSpaceOnUse" id="clipPath22">
<path d="M54 154 L67 154 L67 172 L54 172 L54 154 Z"/>
</clipPath>
<clipPath clipPathUnits="userSpaceOnUse" id="clipPath23">
<path d="M219 153 L232 153 L232 172 L219 172 L219 153 Z"/>
</clipPath>
</defs>
<g font-size="11" fill="url(#linearGradient1)" stroke-linejoin="round" stroke="url(#linearGradient1)" stroke-width="0" stroke-miterlimit="0">
<rect x="10" y="10" clip-path="url(#clipPath1)" width="100" height="100" stroke="none"/>
<text x="30" font-size="9" y="22" clip-path="url(#clipPath2)" fill="black" stroke="none" xml:space="preserve">«Stereotype»</text>
<text x="41" font-size="9" y="34" clip-path="url(#clipPath3)" fill="black" stroke="none" xml:space="preserve">FlowPort</text>
</g>
<g font-size="11" stroke-width="1.1" stroke-linecap="butt">
<line clip-path="url(#clipPath4)" fill="none" x1="10" x2="110" y1="37" y2="37"/>
<line clip-path="url(#clipPath5)" fill="none" x1="10" x2="110" y1="74" y2="74"/>
<rect x="10" y="10" clip-path="url(#clipPath6)" fill="none" width="99" rx="0" ry="0" height="99"/>
<rect x="10" y="170" clip-path="url(#clipPath7)" fill="url(#linearGradient2)" width="100" height="50" stroke="none"/>
<text x="32" font-size="9" y="193" clip-path="url(#clipPath8)" stroke="none" xml:space="preserve">«Metaclass»</text>
<text x="51" font-size="9" y="205" clip-path="url(#clipPath9)" stroke="none" xml:space="preserve">Port</text>
<rect x="10" y="170" clip-path="url(#clipPath10)" fill="none" width="99" rx="0" ry="0" height="49"/>
<rect x="170" y="10" clip-path="url(#clipPath11)" fill="url(#linearGradient3)" width="100" height="100" stroke="none"/>
<text x="190" font-size="9" y="22" clip-path="url(#clipPath12)" stroke="none" xml:space="preserve">«Stereotype»</text>
<text x="182" font-size="9" y="34" clip-path="url(#clipPath13)" stroke="none" xml:space="preserve">FlowSpecification</text>
<line clip-path="url(#clipPath14)" fill="none" x1="170" x2="270" y1="37" y2="37"/>
<line clip-path="url(#clipPath15)" fill="none" x1="170" x2="270" y1="74" y2="74"/>
<rect x="170" y="10" clip-path="url(#clipPath16)" fill="none" width="99" rx="0" ry="0" height="99"/>
<rect x="180" y="170" clip-path="url(#clipPath17)" fill="url(#linearGradient4)" width="100" height="50" stroke="none"/>
<text x="202" font-size="9" y="193" clip-path="url(#clipPath18)" stroke="none" xml:space="preserve">«Metaclass»</text>
<text x="211" font-size="9" y="205" clip-path="url(#clipPath19)" stroke="none" xml:space="preserve">Interface</text>
<rect x="180" y="170" clip-path="url(#clipPath20)" fill="none" width="99" rx="0" ry="0" height="49"/>
<line clip-path="url(#clipPath21)" fill="none" text-rendering="optimizeLegibility" x1="60" x2="60" y1="110" y2="170"/>
<polygon text-rendering="optimizeLegibility" clip-path="url(#clipPath22)" points=" 60 170 55 155 65 155" stroke="none"/>
<polygon fill="none" text-rendering="optimizeLegibility" clip-path="url(#clipPath22)" points=" 60 170 55 155 65 155"/>
<line clip-path="url(#clipPath21)" fill="none" text-rendering="optimizeLegibility" x1="213" x2="229" y1="110" y2="170"/>
<polygon text-rendering="optimizeLegibility" clip-path="url(#clipPath23)" points=" 229 170 220 157 230 154" stroke="none"/>
<polygon fill="none" text-rendering="optimizeLegibility" clip-path="url(#clipPath23)" points=" 229 170 220 157 230 154"/>
</g>
</g>
</svg>
