<?xml version="1.0" encoding="UTF-8"?><svg xmlns="http://www.w3.org/2000/svg" xmlns:xlink="http://www.w3.org/1999/xlink" stroke-dasharray="none" shape-rendering="auto" font-family="'Dialog'" width="2485" text-rendering="auto" fill-opacity="1" contentScriptType="text/ecmascript" color-interpolation="auto" color-rendering="auto" preserveAspectRatio="xMidYMid meet" font-size="12" viewBox="0 0 2485 390" fill="black" stroke="black" image-rendering="auto" stroke-miterlimit="10" zoomAndPan="magnify" version="1.0" stroke-linecap="square" stroke-linejoin="miter" contentStyleType="text/css" font-style="normal" height="390" stroke-width="1" stroke-dashoffset="0" font-weight="normal" stroke-opacity="1">
<!--Generated by the Batik Graphics2D SVG Generator-->
<defs id="genericDefs"/>
<g>
<defs id="defs1">
<linearGradient x1="117" x2="117" y1="10" gradientUnits="userSpaceOnUse" y2="60" xlink:type="simple" xlink:actuate="onLoad" id="linearGradient1" xlink:show="other" spreadMethod="pad">
<stop stop-opacity="1" stop-color="white" offset="0%"/>
<stop stop-opacity="1" stop-color="rgb(195,215,221)" offset="100%"/>
</linearGradient>
<linearGradient x1="74" x2="74" y1="280" gradientUnits="userSpaceOnUse" y2="380" xlink:type="simple" xlink:actuate="onLoad" id="linearGradient2" xlink:show="other" spreadMethod="pad">
<stop stop-opacity="1" stop-color="white" offset="0%"/>
<stop stop-opacity="1" stop-color="rgb(195,209,213)" offset="100%"/>
</linearGradient>
<linearGradient x1="1338" x2="1338" y1="10" gradientUnits="userSpaceOnUse" y2="60" xlink:type="simple" xlink:actuate="onLoad" id="linearGradient3" xlink:show="other" spreadMethod="pad">
<stop stop-opacity="1" stop-color="white" offset="0%"/>
<stop stop-opacity="1" stop-color="rgb(195,215,221)" offset="100%"/>
</linearGradient>
<linearGradient x1="1401" x2="1401" y1="280" gradientUnits="userSpaceOnUse" y2="380" xlink:type="simple" xlink:actuate="onLoad" id="linearGradient4" xlink:show="other" spreadMethod="pad">
<stop stop-opacity="1" stop-color="white" offset="0%"/>
<stop stop-opacity="1" stop-color="rgb(195,209,213)" offset="100%"/>
</linearGradient>
<linearGradient x1="1197" x2="1197" y1="280" gradientUnits="userSpaceOnUse" y2="380" xlink:type="simple" xlink:actuate="onLoad" id="linearGradient5" xlink:show="other" spreadMethod="pad">
<stop stop-opacity="1" stop-color="white" offset="0%"/>
<stop stop-opacity="1" stop-color="rgb(195,209,213)" offset="100%"/>
</linearGradient>
<linearGradient x1="292" x2="292" y1="10" gradientUnits="userSpaceOnUse" y2="110" xlink:type="simple" xlink:actuate="onLoad" id="linearGradient6" xlink:show="other" spreadMethod="pad">
<stop stop-opacity="1" stop-color="white" offset="0%"/>
<stop stop-opacity="1" stop-color="rgb(195,209,213)" offset="100%"/>
</linearGradient>
<linearGradient x1="373" x2="373" y1="170" gradientUnits="userSpaceOnUse" y2="220" xlink:type="simple" xlink:actuate="onLoad" id="linearGradient7" xlink:show="other" spreadMethod="pad">
<stop stop-opacity="1" stop-color="white" offset="0%"/>
<stop stop-opacity="1" stop-color="rgb(195,215,221)" offset="100%"/>
</linearGradient>
<linearGradient x1="643" x2="643" y1="10" gradientUnits="userSpaceOnUse" y2="110" xlink:type="simple" xlink:actuate="onLoad" id="linearGradient8" xlink:show="other" spreadMethod="pad">
<stop stop-opacity="1" stop-color="white" offset="0%"/>
<stop stop-opacity="1" stop-color="rgb(195,209,213)" offset="100%"/>
</linearGradient>
<linearGradient x1="693" x2="693" y1="170" gradientUnits="userSpaceOnUse" y2="220" xlink:type="simple" xlink:actuate="onLoad" id="linearGradient9" xlink:show="other" spreadMethod="pad">
<stop stop-opacity="1" stop-color="white" offset="0%"/>
<stop stop-opacity="1" stop-color="rgb(195,215,221)" offset="100%"/>
</linearGradient>
<linearGradient x1="906" x2="906" y1="10" gradientUnits="userSpaceOnUse" y2="110" xlink:type="simple" xlink:actuate="onLoad" id="linearGradient10" xlink:show="other" spreadMethod="pad">
<stop stop-opacity="1" stop-color="white" offset="0%"/>
<stop stop-opacity="1" stop-color="rgb(195,209,213)" offset="100%"/>
</linearGradient>
<linearGradient x1="910" x2="910" y1="170" gradientUnits="userSpaceOnUse" y2="220" xlink:type="simple" xlink:actuate="onLoad" id="linearGradient11" xlink:show="other" spreadMethod="pad">
<stop stop-opacity="1" stop-color="white" offset="0%"/>
<stop stop-opacity="1" stop-color="rgb(195,215,221)" offset="100%"/>
</linearGradient>
<linearGradient x1="1077" x2="1077" y1="10" gradientUnits="userSpaceOnUse" y2="110" xlink:type="simple" xlink:actuate="onLoad" id="linearGradient12" xlink:show="other" spreadMethod="pad">
<stop stop-opacity="1" stop-color="white" offset="0%"/>
<stop stop-opacity="1" stop-color="rgb(195,209,213)" offset="100%"/>
</linearGradient>
<linearGradient x1="1077" x2="1077" y1="170" gradientUnits="userSpaceOnUse" y2="220" xlink:type="simple" xlink:actuate="onLoad" id="linearGradient13" xlink:show="other" spreadMethod="pad">
<stop stop-opacity="1" stop-color="white" offset="0%"/>
<stop stop-opacity="1" stop-color="rgb(195,215,221)" offset="100%"/>
</linearGradient>
<linearGradient x1="1599" x2="1599" y1="10" gradientUnits="userSpaceOnUse" y2="110" xlink:type="simple" xlink:actuate="onLoad" id="linearGradient14" xlink:show="other" spreadMethod="pad">
<stop stop-opacity="1" stop-color="white" offset="0%"/>
<stop stop-opacity="1" stop-color="rgb(195,209,213)" offset="100%"/>
</linearGradient>
<linearGradient x1="1599" x2="1599" y1="170" gradientUnits="userSpaceOnUse" y2="220" xlink:type="simple" xlink:actuate="onLoad" id="linearGradient15" xlink:show="other" spreadMethod="pad">
<stop stop-opacity="1" stop-color="white" offset="0%"/>
<stop stop-opacity="1" stop-color="rgb(195,215,221)" offset="100%"/>
</linearGradient>
<linearGradient x1="1759" x2="1759" y1="10" gradientUnits="userSpaceOnUse" y2="110" xlink:type="simple" xlink:actuate="onLoad" id="linearGradient16" xlink:show="other" spreadMethod="pad">
<stop stop-opacity="1" stop-color="white" offset="0%"/>
<stop stop-opacity="1" stop-color="rgb(195,209,213)" offset="100%"/>
</linearGradient>
<linearGradient x1="1806" x2="1806" y1="170" gradientUnits="userSpaceOnUse" y2="220" xlink:type="simple" xlink:actuate="onLoad" id="linearGradient17" xlink:show="other" spreadMethod="pad">
<stop stop-opacity="1" stop-color="white" offset="0%"/>
<stop stop-opacity="1" stop-color="rgb(195,215,221)" offset="100%"/>
</linearGradient>
<linearGradient x1="2027" x2="2027" y1="10" gradientUnits="userSpaceOnUse" y2="110" xlink:type="simple" xlink:actuate="onLoad" id="linearGradient18" xlink:show="other" spreadMethod="pad">
<stop stop-opacity="1" stop-color="white" offset="0%"/>
<stop stop-opacity="1" stop-color="rgb(195,209,213)" offset="100%"/>
</linearGradient>
<linearGradient x1="2022" x2="2022" y1="170" gradientUnits="userSpaceOnUse" y2="220" xlink:type="simple" xlink:actuate="onLoad" id="linearGradient19" xlink:show="other" spreadMethod="pad">
<stop stop-opacity="1" stop-color="white" offset="0%"/>
<stop stop-opacity="1" stop-color="rgb(195,215,221)" offset="100%"/>
</linearGradient>
<linearGradient x1="2193" x2="2193" y1="10" gradientUnits="userSpaceOnUse" y2="110" xlink:type="simple" xlink:actuate="onLoad" id="linearGradient20" xlink:show="other" spreadMethod="pad">
<stop stop-opacity="1" stop-color="white" offset="0%"/>
<stop stop-opacity="1" stop-color="rgb(195,209,213)" offset="100%"/>
</linearGradient>
<linearGradient x1="2193" x2="2193" y1="170" gradientUnits="userSpaceOnUse" y2="220" xlink:type="simple" xlink:actuate="onLoad" id="linearGradient21" xlink:show="other" spreadMethod="pad">
<stop stop-opacity="1" stop-color="white" offset="0%"/>
<stop stop-opacity="1" stop-color="rgb(195,215,221)" offset="100%"/>
</linearGradient>
<linearGradient x1="2353" x2="2353" y1="10" gradientUnits="userSpaceOnUse" y2="110" xlink:type="simple" xlink:actuate="onLoad" id="linearGradient22" xlink:show="other" spreadMethod="pad">
<stop stop-opacity="1" stop-color="white" offset="0%"/>
<stop stop-opacity="1" stop-color="rgb(195,209,213)" offset="100%"/>
</linearGradient>
<linearGradient x1="2375" x2="2375" y1="170" gradientUnits="userSpaceOnUse" y2="220" xlink:type="simple" xlink:actuate="onLoad" id="linearGradient23" xlink:show="other" spreadMethod="pad">
<stop stop-opacity="1" stop-color="white" offset="0%"/>
<stop stop-opacity="1" stop-color="rgb(195,215,221)" offset="100%"/>
</linearGradient>
<clipPath clipPathUnits="userSpaceOnUse" id="clipPath1">
<path d="M117 10 L117 59 L216 59 L216 10 Z"/>
</clipPath>
<clipPath clipPathUnits="userSpaceOnUse" id="clipPath2">
<path d="M137 23 L198 23 L198 36 L137 36 L137 23 Z"/>
</clipPath>
<clipPath clipPathUnits="userSpaceOnUse" id="clipPath3">
<path d="M127 35 L209 35 L209 48 L127 48 L127 35 Z"/>
</clipPath>
<clipPath clipPathUnits="userSpaceOnUse" id="clipPath4">
<path d="M116 9 L218 9 L218 61 L116 61 L116 9 Z"/>
</clipPath>
<clipPath clipPathUnits="userSpaceOnUse" id="clipPath5">
<path d="M74 280 L74 379 L211 379 L211 280 Z"/>
</clipPath>
<clipPath clipPathUnits="userSpaceOnUse" id="clipPath6">
<path d="M112 282 L175 282 L175 295 L112 295 L112 282 Z"/>
</clipPath>
<clipPath clipPathUnits="userSpaceOnUse" id="clipPath7">
<path d="M75 294 L213 294 L213 307 L75 307 L75 294 Z"/>
</clipPath>
<clipPath clipPathUnits="userSpaceOnUse" id="clipPath8">
<path d="M74 306 L213 306 L213 344 L74 344 L74 306 Z"/>
</clipPath>
<clipPath clipPathUnits="userSpaceOnUse" id="clipPath9">
<path d="M74 343 L213 343 L213 381 L74 381 L74 343 Z"/>
</clipPath>
<clipPath clipPathUnits="userSpaceOnUse" id="clipPath10">
<path d="M73 279 L213 279 L213 381 L73 381 L73 279 Z"/>
</clipPath>
<clipPath clipPathUnits="userSpaceOnUse" id="clipPath11">
<path d="M1338 10 L1338 59 L1437 59 L1437 10 Z"/>
</clipPath>
<clipPath clipPathUnits="userSpaceOnUse" id="clipPath12">
<path d="M1359 23 L1418 23 L1418 36 L1359 36 L1359 23 Z"/>
</clipPath>
<clipPath clipPathUnits="userSpaceOnUse" id="clipPath13">
<path d="M1378 35 L1399 35 L1399 48 L1378 48 L1378 35 Z"/>
</clipPath>
<clipPath clipPathUnits="userSpaceOnUse" id="clipPath14">
<path d="M1337 9 L1439 9 L1439 61 L1337 61 L1337 9 Z"/>
</clipPath>
<clipPath clipPathUnits="userSpaceOnUse" id="clipPath15">
<path d="M1401 280 L1401 379 L1538 379 L1538 280 Z"/>
</clipPath>
<clipPath clipPathUnits="userSpaceOnUse" id="clipPath16">
<path d="M1439 282 L1502 282 L1502 295 L1439 295 L1439 282 Z"/>
</clipPath>
<clipPath clipPathUnits="userSpaceOnUse" id="clipPath17">
<path d="M1402 294 L1540 294 L1540 307 L1402 307 L1402 294 Z"/>
</clipPath>
<clipPath clipPathUnits="userSpaceOnUse" id="clipPath18">
<path d="M1401 306 L1540 306 L1540 344 L1401 344 L1401 306 Z"/>
</clipPath>
<clipPath clipPathUnits="userSpaceOnUse" id="clipPath19">
<path d="M1401 343 L1540 343 L1540 381 L1401 381 L1401 343 Z"/>
</clipPath>
<clipPath clipPathUnits="userSpaceOnUse" id="clipPath20">
<path d="M1400 279 L1540 279 L1540 381 L1400 381 L1400 279 Z"/>
</clipPath>
<clipPath clipPathUnits="userSpaceOnUse" id="clipPath21">
<path d="M1197 280 L1197 379 L1296 379 L1296 280 Z"/>
</clipPath>
<clipPath clipPathUnits="userSpaceOnUse" id="clipPath22">
<path d="M1216 282 L1279 282 L1279 295 L1216 295 L1216 282 Z"/>
</clipPath>
<clipPath clipPathUnits="userSpaceOnUse" id="clipPath23">
<path d="M1199 294 L1296 294 L1296 307 L1199 307 L1199 294 Z"/>
</clipPath>
<clipPath clipPathUnits="userSpaceOnUse" id="clipPath24">
<path d="M1197 306 L1298 306 L1298 344 L1197 344 L1197 306 Z"/>
</clipPath>
<clipPath clipPathUnits="userSpaceOnUse" id="clipPath25">
<path d="M1197 343 L1298 343 L1298 381 L1197 381 L1197 343 Z"/>
</clipPath>
<clipPath clipPathUnits="userSpaceOnUse" id="clipPath26">
<path d="M1196 279 L1298 279 L1298 381 L1196 381 L1196 279 Z"/>
</clipPath>
<clipPath clipPathUnits="userSpaceOnUse" id="clipPath27">
<path d="M292 10 L292 109 L488 109 L488 10 Z"/>
</clipPath>
<clipPath clipPathUnits="userSpaceOnUse" id="clipPath28">
<path d="M360 12 L423 12 L423 25 L360 25 L360 12 Z"/>
</clipPath>
<clipPath clipPathUnits="userSpaceOnUse" id="clipPath29">
<path d="M293 24 L490 24 L490 37 L293 37 L293 24 Z"/>
</clipPath>
<clipPath clipPathUnits="userSpaceOnUse" id="clipPath30">
<path d="M292 36 L490 36 L490 74 L292 74 L292 36 Z"/>
</clipPath>
<clipPath clipPathUnits="userSpaceOnUse" id="clipPath31">
<path d="M292 73 L490 73 L490 111 L292 111 L292 73 Z"/>
</clipPath>
<clipPath clipPathUnits="userSpaceOnUse" id="clipPath32">
<path d="M291 9 L490 9 L490 111 L291 111 L291 9 Z"/>
</clipPath>
<clipPath clipPathUnits="userSpaceOnUse" id="clipPath33">
<path d="M373 170 L373 219 L472 219 L472 170 Z"/>
</clipPath>
<clipPath clipPathUnits="userSpaceOnUse" id="clipPath34">
<path d="M394 183 L453 183 L453 196 L394 196 L394 183 Z"/>
</clipPath>
<clipPath clipPathUnits="userSpaceOnUse" id="clipPath35">
<path d="M381 195 L467 195 L467 208 L381 208 L381 195 Z"/>
</clipPath>
<clipPath clipPathUnits="userSpaceOnUse" id="clipPath36">
<path d="M372 169 L474 169 L474 221 L372 221 L372 169 Z"/>
</clipPath>
<clipPath clipPathUnits="userSpaceOnUse" id="clipPath37">
<path d="M643 10 L643 109 L780 109 L780 10 Z"/>
</clipPath>
<clipPath clipPathUnits="userSpaceOnUse" id="clipPath38">
<path d="M681 12 L744 12 L744 25 L681 25 L681 12 Z"/>
</clipPath>
<clipPath clipPathUnits="userSpaceOnUse" id="clipPath39">
<path d="M644 24 L782 24 L782 37 L644 37 L644 24 Z"/>
</clipPath>
<clipPath clipPathUnits="userSpaceOnUse" id="clipPath40">
<path d="M643 36 L782 36 L782 74 L643 74 L643 36 Z"/>
</clipPath>
<clipPath clipPathUnits="userSpaceOnUse" id="clipPath41">
<path d="M643 73 L782 73 L782 111 L643 111 L643 73 Z"/>
</clipPath>
<clipPath clipPathUnits="userSpaceOnUse" id="clipPath42">
<path d="M642 9 L782 9 L782 111 L642 111 L642 9 Z"/>
</clipPath>
<clipPath clipPathUnits="userSpaceOnUse" id="clipPath43">
<path d="M693 170 L693 219 L792 219 L792 170 Z"/>
</clipPath>
<clipPath clipPathUnits="userSpaceOnUse" id="clipPath44">
<path d="M714 183 L773 183 L773 196 L714 196 L714 183 Z"/>
</clipPath>
<clipPath clipPathUnits="userSpaceOnUse" id="clipPath45">
<path d="M713 195 L774 195 L774 208 L713 208 L713 195 Z"/>
</clipPath>
<clipPath clipPathUnits="userSpaceOnUse" id="clipPath46">
<path d="M692 169 L794 169 L794 221 L692 221 L692 169 Z"/>
</clipPath>
<clipPath clipPathUnits="userSpaceOnUse" id="clipPath47">
<path d="M906 10 L906 109 L1005 109 L1005 10 Z"/>
</clipPath>
<clipPath clipPathUnits="userSpaceOnUse" id="clipPath48">
<path d="M925 12 L988 12 L988 25 L925 25 L925 12 Z"/>
</clipPath>
<clipPath clipPathUnits="userSpaceOnUse" id="clipPath49">
<path d="M920 24 L993 24 L993 37 L920 37 L920 24 Z"/>
</clipPath>
<clipPath clipPathUnits="userSpaceOnUse" id="clipPath50">
<path d="M906 36 L1007 36 L1007 74 L906 74 L906 36 Z"/>
</clipPath>
<clipPath clipPathUnits="userSpaceOnUse" id="clipPath51">
<path d="M906 73 L1007 73 L1007 111 L906 111 L906 73 Z"/>
</clipPath>
<clipPath clipPathUnits="userSpaceOnUse" id="clipPath52">
<path d="M905 9 L1007 9 L1007 111 L905 111 L905 9 Z"/>
</clipPath>
<clipPath clipPathUnits="userSpaceOnUse" id="clipPath53">
<path d="M910 170 L910 219 L1009 219 L1009 170 Z"/>
</clipPath>
<clipPath clipPathUnits="userSpaceOnUse" id="clipPath54">
<path d="M930 183 L991 183 L991 196 L930 196 L930 183 Z"/>
</clipPath>
<clipPath clipPathUnits="userSpaceOnUse" id="clipPath55">
<path d="M942 195 L980 195 L980 208 L942 208 L942 195 Z"/>
</clipPath>
<clipPath clipPathUnits="userSpaceOnUse" id="clipPath56">
<path d="M909 169 L1011 169 L1011 221 L909 221 L909 169 Z"/>
</clipPath>
<clipPath clipPathUnits="userSpaceOnUse" id="clipPath57">
<path d="M1077 10 L1077 109 L1176 109 L1176 10 Z"/>
</clipPath>
<clipPath clipPathUnits="userSpaceOnUse" id="clipPath58">
<path d="M1096 12 L1159 12 L1159 25 L1096 25 L1096 12 Z"/>
</clipPath>
<clipPath clipPathUnits="userSpaceOnUse" id="clipPath59">
<path d="M1097 24 L1158 24 L1158 37 L1097 37 L1097 24 Z"/>
</clipPath>
<clipPath clipPathUnits="userSpaceOnUse" id="clipPath60">
<path d="M1077 36 L1178 36 L1178 74 L1077 74 L1077 36 Z"/>
</clipPath>
<clipPath clipPathUnits="userSpaceOnUse" id="clipPath61">
<path d="M1077 73 L1178 73 L1178 111 L1077 111 L1077 73 Z"/>
</clipPath>
<clipPath clipPathUnits="userSpaceOnUse" id="clipPath62">
<path d="M1076 9 L1178 9 L1178 111 L1076 111 L1076 9 Z"/>
</clipPath>
<clipPath clipPathUnits="userSpaceOnUse" id="clipPath63">
<path d="M1077 170 L1077 219 L1176 219 L1176 170 Z"/>
</clipPath>
<clipPath clipPathUnits="userSpaceOnUse" id="clipPath64">
<path d="M1098 183 L1157 183 L1157 196 L1098 196 L1098 183 Z"/>
</clipPath>
<clipPath clipPathUnits="userSpaceOnUse" id="clipPath65">
<path d="M1107 195 L1148 195 L1148 208 L1107 208 L1107 195 Z"/>
</clipPath>
<clipPath clipPathUnits="userSpaceOnUse" id="clipPath66">
<path d="M1076 169 L1178 169 L1178 221 L1076 221 L1076 169 Z"/>
</clipPath>
<clipPath clipPathUnits="userSpaceOnUse" id="clipPath67">
<path d="M1599 10 L1599 109 L1698 109 L1698 10 Z"/>
</clipPath>
<clipPath clipPathUnits="userSpaceOnUse" id="clipPath68">
<path d="M1618 12 L1681 12 L1681 25 L1618 25 L1618 12 Z"/>
</clipPath>
<clipPath clipPathUnits="userSpaceOnUse" id="clipPath69">
<path d="M1631 24 L1668 24 L1668 37 L1631 37 L1631 24 Z"/>
</clipPath>
<clipPath clipPathUnits="userSpaceOnUse" id="clipPath70">
<path d="M1599 36 L1700 36 L1700 74 L1599 74 L1599 36 Z"/>
</clipPath>
<clipPath clipPathUnits="userSpaceOnUse" id="clipPath71">
<path d="M1599 73 L1700 73 L1700 111 L1599 111 L1599 73 Z"/>
</clipPath>
<clipPath clipPathUnits="userSpaceOnUse" id="clipPath72">
<path d="M1598 9 L1700 9 L1700 111 L1598 111 L1598 9 Z"/>
</clipPath>
<clipPath clipPathUnits="userSpaceOnUse" id="clipPath73">
<path d="M1599 170 L1599 219 L1698 219 L1698 170 Z"/>
</clipPath>
<clipPath clipPathUnits="userSpaceOnUse" id="clipPath74">
<path d="M1620 183 L1679 183 L1679 196 L1620 196 L1620 183 Z"/>
</clipPath>
<clipPath clipPathUnits="userSpaceOnUse" id="clipPath75">
<path d="M1639 195 L1660 195 L1660 208 L1639 208 L1639 195 Z"/>
</clipPath>
<clipPath clipPathUnits="userSpaceOnUse" id="clipPath76">
<path d="M1598 169 L1700 169 L1700 221 L1598 221 L1598 169 Z"/>
</clipPath>
<clipPath clipPathUnits="userSpaceOnUse" id="clipPath77">
<path d="M1759 10 L1759 109 L1896 109 L1896 10 Z"/>
</clipPath>
<clipPath clipPathUnits="userSpaceOnUse" id="clipPath78">
<path d="M1797 12 L1860 12 L1860 25 L1797 25 L1797 12 Z"/>
</clipPath>
<clipPath clipPathUnits="userSpaceOnUse" id="clipPath79">
<path d="M1760 24 L1898 24 L1898 37 L1760 37 L1760 24 Z"/>
</clipPath>
<clipPath clipPathUnits="userSpaceOnUse" id="clipPath80">
<path d="M1759 36 L1898 36 L1898 74 L1759 74 L1759 36 Z"/>
</clipPath>
<clipPath clipPathUnits="userSpaceOnUse" id="clipPath81">
<path d="M1759 73 L1898 73 L1898 111 L1759 111 L1759 73 Z"/>
</clipPath>
<clipPath clipPathUnits="userSpaceOnUse" id="clipPath82">
<path d="M1758 9 L1898 9 L1898 111 L1758 111 L1758 9 Z"/>
</clipPath>
<clipPath clipPathUnits="userSpaceOnUse" id="clipPath83">
<path d="M1806 170 L1806 219 L1905 219 L1905 170 Z"/>
</clipPath>
<clipPath clipPathUnits="userSpaceOnUse" id="clipPath84">
<path d="M1826 183 L1887 183 L1887 196 L1826 196 L1826 183 Z"/>
</clipPath>
<clipPath clipPathUnits="userSpaceOnUse" id="clipPath85">
<path d="M1818 195 L1896 195 L1896 208 L1818 208 L1818 195 Z"/>
</clipPath>
<clipPath clipPathUnits="userSpaceOnUse" id="clipPath86">
<path d="M1805 169 L1907 169 L1907 221 L1805 221 L1805 169 Z"/>
</clipPath>
<clipPath clipPathUnits="userSpaceOnUse" id="clipPath87">
<path d="M2027 10 L2027 109 L2126 109 L2126 10 Z"/>
</clipPath>
<clipPath clipPathUnits="userSpaceOnUse" id="clipPath88">
<path d="M2046 12 L2109 12 L2109 25 L2046 25 L2046 12 Z"/>
</clipPath>
<clipPath clipPathUnits="userSpaceOnUse" id="clipPath89">
<path d="M2057 24 L2099 24 L2099 37 L2057 37 L2057 24 Z"/>
</clipPath>
<clipPath clipPathUnits="userSpaceOnUse" id="clipPath90">
<path d="M2027 36 L2128 36 L2128 74 L2027 74 L2027 36 Z"/>
</clipPath>
<clipPath clipPathUnits="userSpaceOnUse" id="clipPath91">
<path d="M2027 73 L2128 73 L2128 111 L2027 111 L2027 73 Z"/>
</clipPath>
<clipPath clipPathUnits="userSpaceOnUse" id="clipPath92">
<path d="M2026 9 L2128 9 L2128 111 L2026 111 L2026 9 Z"/>
</clipPath>
<clipPath clipPathUnits="userSpaceOnUse" id="clipPath93">
<path d="M2022 170 L2022 219 L2121 219 L2121 170 Z"/>
</clipPath>
<clipPath clipPathUnits="userSpaceOnUse" id="clipPath94">
<path d="M2043 183 L2102 183 L2102 196 L2043 196 L2043 183 Z"/>
</clipPath>
<clipPath clipPathUnits="userSpaceOnUse" id="clipPath95">
<path d="M2036 195 L2109 195 L2109 208 L2036 208 L2036 195 Z"/>
</clipPath>
<clipPath clipPathUnits="userSpaceOnUse" id="clipPath96">
<path d="M2021 169 L2123 169 L2123 221 L2021 221 L2021 169 Z"/>
</clipPath>
<clipPath clipPathUnits="userSpaceOnUse" id="clipPath97">
<path d="M2193 10 L2193 109 L2292 109 L2292 10 Z"/>
</clipPath>
<clipPath clipPathUnits="userSpaceOnUse" id="clipPath98">
<path d="M2212 12 L2275 12 L2275 25 L2212 25 L2212 12 Z"/>
</clipPath>
<clipPath clipPathUnits="userSpaceOnUse" id="clipPath99">
<path d="M2221 24 L2267 24 L2267 37 L2221 37 L2221 24 Z"/>
</clipPath>
<clipPath clipPathUnits="userSpaceOnUse" id="clipPath100">
<path d="M2193 36 L2294 36 L2294 74 L2193 74 L2193 36 Z"/>
</clipPath>
<clipPath clipPathUnits="userSpaceOnUse" id="clipPath101">
<path d="M2193 73 L2294 73 L2294 111 L2193 111 L2193 73 Z"/>
</clipPath>
<clipPath clipPathUnits="userSpaceOnUse" id="clipPath102">
<path d="M2192 9 L2294 9 L2294 111 L2192 111 L2192 9 Z"/>
</clipPath>
<clipPath clipPathUnits="userSpaceOnUse" id="clipPath103">
<path d="M2193 170 L2193 219 L2292 219 L2292 170 Z"/>
</clipPath>
<clipPath clipPathUnits="userSpaceOnUse" id="clipPath104">
<path d="M2214 183 L2273 183 L2273 196 L2214 196 L2214 183 Z"/>
</clipPath>
<clipPath clipPathUnits="userSpaceOnUse" id="clipPath105">
<path d="M2233 195 L2254 195 L2254 208 L2233 208 L2233 195 Z"/>
</clipPath>
<clipPath clipPathUnits="userSpaceOnUse" id="clipPath106">
<path d="M2192 169 L2294 169 L2294 221 L2192 221 L2192 169 Z"/>
</clipPath>
<clipPath clipPathUnits="userSpaceOnUse" id="clipPath107">
<path d="M2353 10 L2353 109 L2452 109 L2452 10 Z"/>
</clipPath>
<clipPath clipPathUnits="userSpaceOnUse" id="clipPath108">
<path d="M2372 12 L2435 12 L2435 25 L2372 25 L2372 12 Z"/>
</clipPath>
<clipPath clipPathUnits="userSpaceOnUse" id="clipPath109">
<path d="M2355 24 L2452 24 L2452 37 L2355 37 L2355 24 Z"/>
</clipPath>
<clipPath clipPathUnits="userSpaceOnUse" id="clipPath110">
<path d="M2353 36 L2454 36 L2454 74 L2353 74 L2353 36 Z"/>
</clipPath>
<clipPath clipPathUnits="userSpaceOnUse" id="clipPath111">
<path d="M2353 73 L2454 73 L2454 111 L2353 111 L2353 73 Z"/>
</clipPath>
<clipPath clipPathUnits="userSpaceOnUse" id="clipPath112">
<path d="M2352 9 L2454 9 L2454 111 L2352 111 L2352 9 Z"/>
</clipPath>
<clipPath clipPathUnits="userSpaceOnUse" id="clipPath113">
<path d="M2375 170 L2375 219 L2474 219 L2474 170 Z"/>
</clipPath>
<clipPath clipPathUnits="userSpaceOnUse" id="clipPath114">
<path d="M2396 183 L2455 183 L2455 196 L2396 196 L2396 183 Z"/>
</clipPath>
<clipPath clipPathUnits="userSpaceOnUse" id="clipPath115">
<path d="M2409 195 L2443 195 L2443 208 L2409 208 L2409 195 Z"/>
</clipPath>
<clipPath clipPathUnits="userSpaceOnUse" id="clipPath116">
<path d="M2374 169 L2476 169 L2476 221 L2374 221 L2374 169 Z"/>
</clipPath>
<clipPath clipPathUnits="userSpaceOnUse" id="clipPath117">
<path d="M-1 -1 L2486 -1 L2486 391 L-1 391 L-1 -1 Z"/>
</clipPath>
<clipPath clipPathUnits="userSpaceOnUse" id="clipPath118">
<path d="M22 161 L249 161 L249 174 L22 174 L22 161 Z"/>
</clipPath>
<clipPath clipPathUnits="userSpaceOnUse" id="clipPath119">
<path d="M82 239 L172 239 L172 252 L82 252 L82 239 Z"/>
</clipPath>
<clipPath clipPathUnits="userSpaceOnUse" id="clipPath120">
<path d="M107 89 L255 89 L255 102 L107 102 L107 89 Z"/>
</clipPath>
<clipPath clipPathUnits="userSpaceOnUse" id="clipPath121">
<path d="M138 85 L148 85 L148 98 L138 98 L138 85 Z"/>
</clipPath>
<clipPath clipPathUnits="userSpaceOnUse" id="clipPath122">
<path d="M160 243 L171 243 L171 256 L160 256 L160 243 Z"/>
</clipPath>
<clipPath clipPathUnits="userSpaceOnUse" id="clipPath123">
<path d="M157 59 L172 59 L172 81 L157 81 L157 59 Z"/>
</clipPath>
<clipPath clipPathUnits="userSpaceOnUse" id="clipPath124">
<path d="M1338 167 L1551 167 L1551 180 L1338 180 L1338 167 Z"/>
</clipPath>
<clipPath clipPathUnits="userSpaceOnUse" id="clipPath125">
<path d="M1399 237 L1474 237 L1474 250 L1399 250 L1399 237 Z"/>
</clipPath>
<clipPath clipPathUnits="userSpaceOnUse" id="clipPath126">
<path d="M1364 76 L1513 76 L1513 89 L1364 89 L1364 76 Z"/>
</clipPath>
<clipPath clipPathUnits="userSpaceOnUse" id="clipPath127">
<path d="M1399 94 L1409 94 L1409 107 L1399 107 L1399 94 Z"/>
</clipPath>
<clipPath clipPathUnits="userSpaceOnUse" id="clipPath128">
<path d="M1464 241 L1484 241 L1484 254 L1464 254 L1464 241 Z"/>
</clipPath>
<clipPath clipPathUnits="userSpaceOnUse" id="clipPath129">
<path d="M1401 59 L1420 59 L1420 81 L1401 81 L1401 59 Z"/>
</clipPath>
<clipPath clipPathUnits="userSpaceOnUse" id="clipPath130">
<path d="M1192 140 L1362 140 L1362 153 L1192 153 L1192 140 Z"/>
</clipPath>
<clipPath clipPathUnits="userSpaceOnUse" id="clipPath131">
<path d="M1216 234 L1291 234 L1291 247 L1216 247 L1216 234 Z"/>
</clipPath>
<clipPath clipPathUnits="userSpaceOnUse" id="clipPath132">
<path d="M1309 96 L1415 96 L1415 109 L1309 109 L1309 96 Z"/>
</clipPath>
<clipPath clipPathUnits="userSpaceOnUse" id="clipPath133">
<path d="M1327 72 L1337 72 L1337 85 L1327 85 L1327 72 Z"/>
</clipPath>
<clipPath clipPathUnits="userSpaceOnUse" id="clipPath134">
<path d="M1281 238 L1301 238 L1301 251 L1281 251 L1281 238 Z"/>
</clipPath>
<clipPath clipPathUnits="userSpaceOnUse" id="clipPath135">
<path d="M1354 58 L1374 58 L1374 80 L1354 80 L1354 58 Z"/>
</clipPath>
<clipPath clipPathUnits="userSpaceOnUse" id="clipPath136">
<path d="M411 154 L426 154 L426 172 L411 172 L411 154 Z"/>
</clipPath>
<clipPath clipPathUnits="userSpaceOnUse" id="clipPath137">
<path d="M731 153 L745 153 L745 172 L731 172 L731 153 Z"/>
</clipPath>
<clipPath clipPathUnits="userSpaceOnUse" id="clipPath138">
<path d="M953 154 L966 154 L966 172 L953 172 L953 154 Z"/>
</clipPath>
<clipPath clipPathUnits="userSpaceOnUse" id="clipPath139">
<path d="M1121 154 L1134 154 L1134 172 L1121 172 L1121 154 Z"/>
</clipPath>
<clipPath clipPathUnits="userSpaceOnUse" id="clipPath140">
<path d="M1643 154 L1656 154 L1656 172 L1643 172 L1643 154 Z"/>
</clipPath>
<clipPath clipPathUnits="userSpaceOnUse" id="clipPath141">
<path d="M1844 153 L1858 153 L1858 172 L1844 172 L1844 153 Z"/>
</clipPath>
<clipPath clipPathUnits="userSpaceOnUse" id="clipPath142">
<path d="M2067 154 L2079 154 L2079 172 L2067 172 L2067 154 Z"/>
</clipPath>
<clipPath clipPathUnits="userSpaceOnUse" id="clipPath143">
<path d="M2237 154 L2250 154 L2250 172 L2237 172 L2237 154 Z"/>
</clipPath>
<clipPath clipPathUnits="userSpaceOnUse" id="clipPath144">
<path d="M2414 153 L2427 153 L2427 172 L2414 172 L2414 153 Z"/>
</clipPath>
</defs>
<g font-size="11" fill="url(#linearGradient1)" stroke-linejoin="round" stroke="url(#linearGradient1)" stroke-width="0" stroke-miterlimit="0">
<rect x="117" y="10" clip-path="url(#clipPath1)" width="100" height="50" stroke="none"/>
</g>
<g font-style="italic" stroke-miterlimit="0" stroke-width="0" font-size="9" stroke-linejoin="round">
<text xml:space="preserve" x="138" y="33" clip-path="url(#clipPath2)" stroke="none">«Metaclass»</text>
<text xml:space="preserve" x="128" y="45" clip-path="url(#clipPath3)" stroke="none">StructuralFeature</text>
</g>
<g font-size="11" stroke-width="1.1" stroke-linecap="butt">
<rect x="117" y="10" clip-path="url(#clipPath4)" fill="none" width="99" rx="0" ry="0" height="49"/>
<rect x="74" y="280" clip-path="url(#clipPath5)" fill="url(#linearGradient2)" width="138" height="100" stroke="none"/>
<text x="113" font-size="9" y="292" clip-path="url(#clipPath6)" stroke="none" xml:space="preserve">«Stereotype»</text>
<text x="76" font-size="9" y="304" clip-path="url(#clipPath7)" stroke="none" xml:space="preserve">ChangeStructuralFeatureEvent</text>
<line clip-path="url(#clipPath8)" fill="none" x1="74" x2="212" y1="307" y2="307"/>
<line clip-path="url(#clipPath9)" fill="none" x1="74" x2="212" y1="344" y2="344"/>
<rect x="74" y="280" clip-path="url(#clipPath10)" fill="none" width="137" rx="0" ry="0" height="99"/>
<rect x="1338" y="10" clip-path="url(#clipPath11)" fill="url(#linearGradient3)" width="100" height="50" stroke="none"/>
<text x="1360" font-size="9" y="33" clip-path="url(#clipPath12)" stroke="none" xml:space="preserve">«Metaclass»</text>
<text x="1379" font-size="9" y="45" clip-path="url(#clipPath13)" stroke="none" xml:space="preserve">Port</text>
<rect x="1338" y="10" clip-path="url(#clipPath14)" fill="none" width="99" rx="0" ry="0" height="49"/>
<rect x="1401" y="280" clip-path="url(#clipPath15)" fill="url(#linearGradient4)" width="138" height="100" stroke="none"/>
<text x="1440" font-size="9" y="292" clip-path="url(#clipPath16)" stroke="none" xml:space="preserve">«Stereotype»</text>
<text x="1403" font-size="9" y="304" clip-path="url(#clipPath17)" stroke="none" xml:space="preserve">InvocationOnNestedPortAction</text>
<line clip-path="url(#clipPath18)" fill="none" x1="1401" x2="1539" y1="307" y2="307"/>
<line clip-path="url(#clipPath19)" fill="none" x1="1401" x2="1539" y1="344" y2="344"/>
<rect x="1401" y="280" clip-path="url(#clipPath20)" fill="none" width="137" rx="0" ry="0" height="99"/>
<rect x="1197" y="280" clip-path="url(#clipPath21)" fill="url(#linearGradient5)" width="100" height="100" stroke="none"/>
<text x="1217" font-size="9" y="292" clip-path="url(#clipPath22)" stroke="none" xml:space="preserve">«Stereotype»</text>
<text x="1200" font-size="9" y="304" clip-path="url(#clipPath23)" stroke="none" xml:space="preserve">TriggerOnNestedPort</text>
<line clip-path="url(#clipPath24)" fill="none" x1="1197" x2="1297" y1="307" y2="307"/>
<line clip-path="url(#clipPath25)" fill="none" x1="1197" x2="1297" y1="344" y2="344"/>
<rect x="1197" y="280" clip-path="url(#clipPath26)" fill="none" width="99" rx="0" ry="0" height="99"/>
<rect x="292" y="10" clip-path="url(#clipPath27)" fill="url(#linearGradient6)" width="197" height="100" stroke="none"/>
<text x="361" font-size="9" y="22" clip-path="url(#clipPath28)" stroke="none" xml:space="preserve">«Stereotype»</text>
<text x="294" font-size="9" y="34" clip-path="url(#clipPath29)" stroke="none" xml:space="preserve">AcceptChangeStructuralFeatureEventAction</text>
<line clip-path="url(#clipPath30)" fill="none" x1="292" x2="489" y1="37" y2="37"/>
<line clip-path="url(#clipPath31)" fill="none" x1="292" x2="489" y1="74" y2="74"/>
<rect x="292" y="10" clip-path="url(#clipPath32)" fill="none" width="196" rx="0" ry="0" height="99"/>
<rect x="373" y="170" clip-path="url(#clipPath33)" fill="url(#linearGradient7)" width="100" height="50" stroke="none"/>
<text x="395" font-size="9" y="193" clip-path="url(#clipPath34)" stroke="none" xml:space="preserve">«Metaclass»</text>
<text x="382" font-size="9" y="205" clip-path="url(#clipPath35)" stroke="none" xml:space="preserve">AcceptEventAction</text>
<rect x="373" y="170" clip-path="url(#clipPath36)" fill="none" width="99" rx="0" ry="0" height="49"/>
<rect x="643" y="10" clip-path="url(#clipPath37)" fill="url(#linearGradient8)" width="138" height="100" stroke="none"/>
<text x="682" font-size="9" y="22" clip-path="url(#clipPath38)" stroke="none" xml:space="preserve">«Stereotype»</text>
<text x="645" font-size="9" y="34" clip-path="url(#clipPath39)" stroke="none" xml:space="preserve">ChangeStructuralFeatureEvent</text>
<line clip-path="url(#clipPath40)" fill="none" x1="643" x2="781" y1="37" y2="37"/>
<line clip-path="url(#clipPath41)" fill="none" x1="643" x2="781" y1="74" y2="74"/>
<rect x="643" y="10" clip-path="url(#clipPath42)" fill="none" width="137" rx="0" ry="0" height="99"/>
<rect x="693" y="170" clip-path="url(#clipPath43)" fill="url(#linearGradient9)" width="100" height="50" stroke="none"/>
<text x="715" font-size="9" y="193" clip-path="url(#clipPath44)" stroke="none" xml:space="preserve">«Metaclass»</text>
<text x="714" font-size="9" y="205" clip-path="url(#clipPath45)" stroke="none" xml:space="preserve">ChangeEvent</text>
<rect x="693" y="170" clip-path="url(#clipPath46)" fill="none" width="99" rx="0" ry="0" height="49"/>
<rect x="906" y="10" clip-path="url(#clipPath47)" fill="url(#linearGradient10)" width="100" height="100" stroke="none"/>
<text x="926" font-size="9" y="22" clip-path="url(#clipPath48)" stroke="none" xml:space="preserve">«Stereotype»</text>
<text x="921" font-size="9" y="34" clip-path="url(#clipPath49)" stroke="none" xml:space="preserve">DirectedFeature</text>
<line clip-path="url(#clipPath50)" fill="none" x1="906" x2="1006" y1="37" y2="37"/>
<line clip-path="url(#clipPath51)" fill="none" x1="906" x2="1006" y1="74" y2="74"/>
<rect x="906" y="10" clip-path="url(#clipPath52)" fill="none" width="99" rx="0" ry="0" height="99"/>
<rect x="910" y="170" clip-path="url(#clipPath53)" fill="url(#linearGradient11)" width="100" height="50" stroke="none"/>
<text x="931" font-size="9" y="193" clip-path="url(#clipPath54)" font-style="italic" stroke="none" xml:space="preserve">«Metaclass»</text>
<text x="943" font-size="9" y="205" clip-path="url(#clipPath55)" font-style="italic" stroke="none" xml:space="preserve">Feature</text>
<rect x="910" y="170" clip-path="url(#clipPath56)" fill="none" width="99" rx="0" ry="0" height="49"/>
<rect x="1077" y="10" clip-path="url(#clipPath57)" fill="url(#linearGradient12)" width="100" height="100" stroke="none"/>
<text x="1097" font-size="9" y="22" clip-path="url(#clipPath58)" stroke="none" xml:space="preserve">«Stereotype»</text>
<text x="1098" font-size="9" y="34" clip-path="url(#clipPath59)" stroke="none" xml:space="preserve">FlowProperty</text>
<line clip-path="url(#clipPath60)" fill="none" x1="1077" x2="1177" y1="37" y2="37"/>
<line clip-path="url(#clipPath61)" fill="none" x1="1077" x2="1177" y1="74" y2="74"/>
<rect x="1077" y="10" clip-path="url(#clipPath62)" fill="none" width="99" rx="0" ry="0" height="99"/>
<rect x="1077" y="170" clip-path="url(#clipPath63)" fill="url(#linearGradient13)" width="100" height="50" stroke="none"/>
<text x="1099" font-size="9" y="193" clip-path="url(#clipPath64)" stroke="none" xml:space="preserve">«Metaclass»</text>
<text x="1108" font-size="9" y="205" clip-path="url(#clipPath65)" stroke="none" xml:space="preserve">Property</text>
<rect x="1077" y="170" clip-path="url(#clipPath66)" fill="none" width="99" rx="0" ry="0" height="49"/>
<rect x="1599" y="10" clip-path="url(#clipPath67)" fill="url(#linearGradient14)" width="100" height="100" stroke="none"/>
<text x="1619" font-size="9" y="22" clip-path="url(#clipPath68)" stroke="none" xml:space="preserve">«Stereotype»</text>
<text x="1632" font-size="9" y="34" clip-path="url(#clipPath69)" stroke="none" xml:space="preserve">FullPort</text>
<line clip-path="url(#clipPath70)" fill="none" x1="1599" x2="1699" y1="37" y2="37"/>
<line clip-path="url(#clipPath71)" fill="none" x1="1599" x2="1699" y1="74" y2="74"/>
<rect x="1599" y="10" clip-path="url(#clipPath72)" fill="none" width="99" rx="0" ry="0" height="99"/>
<rect x="1599" y="170" clip-path="url(#clipPath73)" fill="url(#linearGradient15)" width="100" height="50" stroke="none"/>
<text x="1621" font-size="9" y="193" clip-path="url(#clipPath74)" stroke="none" xml:space="preserve">«Metaclass»</text>
<text x="1640" font-size="9" y="205" clip-path="url(#clipPath75)" stroke="none" xml:space="preserve">Port</text>
<rect x="1599" y="170" clip-path="url(#clipPath76)" fill="none" width="99" rx="0" ry="0" height="49"/>
<rect x="1759" y="10" clip-path="url(#clipPath77)" fill="url(#linearGradient16)" width="138" height="100" stroke="none"/>
<text x="1798" font-size="9" y="22" clip-path="url(#clipPath78)" stroke="none" xml:space="preserve">«Stereotype»</text>
<text x="1761" font-size="9" y="34" clip-path="url(#clipPath79)" stroke="none" xml:space="preserve">InvocationOnNestedPortAction</text>
<line clip-path="url(#clipPath80)" fill="none" x1="1759" x2="1897" y1="37" y2="37"/>
<line clip-path="url(#clipPath81)" fill="none" x1="1759" x2="1897" y1="74" y2="74"/>
<rect x="1759" y="10" clip-path="url(#clipPath82)" fill="none" width="137" rx="0" ry="0" height="99"/>
<rect x="1806" y="170" clip-path="url(#clipPath83)" fill="url(#linearGradient17)" width="100" height="50" stroke="none"/>
<text x="1827" font-size="9" y="193" clip-path="url(#clipPath84)" font-style="italic" stroke="none" xml:space="preserve">«Metaclass»</text>
<text x="1819" font-size="9" y="205" clip-path="url(#clipPath85)" font-style="italic" stroke="none" xml:space="preserve">InvocationAction</text>
<rect x="1806" y="170" clip-path="url(#clipPath86)" fill="none" width="99" rx="0" ry="0" height="49"/>
<rect x="2027" y="10" clip-path="url(#clipPath87)" fill="url(#linearGradient18)" width="100" height="100" stroke="none"/>
<text x="2047" font-size="9" y="22" clip-path="url(#clipPath88)" stroke="none" xml:space="preserve">«Stereotype»</text>
<text x="2058" font-size="9" y="34" clip-path="url(#clipPath89)" stroke="none" xml:space="preserve">ItemFlow</text>
<line clip-path="url(#clipPath90)" fill="none" x1="2027" x2="2127" y1="37" y2="37"/>
<line clip-path="url(#clipPath91)" fill="none" x1="2027" x2="2127" y1="74" y2="74"/>
<rect x="2027" y="10" clip-path="url(#clipPath92)" fill="none" width="99" rx="0" ry="0" height="99"/>
<rect x="2022" y="170" clip-path="url(#clipPath93)" fill="url(#linearGradient19)" width="100" height="50" stroke="none"/>
<text x="2044" font-size="9" y="193" clip-path="url(#clipPath94)" stroke="none" xml:space="preserve">«Metaclass»</text>
<text x="2037" font-size="9" y="205" clip-path="url(#clipPath95)" stroke="none" xml:space="preserve">InformationFlow</text>
<rect x="2022" y="170" clip-path="url(#clipPath96)" fill="none" width="99" rx="0" ry="0" height="49"/>
<rect x="2193" y="10" clip-path="url(#clipPath97)" fill="url(#linearGradient20)" width="100" height="100" stroke="none"/>
<text x="2213" font-size="9" y="22" clip-path="url(#clipPath98)" stroke="none" xml:space="preserve">«Stereotype»</text>
<text x="2222" font-size="9" y="34" clip-path="url(#clipPath99)" stroke="none" xml:space="preserve">ProxyPort</text>
<line clip-path="url(#clipPath100)" fill="none" x1="2193" x2="2293" y1="37" y2="37"/>
<line clip-path="url(#clipPath101)" fill="none" x1="2193" x2="2293" y1="74" y2="74"/>
<rect x="2193" y="10" clip-path="url(#clipPath102)" fill="none" width="99" rx="0" ry="0" height="99"/>
<rect x="2193" y="170" clip-path="url(#clipPath103)" fill="url(#linearGradient21)" width="100" height="50" stroke="none"/>
<text x="2215" font-size="9" y="193" clip-path="url(#clipPath104)" stroke="none" xml:space="preserve">«Metaclass»</text>
<text x="2234" font-size="9" y="205" clip-path="url(#clipPath105)" stroke="none" xml:space="preserve">Port</text>
<rect x="2193" y="170" clip-path="url(#clipPath106)" fill="none" width="99" rx="0" ry="0" height="49"/>
<rect x="2353" y="10" clip-path="url(#clipPath107)" fill="url(#linearGradient22)" width="100" height="100" stroke="none"/>
<text x="2373" font-size="9" y="22" clip-path="url(#clipPath108)" stroke="none" xml:space="preserve">«Stereotype»</text>
<text x="2356" font-size="9" y="34" clip-path="url(#clipPath109)" stroke="none" xml:space="preserve">TriggerOnNestedPort</text>
<line clip-path="url(#clipPath110)" fill="none" x1="2353" x2="2453" y1="37" y2="37"/>
<line clip-path="url(#clipPath111)" fill="none" x1="2353" x2="2453" y1="74" y2="74"/>
<rect x="2353" y="10" clip-path="url(#clipPath112)" fill="none" width="99" rx="0" ry="0" height="99"/>
<rect x="2375" y="170" clip-path="url(#clipPath113)" fill="url(#linearGradient23)" width="100" height="50" stroke="none"/>
<text x="2397" font-size="9" y="193" clip-path="url(#clipPath114)" stroke="none" xml:space="preserve">«Metaclass»</text>
<text x="2410" font-size="9" y="205" clip-path="url(#clipPath115)" stroke="none" xml:space="preserve">Trigger</text>
<rect x="2375" y="170" clip-path="url(#clipPath116)" fill="none" width="99" rx="0" ry="0" height="49"/>
<line clip-path="url(#clipPath117)" fill="none" text-rendering="optimizeLegibility" x1="166" x2="142" y1="60" y2="280"/>
<text x="23" font-size="9" y="171" clip-path="url(#clipPath118)" text-rendering="optimizeLegibility" stroke="none" xml:space="preserve">A_changeStructuralFeatureEvent_structuralFeature</text>
<text x="83" font-size="9" y="249" clip-path="url(#clipPath119)" text-rendering="optimizeLegibility" stroke="none" xml:space="preserve"> + structuralFeature</text>
<text x="108" font-size="9" y="99" clip-path="url(#clipPath120)" text-rendering="optimizeLegibility" stroke="none" xml:space="preserve"> + changeStructuralFeatureEvent</text>
<text x="139" font-size="9" y="95" clip-path="url(#clipPath121)" text-rendering="optimizeLegibility" stroke="none" xml:space="preserve"> *</text>
<text x="161" font-size="9" y="253" clip-path="url(#clipPath122)" text-rendering="optimizeLegibility" stroke="none" xml:space="preserve"> 1</text>
<polygon text-rendering="optimizeLegibility" clip-path="url(#clipPath123)" points=" 167 60 169 62 169 64 166 66 165 66 170 79 165 66 158 77 165 66 164 66 163 64 163 62 165 60" stroke="none"/>
<polygon fill="none" text-rendering="optimizeLegibility" clip-path="url(#clipPath123)" points=" 167 60 169 62 169 64 166 66 165 66 170 79 165 66 158 77 165 66 164 66 163 64 163 62 165 60"/>
<line clip-path="url(#clipPath117)" fill="none" text-rendering="optimizeLegibility" x1="1404" x2="1464" y1="60" y2="170"/>
<line clip-path="url(#clipPath117)" fill="none" text-rendering="optimizeLegibility" x1="1464" x2="1451" y1="170" y2="280"/>
<text x="1339" font-size="9" y="177" clip-path="url(#clipPath124)" text-rendering="optimizeLegibility" stroke="none" xml:space="preserve">A_invocationOnNestedPortAction_onNestedPort</text>
<text x="1400" font-size="9" y="247" clip-path="url(#clipPath125)" text-rendering="optimizeLegibility" stroke="none" xml:space="preserve"> + onNestedPort</text>
<text x="1365" font-size="9" y="86" clip-path="url(#clipPath126)" text-rendering="optimizeLegibility" stroke="none" xml:space="preserve"> + invocationOnNestedPortAction</text>
<text x="1400" font-size="9" y="104" clip-path="url(#clipPath127)" text-rendering="optimizeLegibility" stroke="none" xml:space="preserve"> *</text>
<text x="1465" font-size="9" y="251" clip-path="url(#clipPath128)" text-rendering="optimizeLegibility" stroke="none" xml:space="preserve"> 1..*</text>
<polygon text-rendering="optimizeLegibility" clip-path="url(#clipPath129)" points=" 1405 60 1408 60 1409 62 1408 65 1407 65 1418 73 1407 65 1407 79 1407 65 1406 66 1403 65 1402 63 1403 60" stroke="none"/>
<polygon fill="none" text-rendering="optimizeLegibility" clip-path="url(#clipPath129)" points=" 1405 60 1408 60 1409 62 1408 65 1407 65 1418 73 1407 65 1407 79 1407 65 1406 66 1403 65 1402 63 1403 60"/>
<line clip-path="url(#clipPath117)" fill="none" text-rendering="optimizeLegibility" x1="1371" x2="1282" y1="60" y2="170"/>
<line clip-path="url(#clipPath117)" fill="none" text-rendering="optimizeLegibility" x1="1282" x2="1267" y1="170" y2="280"/>
<text x="1193" font-size="9" y="150" clip-path="url(#clipPath130)" text-rendering="optimizeLegibility" stroke="none" xml:space="preserve">A_triggerOnNestedPort_onNestedPort</text>
<text x="1217" font-size="9" y="244" clip-path="url(#clipPath131)" text-rendering="optimizeLegibility" stroke="none" xml:space="preserve"> + onNestedPort</text>
<text x="1310" font-size="9" y="106" clip-path="url(#clipPath132)" text-rendering="optimizeLegibility" stroke="none" xml:space="preserve"> + triggerOnNestedPort</text>
<text x="1328" font-size="9" y="82" clip-path="url(#clipPath133)" text-rendering="optimizeLegibility" stroke="none" xml:space="preserve"> *</text>
<text x="1282" font-size="9" y="248" clip-path="url(#clipPath134)" text-rendering="optimizeLegibility" stroke="none" xml:space="preserve"> 1..*</text>
<polygon text-rendering="optimizeLegibility" clip-path="url(#clipPath135)" points=" 1372 61 1372 63 1371 65 1368 65 1367 65 1364 78 1367 65 1355 70 1367 65 1366 64 1366 61 1367 60 1370 59" stroke="none"/>
<polygon fill="none" text-rendering="optimizeLegibility" clip-path="url(#clipPath135)" points=" 1372 61 1372 63 1371 65 1368 65 1367 65 1364 78 1367 65 1355 70 1367 65 1366 64 1366 61 1367 60 1370 59"/>
<line clip-path="url(#clipPath117)" fill="none" text-rendering="optimizeLegibility" x1="384" x2="424" y1="110" y2="170"/>
<polygon text-rendering="optimizeLegibility" clip-path="url(#clipPath136)" points=" 424 170 412 160 420 155" stroke="none"/>
<polygon fill="none" text-rendering="optimizeLegibility" clip-path="url(#clipPath136)" points=" 424 170 412 160 420 155"/>
<line clip-path="url(#clipPath117)" fill="none" text-rendering="optimizeLegibility" x1="711" x2="743" y1="110" y2="170"/>
<polygon text-rendering="optimizeLegibility" clip-path="url(#clipPath137)" points=" 743 170 732 159 740 154" stroke="none"/>
<polygon fill="none" text-rendering="optimizeLegibility" clip-path="url(#clipPath137)" points=" 743 170 732 159 740 154"/>
<line clip-path="url(#clipPath117)" fill="none" text-rendering="optimizeLegibility" x1="956" x2="960" y1="110" y2="170"/>
<polygon text-rendering="optimizeLegibility" clip-path="url(#clipPath138)" points=" 960 170 954 155 964 155" stroke="none"/>
<polygon fill="none" text-rendering="optimizeLegibility" clip-path="url(#clipPath138)" points=" 960 170 954 155 964 155"/>
<line clip-path="url(#clipPath117)" fill="none" text-rendering="optimizeLegibility" x1="1127" x2="1127" y1="110" y2="170"/>
<polygon text-rendering="optimizeLegibility" clip-path="url(#clipPath139)" points=" 1127 170 1122 155 1132 155" stroke="none"/>
<polygon fill="none" text-rendering="optimizeLegibility" clip-path="url(#clipPath139)" points=" 1127 170 1122 155 1132 155"/>
<line clip-path="url(#clipPath117)" fill="none" text-rendering="optimizeLegibility" x1="1649" x2="1649" y1="110" y2="170"/>
<polygon text-rendering="optimizeLegibility" clip-path="url(#clipPath140)" points=" 1649 170 1644 155 1654 155" stroke="none"/>
<polygon fill="none" text-rendering="optimizeLegibility" clip-path="url(#clipPath140)" points=" 1649 170 1644 155 1654 155"/>
<line clip-path="url(#clipPath117)" fill="none" text-rendering="optimizeLegibility" x1="1828" x2="1856" y1="110" y2="170"/>
<polygon text-rendering="optimizeLegibility" clip-path="url(#clipPath141)" points=" 1856 170 1845 159 1854 154" stroke="none"/>
<polygon fill="none" text-rendering="optimizeLegibility" clip-path="url(#clipPath141)" points=" 1856 170 1845 159 1854 154"/>
<line clip-path="url(#clipPath117)" fill="none" text-rendering="optimizeLegibility" x1="2077" x2="2071" y1="110" y2="170"/>
<polygon text-rendering="optimizeLegibility" clip-path="url(#clipPath142)" points=" 2071 170 2068 155 2077 156" stroke="none"/>
<polygon fill="none" text-rendering="optimizeLegibility" clip-path="url(#clipPath142)" points=" 2071 170 2068 155 2077 156"/>
<line clip-path="url(#clipPath117)" fill="none" text-rendering="optimizeLegibility" x1="2243" x2="2243" y1="110" y2="170"/>
<polygon text-rendering="optimizeLegibility" clip-path="url(#clipPath143)" points=" 2243 170 2238 155 2248 155" stroke="none"/>
<polygon fill="none" text-rendering="optimizeLegibility" clip-path="url(#clipPath143)" points=" 2243 170 2238 155 2248 155"/>
<line clip-path="url(#clipPath117)" fill="none" text-rendering="optimizeLegibility" x1="2403" x2="2425" y1="110" y2="170"/>
<polygon text-rendering="optimizeLegibility" clip-path="url(#clipPath144)" points=" 2425 170 2415 158 2425 154" stroke="none"/>
<polygon fill="none" text-rendering="optimizeLegibility" clip-path="url(#clipPath144)" points=" 2425 170 2415 158 2425 154"/>
</g>
</g>
</svg>
