<?xml version="1.0" encoding="UTF-8"?><svg xmlns="http://www.w3.org/2000/svg" xmlns:xlink="http://www.w3.org/1999/xlink" stroke-dasharray="none" shape-rendering="auto" font-family="'Dialog'" width="1679" text-rendering="auto" fill-opacity="1" contentScriptType="text/ecmascript" color-interpolation="auto" color-rendering="auto" preserveAspectRatio="xMidYMid meet" font-size="12" viewBox="0 0 1679 257" fill="black" stroke="black" image-rendering="auto" stroke-miterlimit="10" zoomAndPan="magnify" version="1.0" stroke-linecap="square" stroke-linejoin="miter" contentStyleType="text/css" font-style="normal" height="257" stroke-width="1" stroke-dashoffset="0" font-weight="normal" stroke-opacity="1">
<!--Generated by the Batik Graphics2D SVG Generator-->
<defs id="genericDefs"/>
<g>
<defs id="defs1">
<linearGradient x1="1150" x2="1150" y1="12" gradientUnits="userSpaceOnUse" y2="112" xlink:type="simple" xlink:actuate="onLoad" id="linearGradient1" xlink:show="other" spreadMethod="pad">
<stop stop-opacity="1" stop-color="white" offset="0%"/>
<stop stop-opacity="1" stop-color="rgb(195,209,213)" offset="100%"/>
</linearGradient>
<linearGradient x1="84" x2="84" y1="37" gradientUnits="userSpaceOnUse" y2="137" xlink:type="simple" xlink:actuate="onLoad" id="linearGradient2" xlink:show="other" spreadMethod="pad">
<stop stop-opacity="1" stop-color="white" offset="0%"/>
<stop stop-opacity="1" stop-color="rgb(195,209,213)" offset="100%"/>
</linearGradient>
<linearGradient x1="1569" x2="1569" y1="10" gradientUnits="userSpaceOnUse" y2="110" xlink:type="simple" xlink:actuate="onLoad" id="linearGradient3" xlink:show="other" spreadMethod="pad">
<stop stop-opacity="1" stop-color="white" offset="0%"/>
<stop stop-opacity="1" stop-color="rgb(195,209,213)" offset="100%"/>
</linearGradient>
<linearGradient x1="330" x2="330" y1="37" gradientUnits="userSpaceOnUse" y2="137" xlink:type="simple" xlink:actuate="onLoad" id="linearGradient4" xlink:show="other" spreadMethod="pad">
<stop stop-opacity="1" stop-color="white" offset="0%"/>
<stop stop-opacity="1" stop-color="rgb(195,209,213)" offset="100%"/>
</linearGradient>
<linearGradient x1="490" x2="490" y1="37" gradientUnits="userSpaceOnUse" y2="137" xlink:type="simple" xlink:actuate="onLoad" id="linearGradient5" xlink:show="other" spreadMethod="pad">
<stop stop-opacity="1" stop-color="white" offset="0%"/>
<stop stop-opacity="1" stop-color="rgb(195,209,213)" offset="100%"/>
</linearGradient>
<linearGradient x1="650" x2="650" y1="37" gradientUnits="userSpaceOnUse" y2="137" xlink:type="simple" xlink:actuate="onLoad" id="linearGradient6" xlink:show="other" spreadMethod="pad">
<stop stop-opacity="1" stop-color="white" offset="0%"/>
<stop stop-opacity="1" stop-color="rgb(195,209,213)" offset="100%"/>
</linearGradient>
<linearGradient x1="970" x2="970" y1="37" gradientUnits="userSpaceOnUse" y2="137" xlink:type="simple" xlink:actuate="onLoad" id="linearGradient7" xlink:show="other" spreadMethod="pad">
<stop stop-opacity="1" stop-color="white" offset="0%"/>
<stop stop-opacity="1" stop-color="rgb(195,209,213)" offset="100%"/>
</linearGradient>
<linearGradient x1="1370" x2="1370" y1="37" gradientUnits="userSpaceOnUse" y2="137" xlink:type="simple" xlink:actuate="onLoad" id="linearGradient8" xlink:show="other" spreadMethod="pad">
<stop stop-opacity="1" stop-color="white" offset="0%"/>
<stop stop-opacity="1" stop-color="rgb(195,209,213)" offset="100%"/>
</linearGradient>
<linearGradient x1="10" x2="10" y1="197" gradientUnits="userSpaceOnUse" y2="247" xlink:type="simple" xlink:actuate="onLoad" id="linearGradient9" xlink:show="other" spreadMethod="pad">
<stop stop-opacity="1" stop-color="white" offset="0%"/>
<stop stop-opacity="1" stop-color="rgb(195,215,221)" offset="100%"/>
</linearGradient>
<linearGradient x1="170" x2="170" y1="197" gradientUnits="userSpaceOnUse" y2="247" xlink:type="simple" xlink:actuate="onLoad" id="linearGradient10" xlink:show="other" spreadMethod="pad">
<stop stop-opacity="1" stop-color="white" offset="0%"/>
<stop stop-opacity="1" stop-color="rgb(195,215,221)" offset="100%"/>
</linearGradient>
<linearGradient x1="330" x2="330" y1="197" gradientUnits="userSpaceOnUse" y2="247" xlink:type="simple" xlink:actuate="onLoad" id="linearGradient11" xlink:show="other" spreadMethod="pad">
<stop stop-opacity="1" stop-color="white" offset="0%"/>
<stop stop-opacity="1" stop-color="rgb(195,215,221)" offset="100%"/>
</linearGradient>
<linearGradient x1="490" x2="490" y1="197" gradientUnits="userSpaceOnUse" y2="247" xlink:type="simple" xlink:actuate="onLoad" id="linearGradient12" xlink:show="other" spreadMethod="pad">
<stop stop-opacity="1" stop-color="white" offset="0%"/>
<stop stop-opacity="1" stop-color="rgb(195,215,221)" offset="100%"/>
</linearGradient>
<linearGradient x1="650" x2="650" y1="197" gradientUnits="userSpaceOnUse" y2="247" xlink:type="simple" xlink:actuate="onLoad" id="linearGradient13" xlink:show="other" spreadMethod="pad">
<stop stop-opacity="1" stop-color="white" offset="0%"/>
<stop stop-opacity="1" stop-color="rgb(195,215,221)" offset="100%"/>
</linearGradient>
<linearGradient x1="890" x2="890" y1="197" gradientUnits="userSpaceOnUse" y2="247" xlink:type="simple" xlink:actuate="onLoad" id="linearGradient14" xlink:show="other" spreadMethod="pad">
<stop stop-opacity="1" stop-color="white" offset="0%"/>
<stop stop-opacity="1" stop-color="rgb(195,215,221)" offset="100%"/>
</linearGradient>
<linearGradient x1="1050" x2="1050" y1="197" gradientUnits="userSpaceOnUse" y2="247" xlink:type="simple" xlink:actuate="onLoad" id="linearGradient15" xlink:show="other" spreadMethod="pad">
<stop stop-opacity="1" stop-color="white" offset="0%"/>
<stop stop-opacity="1" stop-color="rgb(195,215,221)" offset="100%"/>
</linearGradient>
<linearGradient x1="1210" x2="1210" y1="197" gradientUnits="userSpaceOnUse" y2="247" xlink:type="simple" xlink:actuate="onLoad" id="linearGradient16" xlink:show="other" spreadMethod="pad">
<stop stop-opacity="1" stop-color="white" offset="0%"/>
<stop stop-opacity="1" stop-color="rgb(195,215,221)" offset="100%"/>
</linearGradient>
<linearGradient x1="1370" x2="1370" y1="197" gradientUnits="userSpaceOnUse" y2="247" xlink:type="simple" xlink:actuate="onLoad" id="linearGradient17" xlink:show="other" spreadMethod="pad">
<stop stop-opacity="1" stop-color="white" offset="0%"/>
<stop stop-opacity="1" stop-color="rgb(195,215,221)" offset="100%"/>
</linearGradient>
<linearGradient x1="1530" x2="1530" y1="197" gradientUnits="userSpaceOnUse" y2="247" xlink:type="simple" xlink:actuate="onLoad" id="linearGradient18" xlink:show="other" spreadMethod="pad">
<stop stop-opacity="1" stop-color="white" offset="0%"/>
<stop stop-opacity="1" stop-color="rgb(195,215,221)" offset="100%"/>
</linearGradient>
<clipPath clipPathUnits="userSpaceOnUse" id="clipPath1">
<path d="M1150 12 L1150 111 L1249 111 L1249 12 Z"/>
</clipPath>
<clipPath clipPathUnits="userSpaceOnUse" id="clipPath2">
<path d="M1169 14 L1232 14 L1232 27 L1169 27 L1169 14 Z"/>
</clipPath>
<clipPath clipPathUnits="userSpaceOnUse" id="clipPath3">
<path d="M1175 26 L1227 26 L1227 39 L1175 39 L1175 26 Z"/>
</clipPath>
<clipPath clipPathUnits="userSpaceOnUse" id="clipPath4">
<path d="M1150 38 L1251 38 L1251 76 L1150 76 L1150 38 Z"/>
</clipPath>
<clipPath clipPathUnits="userSpaceOnUse" id="clipPath5">
<path d="M1150 75 L1251 75 L1251 113 L1150 113 L1150 75 Z"/>
</clipPath>
<clipPath clipPathUnits="userSpaceOnUse" id="clipPath6">
<path d="M1149 11 L1251 11 L1251 113 L1149 113 L1149 11 Z"/>
</clipPath>
<clipPath clipPathUnits="userSpaceOnUse" id="clipPath7">
<path d="M84 37 L84 136 L183 136 L183 37 Z"/>
</clipPath>
<clipPath clipPathUnits="userSpaceOnUse" id="clipPath8">
<path d="M103 39 L166 39 L166 52 L103 52 L103 39 Z"/>
</clipPath>
<clipPath clipPathUnits="userSpaceOnUse" id="clipPath9">
<path d="M98 51 L172 51 L172 64 L98 64 L98 51 Z"/>
</clipPath>
<clipPath clipPathUnits="userSpaceOnUse" id="clipPath10">
<path d="M84 63 L185 63 L185 101 L84 101 L84 63 Z"/>
</clipPath>
<clipPath clipPathUnits="userSpaceOnUse" id="clipPath11">
<path d="M84 100 L185 100 L185 138 L84 138 L84 100 Z"/>
</clipPath>
<clipPath clipPathUnits="userSpaceOnUse" id="clipPath12">
<path d="M83 36 L185 36 L185 138 L83 138 L83 36 Z"/>
</clipPath>
<clipPath clipPathUnits="userSpaceOnUse" id="clipPath13">
<path d="M1569 10 L1569 109 L1668 109 L1668 10 Z"/>
</clipPath>
<clipPath clipPathUnits="userSpaceOnUse" id="clipPath14">
<path d="M1588 12 L1651 12 L1651 25 L1588 25 L1588 12 Z"/>
</clipPath>
<clipPath clipPathUnits="userSpaceOnUse" id="clipPath15">
<path d="M1600 24 L1639 24 L1639 37 L1600 37 L1600 24 Z"/>
</clipPath>
<clipPath clipPathUnits="userSpaceOnUse" id="clipPath16">
<path d="M1569 36 L1670 36 L1670 74 L1569 74 L1569 36 Z"/>
</clipPath>
<clipPath clipPathUnits="userSpaceOnUse" id="clipPath17">
<path d="M1569 73 L1670 73 L1670 111 L1569 111 L1569 73 Z"/>
</clipPath>
<clipPath clipPathUnits="userSpaceOnUse" id="clipPath18">
<path d="M1568 9 L1670 9 L1670 111 L1568 111 L1568 9 Z"/>
</clipPath>
<clipPath clipPathUnits="userSpaceOnUse" id="clipPath19">
<path d="M330 37 L330 136 L429 136 L429 37 Z"/>
</clipPath>
<clipPath clipPathUnits="userSpaceOnUse" id="clipPath20">
<path d="M349 39 L412 39 L412 52 L349 52 L349 39 Z"/>
</clipPath>
<clipPath clipPathUnits="userSpaceOnUse" id="clipPath21">
<path d="M360 51 L402 51 L402 64 L360 64 L360 51 Z"/>
</clipPath>
<clipPath clipPathUnits="userSpaceOnUse" id="clipPath22">
<path d="M330 63 L431 63 L431 101 L330 101 L330 63 Z"/>
</clipPath>
<clipPath clipPathUnits="userSpaceOnUse" id="clipPath23">
<path d="M330 100 L431 100 L431 138 L330 138 L330 100 Z"/>
</clipPath>
<clipPath clipPathUnits="userSpaceOnUse" id="clipPath24">
<path d="M329 36 L431 36 L431 138 L329 138 L329 36 Z"/>
</clipPath>
<clipPath clipPathUnits="userSpaceOnUse" id="clipPath25">
<path d="M490 37 L490 136 L589 136 L589 37 Z"/>
</clipPath>
<clipPath clipPathUnits="userSpaceOnUse" id="clipPath26">
<path d="M509 39 L572 39 L572 52 L509 52 L509 39 Z"/>
</clipPath>
<clipPath clipPathUnits="userSpaceOnUse" id="clipPath27">
<path d="M521 51 L561 51 L561 64 L521 64 L521 51 Z"/>
</clipPath>
<clipPath clipPathUnits="userSpaceOnUse" id="clipPath28">
<path d="M490 63 L591 63 L591 101 L490 101 L490 63 Z"/>
</clipPath>
<clipPath clipPathUnits="userSpaceOnUse" id="clipPath29">
<path d="M490 100 L591 100 L591 138 L490 138 L490 100 Z"/>
</clipPath>
<clipPath clipPathUnits="userSpaceOnUse" id="clipPath30">
<path d="M489 36 L591 36 L591 138 L489 138 L489 36 Z"/>
</clipPath>
<clipPath clipPathUnits="userSpaceOnUse" id="clipPath31">
<path d="M650 37 L650 136 L749 136 L749 37 Z"/>
</clipPath>
<clipPath clipPathUnits="userSpaceOnUse" id="clipPath32">
<path d="M669 39 L732 39 L732 52 L669 52 L669 39 Z"/>
</clipPath>
<clipPath clipPathUnits="userSpaceOnUse" id="clipPath33">
<path d="M678 51 L723 51 L723 64 L678 64 L678 51 Z"/>
</clipPath>
<clipPath clipPathUnits="userSpaceOnUse" id="clipPath34">
<path d="M650 63 L751 63 L751 101 L650 101 L650 63 Z"/>
</clipPath>
<clipPath clipPathUnits="userSpaceOnUse" id="clipPath35">
<path d="M650 100 L751 100 L751 138 L650 138 L650 100 Z"/>
</clipPath>
<clipPath clipPathUnits="userSpaceOnUse" id="clipPath36">
<path d="M649 36 L751 36 L751 138 L649 138 L649 36 Z"/>
</clipPath>
<clipPath clipPathUnits="userSpaceOnUse" id="clipPath37">
<path d="M970 37 L970 136 L1069 136 L1069 37 Z"/>
</clipPath>
<clipPath clipPathUnits="userSpaceOnUse" id="clipPath38">
<path d="M989 39 L1052 39 L1052 52 L989 52 L989 39 Z"/>
</clipPath>
<clipPath clipPathUnits="userSpaceOnUse" id="clipPath39">
<path d="M996 51 L1046 51 L1046 64 L996 64 L996 51 Z"/>
</clipPath>
<clipPath clipPathUnits="userSpaceOnUse" id="clipPath40">
<path d="M970 63 L1071 63 L1071 101 L970 101 L970 63 Z"/>
</clipPath>
<clipPath clipPathUnits="userSpaceOnUse" id="clipPath41">
<path d="M970 100 L1071 100 L1071 138 L970 138 L970 100 Z"/>
</clipPath>
<clipPath clipPathUnits="userSpaceOnUse" id="clipPath42">
<path d="M969 36 L1071 36 L1071 138 L969 138 L969 36 Z"/>
</clipPath>
<clipPath clipPathUnits="userSpaceOnUse" id="clipPath43">
<path d="M1370 37 L1370 136 L1469 136 L1469 37 Z"/>
</clipPath>
<clipPath clipPathUnits="userSpaceOnUse" id="clipPath44">
<path d="M1389 39 L1452 39 L1452 52 L1389 52 L1389 39 Z"/>
</clipPath>
<clipPath clipPathUnits="userSpaceOnUse" id="clipPath45">
<path d="M1410 51 L1432 51 L1432 64 L1410 64 L1410 51 Z"/>
</clipPath>
<clipPath clipPathUnits="userSpaceOnUse" id="clipPath46">
<path d="M1370 63 L1471 63 L1471 101 L1370 101 L1370 63 Z"/>
</clipPath>
<clipPath clipPathUnits="userSpaceOnUse" id="clipPath47">
<path d="M1370 100 L1471 100 L1471 138 L1370 138 L1370 100 Z"/>
</clipPath>
<clipPath clipPathUnits="userSpaceOnUse" id="clipPath48">
<path d="M1369 36 L1471 36 L1471 138 L1369 138 L1369 36 Z"/>
</clipPath>
<clipPath clipPathUnits="userSpaceOnUse" id="clipPath49">
<path d="M10 197 L10 246 L109 246 L109 197 Z"/>
</clipPath>
<clipPath clipPathUnits="userSpaceOnUse" id="clipPath50">
<path d="M30 210 L91 210 L91 223 L30 223 L30 210 Z"/>
</clipPath>
<clipPath clipPathUnits="userSpaceOnUse" id="clipPath51">
<path d="M39 222 L82 222 L82 235 L39 235 L39 222 Z"/>
</clipPath>
<clipPath clipPathUnits="userSpaceOnUse" id="clipPath52">
<path d="M9 196 L111 196 L111 248 L9 248 L9 196 Z"/>
</clipPath>
<clipPath clipPathUnits="userSpaceOnUse" id="clipPath53">
<path d="M170 197 L170 246 L269 246 L269 197 Z"/>
</clipPath>
<clipPath clipPathUnits="userSpaceOnUse" id="clipPath54">
<path d="M191 210 L250 210 L250 223 L191 223 L191 210 Z"/>
</clipPath>
<clipPath clipPathUnits="userSpaceOnUse" id="clipPath55">
<path d="M198 222 L244 222 L244 235 L198 235 L198 222 Z"/>
</clipPath>
<clipPath clipPathUnits="userSpaceOnUse" id="clipPath56">
<path d="M169 196 L271 196 L271 248 L169 248 L169 196 Z"/>
</clipPath>
<clipPath clipPathUnits="userSpaceOnUse" id="clipPath57">
<path d="M330 197 L330 246 L429 246 L429 197 Z"/>
</clipPath>
<clipPath clipPathUnits="userSpaceOnUse" id="clipPath58">
<path d="M350 210 L411 210 L411 223 L350 223 L350 210 Z"/>
</clipPath>
<clipPath clipPathUnits="userSpaceOnUse" id="clipPath59">
<path d="M352 222 L409 222 L409 235 L352 235 L352 222 Z"/>
</clipPath>
<clipPath clipPathUnits="userSpaceOnUse" id="clipPath60">
<path d="M329 196 L431 196 L431 248 L329 248 L329 196 Z"/>
</clipPath>
<clipPath clipPathUnits="userSpaceOnUse" id="clipPath61">
<path d="M490 197 L490 246 L589 246 L589 197 Z"/>
</clipPath>
<clipPath clipPathUnits="userSpaceOnUse" id="clipPath62">
<path d="M511 210 L570 210 L570 223 L511 223 L511 210 Z"/>
</clipPath>
<clipPath clipPathUnits="userSpaceOnUse" id="clipPath63">
<path d="M517 222 L565 222 L565 235 L517 235 L517 222 Z"/>
</clipPath>
<clipPath clipPathUnits="userSpaceOnUse" id="clipPath64">
<path d="M489 196 L591 196 L591 248 L489 248 L489 196 Z"/>
</clipPath>
<clipPath clipPathUnits="userSpaceOnUse" id="clipPath65">
<path d="M650 197 L650 246 L749 246 L749 197 Z"/>
</clipPath>
<clipPath clipPathUnits="userSpaceOnUse" id="clipPath66">
<path d="M670 210 L731 210 L731 223 L670 223 L670 210 Z"/>
</clipPath>
<clipPath clipPathUnits="userSpaceOnUse" id="clipPath67">
<path d="M672 222 L729 222 L729 235 L672 235 L672 222 Z"/>
</clipPath>
<clipPath clipPathUnits="userSpaceOnUse" id="clipPath68">
<path d="M649 196 L751 196 L751 248 L649 248 L649 196 Z"/>
</clipPath>
<clipPath clipPathUnits="userSpaceOnUse" id="clipPath69">
<path d="M890 197 L890 246 L989 246 L989 197 Z"/>
</clipPath>
<clipPath clipPathUnits="userSpaceOnUse" id="clipPath70">
<path d="M910 210 L971 210 L971 223 L910 223 L910 210 Z"/>
</clipPath>
<clipPath clipPathUnits="userSpaceOnUse" id="clipPath71">
<path d="M911 222 L971 222 L971 235 L911 235 L911 222 Z"/>
</clipPath>
<clipPath clipPathUnits="userSpaceOnUse" id="clipPath72">
<path d="M889 196 L991 196 L991 248 L889 248 L889 196 Z"/>
</clipPath>
<clipPath clipPathUnits="userSpaceOnUse" id="clipPath73">
<path d="M1050 197 L1050 246 L1149 246 L1149 197 Z"/>
</clipPath>
<clipPath clipPathUnits="userSpaceOnUse" id="clipPath74">
<path d="M1071 210 L1130 210 L1130 223 L1071 223 L1071 210 Z"/>
</clipPath>
<clipPath clipPathUnits="userSpaceOnUse" id="clipPath75">
<path d="M1070 222 L1132 222 L1132 235 L1070 235 L1070 222 Z"/>
</clipPath>
<clipPath clipPathUnits="userSpaceOnUse" id="clipPath76">
<path d="M1049 196 L1151 196 L1151 248 L1049 248 L1049 196 Z"/>
</clipPath>
<clipPath clipPathUnits="userSpaceOnUse" id="clipPath77">
<path d="M1210 197 L1210 246 L1309 246 L1309 197 Z"/>
</clipPath>
<clipPath clipPathUnits="userSpaceOnUse" id="clipPath78">
<path d="M1230 210 L1291 210 L1291 223 L1230 223 L1230 210 Z"/>
</clipPath>
<clipPath clipPathUnits="userSpaceOnUse" id="clipPath79">
<path d="M1231 222 L1291 222 L1291 235 L1231 235 L1231 222 Z"/>
</clipPath>
<clipPath clipPathUnits="userSpaceOnUse" id="clipPath80">
<path d="M1209 196 L1311 196 L1311 248 L1209 248 L1209 196 Z"/>
</clipPath>
<clipPath clipPathUnits="userSpaceOnUse" id="clipPath81">
<path d="M1370 197 L1370 246 L1469 246 L1469 197 Z"/>
</clipPath>
<clipPath clipPathUnits="userSpaceOnUse" id="clipPath82">
<path d="M1390 210 L1451 210 L1451 223 L1390 223 L1390 210 Z"/>
</clipPath>
<clipPath clipPathUnits="userSpaceOnUse" id="clipPath83">
<path d="M1392 222 L1449 222 L1449 235 L1392 235 L1392 222 Z"/>
</clipPath>
<clipPath clipPathUnits="userSpaceOnUse" id="clipPath84">
<path d="M1369 196 L1471 196 L1471 248 L1369 248 L1369 196 Z"/>
</clipPath>
<clipPath clipPathUnits="userSpaceOnUse" id="clipPath85">
<path d="M1530 197 L1530 246 L1629 246 L1629 197 Z"/>
</clipPath>
<clipPath clipPathUnits="userSpaceOnUse" id="clipPath86">
<path d="M1551 210 L1610 210 L1610 223 L1551 223 L1551 210 Z"/>
</clipPath>
<clipPath clipPathUnits="userSpaceOnUse" id="clipPath87">
<path d="M1557 222 L1605 222 L1605 235 L1557 235 L1557 222 Z"/>
</clipPath>
<clipPath clipPathUnits="userSpaceOnUse" id="clipPath88">
<path d="M1529 196 L1631 196 L1631 248 L1529 248 L1529 196 Z"/>
</clipPath>
<clipPath clipPathUnits="userSpaceOnUse" id="clipPath89">
<path d="M-1 -1 L1680 -1 L1680 258 L-1 258 L-1 -1 Z"/>
</clipPath>
<clipPath clipPathUnits="userSpaceOnUse" id="clipPath90">
<path d="M93 180 L105 180 L105 199 L93 199 L93 180 Z"/>
</clipPath>
<clipPath clipPathUnits="userSpaceOnUse" id="clipPath91">
<path d="M209 180 L222 180 L222 199 L209 199 L209 180 Z"/>
</clipPath>
<clipPath clipPathUnits="userSpaceOnUse" id="clipPath92">
<path d="M374 181 L387 181 L387 199 L374 199 L374 181 Z"/>
</clipPath>
<clipPath clipPathUnits="userSpaceOnUse" id="clipPath93">
<path d="M534 181 L547 181 L547 199 L534 199 L534 181 Z"/>
</clipPath>
<clipPath clipPathUnits="userSpaceOnUse" id="clipPath94">
<path d="M694 181 L707 181 L707 199 L694 199 L694 181 Z"/>
</clipPath>
<clipPath clipPathUnits="userSpaceOnUse" id="clipPath95">
<path d="M939 182 L956 182 L956 199 L939 199 L939 182 Z"/>
</clipPath>
<clipPath clipPathUnits="userSpaceOnUse" id="clipPath96">
<path d="M1085 182 L1102 182 L1102 199 L1085 199 L1085 182 Z"/>
</clipPath>
<clipPath clipPathUnits="userSpaceOnUse" id="clipPath97">
<path d="M1259 185 L1278 185 L1278 199 L1259 199 L1259 185 Z"/>
</clipPath>
<clipPath clipPathUnits="userSpaceOnUse" id="clipPath98">
<path d="M1414 181 L1427 181 L1427 199 L1414 199 L1414 181 Z"/>
</clipPath>
<clipPath clipPathUnits="userSpaceOnUse" id="clipPath99">
<path d="M1563 185 L1582 185 L1582 199 L1563 199 L1563 185 Z"/>
</clipPath>
<clipPath clipPathUnits="userSpaceOnUse" id="clipPath100">
<path d="M1356 93 L1372 93 L1372 110 L1356 110 L1356 93 Z"/>
</clipPath>
<clipPath clipPathUnits="userSpaceOnUse" id="clipPath101">
<path d="M1469 75 L1484 75 L1484 94 L1469 94 L1469 75 Z"/>
</clipPath>
</defs>
<g font-size="11" fill="url(#linearGradient1)" stroke-linejoin="round" stroke="url(#linearGradient1)" stroke-width="0" stroke-miterlimit="0">
<rect x="1150" y="12" clip-path="url(#clipPath1)" width="100" height="100" stroke="none"/>
<text x="1170" font-size="9" y="24" clip-path="url(#clipPath2)" fill="black" stroke="none" xml:space="preserve">«Stereotype»</text>
<text x="1176" font-size="9" y="36" clip-path="url(#clipPath3)" fill="black" stroke="none" xml:space="preserve">Continuous</text>
</g>
<g font-size="11" stroke-width="1.1" stroke-linecap="butt">
<line clip-path="url(#clipPath4)" fill="none" x1="1150" x2="1250" y1="39" y2="39"/>
<line clip-path="url(#clipPath5)" fill="none" x1="1150" x2="1250" y1="76" y2="76"/>
<rect x="1150" y="12" clip-path="url(#clipPath6)" fill="none" width="99" rx="0" ry="0" height="99"/>
<rect x="84" y="37" clip-path="url(#clipPath7)" fill="url(#linearGradient2)" width="100" height="100" stroke="none"/>
<text x="104" font-size="9" y="49" clip-path="url(#clipPath8)" stroke="none" xml:space="preserve">«Stereotype»</text>
<text x="99" font-size="9" y="61" clip-path="url(#clipPath9)" stroke="none" xml:space="preserve">ControlOperator</text>
<line clip-path="url(#clipPath10)" fill="none" x1="84" x2="184" y1="64" y2="64"/>
<line clip-path="url(#clipPath11)" fill="none" x1="84" x2="184" y1="101" y2="101"/>
<rect x="84" y="37" clip-path="url(#clipPath12)" fill="none" width="99" rx="0" ry="0" height="99"/>
<rect x="1569" y="10" clip-path="url(#clipPath13)" fill="url(#linearGradient3)" width="100" height="100" stroke="none"/>
<text x="1589" font-size="9" y="22" clip-path="url(#clipPath14)" stroke="none" xml:space="preserve">«Stereotype»</text>
<text x="1601" font-size="9" y="34" clip-path="url(#clipPath15)" stroke="none" xml:space="preserve">Discrete</text>
<line clip-path="url(#clipPath16)" fill="none" x1="1569" x2="1669" y1="37" y2="37"/>
<line clip-path="url(#clipPath17)" fill="none" x1="1569" x2="1669" y1="74" y2="74"/>
<rect x="1569" y="10" clip-path="url(#clipPath18)" fill="none" width="99" rx="0" ry="0" height="99"/>
<rect x="330" y="37" clip-path="url(#clipPath19)" fill="url(#linearGradient4)" width="100" height="100" stroke="none"/>
<text x="350" font-size="9" y="49" clip-path="url(#clipPath20)" stroke="none" xml:space="preserve">«Stereotype»</text>
<text x="361" font-size="9" y="61" clip-path="url(#clipPath21)" stroke="none" xml:space="preserve">NoBuffer</text>
<line clip-path="url(#clipPath22)" fill="none" x1="330" x2="430" y1="64" y2="64"/>
<line clip-path="url(#clipPath23)" fill="none" x1="330" x2="430" y1="101" y2="101"/>
<rect x="330" y="37" clip-path="url(#clipPath24)" fill="none" width="99" rx="0" ry="0" height="99"/>
<rect x="490" y="37" clip-path="url(#clipPath25)" fill="url(#linearGradient5)" width="100" height="100" stroke="none"/>
<text x="510" font-size="9" y="49" clip-path="url(#clipPath26)" stroke="none" xml:space="preserve">«Stereotype»</text>
<text x="522" font-size="9" y="61" clip-path="url(#clipPath27)" stroke="none" xml:space="preserve">Optional</text>
<line clip-path="url(#clipPath28)" fill="none" x1="490" x2="590" y1="64" y2="64"/>
<line clip-path="url(#clipPath29)" fill="none" x1="490" x2="590" y1="101" y2="101"/>
<rect x="490" y="37" clip-path="url(#clipPath30)" fill="none" width="99" rx="0" ry="0" height="99"/>
<rect x="650" y="37" clip-path="url(#clipPath31)" fill="url(#linearGradient6)" width="100" height="100" stroke="none"/>
<text x="670" font-size="9" y="49" clip-path="url(#clipPath32)" stroke="none" xml:space="preserve">«Stereotype»</text>
<text x="679" font-size="9" y="61" clip-path="url(#clipPath33)" stroke="none" xml:space="preserve">Overwrite</text>
<line clip-path="url(#clipPath34)" fill="none" x1="650" x2="750" y1="64" y2="64"/>
<line clip-path="url(#clipPath35)" fill="none" x1="650" x2="750" y1="101" y2="101"/>
<rect x="650" y="37" clip-path="url(#clipPath36)" fill="none" width="99" rx="0" ry="0" height="99"/>
<rect x="970" y="37" clip-path="url(#clipPath37)" fill="url(#linearGradient7)" width="100" height="100" stroke="none"/>
<text x="990" font-size="9" y="49" clip-path="url(#clipPath38)" stroke="none" xml:space="preserve">«Stereotype»</text>
<text x="997" font-size="9" y="61" clip-path="url(#clipPath39)" stroke="none" xml:space="preserve">Probability</text>
<line clip-path="url(#clipPath40)" fill="none" x1="970" x2="1070" y1="64" y2="64"/>
<line clip-path="url(#clipPath41)" fill="none" x1="970" x2="1070" y1="101" y2="101"/>
<rect x="970" y="37" clip-path="url(#clipPath42)" fill="none" width="99" rx="0" ry="0" height="99"/>
<rect x="1370" y="37" clip-path="url(#clipPath43)" fill="url(#linearGradient8)" width="100" height="100" stroke="none"/>
<text x="1390" font-size="9" y="49" clip-path="url(#clipPath44)" stroke="none" xml:space="preserve">«Stereotype»</text>
<text x="1411" font-size="9" y="61" clip-path="url(#clipPath45)" stroke="none" xml:space="preserve">Rate</text>
<line clip-path="url(#clipPath46)" fill="none" x1="1370" x2="1470" y1="64" y2="64"/>
<line clip-path="url(#clipPath47)" fill="none" x1="1370" x2="1470" y1="101" y2="101"/>
<rect x="1370" y="37" clip-path="url(#clipPath48)" fill="none" width="99" rx="0" ry="0" height="99"/>
<rect x="10" y="197" clip-path="url(#clipPath49)" fill="url(#linearGradient9)" width="100" height="50" stroke="none"/>
<text x="31" font-size="9" y="220" clip-path="url(#clipPath50)" font-style="italic" stroke="none" xml:space="preserve">«Metaclass»</text>
<text x="40" font-size="9" y="232" clip-path="url(#clipPath51)" font-style="italic" stroke="none" xml:space="preserve">Behavior</text>
<rect x="10" y="197" clip-path="url(#clipPath52)" fill="none" width="99" rx="0" ry="0" height="49"/>
<rect x="170" y="197" clip-path="url(#clipPath53)" fill="url(#linearGradient10)" width="100" height="50" stroke="none"/>
<text x="192" font-size="9" y="220" clip-path="url(#clipPath54)" stroke="none" xml:space="preserve">«Metaclass»</text>
<text x="199" font-size="9" y="232" clip-path="url(#clipPath55)" stroke="none" xml:space="preserve">Operation</text>
<rect x="170" y="197" clip-path="url(#clipPath56)" fill="none" width="99" rx="0" ry="0" height="49"/>
<rect x="330" y="197" clip-path="url(#clipPath57)" fill="url(#linearGradient11)" width="100" height="50" stroke="none"/>
<text x="351" font-size="9" y="220" clip-path="url(#clipPath58)" font-style="italic" stroke="none" xml:space="preserve">«Metaclass»</text>
<text x="353" font-size="9" y="232" clip-path="url(#clipPath59)" font-style="italic" stroke="none" xml:space="preserve">ObjectNode</text>
<rect x="330" y="197" clip-path="url(#clipPath60)" fill="none" width="99" rx="0" ry="0" height="49"/>
<rect x="490" y="197" clip-path="url(#clipPath61)" fill="url(#linearGradient12)" width="100" height="50" stroke="none"/>
<text x="512" font-size="9" y="220" clip-path="url(#clipPath62)" stroke="none" xml:space="preserve">«Metaclass»</text>
<text x="518" font-size="9" y="232" clip-path="url(#clipPath63)" stroke="none" xml:space="preserve">Parameter</text>
<rect x="490" y="197" clip-path="url(#clipPath64)" fill="none" width="99" rx="0" ry="0" height="49"/>
<rect x="650" y="197" clip-path="url(#clipPath65)" fill="url(#linearGradient13)" width="100" height="50" stroke="none"/>
<text x="671" font-size="9" y="220" clip-path="url(#clipPath66)" font-style="italic" stroke="none" xml:space="preserve">«Metaclass»</text>
<text x="673" font-size="9" y="232" clip-path="url(#clipPath67)" font-style="italic" stroke="none" xml:space="preserve">ObjectNode</text>
<rect x="650" y="197" clip-path="url(#clipPath68)" fill="none" width="99" rx="0" ry="0" height="49"/>
<rect x="890" y="197" clip-path="url(#clipPath69)" fill="url(#linearGradient14)" width="100" height="50" stroke="none"/>
<text x="911" font-size="9" y="220" clip-path="url(#clipPath70)" font-style="italic" stroke="none" xml:space="preserve">«Metaclass»</text>
<text x="912" font-size="9" y="232" clip-path="url(#clipPath71)" font-style="italic" stroke="none" xml:space="preserve">ActivityEdge</text>
<rect x="890" y="197" clip-path="url(#clipPath72)" fill="none" width="99" rx="0" ry="0" height="49"/>
<rect x="1050" y="197" clip-path="url(#clipPath73)" fill="url(#linearGradient15)" width="100" height="50" stroke="none"/>
<text x="1072" font-size="9" y="220" clip-path="url(#clipPath74)" stroke="none" xml:space="preserve">«Metaclass»</text>
<text x="1071" font-size="9" y="232" clip-path="url(#clipPath75)" stroke="none" xml:space="preserve">ParameterSet</text>
<rect x="1050" y="197" clip-path="url(#clipPath76)" fill="none" width="99" rx="0" ry="0" height="49"/>
<rect x="1210" y="197" clip-path="url(#clipPath77)" fill="url(#linearGradient16)" width="100" height="50" stroke="none"/>
<text x="1231" font-size="9" y="220" clip-path="url(#clipPath78)" font-style="italic" stroke="none" xml:space="preserve">«Metaclass»</text>
<text x="1232" font-size="9" y="232" clip-path="url(#clipPath79)" font-style="italic" stroke="none" xml:space="preserve">ActivityEdge</text>
<rect x="1210" y="197" clip-path="url(#clipPath80)" fill="none" width="99" rx="0" ry="0" height="49"/>
<rect x="1370" y="197" clip-path="url(#clipPath81)" fill="url(#linearGradient17)" width="100" height="50" stroke="none"/>
<text x="1391" font-size="9" y="220" clip-path="url(#clipPath82)" font-style="italic" stroke="none" xml:space="preserve">«Metaclass»</text>
<text x="1393" font-size="9" y="232" clip-path="url(#clipPath83)" font-style="italic" stroke="none" xml:space="preserve">ObjectNode</text>
<rect x="1370" y="197" clip-path="url(#clipPath84)" fill="none" width="99" rx="0" ry="0" height="49"/>
<rect x="1530" y="197" clip-path="url(#clipPath85)" fill="url(#linearGradient18)" width="100" height="50" stroke="none"/>
<text x="1552" font-size="9" y="220" clip-path="url(#clipPath86)" stroke="none" xml:space="preserve">«Metaclass»</text>
<text x="1558" font-size="9" y="232" clip-path="url(#clipPath87)" stroke="none" xml:space="preserve">Parameter</text>
<rect x="1530" y="197" clip-path="url(#clipPath88)" fill="none" width="99" rx="0" ry="0" height="49"/>
<line clip-path="url(#clipPath89)" fill="none" text-rendering="optimizeLegibility" x1="87" x2="102" y1="137" y2="197"/>
<polygon text-rendering="optimizeLegibility" clip-path="url(#clipPath90)" points=" 102 197 94 184 103 181" stroke="none"/>
<polygon fill="none" text-rendering="optimizeLegibility" clip-path="url(#clipPath90)" points=" 102 197 94 184 103 181"/>
<line clip-path="url(#clipPath89)" fill="none" text-rendering="optimizeLegibility" x1="184" x2="220" y1="98" y2="197"/>
<polygon text-rendering="optimizeLegibility" clip-path="url(#clipPath91)" points=" 220 197 210 185 220 181" stroke="none"/>
<polygon fill="none" text-rendering="optimizeLegibility" clip-path="url(#clipPath91)" points=" 220 197 210 185 220 181"/>
<line clip-path="url(#clipPath89)" fill="none" text-rendering="optimizeLegibility" x1="380" x2="380" y1="137" y2="197"/>
<polygon text-rendering="optimizeLegibility" clip-path="url(#clipPath92)" points=" 380 197 375 182 385 182" stroke="none"/>
<polygon fill="none" text-rendering="optimizeLegibility" clip-path="url(#clipPath92)" points=" 380 197 375 182 385 182"/>
<line clip-path="url(#clipPath89)" fill="none" text-rendering="optimizeLegibility" x1="540" x2="540" y1="137" y2="197"/>
<polygon text-rendering="optimizeLegibility" clip-path="url(#clipPath93)" points=" 540 197 535 182 545 182" stroke="none"/>
<polygon fill="none" text-rendering="optimizeLegibility" clip-path="url(#clipPath93)" points=" 540 197 535 182 545 182"/>
<line clip-path="url(#clipPath89)" fill="none" text-rendering="optimizeLegibility" x1="700" x2="700" y1="137" y2="197"/>
<polygon text-rendering="optimizeLegibility" clip-path="url(#clipPath94)" points=" 700 197 695 182 705 182" stroke="none"/>
<polygon fill="none" text-rendering="optimizeLegibility" clip-path="url(#clipPath94)" points=" 700 197 695 182 705 182"/>
<line clip-path="url(#clipPath89)" fill="none" text-rendering="optimizeLegibility" x1="1003" x2="940" y1="137" y2="197"/>
<polygon text-rendering="optimizeLegibility" clip-path="url(#clipPath95)" points=" 940 197 947 183 954 190" stroke="none"/>
<polygon fill="none" text-rendering="optimizeLegibility" clip-path="url(#clipPath95)" points=" 940 197 947 183 954 190"/>
<line clip-path="url(#clipPath89)" fill="none" text-rendering="optimizeLegibility" x1="1036" x2="1100" y1="137" y2="197"/>
<polygon text-rendering="optimizeLegibility" clip-path="url(#clipPath96)" points=" 1100 197 1086 190 1092 183" stroke="none"/>
<polygon fill="none" text-rendering="optimizeLegibility" clip-path="url(#clipPath96)" points=" 1100 197 1086 190 1092 183"/>
<line clip-path="url(#clipPath89)" fill="none" text-rendering="optimizeLegibility" x1="1395" x2="1260" y1="137" y2="197"/>
<polygon text-rendering="optimizeLegibility" clip-path="url(#clipPath97)" points=" 1260 197 1272 186 1276 195" stroke="none"/>
<polygon fill="none" text-rendering="optimizeLegibility" clip-path="url(#clipPath97)" points=" 1260 197 1272 186 1276 195"/>
<line clip-path="url(#clipPath89)" fill="none" text-rendering="optimizeLegibility" x1="1420" x2="1420" y1="137" y2="197"/>
<polygon text-rendering="optimizeLegibility" clip-path="url(#clipPath98)" points=" 1420 197 1415 182 1425 182" stroke="none"/>
<polygon fill="none" text-rendering="optimizeLegibility" clip-path="url(#clipPath98)" points=" 1420 197 1415 182 1425 182"/>
<line clip-path="url(#clipPath89)" fill="none" text-rendering="optimizeLegibility" x1="1445" x2="1580" y1="137" y2="197"/>
<polygon text-rendering="optimizeLegibility" clip-path="url(#clipPath99)" points=" 1580 197 1564 195 1568 186" stroke="none"/>
<polygon fill="none" text-rendering="optimizeLegibility" clip-path="url(#clipPath99)" points=" 1580 197 1564 195 1568 186"/>
<line clip-path="url(#clipPath89)" fill="none" text-rendering="optimizeLegibility" x1="1250" x2="1370" y1="41" y2="106"/>
</g>
<g stroke-linecap="butt" font-size="9" fill="white" text-rendering="optimizeLegibility" stroke="white" stroke-width="1.1">
<polygon clip-path="url(#clipPath100)" points=" 1370 106 1357 108 1365 94" stroke="none"/>
<polygon fill="none" clip-path="url(#clipPath100)" points=" 1370 106 1357 108 1365 94" stroke="black"/>
<line clip-path="url(#clipPath89)" fill="none" x1="1569" x2="1470" y1="55" y2="87" stroke="black"/>
<polygon clip-path="url(#clipPath101)" points=" 1470 87 1477 76 1482 92" stroke="none"/>
<polygon fill="none" clip-path="url(#clipPath101)" points=" 1470 87 1477 76 1482 92" stroke="black"/>
</g>
</g>
</svg>
