<?xml version="1.0" encoding="UTF-8"?><svg xmlns="http://www.w3.org/2000/svg" xmlns:xlink="http://www.w3.org/1999/xlink" stroke-dasharray="none" shape-rendering="auto" font-family="'Dialog'" width="3327" text-rendering="auto" fill-opacity="1" contentScriptType="text/ecmascript" color-interpolation="auto" color-rendering="auto" preserveAspectRatio="xMidYMid meet" font-size="12" viewBox="0 0 3327 803" fill="black" stroke="black" image-rendering="auto" stroke-miterlimit="10" zoomAndPan="magnify" version="1.0" stroke-linecap="square" stroke-linejoin="miter" contentStyleType="text/css" font-style="normal" height="803" stroke-width="1" stroke-dashoffset="0" font-weight="normal" stroke-opacity="1">
<!--Generated by the Batik Graphics2D SVG Generator-->
<defs id="genericDefs"/>
<g>
<defs id="defs1">
<clipPath clipPathUnits="userSpaceOnUse" id="clipPath1">
<path d="M22 22 L64 22 L64 64 L22 64 L22 22 Z"/>
</clipPath>
<clipPath clipPathUnits="userSpaceOnUse" id="clipPath2">
<path d="M163 202 L323 202 L323 215 L163 215 L163 202 Z"/>
</clipPath>
<clipPath clipPathUnits="userSpaceOnUse" id="clipPath3">
<path d="M-1 -1 L3328 -1 L3328 804 L-1 804 L-1 -1 Z"/>
</clipPath>
<clipPath clipPathUnits="userSpaceOnUse" id="clipPath4">
<path d="M1429 220 L1589 220 L1589 233 L1429 233 L1429 220 Z"/>
</clipPath>
<clipPath clipPathUnits="userSpaceOnUse" id="clipPath5">
<path d="M1253 176 L1413 176 L1413 189 L1253 189 L1253 176 Z"/>
</clipPath>
<clipPath clipPathUnits="userSpaceOnUse" id="clipPath6">
<path d="M1563 165 L1723 165 L1723 178 L1563 178 L1563 165 Z"/>
</clipPath>
<clipPath clipPathUnits="userSpaceOnUse" id="clipPath7">
<path d="M1158 149 L1318 149 L1318 162 L1158 162 L1158 149 Z"/>
</clipPath>
<clipPath clipPathUnits="userSpaceOnUse" id="clipPath8">
<path d="M1168 473 L1328 473 L1328 486 L1168 486 L1168 473 Z"/>
</clipPath>
<clipPath clipPathUnits="userSpaceOnUse" id="clipPath9">
<path d="M2015 212 L2175 212 L2175 225 L2015 225 L2015 212 Z"/>
</clipPath>
<clipPath clipPathUnits="userSpaceOnUse" id="clipPath10">
<path d="M2162 204 L2322 204 L2322 217 L2162 217 L2162 204 Z"/>
</clipPath>
<clipPath clipPathUnits="userSpaceOnUse" id="clipPath11">
<path d="M70 147 L230 147 L230 160 L70 160 L70 147 Z"/>
</clipPath>
<clipPath clipPathUnits="userSpaceOnUse" id="clipPath12">
<path d="M334 148 L494 148 L494 161 L334 161 L334 148 Z"/>
</clipPath>
<clipPath clipPathUnits="userSpaceOnUse" id="clipPath13">
<path d="M510 147 L670 147 L670 160 L510 160 L510 147 Z"/>
</clipPath>
<clipPath clipPathUnits="userSpaceOnUse" id="clipPath14">
<path d="M689 147 L849 147 L849 160 L689 160 L689 147 Z"/>
</clipPath>
<clipPath clipPathUnits="userSpaceOnUse" id="clipPath15">
<path d="M912 147 L1072 147 L1072 160 L912 160 L912 147 Z"/>
</clipPath>
<clipPath clipPathUnits="userSpaceOnUse" id="clipPath16">
<path d="M1597 150 L1757 150 L1757 163 L1597 163 L1597 150 Z"/>
</clipPath>
<clipPath clipPathUnits="userSpaceOnUse" id="clipPath17">
<path d="M2356 147 L2516 147 L2516 160 L2356 160 L2356 147 Z"/>
</clipPath>
<clipPath clipPathUnits="userSpaceOnUse" id="clipPath18">
<path d="M1169 687 L1329 687 L1329 700 L1169 700 L1169 687 Z"/>
</clipPath>
<clipPath clipPathUnits="userSpaceOnUse" id="clipPath19">
<path d="M2552 147 L2712 147 L2712 160 L2552 160 L2552 147 Z"/>
</clipPath>
<clipPath clipPathUnits="userSpaceOnUse" id="clipPath20">
<path d="M2750 147 L2910 147 L2910 160 L2750 160 L2750 147 Z"/>
</clipPath>
<clipPath clipPathUnits="userSpaceOnUse" id="clipPath21">
<path d="M2951 148 L3111 148 L3111 161 L2951 161 L2951 148 Z"/>
</clipPath>
<clipPath clipPathUnits="userSpaceOnUse" id="clipPath22">
<path d="M3145 147 L3305 147 L3305 160 L3145 160 L3145 147 Z"/>
</clipPath>
<clipPath clipPathUnits="userSpaceOnUse" id="clipPath23">
<path d="M2102 417 L2262 417 L2262 430 L2102 430 L2102 417 Z"/>
</clipPath>
</defs>
<g font-size="9" fill="rgb(255,203,203)" stroke-linejoin="round" stroke="rgb(255,203,203)" stroke-width="0" stroke-miterlimit="0">
<rect width="40" x="218" height="40" y="53" stroke="none"/>
</g>
<g stroke-linecap="butt" font-size="9">
<rect fill="none" width="39" x="218" height="39" y="53"/>
<text xml:space="preserve" x="158" y="76" stroke="none">Invalid view - remove from diagram.</text>
<rect x="388" y="53" fill="rgb(255,203,203)" width="40" height="40" stroke="none"/>
<rect x="388" y="53" fill="none" width="39" height="39" stroke-width="0.1"/>
<text xml:space="preserve" x="328" stroke-width="0.1" y="76" stroke="none">Invalid view - remove from diagram.</text>
<rect x="570" y="53" fill="rgb(255,203,203)" width="40" height="40" stroke="none" stroke-width="0.1"/>
<rect x="570" y="53" fill="none" width="39" height="39" stroke-width="0.1"/>
<text xml:space="preserve" x="510" stroke-width="0.1" y="76" stroke="none">Invalid view - remove from diagram.</text>
<rect x="1216" y="53" fill="rgb(255,203,203)" width="40" height="40" stroke="none" stroke-width="0.1"/>
<rect x="1216" y="53" fill="none" width="39" height="39" stroke-width="0.1"/>
<text xml:space="preserve" x="1156" stroke-width="0.1" y="76" stroke="none">Invalid view - remove from diagram.</text>
<rect x="730" y="53" fill="rgb(255,203,203)" width="40" height="40" stroke="none" stroke-width="0.1"/>
<rect x="730" y="53" fill="none" width="39" height="39" stroke-width="0.1"/>
<text xml:space="preserve" x="670" stroke-width="0.1" y="76" stroke="none">Invalid view - remove from diagram.</text>
<rect x="966" y="53" fill="rgb(255,203,203)" width="40" height="40" stroke="none" stroke-width="0.1"/>
<rect x="966" y="53" fill="none" width="39" height="39" stroke-width="0.1"/>
<text xml:space="preserve" x="906" stroke-width="0.1" y="76" stroke="none">Invalid view - remove from diagram.</text>
</g>
<g stroke-linecap="butt" font-size="9" fill="rgb(255,203,203)" font-style="italic" stroke="rgb(255,203,203)" stroke-width="0.1">
<rect width="40" x="1450" height="40" y="53" stroke="none"/>
<rect x="1450" y="53" fill="none" width="39" height="39" stroke="black"/>
<text fill="black" xml:space="preserve" x="1390" y="76" stroke="none">Invalid view - remove from diagram.</text>
<rect width="40" x="2408" height="40" y="53" stroke="none"/>
<rect x="2408" y="53" fill="none" width="39" height="39" stroke="black"/>
<text x="2348" y="76" fill="black" font-style="normal" stroke="none" xml:space="preserve">Invalid view - remove from diagram.</text>
<rect width="40" x="1219" height="40" y="593" stroke="none"/>
<rect x="1219" y="593" fill="none" width="39" height="39" stroke="black"/>
<text fill="black" xml:space="preserve" x="1159" y="616" stroke="none">Invalid view - remove from diagram.</text>
<rect width="40" x="2605" height="40" y="53" stroke="none"/>
<rect x="2605" y="53" fill="none" width="39" height="39" stroke="black"/>
<text x="2545" y="76" fill="black" font-style="normal" stroke="none" xml:space="preserve">Invalid view - remove from diagram.</text>
<rect width="40" x="2799" height="40" y="53" stroke="none"/>
<rect x="2799" y="53" fill="none" width="39" height="39" stroke="black"/>
<text x="2739" y="76" fill="black" font-style="normal" stroke="none" xml:space="preserve">Invalid view - remove from diagram.</text>
<rect width="40" x="3003" height="40" y="53" stroke="none"/>
<rect x="3003" y="53" fill="none" width="39" height="39" stroke="black"/>
<text x="2943" y="76" fill="black" font-style="normal" stroke="none" xml:space="preserve">Invalid view - remove from diagram.</text>
<rect width="40" x="3194" height="40" y="53" stroke="none"/>
<rect x="3194" y="53" fill="none" width="39" height="39" stroke="black"/>
<text x="3134" y="76" fill="black" font-style="normal" stroke="none" xml:space="preserve">Invalid view - remove from diagram.</text>
<rect width="40" x="2162" height="40" y="323" stroke="none"/>
<rect x="2162" y="323" fill="none" width="39" height="39" stroke="black"/>
<text x="2102" y="346" fill="black" font-style="normal" stroke="none" xml:space="preserve">Invalid view - remove from diagram.</text>
<rect width="40" x="223" height="40" y="323" stroke="none"/>
<rect x="223" y="323" fill="none" width="39" height="39" stroke="black"/>
<text fill="black" xml:space="preserve" x="163" y="346" stroke="none">Invalid view - remove from diagram.</text>
<rect width="40" x="1602" height="40" y="323" stroke="none"/>
<rect x="1602" y="323" fill="none" width="39" height="39" stroke="black"/>
<text fill="black" xml:space="preserve" x="1542" y="346" stroke="none">Invalid view - remove from diagram.</text>
<rect width="40" x="1239" height="40" y="323" stroke="none"/>
<rect x="1239" y="323" fill="none" width="39" height="39" stroke="black"/>
<text x="1179" y="346" fill="black" font-style="normal" stroke="none" xml:space="preserve">Invalid view - remove from diagram.</text>
<rect width="40" x="2142" height="40" y="53" stroke="none"/>
<rect x="2142" y="53" fill="none" width="39" height="39" stroke="black"/>
<text x="2082" y="76" fill="black" font-style="normal" stroke="none" xml:space="preserve">Invalid view - remove from diagram.</text>
<rect width="40" x="53" height="40" y="213" stroke="none"/>
<rect x="53" y="213" fill="none" width="39" height="39" stroke="black"/>
<text x="-7" y="236" fill="black" font-style="normal" stroke="none" xml:space="preserve">Invalid view - remove from diagram.</text>
<rect width="40" x="399" height="40" y="213" stroke="none"/>
<rect x="399" y="213" fill="none" width="39" height="39" stroke="black"/>
<text x="339" y="236" fill="black" font-style="normal" stroke="none" xml:space="preserve">Invalid view - remove from diagram.</text>
<rect width="40" x="570" height="40" y="213" stroke="none"/>
<rect x="570" y="213" fill="none" width="39" height="39" stroke="black"/>
<text x="510" y="236" fill="black" font-style="normal" stroke="none" xml:space="preserve">Invalid view - remove from diagram.</text>
<rect width="40" x="768" height="40" y="213" stroke="none"/>
<rect x="768" y="213" fill="none" width="39" height="39" stroke="black"/>
<text x="708" y="236" fill="black" font-style="normal" stroke="none" xml:space="preserve">Invalid view - remove from diagram.</text>
<rect width="40" x="979" height="40" y="213" stroke="none"/>
<rect x="979" y="213" fill="none" width="39" height="39" stroke="black"/>
<text x="919" y="236" fill="black" font-style="normal" stroke="none" xml:space="preserve">Invalid view - remove from diagram.</text>
<rect width="40" x="1863" height="40" y="213" stroke="none"/>
<rect x="1863" y="213" fill="none" width="39" height="39" stroke="black"/>
<text fill="black" xml:space="preserve" x="1803" y="236" stroke="none">Invalid view - remove from diagram.</text>
<rect width="40" x="2424" height="40" y="213" stroke="none"/>
<rect x="2424" y="213" fill="none" width="39" height="39" stroke="black"/>
<text x="2364" y="236" fill="black" font-style="normal" stroke="none" xml:space="preserve">Invalid view - remove from diagram.</text>
<rect width="40" x="1239" height="40" y="753" stroke="none"/>
<rect x="1239" y="753" fill="none" width="39" height="39" stroke="black"/>
<text fill="black" xml:space="preserve" x="1179" y="776" stroke="none">Invalid view - remove from diagram.</text>
<rect width="40" x="2620" height="40" y="213" stroke="none"/>
<rect x="2620" y="213" fill="none" width="39" height="39" stroke="black"/>
<text x="2560" y="236" fill="black" font-style="normal" stroke="none" xml:space="preserve">Invalid view - remove from diagram.</text>
<rect width="40" x="2820" height="40" y="213" stroke="none"/>
<rect x="2820" y="213" fill="none" width="39" height="39" stroke="black"/>
<text x="2760" y="236" fill="black" font-style="normal" stroke="none" xml:space="preserve">Invalid view - remove from diagram.</text>
<rect width="40" x="3018" height="40" y="213" stroke="none"/>
<rect x="3018" y="213" fill="none" width="39" height="39" stroke="black"/>
<text x="2958" y="236" fill="black" font-style="normal" stroke="none" xml:space="preserve">Invalid view - remove from diagram.</text>
<rect width="40" x="3215" height="40" y="213" stroke="none"/>
<rect x="3215" y="213" fill="none" width="39" height="39" stroke="black"/>
<text fill="black" xml:space="preserve" x="3155" y="236" stroke="none">Invalid view - remove from diagram.</text>
<rect width="40" x="2162" height="40" y="483" stroke="none"/>
<rect x="2162" y="483" fill="none" width="39" height="39" stroke="black"/>
<text x="2102" y="506" fill="black" font-style="normal" stroke="none" xml:space="preserve">Invalid view - remove from diagram.</text>
</g>
<g fill="red" font-size="9" stroke-width="1.1" stroke-linecap="butt" stroke="red">
<line y2="323" fill="none" x1="243" x2="243" y1="93"/>
<rect x="23" y="23" clip-path="url(#clipPath1)" fill="rgb(255,203,203)" width="40" height="40" stroke="none"/>
<rect x="23" y="23" clip-path="url(#clipPath1)" fill="none" width="39" height="39" stroke="black" stroke-width="0.1"/>
<text x="-37" y="46" clip-path="url(#clipPath1)" fill="black" stroke="none" stroke-width="0.1" xml:space="preserve">Invalid view - remove from diagram.</text>
<rect x="23" y="23" clip-path="url(#clipPath1)" fill="rgb(255,203,203)" width="40" height="40" stroke="none" stroke-width="0.1"/>
<rect x="23" y="23" clip-path="url(#clipPath1)" fill="none" width="39" height="39" stroke="black" stroke-width="0.1"/>
<text x="-37" y="46" clip-path="url(#clipPath1)" fill="black" stroke="none" stroke-width="0.1" xml:space="preserve">Invalid view - remove from diagram.</text>
<rect x="23" y="23" clip-path="url(#clipPath1)" fill="rgb(255,203,203)" width="40" height="40" stroke="none" stroke-width="0.1"/>
<rect x="23" y="23" clip-path="url(#clipPath1)" fill="none" width="39" height="39" stroke="black" stroke-width="0.1"/>
<text x="-37" y="46" clip-path="url(#clipPath1)" fill="black" stroke="none" stroke-width="0.1" xml:space="preserve">Invalid view - remove from diagram.</text>
<rect x="23" y="23" clip-path="url(#clipPath1)" fill="rgb(255,203,203)" width="40" height="40" stroke="none" stroke-width="0.1"/>
<rect x="23" y="23" clip-path="url(#clipPath1)" fill="none" width="39" height="39" stroke="black" stroke-width="0.1"/>
<text x="-37" y="46" clip-path="url(#clipPath1)" fill="black" stroke="none" stroke-width="0.1" xml:space="preserve">Invalid view - remove from diagram.</text>
<rect x="23" y="23" clip-path="url(#clipPath1)" fill="rgb(255,203,203)" width="40" height="40" stroke="none" stroke-width="0.1"/>
<rect x="23" y="23" clip-path="url(#clipPath1)" fill="none" width="39" height="39" stroke="black" stroke-width="0.1"/>
<text x="-37" y="46" clip-path="url(#clipPath1)" fill="black" stroke="none" stroke-width="0.1" xml:space="preserve">Invalid view - remove from diagram.</text>
<rect x="23" y="23" clip-path="url(#clipPath1)" fill="rgb(255,203,203)" width="40" height="40" stroke="none" stroke-width="0.1"/>
<rect x="23" y="23" clip-path="url(#clipPath1)" fill="none" width="39" height="39" stroke="black" stroke-width="0.1"/>
<text x="-37" y="46" clip-path="url(#clipPath1)" fill="black" stroke="none" stroke-width="0.1" xml:space="preserve">Invalid view - remove from diagram.</text>
<text x="164" y="212" clip-path="url(#clipPath2)" stroke="none" stroke-width="0.1" xml:space="preserve">Invalid view - remove from diagram.</text>
<line clip-path="url(#clipPath3)" fill="none" x1="1490" x2="1510" y1="89" y2="231"/>
<line clip-path="url(#clipPath3)" fill="none" x1="1510" x2="1602" y1="231" y2="325"/>
<rect x="23" y="23" clip-path="url(#clipPath1)" fill="rgb(255,203,203)" width="40" height="40" stroke="none"/>
<rect x="23" y="23" clip-path="url(#clipPath1)" fill="none" width="39" height="39" stroke="black" stroke-width="0.1"/>
<text x="-37" y="46" clip-path="url(#clipPath1)" fill="black" stroke="none" stroke-width="0.1" xml:space="preserve">Invalid view - remove from diagram.</text>
<rect x="23" y="23" clip-path="url(#clipPath1)" fill="rgb(255,203,203)" width="40" height="40" stroke="none" stroke-width="0.1"/>
<rect x="23" y="23" clip-path="url(#clipPath1)" fill="none" width="39" height="39" stroke="black" stroke-width="0.1"/>
<text x="-37" y="46" clip-path="url(#clipPath1)" fill="black" stroke="none" stroke-width="0.1" xml:space="preserve">Invalid view - remove from diagram.</text>
<rect x="23" y="23" clip-path="url(#clipPath1)" fill="rgb(255,203,203)" width="40" height="40" stroke="none" stroke-width="0.1"/>
<rect x="23" y="23" clip-path="url(#clipPath1)" fill="none" width="39" height="39" stroke="black" stroke-width="0.1"/>
<text x="-37" y="46" clip-path="url(#clipPath1)" fill="black" stroke="none" stroke-width="0.1" xml:space="preserve">Invalid view - remove from diagram.</text>
<rect x="23" y="23" clip-path="url(#clipPath1)" fill="rgb(255,203,203)" width="40" height="40" stroke="none" stroke-width="0.1"/>
<rect x="23" y="23" clip-path="url(#clipPath1)" fill="none" width="39" height="39" stroke="black" stroke-width="0.1"/>
<text x="-37" y="46" clip-path="url(#clipPath1)" fill="black" stroke="none" stroke-width="0.1" xml:space="preserve">Invalid view - remove from diagram.</text>
<rect x="23" y="23" clip-path="url(#clipPath1)" fill="rgb(255,203,203)" width="40" height="40" stroke="none" stroke-width="0.1"/>
<rect x="23" y="23" clip-path="url(#clipPath1)" fill="none" width="39" height="39" stroke="black" stroke-width="0.1"/>
<text x="-37" y="46" clip-path="url(#clipPath1)" fill="black" stroke="none" stroke-width="0.1" xml:space="preserve">Invalid view - remove from diagram.</text>
<rect x="23" y="23" clip-path="url(#clipPath1)" fill="rgb(255,203,203)" width="40" height="40" stroke="none" stroke-width="0.1"/>
<rect x="23" y="23" clip-path="url(#clipPath1)" fill="none" width="39" height="39" stroke="black" stroke-width="0.1"/>
<text x="-37" y="46" clip-path="url(#clipPath1)" fill="black" stroke="none" stroke-width="0.1" xml:space="preserve">Invalid view - remove from diagram.</text>
<text x="1430" y="230" clip-path="url(#clipPath4)" stroke="none" stroke-width="0.1" xml:space="preserve">Invalid view - remove from diagram.</text>
<line clip-path="url(#clipPath3)" fill="none" x1="1476" x2="1335" y1="93" y2="170"/>
<line clip-path="url(#clipPath3)" fill="none" x1="1335" x2="1323" y1="170" y2="244"/>
<line clip-path="url(#clipPath3)" fill="none" x1="1323" x2="1246" y1="244" y2="323"/>
<rect x="23" y="23" clip-path="url(#clipPath1)" fill="rgb(255,203,203)" width="40" height="40" stroke="none"/>
<rect x="23" y="23" clip-path="url(#clipPath1)" fill="none" width="39" height="39" stroke="black" stroke-width="0.1"/>
<text x="-37" y="46" clip-path="url(#clipPath1)" fill="black" stroke="none" stroke-width="0.1" xml:space="preserve">Invalid view - remove from diagram.</text>
<rect x="23" y="23" clip-path="url(#clipPath1)" fill="rgb(255,203,203)" width="40" height="40" stroke="none" stroke-width="0.1"/>
<rect x="23" y="23" clip-path="url(#clipPath1)" fill="none" width="39" height="39" stroke="black" stroke-width="0.1"/>
<text x="-37" y="46" clip-path="url(#clipPath1)" fill="black" stroke="none" stroke-width="0.1" xml:space="preserve">Invalid view - remove from diagram.</text>
<rect x="23" y="23" clip-path="url(#clipPath1)" fill="rgb(255,203,203)" width="40" height="40" stroke="none" stroke-width="0.1"/>
<rect x="23" y="23" clip-path="url(#clipPath1)" fill="none" width="39" height="39" stroke="black" stroke-width="0.1"/>
<text x="-37" y="46" clip-path="url(#clipPath1)" fill="black" stroke="none" stroke-width="0.1" xml:space="preserve">Invalid view - remove from diagram.</text>
<rect x="23" y="23" clip-path="url(#clipPath1)" fill="rgb(255,203,203)" width="40" height="40" stroke="none" stroke-width="0.1"/>
<rect x="23" y="23" clip-path="url(#clipPath1)" fill="none" width="39" height="39" stroke="black" stroke-width="0.1"/>
<text x="-37" y="46" clip-path="url(#clipPath1)" fill="black" stroke="none" stroke-width="0.1" xml:space="preserve">Invalid view - remove from diagram.</text>
<rect x="23" y="23" clip-path="url(#clipPath1)" fill="rgb(255,203,203)" width="40" height="40" stroke="none" stroke-width="0.1"/>
<rect x="23" y="23" clip-path="url(#clipPath1)" fill="none" width="39" height="39" stroke="black" stroke-width="0.1"/>
<text x="-37" y="46" clip-path="url(#clipPath1)" fill="black" stroke="none" stroke-width="0.1" xml:space="preserve">Invalid view - remove from diagram.</text>
<rect x="23" y="23" clip-path="url(#clipPath1)" fill="rgb(255,203,203)" width="40" height="40" stroke="none" stroke-width="0.1"/>
<rect x="23" y="23" clip-path="url(#clipPath1)" fill="none" width="39" height="39" stroke="black" stroke-width="0.1"/>
<text x="-37" y="46" clip-path="url(#clipPath1)" fill="black" stroke="none" stroke-width="0.1" xml:space="preserve">Invalid view - remove from diagram.</text>
<text x="1254" y="186" clip-path="url(#clipPath5)" stroke="none" stroke-width="0.1" xml:space="preserve">Invalid view - remove from diagram.</text>
<line clip-path="url(#clipPath3)" fill="none" x1="1490" x2="1646" y1="90" y2="173"/>
<line clip-path="url(#clipPath3)" fill="none" x1="1646" x2="1660" y1="173" y2="244"/>
<line clip-path="url(#clipPath3)" fill="none" x1="1660" x2="1605" y1="244" y2="323"/>
<rect x="23" y="23" clip-path="url(#clipPath1)" fill="rgb(255,203,203)" width="40" height="40" stroke="none"/>
<rect x="23" y="23" clip-path="url(#clipPath1)" fill="none" width="39" height="39" stroke="black" stroke-width="0.1"/>
<text x="-37" y="46" clip-path="url(#clipPath1)" fill="black" stroke="none" stroke-width="0.1" xml:space="preserve">Invalid view - remove from diagram.</text>
<rect x="23" y="23" clip-path="url(#clipPath1)" fill="rgb(255,203,203)" width="40" height="40" stroke="none" stroke-width="0.1"/>
<rect x="23" y="23" clip-path="url(#clipPath1)" fill="none" width="39" height="39" stroke="black" stroke-width="0.1"/>
<text x="-37" y="46" clip-path="url(#clipPath1)" fill="black" stroke="none" stroke-width="0.1" xml:space="preserve">Invalid view - remove from diagram.</text>
<rect x="23" y="23" clip-path="url(#clipPath1)" fill="rgb(255,203,203)" width="40" height="40" stroke="none" stroke-width="0.1"/>
<rect x="23" y="23" clip-path="url(#clipPath1)" fill="none" width="39" height="39" stroke="black" stroke-width="0.1"/>
<text x="-37" y="46" clip-path="url(#clipPath1)" fill="black" stroke="none" stroke-width="0.1" xml:space="preserve">Invalid view - remove from diagram.</text>
<rect x="23" y="23" clip-path="url(#clipPath1)" fill="rgb(255,203,203)" width="40" height="40" stroke="none" stroke-width="0.1"/>
<rect x="23" y="23" clip-path="url(#clipPath1)" fill="none" width="39" height="39" stroke="black" stroke-width="0.1"/>
<text x="-37" y="46" clip-path="url(#clipPath1)" fill="black" stroke="none" stroke-width="0.1" xml:space="preserve">Invalid view - remove from diagram.</text>
<rect x="23" y="23" clip-path="url(#clipPath1)" fill="rgb(255,203,203)" width="40" height="40" stroke="none" stroke-width="0.1"/>
<rect x="23" y="23" clip-path="url(#clipPath1)" fill="none" width="39" height="39" stroke="black" stroke-width="0.1"/>
<text x="-37" y="46" clip-path="url(#clipPath1)" fill="black" stroke="none" stroke-width="0.1" xml:space="preserve">Invalid view - remove from diagram.</text>
<rect x="23" y="23" clip-path="url(#clipPath1)" fill="rgb(255,203,203)" width="40" height="40" stroke="none" stroke-width="0.1"/>
<rect x="23" y="23" clip-path="url(#clipPath1)" fill="none" width="39" height="39" stroke="black" stroke-width="0.1"/>
<text x="-37" y="46" clip-path="url(#clipPath1)" fill="black" stroke="none" stroke-width="0.1" xml:space="preserve">Invalid view - remove from diagram.</text>
<text x="1564" y="175" clip-path="url(#clipPath6)" stroke="none" stroke-width="0.1" xml:space="preserve">Invalid view - remove from diagram.</text>
<line clip-path="url(#clipPath3)" fill="none" x1="1459" x2="1190" y1="93" y2="168"/>
<line clip-path="url(#clipPath3)" fill="none" x1="1190" x2="1178" y1="168" y2="241"/>
<line clip-path="url(#clipPath3)" fill="none" x1="1178" x2="1239" y1="241" y2="327"/>
<rect x="23" y="23" clip-path="url(#clipPath1)" fill="rgb(255,203,203)" width="40" height="40" stroke="none"/>
<rect x="23" y="23" clip-path="url(#clipPath1)" fill="none" width="39" height="39" stroke="black" stroke-width="0.1"/>
<text x="-37" y="46" clip-path="url(#clipPath1)" fill="black" stroke="none" stroke-width="0.1" xml:space="preserve">Invalid view - remove from diagram.</text>
<rect x="23" y="23" clip-path="url(#clipPath1)" fill="rgb(255,203,203)" width="40" height="40" stroke="none" stroke-width="0.1"/>
<rect x="23" y="23" clip-path="url(#clipPath1)" fill="none" width="39" height="39" stroke="black" stroke-width="0.1"/>
<text x="-37" y="46" clip-path="url(#clipPath1)" fill="black" stroke="none" stroke-width="0.1" xml:space="preserve">Invalid view - remove from diagram.</text>
<rect x="23" y="23" clip-path="url(#clipPath1)" fill="rgb(255,203,203)" width="40" height="40" stroke="none" stroke-width="0.1"/>
<rect x="23" y="23" clip-path="url(#clipPath1)" fill="none" width="39" height="39" stroke="black" stroke-width="0.1"/>
<text x="-37" y="46" clip-path="url(#clipPath1)" fill="black" stroke="none" stroke-width="0.1" xml:space="preserve">Invalid view - remove from diagram.</text>
<rect x="23" y="23" clip-path="url(#clipPath1)" fill="rgb(255,203,203)" width="40" height="40" stroke="none" stroke-width="0.1"/>
<rect x="23" y="23" clip-path="url(#clipPath1)" fill="none" width="39" height="39" stroke="black" stroke-width="0.1"/>
<text x="-37" y="46" clip-path="url(#clipPath1)" fill="black" stroke="none" stroke-width="0.1" xml:space="preserve">Invalid view - remove from diagram.</text>
<rect x="23" y="23" clip-path="url(#clipPath1)" fill="rgb(255,203,203)" width="40" height="40" stroke="none" stroke-width="0.1"/>
<rect x="23" y="23" clip-path="url(#clipPath1)" fill="none" width="39" height="39" stroke="black" stroke-width="0.1"/>
<text x="-37" y="46" clip-path="url(#clipPath1)" fill="black" stroke="none" stroke-width="0.1" xml:space="preserve">Invalid view - remove from diagram.</text>
<rect x="23" y="23" clip-path="url(#clipPath1)" fill="rgb(255,203,203)" width="40" height="40" stroke="none" stroke-width="0.1"/>
<rect x="23" y="23" clip-path="url(#clipPath1)" fill="none" width="39" height="39" stroke="black" stroke-width="0.1"/>
<text x="-37" y="46" clip-path="url(#clipPath1)" fill="black" stroke="none" stroke-width="0.1" xml:space="preserve">Invalid view - remove from diagram.</text>
<text x="1159" y="159" clip-path="url(#clipPath7)" stroke="none" stroke-width="0.1" xml:space="preserve">Invalid view - remove from diagram.</text>
<line clip-path="url(#clipPath3)" fill="none" x1="1259" x2="1238" y1="363" y2="593"/>
<rect x="23" y="23" clip-path="url(#clipPath1)" fill="rgb(255,203,203)" width="40" height="40" stroke="none"/>
<rect x="23" y="23" clip-path="url(#clipPath1)" fill="none" width="39" height="39" stroke="black" stroke-width="0.1"/>
<text x="-37" y="46" clip-path="url(#clipPath1)" fill="black" stroke="none" stroke-width="0.1" xml:space="preserve">Invalid view - remove from diagram.</text>
<rect x="23" y="23" clip-path="url(#clipPath1)" fill="rgb(255,203,203)" width="40" height="40" stroke="none" stroke-width="0.1"/>
<rect x="23" y="23" clip-path="url(#clipPath1)" fill="none" width="39" height="39" stroke="black" stroke-width="0.1"/>
<text x="-37" y="46" clip-path="url(#clipPath1)" fill="black" stroke="none" stroke-width="0.1" xml:space="preserve">Invalid view - remove from diagram.</text>
<rect x="23" y="23" clip-path="url(#clipPath1)" fill="rgb(255,203,203)" width="40" height="40" stroke="none" stroke-width="0.1"/>
<rect x="23" y="23" clip-path="url(#clipPath1)" fill="none" width="39" height="39" stroke="black" stroke-width="0.1"/>
<text x="-37" y="46" clip-path="url(#clipPath1)" fill="black" stroke="none" stroke-width="0.1" xml:space="preserve">Invalid view - remove from diagram.</text>
<rect x="23" y="23" clip-path="url(#clipPath1)" fill="rgb(255,203,203)" width="40" height="40" stroke="none" stroke-width="0.1"/>
<rect x="23" y="23" clip-path="url(#clipPath1)" fill="none" width="39" height="39" stroke="black" stroke-width="0.1"/>
<text x="-37" y="46" clip-path="url(#clipPath1)" fill="black" stroke="none" stroke-width="0.1" xml:space="preserve">Invalid view - remove from diagram.</text>
<rect x="23" y="23" clip-path="url(#clipPath1)" fill="rgb(255,203,203)" width="40" height="40" stroke="none" stroke-width="0.1"/>
<rect x="23" y="23" clip-path="url(#clipPath1)" fill="none" width="39" height="39" stroke="black" stroke-width="0.1"/>
<text x="-37" y="46" clip-path="url(#clipPath1)" fill="black" stroke="none" stroke-width="0.1" xml:space="preserve">Invalid view - remove from diagram.</text>
<rect x="23" y="23" clip-path="url(#clipPath1)" fill="rgb(255,203,203)" width="40" height="40" stroke="none" stroke-width="0.1"/>
<rect x="23" y="23" clip-path="url(#clipPath1)" fill="none" width="39" height="39" stroke="black" stroke-width="0.1"/>
<text x="-37" y="46" clip-path="url(#clipPath1)" fill="black" stroke="none" stroke-width="0.1" xml:space="preserve">Invalid view - remove from diagram.</text>
<text x="1169" y="483" clip-path="url(#clipPath8)" stroke="none" stroke-width="0.1" xml:space="preserve">Invalid view - remove from diagram.</text>
<line clip-path="url(#clipPath3)" fill="none" x1="2156" x2="2094" y1="93" y2="206"/>
<line clip-path="url(#clipPath3)" fill="none" x1="2094" x2="2099" y1="206" y2="258"/>
<line clip-path="url(#clipPath3)" fill="none" x1="2099" x2="2175" y1="258" y2="323"/>
<rect x="23" y="23" clip-path="url(#clipPath1)" fill="rgb(255,203,203)" width="40" height="40" stroke="none"/>
<rect x="23" y="23" clip-path="url(#clipPath1)" fill="none" width="39" height="39" stroke="black" stroke-width="0.1"/>
<text x="-37" y="46" clip-path="url(#clipPath1)" fill="black" stroke="none" stroke-width="0.1" xml:space="preserve">Invalid view - remove from diagram.</text>
<rect x="23" y="23" clip-path="url(#clipPath1)" fill="rgb(255,203,203)" width="40" height="40" stroke="none" stroke-width="0.1"/>
<rect x="23" y="23" clip-path="url(#clipPath1)" fill="none" width="39" height="39" stroke="black" stroke-width="0.1"/>
<text x="-37" y="46" clip-path="url(#clipPath1)" fill="black" stroke="none" stroke-width="0.1" xml:space="preserve">Invalid view - remove from diagram.</text>
<rect x="23" y="23" clip-path="url(#clipPath1)" fill="rgb(255,203,203)" width="40" height="40" stroke="none" stroke-width="0.1"/>
<rect x="23" y="23" clip-path="url(#clipPath1)" fill="none" width="39" height="39" stroke="black" stroke-width="0.1"/>
<text x="-37" y="46" clip-path="url(#clipPath1)" fill="black" stroke="none" stroke-width="0.1" xml:space="preserve">Invalid view - remove from diagram.</text>
<rect x="23" y="23" clip-path="url(#clipPath1)" fill="rgb(255,203,203)" width="40" height="40" stroke="none" stroke-width="0.1"/>
<rect x="23" y="23" clip-path="url(#clipPath1)" fill="none" width="39" height="39" stroke="black" stroke-width="0.1"/>
<text x="-37" y="46" clip-path="url(#clipPath1)" fill="black" stroke="none" stroke-width="0.1" xml:space="preserve">Invalid view - remove from diagram.</text>
<rect x="23" y="23" clip-path="url(#clipPath1)" fill="rgb(255,203,203)" width="40" height="40" stroke="none" stroke-width="0.1"/>
<rect x="23" y="23" clip-path="url(#clipPath1)" fill="none" width="39" height="39" stroke="black" stroke-width="0.1"/>
<text x="-37" y="46" clip-path="url(#clipPath1)" fill="black" stroke="none" stroke-width="0.1" xml:space="preserve">Invalid view - remove from diagram.</text>
<rect x="23" y="23" clip-path="url(#clipPath1)" fill="rgb(255,203,203)" width="40" height="40" stroke="none" stroke-width="0.1"/>
<rect x="23" y="23" clip-path="url(#clipPath1)" fill="none" width="39" height="39" stroke="black" stroke-width="0.1"/>
<text x="-37" y="46" clip-path="url(#clipPath1)" fill="black" stroke="none" stroke-width="0.1" xml:space="preserve">Invalid view - remove from diagram.</text>
<text x="2016" y="222" clip-path="url(#clipPath9)" stroke="none" stroke-width="0.1" xml:space="preserve">Invalid view - remove from diagram.</text>
<line clip-path="url(#clipPath3)" fill="none" x1="2166" x2="2241" y1="93" y2="206"/>
<line clip-path="url(#clipPath3)" fill="none" x1="2241" x2="2251" y1="206" y2="258"/>
<line clip-path="url(#clipPath3)" fill="none" x1="2251" x2="2188" y1="258" y2="323"/>
<rect x="23" y="23" clip-path="url(#clipPath1)" fill="rgb(255,203,203)" width="40" height="40" stroke="none"/>
<rect x="23" y="23" clip-path="url(#clipPath1)" fill="none" width="39" height="39" stroke="black" stroke-width="0.1"/>
<text x="-37" y="46" clip-path="url(#clipPath1)" fill="black" stroke="none" stroke-width="0.1" xml:space="preserve">Invalid view - remove from diagram.</text>
<rect x="23" y="23" clip-path="url(#clipPath1)" fill="rgb(255,203,203)" width="40" height="40" stroke="none" stroke-width="0.1"/>
<rect x="23" y="23" clip-path="url(#clipPath1)" fill="none" width="39" height="39" stroke="black" stroke-width="0.1"/>
<text x="-37" y="46" clip-path="url(#clipPath1)" fill="black" stroke="none" stroke-width="0.1" xml:space="preserve">Invalid view - remove from diagram.</text>
<rect x="23" y="23" clip-path="url(#clipPath1)" fill="rgb(255,203,203)" width="40" height="40" stroke="none" stroke-width="0.1"/>
<rect x="23" y="23" clip-path="url(#clipPath1)" fill="none" width="39" height="39" stroke="black" stroke-width="0.1"/>
<text x="-37" y="46" clip-path="url(#clipPath1)" fill="black" stroke="none" stroke-width="0.1" xml:space="preserve">Invalid view - remove from diagram.</text>
<rect x="23" y="23" clip-path="url(#clipPath1)" fill="rgb(255,203,203)" width="40" height="40" stroke="none" stroke-width="0.1"/>
<rect x="23" y="23" clip-path="url(#clipPath1)" fill="none" width="39" height="39" stroke="black" stroke-width="0.1"/>
<text x="-37" y="46" clip-path="url(#clipPath1)" fill="black" stroke="none" stroke-width="0.1" xml:space="preserve">Invalid view - remove from diagram.</text>
<rect x="23" y="23" clip-path="url(#clipPath1)" fill="rgb(255,203,203)" width="40" height="40" stroke="none" stroke-width="0.1"/>
<rect x="23" y="23" clip-path="url(#clipPath1)" fill="none" width="39" height="39" stroke="black" stroke-width="0.1"/>
<text x="-37" y="46" clip-path="url(#clipPath1)" fill="black" stroke="none" stroke-width="0.1" xml:space="preserve">Invalid view - remove from diagram.</text>
<rect x="23" y="23" clip-path="url(#clipPath1)" fill="rgb(255,203,203)" width="40" height="40" stroke="none" stroke-width="0.1"/>
<rect x="23" y="23" clip-path="url(#clipPath1)" fill="none" width="39" height="39" stroke="black" stroke-width="0.1"/>
<text x="-37" y="46" clip-path="url(#clipPath1)" fill="black" stroke="none" stroke-width="0.1" xml:space="preserve">Invalid view - remove from diagram.</text>
<text x="2163" y="214" clip-path="url(#clipPath10)" stroke="none" stroke-width="0.1" xml:space="preserve">Invalid view - remove from diagram.</text>
<line clip-path="url(#clipPath3)" fill="none" x1="227" x2="73" y1="93" y2="213"/>
<text xml:space="preserve" x="71" y="157" clip-path="url(#clipPath11)" stroke="none">Invalid view - remove from diagram.</text>
<line clip-path="url(#clipPath3)" fill="none" x1="408" x2="419" y1="93" y2="213"/>
<text xml:space="preserve" x="335" y="158" clip-path="url(#clipPath12)" stroke="none">Invalid view - remove from diagram.</text>
<line clip-path="url(#clipPath3)" fill="none" x1="590" x2="590" y1="93" y2="213"/>
<text xml:space="preserve" x="511" y="157" clip-path="url(#clipPath13)" stroke="none">Invalid view - remove from diagram.</text>
<line clip-path="url(#clipPath3)" fill="none" x1="750" x2="788" y1="93" y2="213"/>
<text xml:space="preserve" x="690" y="157" clip-path="url(#clipPath14)" stroke="none">Invalid view - remove from diagram.</text>
<line clip-path="url(#clipPath3)" fill="none" x1="985" x2="999" y1="93" y2="213"/>
<text xml:space="preserve" x="913" y="157" clip-path="url(#clipPath15)" stroke="none">Invalid view - remove from diagram.</text>
<line clip-path="url(#clipPath3)" fill="none" x1="1490" x2="1863" y1="90" y2="221"/>
<text xml:space="preserve" x="1598" y="160" clip-path="url(#clipPath16)" stroke="none">Invalid view - remove from diagram.</text>
<line clip-path="url(#clipPath3)" fill="none" x1="2427" x2="2444" y1="93" y2="213"/>
<text xml:space="preserve" x="2357" y="157" clip-path="url(#clipPath17)" stroke="none">Invalid view - remove from diagram.</text>
<line clip-path="url(#clipPath3)" fill="none" x1="1238" x2="1259" y1="633" y2="753"/>
<text xml:space="preserve" x="1170" y="697" clip-path="url(#clipPath18)" stroke="none">Invalid view - remove from diagram.</text>
<line clip-path="url(#clipPath3)" fill="none" x1="2624" x2="2640" y1="93" y2="213"/>
<text xml:space="preserve" x="2553" y="157" clip-path="url(#clipPath19)" stroke="none">Invalid view - remove from diagram.</text>
<line clip-path="url(#clipPath3)" fill="none" x1="2819" x2="2840" y1="93" y2="213"/>
<text xml:space="preserve" x="2751" y="157" clip-path="url(#clipPath20)" stroke="none">Invalid view - remove from diagram.</text>
<line clip-path="url(#clipPath3)" fill="none" x1="3023" x2="3038" y1="93" y2="213"/>
<text xml:space="preserve" x="2952" y="158" clip-path="url(#clipPath21)" stroke="none">Invalid view - remove from diagram.</text>
<line clip-path="url(#clipPath3)" fill="none" x1="3214" x2="3235" y1="93" y2="213"/>
<text xml:space="preserve" x="3146" y="157" clip-path="url(#clipPath22)" stroke="none">Invalid view - remove from diagram.</text>
<line clip-path="url(#clipPath3)" fill="none" x1="2182" x2="2182" y1="363" y2="483"/>
<text xml:space="preserve" x="2103" y="427" clip-path="url(#clipPath23)" stroke="none">Invalid view - remove from diagram.</text>
</g>
</g>
</svg>
