<?xml version="1.0" encoding="UTF-8"?><svg xmlns="http://www.w3.org/2000/svg" xmlns:xlink="http://www.w3.org/1999/xlink" stroke-dasharray="none" shape-rendering="auto" font-family="'Dialog'" width="245" text-rendering="auto" fill-opacity="1" contentScriptType="text/ecmascript" color-interpolation="auto" color-rendering="auto" preserveAspectRatio="xMidYMid meet" font-size="12" viewBox="0 0 245 278" fill="black" stroke="black" image-rendering="auto" stroke-miterlimit="10" zoomAndPan="magnify" version="1.0" stroke-linecap="square" stroke-linejoin="miter" contentStyleType="text/css" font-style="normal" height="278" stroke-width="1" stroke-dashoffset="0" font-weight="normal" stroke-opacity="1">
<!--Generated by the Batik Graphics2D SVG Generator-->
<defs id="genericDefs"/>
<g>
<defs id="defs1">
<linearGradient x1="135" x2="135" y1="168" gradientUnits="userSpaceOnUse" y2="268" xlink:type="simple" xlink:actuate="onLoad" id="linearGradient1" xlink:show="other" spreadMethod="pad">
<stop stop-opacity="1" stop-color="white" offset="0%"/>
<stop stop-opacity="1" stop-color="rgb(195,209,213)" offset="100%"/>
</linearGradient>
<linearGradient x1="10" x2="10" y1="10" gradientUnits="userSpaceOnUse" y2="60" xlink:type="simple" xlink:actuate="onLoad" id="linearGradient2" xlink:show="other" spreadMethod="pad">
<stop stop-opacity="1" stop-color="white" offset="0%"/>
<stop stop-opacity="1" stop-color="rgb(195,215,221)" offset="100%"/>
</linearGradient>
<clipPath clipPathUnits="userSpaceOnUse" id="clipPath1">
<path d="M135 168 L135 267 L234 267 L234 168 Z"/>
</clipPath>
<clipPath clipPathUnits="userSpaceOnUse" id="clipPath2">
<path d="M154 170 L217 170 L217 183 L154 183 L154 170 Z"/>
</clipPath>
<clipPath clipPathUnits="userSpaceOnUse" id="clipPath3">
<path d="M149 182 L222 182 L222 195 L149 195 L149 182 Z"/>
</clipPath>
<clipPath clipPathUnits="userSpaceOnUse" id="clipPath4">
<path d="M135 194 L236 194 L236 232 L135 232 L135 194 Z"/>
</clipPath>
<clipPath clipPathUnits="userSpaceOnUse" id="clipPath5">
<path d="M135 231 L236 231 L236 269 L135 269 L135 231 Z"/>
</clipPath>
<clipPath clipPathUnits="userSpaceOnUse" id="clipPath6">
<path d="M134 167 L236 167 L236 269 L134 269 L134 167 Z"/>
</clipPath>
<clipPath clipPathUnits="userSpaceOnUse" id="clipPath7">
<path d="M10 10 L10 59 L109 59 L109 10 Z"/>
</clipPath>
<clipPath clipPathUnits="userSpaceOnUse" id="clipPath8">
<path d="M31 23 L90 23 L90 36 L31 36 L31 23 Z"/>
</clipPath>
<clipPath clipPathUnits="userSpaceOnUse" id="clipPath9">
<path d="M48 35 L74 35 L74 48 L48 48 L48 35 Z"/>
</clipPath>
<clipPath clipPathUnits="userSpaceOnUse" id="clipPath10">
<path d="M9 9 L111 9 L111 61 L9 61 L9 9 Z"/>
</clipPath>
<clipPath clipPathUnits="userSpaceOnUse" id="clipPath11">
<path d="M-1 -1 L246 -1 L246 279 L-1 279 L-1 -1 Z"/>
</clipPath>
<clipPath clipPathUnits="userSpaceOnUse" id="clipPath12">
<path d="M75 59 L91 59 L91 77 L75 77 L75 59 Z"/>
</clipPath>
</defs>
<g font-size="11" fill="url(#linearGradient1)" stroke-linejoin="round" stroke="url(#linearGradient1)" stroke-width="0" stroke-miterlimit="0">
<rect x="135" y="168" clip-path="url(#clipPath1)" width="100" height="100" stroke="none"/>
<text x="155" font-size="9" y="180" clip-path="url(#clipPath2)" fill="black" stroke="none" xml:space="preserve">«Stereotype»</text>
<text x="150" font-size="9" y="192" clip-path="url(#clipPath3)" fill="black" stroke="none" xml:space="preserve">ConstraintBlock</text>
</g>
<g font-size="11" stroke-width="1.1" stroke-linecap="butt">
<line clip-path="url(#clipPath4)" fill="none" x1="135" x2="235" y1="195" y2="195"/>
<line clip-path="url(#clipPath5)" fill="none" x1="135" x2="235" y1="232" y2="232"/>
<rect x="135" y="168" clip-path="url(#clipPath6)" fill="none" width="99" rx="0" ry="0" height="99"/>
<rect x="10" y="10" clip-path="url(#clipPath7)" fill="url(#linearGradient2)" width="100" height="50" stroke="none"/>
<text x="32" font-size="9" y="33" clip-path="url(#clipPath8)" stroke="none" xml:space="preserve">«Metaclass»</text>
<text x="49" font-size="9" y="45" clip-path="url(#clipPath9)" stroke="none" xml:space="preserve">Class</text>
<rect x="10" y="10" clip-path="url(#clipPath10)" fill="none" width="99" rx="0" ry="0" height="49"/>
<line clip-path="url(#clipPath11)" fill="none" text-rendering="optimizeLegibility" x1="150" x2="76" y1="168" y2="60"/>
<polygon text-rendering="optimizeLegibility" clip-path="url(#clipPath12)" points=" 76 60 89 70 80 75" stroke="none"/>
<polygon fill="none" text-rendering="optimizeLegibility" clip-path="url(#clipPath12)" points=" 76 60 89 70 80 75"/>
</g>
</g>
</svg>
