<?xml version="1.0" encoding="UTF-8"?><svg xmlns="http://www.w3.org/2000/svg" xmlns:xlink="http://www.w3.org/1999/xlink" stroke-dasharray="none" shape-rendering="auto" font-family="'Dialog'" width="495" text-rendering="auto" fill-opacity="1" contentScriptType="text/ecmascript" color-interpolation="auto" color-rendering="auto" preserveAspectRatio="xMidYMid meet" font-size="12" viewBox="0 0 495 317" fill="black" stroke="black" image-rendering="auto" stroke-miterlimit="10" zoomAndPan="magnify" version="1.0" stroke-linecap="square" stroke-linejoin="miter" contentStyleType="text/css" font-style="normal" height="317" stroke-width="1" stroke-dashoffset="0" font-weight="normal" stroke-opacity="1">
<!--Generated by the Batik Graphics2D SVG Generator-->
<defs id="genericDefs"/>
<g>
<defs id="defs1">
<clipPath clipPathUnits="userSpaceOnUse" id="clipPath1">
<path d="M22 22 L64 22 L64 64 L22 64 L22 22 Z"/>
</clipPath>
<clipPath clipPathUnits="userSpaceOnUse" id="clipPath2">
<path d="M171 189 L331 189 L331 202 L171 202 L171 189 Z"/>
</clipPath>
</defs>
<g font-size="9" fill="rgb(255,203,203)" stroke-linejoin="round" stroke="rgb(255,203,203)" stroke-width="0" stroke-miterlimit="0">
<rect width="448" x="37" height="72" y="84" stroke="none"/>
</g>
<g stroke-linecap="butt" font-size="9">
<rect fill="none" width="447" x="37" height="71" y="84"/>
<text xml:space="preserve" x="181" y="123" stroke="none">Invalid view - remove from diagram.</text>
<rect x="37" y="235" fill="rgb(255,203,203)" width="448" height="72" stroke="none"/>
<rect x="37" y="235" fill="none" width="447" height="71" stroke-width="0.1"/>
<text xml:space="preserve" x="181" stroke-width="0.1" y="274" stroke="none">Invalid view - remove from diagram.</text>
<rect x="41" y="40" fill="rgb(255,203,203)" width="40" height="40" stroke="none" stroke-width="0.1"/>
<rect x="41" y="40" fill="none" width="39" height="39" stroke-width="0.1"/>
<text xml:space="preserve" x="-19" stroke-width="0.1" y="63" stroke="none">Invalid view - remove from diagram.</text>
<line fill="none" x1="251" x2="251" y1="235" y2="156" stroke="red" stroke-width="1.1"/>
<rect x="23" y="23" clip-path="url(#clipPath1)" fill="rgb(255,203,203)" width="40" height="40" stroke="none" stroke-width="1.1"/>
<rect x="23" y="23" clip-path="url(#clipPath1)" fill="none" width="39" height="39" stroke-width="0.1"/>
<text x="-37" y="46" clip-path="url(#clipPath1)" stroke="none" stroke-width="0.1" xml:space="preserve">Invalid view - remove from diagram.</text>
<rect x="23" y="23" clip-path="url(#clipPath1)" fill="rgb(255,203,203)" width="40" height="40" stroke="none" stroke-width="0.1"/>
<rect x="23" y="23" clip-path="url(#clipPath1)" fill="none" width="39" height="39" stroke-width="0.1"/>
<text x="-37" y="46" clip-path="url(#clipPath1)" stroke="none" stroke-width="0.1" xml:space="preserve">Invalid view - remove from diagram.</text>
<text x="172" y="199" clip-path="url(#clipPath2)" fill="red" stroke="none" stroke-width="0.1" xml:space="preserve">Invalid view - remove from diagram.</text>
</g>
</g>
</svg>
