<?xml version="1.0" encoding="UTF-8"?><svg xmlns="http://www.w3.org/2000/svg" xmlns:xlink="http://www.w3.org/1999/xlink" stroke-dasharray="none" shape-rendering="auto" font-family="'Dialog'" width="892" text-rendering="auto" fill-opacity="1" contentScriptType="text/ecmascript" color-interpolation="auto" color-rendering="auto" preserveAspectRatio="xMidYMid meet" font-size="12" viewBox="0 0 892 411" fill="black" stroke="black" image-rendering="auto" stroke-miterlimit="10" zoomAndPan="magnify" version="1.0" stroke-linecap="square" stroke-linejoin="miter" contentStyleType="text/css" font-style="normal" height="411" stroke-width="1" stroke-dashoffset="0" font-weight="normal" stroke-opacity="1">
<!--Generated by the Batik Graphics2D SVG Generator-->
<defs id="genericDefs"/>
<g>
<defs id="defs1">
<clipPath clipPathUnits="userSpaceOnUse" id="clipPath1">
<path d="M22 75 L182 75 L182 88 L22 88 L22 75 Z"/>
</clipPath>
<clipPath clipPathUnits="userSpaceOnUse" id="clipPath2">
<path d="M-1 -1 L893 -1 L893 412 L-1 412 L-1 -1 Z"/>
</clipPath>
</defs>
<g font-size="9" fill="rgb(255,203,203)" stroke-linejoin="round" stroke="rgb(255,203,203)" stroke-width="0" stroke-miterlimit="0">
<rect width="760" x="122" height="321" y="80" stroke="none"/>
</g>
<g stroke-linecap="butt" font-size="9">
<rect fill="none" width="759" x="122" height="320" y="80"/>
<text xml:space="preserve" x="422" y="244" stroke="none">Invalid view - remove from diagram.</text>
<rect x="120" y="10" fill="rgb(255,203,203)" width="40" height="60" stroke="none"/>
<rect x="120" y="10" fill="none" width="39" height="59" stroke-width="0.1"/>
<text xml:space="preserve" x="60" stroke-width="0.1" y="43" stroke="none">Invalid view - remove from diagram.</text>
<line fill="none" x1="122" x2="102" y1="80" y2="60" stroke="red" stroke-width="1.1"/>
<line fill="none" x1="102" x2="102" y1="60" y2="101" stroke="red" stroke-width="1.1"/>
<line fill="none" x1="102" x2="122" y1="101" y2="80" stroke="red" stroke-width="1.1"/>
<text x="23" y="85" clip-path="url(#clipPath1)" fill="red" stroke="none" stroke-width="1.1" xml:space="preserve">Invalid view - remove from diagram.</text>
<line clip-path="url(#clipPath2)" fill="none" x1="122" x2="102" y1="80" y2="60" stroke="red" stroke-width="1.1"/>
<line clip-path="url(#clipPath2)" fill="none" x1="102" x2="102" y1="60" y2="101" stroke="red" stroke-width="1.1"/>
<line clip-path="url(#clipPath2)" fill="none" x1="102" x2="122" y1="101" y2="80" stroke="red" stroke-width="1.1"/>
<text x="23" y="85" clip-path="url(#clipPath1)" fill="red" stroke="none" stroke-width="1.1" xml:space="preserve">Invalid view - remove from diagram.</text>
<line clip-path="url(#clipPath2)" fill="none" x1="122" x2="102" y1="80" y2="60" stroke="red" stroke-width="1.1"/>
<line clip-path="url(#clipPath2)" fill="none" x1="102" x2="102" y1="60" y2="101" stroke="red" stroke-width="1.1"/>
<line clip-path="url(#clipPath2)" fill="none" x1="102" x2="122" y1="101" y2="80" stroke="red" stroke-width="1.1"/>
<text x="23" y="85" clip-path="url(#clipPath1)" fill="red" stroke="none" stroke-width="1.1" xml:space="preserve">Invalid view - remove from diagram.</text>
<line clip-path="url(#clipPath2)" fill="none" x1="122" x2="102" y1="80" y2="60" stroke="red" stroke-width="1.1"/>
<line clip-path="url(#clipPath2)" fill="none" x1="102" x2="102" y1="60" y2="101" stroke="red" stroke-width="1.1"/>
<line clip-path="url(#clipPath2)" fill="none" x1="102" x2="122" y1="101" y2="80" stroke="red" stroke-width="1.1"/>
<text x="23" y="85" clip-path="url(#clipPath1)" fill="red" stroke="none" stroke-width="1.1" xml:space="preserve">Invalid view - remove from diagram.</text>
</g>
</g>
</svg>
