<?xml version="1.0" encoding="UTF-8"?><svg xmlns="http://www.w3.org/2000/svg" xmlns:xlink="http://www.w3.org/1999/xlink" stroke-dasharray="none" shape-rendering="auto" font-family="'Dialog'" width="835" text-rendering="auto" fill-opacity="1" contentScriptType="text/ecmascript" color-interpolation="auto" color-rendering="auto" preserveAspectRatio="xMidYMid meet" font-size="12" viewBox="0 0 835 457" fill="black" stroke="black" image-rendering="auto" stroke-miterlimit="10" zoomAndPan="magnify" version="1.0" stroke-linecap="square" stroke-linejoin="miter" contentStyleType="text/css" font-style="normal" height="457" stroke-width="1" stroke-dashoffset="0" font-weight="normal" stroke-opacity="1">
<!--Generated by the Batik Graphics2D SVG Generator-->
<defs id="genericDefs"/>
<g>
<defs id="defs1">
<clipPath clipPathUnits="userSpaceOnUse" id="clipPath1">
<path d="M22 22 L64 22 L64 64 L22 64 L22 22 Z"/>
</clipPath>
<clipPath clipPathUnits="userSpaceOnUse" id="clipPath2">
<path d="M69 222 L229 222 L229 235 L69 235 L69 222 Z"/>
</clipPath>
<clipPath clipPathUnits="userSpaceOnUse" id="clipPath3">
<path d="M-1 -1 L836 -1 L836 458 L-1 458 L-1 -1 Z"/>
</clipPath>
<clipPath clipPathUnits="userSpaceOnUse" id="clipPath4">
<path d="M69 343 L229 343 L229 356 L69 356 L69 343 Z"/>
</clipPath>
<clipPath clipPathUnits="userSpaceOnUse" id="clipPath5">
<path d="M358 287 L518 287 L518 300 L358 300 L358 287 Z"/>
</clipPath>
</defs>
<g font-size="9" fill="rgb(255,203,203)" stroke-linejoin="round" stroke="rgb(255,203,203)" stroke-width="0" stroke-miterlimit="0">
<rect width="334" x="50" height="73" y="131" stroke="none"/>
</g>
<g stroke-linecap="butt" font-size="9">
<rect fill="none" width="333" x="50" height="72" y="131"/>
<text xml:space="preserve" x="137" y="171" stroke="none">Invalid view - remove from diagram.</text>
<rect x="50" y="252" fill="rgb(255,203,203)" width="334" height="73" stroke="none"/>
<rect x="50" y="252" fill="none" width="333" height="72" stroke-width="0.1"/>
<text xml:space="preserve" x="137" stroke-width="0.1" y="292" stroke="none">Invalid view - remove from diagram.</text>
<rect x="50" y="374" fill="rgb(255,203,203)" width="334" height="73" stroke="none" stroke-width="0.1"/>
<rect x="50" y="374" fill="none" width="333" height="72" stroke-width="0.1"/>
<text xml:space="preserve" x="137" stroke-width="0.1" y="414" stroke="none">Invalid view - remove from diagram.</text>
<rect x="50" y="41" fill="rgb(255,203,203)" width="523" height="73" stroke="none" stroke-width="0.1"/>
<rect x="50" y="41" fill="none" width="522" height="72" stroke-width="0.1"/>
<text xml:space="preserve" x="232" stroke-width="0.1" y="81" stroke="none">Invalid view - remove from diagram.</text>
<rect x="491" y="252" fill="rgb(255,203,203)" width="334" height="73" stroke="none" stroke-width="0.1"/>
<rect x="491" y="252" fill="none" width="333" height="72" stroke-width="0.1"/>
<text xml:space="preserve" x="578" stroke-width="0.1" y="292" stroke="none">Invalid view - remove from diagram.</text>
<line fill="none" x1="149" x2="149" y1="252" y2="204" stroke="red" stroke-width="1.1"/>
<rect x="23" y="23" clip-path="url(#clipPath1)" fill="rgb(255,203,203)" width="40" height="40" stroke="none" stroke-width="1.1"/>
<rect x="23" y="23" clip-path="url(#clipPath1)" fill="none" width="39" height="39" stroke-width="0.1"/>
<text x="-37" y="46" clip-path="url(#clipPath1)" stroke="none" stroke-width="0.1" xml:space="preserve">Invalid view - remove from diagram.</text>
<text x="70" y="232" clip-path="url(#clipPath2)" fill="red" stroke="none" stroke-width="0.1" xml:space="preserve">Invalid view - remove from diagram.</text>
<line clip-path="url(#clipPath3)" fill="none" x1="149" x2="149" y1="374" y2="325" stroke="red" stroke-width="1.1"/>
<rect x="23" y="23" clip-path="url(#clipPath1)" fill="rgb(255,203,203)" width="40" height="40" stroke="none" stroke-width="1.1"/>
<rect x="23" y="23" clip-path="url(#clipPath1)" fill="none" width="39" height="39" stroke-width="0.1"/>
<text x="-37" y="46" clip-path="url(#clipPath1)" stroke="none" stroke-width="0.1" xml:space="preserve">Invalid view - remove from diagram.</text>
<text x="70" y="353" clip-path="url(#clipPath4)" fill="red" stroke="none" stroke-width="0.1" xml:space="preserve">Invalid view - remove from diagram.</text>
<line clip-path="url(#clipPath3)" fill="none" x1="491" x2="384" y1="293" y2="293" stroke="red" stroke-width="1.1"/>
<rect x="23" y="23" clip-path="url(#clipPath1)" fill="rgb(255,203,203)" width="40" height="40" stroke="none" stroke-width="1.1"/>
<rect x="23" y="23" clip-path="url(#clipPath1)" fill="none" width="39" height="39" stroke-width="0.1"/>
<text x="-37" y="46" clip-path="url(#clipPath1)" stroke="none" stroke-width="0.1" xml:space="preserve">Invalid view - remove from diagram.</text>
<text x="359" y="297" clip-path="url(#clipPath5)" fill="red" stroke="none" stroke-width="0.1" xml:space="preserve">Invalid view - remove from diagram.</text>
</g>
</g>
</svg>
