<?xml version="1.0" encoding="UTF-8"?><svg xmlns="http://www.w3.org/2000/svg" xmlns:xlink="http://www.w3.org/1999/xlink" stroke-dasharray="none" shape-rendering="auto" font-family="'Dialog'" width="1118" text-rendering="auto" fill-opacity="1" contentScriptType="text/ecmascript" color-interpolation="auto" color-rendering="auto" preserveAspectRatio="xMidYMid meet" font-size="12" viewBox="0 0 1118 254" fill="black" stroke="black" image-rendering="auto" stroke-miterlimit="10" zoomAndPan="magnify" version="1.0" stroke-linecap="square" stroke-linejoin="miter" contentStyleType="text/css" font-style="normal" height="254" stroke-width="1" stroke-dashoffset="0" font-weight="normal" stroke-opacity="1">
<!--Generated by the Batik Graphics2D SVG Generator-->
<defs id="genericDefs"/>
<g>
<defs id="defs1">
<clipPath clipPathUnits="userSpaceOnUse" id="clipPath1">
<path d="M22 22 L64 22 L64 64 L22 64 L22 22 Z"/>
</clipPath>
<clipPath clipPathUnits="userSpaceOnUse" id="clipPath2">
<path d="M142 120 L302 120 L302 133 L142 133 L142 120 Z"/>
</clipPath>
<clipPath clipPathUnits="userSpaceOnUse" id="clipPath3">
<path d="M-1 -1 L1119 -1 L1119 255 L-1 255 L-1 -1 Z"/>
</clipPath>
<clipPath clipPathUnits="userSpaceOnUse" id="clipPath4">
<path d="M583 120 L743 120 L743 133 L583 133 L583 120 Z"/>
</clipPath>
</defs>
<g font-size="9" fill="rgb(255,203,203)" stroke-linejoin="round" stroke="rgb(255,203,203)" stroke-width="0" stroke-miterlimit="0">
<rect width="422" x="21" height="40" y="32" stroke="none"/>
</g>
<g stroke-linecap="butt" font-size="9">
<rect fill="none" width="421" x="21" height="39" y="32"/>
<text xml:space="preserve" x="152" y="55" stroke="none">Invalid view - remove from diagram.</text>
<rect x="455" y="32" fill="rgb(255,203,203)" width="422" height="40" stroke="none"/>
<rect x="455" y="32" fill="none" width="421" height="39" stroke-width="0.1"/>
<text xml:space="preserve" x="586" stroke-width="0.1" y="55" stroke="none">Invalid view - remove from diagram.</text>
<rect x="21" y="180" fill="rgb(255,203,203)" width="422" height="40" stroke="none" stroke-width="0.1"/>
<rect x="21" y="180" fill="none" width="421" height="39" stroke-width="0.1"/>
<text xml:space="preserve" x="152" stroke-width="0.1" y="203" stroke="none">Invalid view - remove from diagram.</text>
<rect x="455" y="180" fill="rgb(255,203,203)" width="422" height="40" stroke="none" stroke-width="0.1"/>
<rect x="455" y="180" fill="none" width="421" height="39" stroke-width="0.1"/>
<text xml:space="preserve" x="586" stroke-width="0.1" y="203" stroke="none">Invalid view - remove from diagram.</text>
<rect x="896" y="126" fill="rgb(255,203,203)" width="212" height="118" stroke="none" stroke-width="0.1"/>
<rect x="896" y="126" fill="none" width="211" height="117" stroke-width="0.1"/>
<text xml:space="preserve" x="922" stroke-width="0.1" y="188" stroke="none">Invalid view - remove from diagram.</text>
<line fill="none" x1="222" x2="222" y1="180" y2="72" stroke="red" stroke-width="1.1"/>
<rect x="23" y="23" clip-path="url(#clipPath1)" fill="rgb(255,203,203)" width="40" height="40" stroke="none" stroke-width="1.1"/>
<rect x="23" y="23" clip-path="url(#clipPath1)" fill="none" width="39" height="39" stroke-width="0.1"/>
<text x="-37" y="46" clip-path="url(#clipPath1)" stroke="none" stroke-width="0.1" xml:space="preserve">Invalid view - remove from diagram.</text>
<rect x="23" y="23" clip-path="url(#clipPath1)" fill="rgb(255,203,203)" width="40" height="40" stroke="none" stroke-width="0.1"/>
<rect x="23" y="23" clip-path="url(#clipPath1)" fill="none" width="39" height="39" stroke-width="0.1"/>
<text x="-37" y="46" clip-path="url(#clipPath1)" stroke="none" stroke-width="0.1" xml:space="preserve">Invalid view - remove from diagram.</text>
<text x="143" y="130" clip-path="url(#clipPath2)" fill="red" stroke="none" stroke-width="0.1" xml:space="preserve">Invalid view - remove from diagram.</text>
<line clip-path="url(#clipPath3)" fill="none" x1="663" x2="663" y1="180" y2="72" stroke="red" stroke-width="1.1"/>
<rect x="23" y="23" clip-path="url(#clipPath1)" fill="rgb(255,203,203)" width="40" height="40" stroke="none" stroke-width="1.1"/>
<rect x="23" y="23" clip-path="url(#clipPath1)" fill="none" width="39" height="39" stroke-width="0.1"/>
<text x="-37" y="46" clip-path="url(#clipPath1)" stroke="none" stroke-width="0.1" xml:space="preserve">Invalid view - remove from diagram.</text>
<rect x="23" y="23" clip-path="url(#clipPath1)" fill="rgb(255,203,203)" width="40" height="40" stroke="none" stroke-width="0.1"/>
<rect x="23" y="23" clip-path="url(#clipPath1)" fill="none" width="39" height="39" stroke-width="0.1"/>
<text x="-37" y="46" clip-path="url(#clipPath1)" stroke="none" stroke-width="0.1" xml:space="preserve">Invalid view - remove from diagram.</text>
<text x="584" y="130" clip-path="url(#clipPath4)" fill="red" stroke="none" stroke-width="0.1" xml:space="preserve">Invalid view - remove from diagram.</text>
</g>
</g>
</svg>
