<?xml version="1.0" encoding="UTF-8"?><svg xmlns="http://www.w3.org/2000/svg" xmlns:xlink="http://www.w3.org/1999/xlink" stroke-dasharray="none" shape-rendering="auto" font-family="'Dialog'" width="527" text-rendering="auto" fill-opacity="1" contentScriptType="text/ecmascript" color-interpolation="auto" color-rendering="auto" preserveAspectRatio="xMidYMid meet" font-size="12" viewBox="0 0 527 404" fill="black" stroke="black" image-rendering="auto" stroke-miterlimit="10" zoomAndPan="magnify" version="1.0" stroke-linecap="square" stroke-linejoin="miter" contentStyleType="text/css" font-style="normal" height="404" stroke-width="1" stroke-dashoffset="0" font-weight="normal" stroke-opacity="1">
<!--Generated by the Batik Graphics2D SVG Generator-->
<defs id="genericDefs"/>
<g>
<defs id="defs1">
<clipPath clipPathUnits="userSpaceOnUse" id="clipPath1">
<path d="M22 22 L64 22 L64 64 L22 64 L22 22 Z"/>
</clipPath>
<clipPath clipPathUnits="userSpaceOnUse" id="clipPath2">
<path d="M116 227 L276 227 L276 240 L116 240 L116 227 Z"/>
</clipPath>
<clipPath clipPathUnits="userSpaceOnUse" id="clipPath3">
<path d="M-1 -1 L528 -1 L528 405 L-1 405 L-1 -1 Z"/>
</clipPath>
<clipPath clipPathUnits="userSpaceOnUse" id="clipPath4">
<path d="M272 226 L432 226 L432 239 L272 239 L272 226 Z"/>
</clipPath>
</defs>
<g font-size="9" fill="rgb(255,203,203)" stroke-linejoin="round" stroke="rgb(255,203,203)" stroke-width="0" stroke-miterlimit="0">
<rect width="159" x="197" height="103" y="93" stroke="none"/>
</g>
<g stroke-linecap="butt" font-size="9">
<rect fill="none" width="158" x="197" height="102" y="93"/>
<text xml:space="preserve" x="197" y="148" stroke="none">Invalid view - remove from diagram.</text>
<rect x="54" y="268" fill="rgb(255,203,203)" width="208" height="66" stroke="none"/>
<rect x="54" y="268" fill="none" width="207" height="65" stroke-width="0.1"/>
<text xml:space="preserve" x="78" stroke-width="0.1" y="304" stroke="none">Invalid view - remove from diagram.</text>
<rect x="62" y="354" fill="rgb(255,203,203)" width="295" height="40" stroke="none" stroke-width="0.1"/>
<rect x="62" y="354" fill="none" width="294" height="39" stroke-width="0.1"/>
<text xml:space="preserve" x="130" stroke-width="0.1" y="377" stroke="none">Invalid view - remove from diagram.</text>
<rect x="309" y="268" fill="rgb(255,203,203)" width="208" height="66" stroke="none" stroke-width="0.1"/>
<rect x="309" y="268" fill="none" width="207" height="65" stroke-width="0.1"/>
<text xml:space="preserve" x="333" stroke-width="0.1" y="304" stroke="none">Invalid view - remove from diagram.</text>
<line fill="none" x1="162" x2="231" y1="268" y2="196" stroke="red" stroke-width="1.1"/>
<rect x="23" y="23" clip-path="url(#clipPath1)" fill="rgb(255,203,203)" width="40" height="40" stroke="none" stroke-width="1.1"/>
<rect x="23" y="23" clip-path="url(#clipPath1)" fill="none" width="39" height="39" stroke-width="0.1"/>
<text x="-37" y="46" clip-path="url(#clipPath1)" stroke="none" stroke-width="0.1" xml:space="preserve">Invalid view - remove from diagram.</text>
<rect x="23" y="23" clip-path="url(#clipPath1)" fill="rgb(255,203,203)" width="40" height="40" stroke="none" stroke-width="0.1"/>
<rect x="23" y="23" clip-path="url(#clipPath1)" fill="none" width="39" height="39" stroke-width="0.1"/>
<text x="-37" y="46" clip-path="url(#clipPath1)" stroke="none" stroke-width="0.1" xml:space="preserve">Invalid view - remove from diagram.</text>
<text x="117" y="237" clip-path="url(#clipPath2)" fill="red" stroke="none" stroke-width="0.1" xml:space="preserve">Invalid view - remove from diagram.</text>
<line clip-path="url(#clipPath3)" fill="none" x1="384" x2="321" y1="268" y2="196" stroke="red" stroke-width="1.1"/>
<rect x="23" y="23" clip-path="url(#clipPath1)" fill="rgb(255,203,203)" width="40" height="40" stroke="none" stroke-width="1.1"/>
<rect x="23" y="23" clip-path="url(#clipPath1)" fill="none" width="39" height="39" stroke-width="0.1"/>
<text x="-37" y="46" clip-path="url(#clipPath1)" stroke="none" stroke-width="0.1" xml:space="preserve">Invalid view - remove from diagram.</text>
<rect x="23" y="23" clip-path="url(#clipPath1)" fill="rgb(255,203,203)" width="40" height="40" stroke="none" stroke-width="0.1"/>
<rect x="23" y="23" clip-path="url(#clipPath1)" fill="none" width="39" height="39" stroke-width="0.1"/>
<text x="-37" y="46" clip-path="url(#clipPath1)" stroke="none" stroke-width="0.1" xml:space="preserve">Invalid view - remove from diagram.</text>
<text x="273" y="236" clip-path="url(#clipPath4)" fill="red" stroke="none" stroke-width="0.1" xml:space="preserve">Invalid view - remove from diagram.</text>
</g>
</g>
</svg>
