<?xml version="1.0" encoding="UTF-8"?><svg xmlns="http://www.w3.org/2000/svg" xmlns:xlink="http://www.w3.org/1999/xlink" stroke-dasharray="none" shape-rendering="auto" font-family="'Dialog'" width="1032" text-rendering="auto" fill-opacity="1" contentScriptType="text/ecmascript" color-interpolation="auto" color-rendering="auto" preserveAspectRatio="xMidYMid meet" font-size="12" viewBox="0 0 1032 457" fill="black" stroke="black" image-rendering="auto" stroke-miterlimit="10" zoomAndPan="magnify" version="1.0" stroke-linecap="square" stroke-linejoin="miter" contentStyleType="text/css" font-style="normal" height="457" stroke-width="1" stroke-dashoffset="0" font-weight="normal" stroke-opacity="1">
<!--Generated by the Batik Graphics2D SVG Generator-->
<defs id="genericDefs"/>
<g>
<defs id="defs1">
<clipPath clipPathUnits="userSpaceOnUse" id="clipPath1">
<path d="M426 152 L586 152 L586 165 L426 165 L426 152 Z"/>
</clipPath>
<clipPath clipPathUnits="userSpaceOnUse" id="clipPath2">
<path d="M-1 -1 L1033 -1 L1033 458 L-1 458 L-1 -1 Z"/>
</clipPath>
<clipPath clipPathUnits="userSpaceOnUse" id="clipPath3">
<path d="M573 295 L733 295 L733 308 L573 308 L573 295 Z"/>
</clipPath>
<clipPath clipPathUnits="userSpaceOnUse" id="clipPath4">
<path d="M678 295 L838 295 L838 308 L678 308 L678 295 Z"/>
</clipPath>
<clipPath clipPathUnits="userSpaceOnUse" id="clipPath5">
<path d="M794 295 L954 295 L954 308 L794 308 L794 295 Z"/>
</clipPath>
</defs>
<g font-size="9" fill="rgb(255,203,203)" stroke-linejoin="round" stroke="rgb(255,203,203)" stroke-width="0" stroke-miterlimit="0">
<rect width="286" x="123" height="156" y="88" stroke="none"/>
</g>
<g stroke-linecap="butt" font-size="9">
<rect fill="none" width="285" x="123" height="155" y="88"/>
<text xml:space="preserve" x="186" y="169" stroke="none">Invalid view - remove from diagram.</text>
<rect x="603" y="88" fill="rgb(255,203,203)" width="281" height="156" stroke="none"/>
<rect x="603" y="88" fill="none" width="280" height="155" stroke-width="0.1"/>
<text xml:space="preserve" x="664" stroke-width="0.1" y="169" stroke="none">Invalid view - remove from diagram.</text>
<rect x="493" y="358" fill="rgb(255,203,203)" width="130" height="89" stroke="none" stroke-width="0.1"/>
<rect x="493" y="358" fill="none" width="129" height="88" stroke-width="0.1"/>
<text xml:space="preserve" x="478" stroke-width="0.1" y="406" stroke="none">Invalid view - remove from diagram.</text>
<rect x="693" y="358" fill="rgb(255,203,203)" width="130" height="89" stroke="none" stroke-width="0.1"/>
<rect x="693" y="358" fill="none" width="129" height="88" stroke-width="0.1"/>
<text xml:space="preserve" x="678" stroke-width="0.1" y="406" stroke="none">Invalid view - remove from diagram.</text>
<rect x="878" y="358" fill="rgb(255,203,203)" width="144" height="89" stroke="none" stroke-width="0.1"/>
<rect x="878" y="358" fill="none" width="143" height="88" stroke-width="0.1"/>
<text xml:space="preserve" x="870" stroke-width="0.1" y="406" stroke="none">Invalid view - remove from diagram.</text>
<line fill="none" x1="409" x2="603" y1="158" y2="158" stroke="red" stroke-width="1.1"/>
<text x="427" y="162" clip-path="url(#clipPath1)" fill="red" stroke="none" stroke-width="1.1" xml:space="preserve">Invalid view - remove from diagram.</text>
<line clip-path="url(#clipPath2)" fill="none" x1="749" x2="749" y1="244" y2="301" stroke="red" stroke-width="1.1"/>
<line clip-path="url(#clipPath2)" fill="none" x1="749" x2="558" y1="301" y2="301" stroke="red" stroke-width="1.1"/>
<line clip-path="url(#clipPath2)" fill="none" x1="558" x2="558" y1="301" y2="358" stroke="red" stroke-width="1.1"/>
<text x="574" y="305" clip-path="url(#clipPath3)" fill="red" stroke="none" stroke-width="1.1" xml:space="preserve">Invalid view - remove from diagram.</text>
<line clip-path="url(#clipPath2)" fill="none" x1="758" x2="758" y1="244" y2="358" stroke="red" stroke-width="1.1"/>
<text x="679" y="305" clip-path="url(#clipPath4)" fill="red" stroke="none" stroke-width="1.1" xml:space="preserve">Invalid view - remove from diagram.</text>
<line clip-path="url(#clipPath2)" fill="none" x1="798" x2="798" y1="244" y2="301" stroke="red" stroke-width="1.1"/>
<line clip-path="url(#clipPath2)" fill="none" x1="798" x2="950" y1="301" y2="301" stroke="red" stroke-width="1.1"/>
<line clip-path="url(#clipPath2)" fill="none" x1="950" x2="950" y1="301" y2="358" stroke="red" stroke-width="1.1"/>
<text x="795" y="305" clip-path="url(#clipPath5)" fill="red" stroke="none" stroke-width="1.1" xml:space="preserve">Invalid view - remove from diagram.</text>
</g>
</g>
</svg>
