<?xml version="1.0" encoding="UTF-8"?><svg xmlns="http://www.w3.org/2000/svg" xmlns:xlink="http://www.w3.org/1999/xlink" stroke-dasharray="none" shape-rendering="auto" font-family="'Dialog'" width="2261" text-rendering="auto" fill-opacity="1" contentScriptType="text/ecmascript" color-interpolation="auto" color-rendering="auto" preserveAspectRatio="xMidYMid meet" font-size="12" viewBox="0 0 2261 785" fill="black" stroke="black" image-rendering="auto" stroke-miterlimit="10" zoomAndPan="magnify" version="1.0" stroke-linecap="square" stroke-linejoin="miter" contentStyleType="text/css" font-style="normal" height="785" stroke-width="1" stroke-dashoffset="0" font-weight="normal" stroke-opacity="1">
<!--Generated by the Batik Graphics2D SVG Generator-->
<defs id="genericDefs"/>
<g>
<defs id="defs1">
<linearGradient x1="730" x2="730" y1="370" gradientUnits="userSpaceOnUse" y2="475" xlink:type="simple" xlink:actuate="onLoad" id="linearGradient1" xlink:show="other" spreadMethod="pad">
<stop stop-opacity="1" stop-color="white" offset="0%"/>
<stop stop-opacity="1" stop-color="white" offset="100%"/>
</linearGradient>
<linearGradient x1="10" x2="10" y1="10" gradientUnits="userSpaceOnUse" y2="71" xlink:type="simple" xlink:actuate="onLoad" id="linearGradient2" xlink:show="other" spreadMethod="pad">
<stop stop-opacity="1" stop-color="white" offset="0%"/>
<stop stop-opacity="1" stop-color="white" offset="100%"/>
</linearGradient>
<linearGradient x1="1630" x2="1630" y1="570" gradientUnits="userSpaceOnUse" y2="670" xlink:type="simple" xlink:actuate="onLoad" id="linearGradient3" xlink:show="other" spreadMethod="pad">
<stop stop-opacity="1" stop-color="white" offset="0%"/>
<stop stop-opacity="1" stop-color="white" offset="100%"/>
</linearGradient>
<linearGradient x1="2130" x2="2130" y1="10" gradientUnits="userSpaceOnUse" y2="71" xlink:type="simple" xlink:actuate="onLoad" id="linearGradient4" xlink:show="other" spreadMethod="pad">
<stop stop-opacity="1" stop-color="white" offset="0%"/>
<stop stop-opacity="1" stop-color="white" offset="100%"/>
</linearGradient>
<linearGradient x1="1250" x2="1250" y1="210" gradientUnits="userSpaceOnUse" y2="310" xlink:type="simple" xlink:actuate="onLoad" id="linearGradient5" xlink:show="other" spreadMethod="pad">
<stop stop-opacity="1" stop-color="white" offset="0%"/>
<stop stop-opacity="1" stop-color="white" offset="100%"/>
</linearGradient>
<linearGradient x1="1250" x2="1250" y1="10" gradientUnits="userSpaceOnUse" y2="71" xlink:type="simple" xlink:actuate="onLoad" id="linearGradient6" xlink:show="other" spreadMethod="pad">
<stop stop-opacity="1" stop-color="white" offset="0%"/>
<stop stop-opacity="1" stop-color="white" offset="100%"/>
</linearGradient>
<linearGradient x1="1450" x2="1450" y1="10" gradientUnits="userSpaceOnUse" y2="71" xlink:type="simple" xlink:actuate="onLoad" id="linearGradient7" xlink:show="other" spreadMethod="pad">
<stop stop-opacity="1" stop-color="white" offset="0%"/>
<stop stop-opacity="1" stop-color="white" offset="100%"/>
</linearGradient>
<linearGradient x1="330" x2="330" y1="370" gradientUnits="userSpaceOnUse" y2="475" xlink:type="simple" xlink:actuate="onLoad" id="linearGradient8" xlink:show="other" spreadMethod="pad">
<stop stop-opacity="1" stop-color="white" offset="0%"/>
<stop stop-opacity="1" stop-color="white" offset="100%"/>
</linearGradient>
<linearGradient x1="1630" x2="1630" y1="130" gradientUnits="userSpaceOnUse" y2="451" xlink:type="simple" xlink:actuate="onLoad" id="linearGradient9" xlink:show="other" spreadMethod="pad">
<stop stop-opacity="1" stop-color="white" offset="0%"/>
<stop stop-opacity="1" stop-color="white" offset="100%"/>
</linearGradient>
<linearGradient x1="1730" x2="1730" y1="10" gradientUnits="userSpaceOnUse" y2="71" xlink:type="simple" xlink:actuate="onLoad" id="linearGradient10" xlink:show="other" spreadMethod="pad">
<stop stop-opacity="1" stop-color="white" offset="0%"/>
<stop stop-opacity="1" stop-color="white" offset="100%"/>
</linearGradient>
<linearGradient x1="10" x2="10" y1="670" gradientUnits="userSpaceOnUse" y2="775" xlink:type="simple" xlink:actuate="onLoad" id="linearGradient11" xlink:show="other" spreadMethod="pad">
<stop stop-opacity="1" stop-color="white" offset="0%"/>
<stop stop-opacity="1" stop-color="white" offset="100%"/>
</linearGradient>
<linearGradient x1="470" x2="470" y1="110" gradientUnits="userSpaceOnUse" y2="231" xlink:type="simple" xlink:actuate="onLoad" id="linearGradient12" xlink:show="other" spreadMethod="pad">
<stop stop-opacity="1" stop-color="white" offset="0%"/>
<stop stop-opacity="1" stop-color="white" offset="100%"/>
</linearGradient>
<linearGradient x1="210" x2="210" y1="110" gradientUnits="userSpaceOnUse" y2="231" xlink:type="simple" xlink:actuate="onLoad" id="linearGradient13" xlink:show="other" spreadMethod="pad">
<stop stop-opacity="1" stop-color="white" offset="0%"/>
<stop stop-opacity="1" stop-color="white" offset="100%"/>
</linearGradient>
<linearGradient x1="810" x2="810" y1="670" gradientUnits="userSpaceOnUse" y2="771" xlink:type="simple" xlink:actuate="onLoad" id="linearGradient14" xlink:show="other" spreadMethod="pad">
<stop stop-opacity="1" stop-color="white" offset="0%"/>
<stop stop-opacity="1" stop-color="white" offset="100%"/>
</linearGradient>
<linearGradient x1="850" x2="850" y1="110" gradientUnits="userSpaceOnUse" y2="231" xlink:type="simple" xlink:actuate="onLoad" id="linearGradient15" xlink:show="other" spreadMethod="pad">
<stop stop-opacity="1" stop-color="white" offset="0%"/>
<stop stop-opacity="1" stop-color="white" offset="100%"/>
</linearGradient>
<linearGradient x1="450" x2="450" y1="670" gradientUnits="userSpaceOnUse" y2="771" xlink:type="simple" xlink:actuate="onLoad" id="linearGradient16" xlink:show="other" spreadMethod="pad">
<stop stop-opacity="1" stop-color="white" offset="0%"/>
<stop stop-opacity="1" stop-color="white" offset="100%"/>
</linearGradient>
<linearGradient x1="630" x2="630" y1="670" gradientUnits="userSpaceOnUse" y2="771" xlink:type="simple" xlink:actuate="onLoad" id="linearGradient17" xlink:show="other" spreadMethod="pad">
<stop stop-opacity="1" stop-color="white" offset="0%"/>
<stop stop-opacity="1" stop-color="white" offset="100%"/>
</linearGradient>
<clipPath clipPathUnits="userSpaceOnUse" id="clipPath1">
<path d="M730 370 L730 474 L850 474 L850 370 Z"/>
</clipPath>
<clipPath clipPathUnits="userSpaceOnUse" id="clipPath2">
<path d="M755 372 L827 372 L827 390 L755 390 L755 372 Z"/>
</clipPath>
<clipPath clipPathUnits="userSpaceOnUse" id="clipPath3">
<path d="M773 389 L809 389 L809 407 L773 407 L773 389 Z"/>
</clipPath>
<clipPath clipPathUnits="userSpaceOnUse" id="clipPath4">
<path d="M730 406 L852 406 L852 437 L730 437 L730 406 Z"/>
</clipPath>
<clipPath clipPathUnits="userSpaceOnUse" id="clipPath5">
<path d="M735 438 L845 438 L845 456 L735 456 L735 438 Z"/>
</clipPath>
<clipPath clipPathUnits="userSpaceOnUse" id="clipPath6">
<path d="M730 436 L852 436 L852 476 L730 476 L730 436 Z"/>
</clipPath>
<clipPath clipPathUnits="userSpaceOnUse" id="clipPath7">
<path d="M729 369 L852 369 L852 476 L729 476 L729 369 Z"/>
</clipPath>
<clipPath clipPathUnits="userSpaceOnUse" id="clipPath8">
<path d="M10 10 L10 70 L1170 70 L1170 10 Z"/>
</clipPath>
<clipPath clipPathUnits="userSpaceOnUse" id="clipPath9">
<path d="M558 23 L625 23 L625 41 L558 41 L558 23 Z"/>
</clipPath>
<clipPath clipPathUnits="userSpaceOnUse" id="clipPath10">
<path d="M560 40 L622 40 L622 58 L560 58 L560 40 Z"/>
</clipPath>
<clipPath clipPathUnits="userSpaceOnUse" id="clipPath11">
<path d="M9 9 L1172 9 L1172 72 L9 72 L9 9 Z"/>
</clipPath>
<clipPath clipPathUnits="userSpaceOnUse" id="clipPath12">
<path d="M1630 570 L1630 669 L2050 669 L2050 570 Z"/>
</clipPath>
<clipPath clipPathUnits="userSpaceOnUse" id="clipPath13">
<path d="M1805 572 L1877 572 L1877 590 L1805 590 L1805 572 Z"/>
</clipPath>
<clipPath clipPathUnits="userSpaceOnUse" id="clipPath14">
<path d="M1806 589 L1877 589 L1877 607 L1806 607 L1806 589 Z"/>
</clipPath>
<clipPath clipPathUnits="userSpaceOnUse" id="clipPath15">
<path d="M1630 606 L2052 606 L2052 639 L1630 639 L1630 606 Z"/>
</clipPath>
<clipPath clipPathUnits="userSpaceOnUse" id="clipPath16">
<path d="M1630 638 L2052 638 L2052 671 L1630 671 L1630 638 Z"/>
</clipPath>
<clipPath clipPathUnits="userSpaceOnUse" id="clipPath17">
<path d="M1629 569 L2052 569 L2052 671 L1629 671 L1629 569 Z"/>
</clipPath>
<clipPath clipPathUnits="userSpaceOnUse" id="clipPath18">
<path d="M2130 10 L2130 70 L2250 70 L2250 10 Z"/>
</clipPath>
<clipPath clipPathUnits="userSpaceOnUse" id="clipPath19">
<path d="M2158 23 L2225 23 L2225 41 L2158 41 L2158 23 Z"/>
</clipPath>
<clipPath clipPathUnits="userSpaceOnUse" id="clipPath20">
<path d="M2177 40 L2206 40 L2206 58 L2177 58 L2177 40 Z"/>
</clipPath>
<clipPath clipPathUnits="userSpaceOnUse" id="clipPath21">
<path d="M2129 9 L2252 9 L2252 72 L2129 72 L2129 9 Z"/>
</clipPath>
<clipPath clipPathUnits="userSpaceOnUse" id="clipPath22">
<path d="M1250 210 L1250 309 L1570 309 L1570 210 Z"/>
</clipPath>
<clipPath clipPathUnits="userSpaceOnUse" id="clipPath23">
<path d="M1375 212 L1447 212 L1447 230 L1375 230 L1375 212 Z"/>
</clipPath>
<clipPath clipPathUnits="userSpaceOnUse" id="clipPath24">
<path d="M1387 229 L1435 229 L1435 247 L1387 247 L1387 229 Z"/>
</clipPath>
<clipPath clipPathUnits="userSpaceOnUse" id="clipPath25">
<path d="M1250 246 L1572 246 L1572 279 L1250 279 L1250 246 Z"/>
</clipPath>
<clipPath clipPathUnits="userSpaceOnUse" id="clipPath26">
<path d="M1250 278 L1572 278 L1572 311 L1250 311 L1250 278 Z"/>
</clipPath>
<clipPath clipPathUnits="userSpaceOnUse" id="clipPath27">
<path d="M1249 209 L1572 209 L1572 311 L1249 311 L1249 209 Z"/>
</clipPath>
<clipPath clipPathUnits="userSpaceOnUse" id="clipPath28">
<path d="M1250 10 L1250 70 L1370 70 L1370 10 Z"/>
</clipPath>
<clipPath clipPathUnits="userSpaceOnUse" id="clipPath29">
<path d="M1278 23 L1345 23 L1345 41 L1278 41 L1278 23 Z"/>
</clipPath>
<clipPath clipPathUnits="userSpaceOnUse" id="clipPath30">
<path d="M1286 40 L1336 40 L1336 58 L1286 58 L1286 40 Z"/>
</clipPath>
<clipPath clipPathUnits="userSpaceOnUse" id="clipPath31">
<path d="M1249 9 L1372 9 L1372 72 L1249 72 L1249 9 Z"/>
</clipPath>
<clipPath clipPathUnits="userSpaceOnUse" id="clipPath32">
<path d="M1450 10 L1450 70 L1570 70 L1570 10 Z"/>
</clipPath>
<clipPath clipPathUnits="userSpaceOnUse" id="clipPath33">
<path d="M1478 23 L1545 23 L1545 41 L1478 41 L1478 23 Z"/>
</clipPath>
<clipPath clipPathUnits="userSpaceOnUse" id="clipPath34">
<path d="M1483 40 L1539 40 L1539 58 L1483 58 L1483 40 Z"/>
</clipPath>
<clipPath clipPathUnits="userSpaceOnUse" id="clipPath35">
<path d="M1449 9 L1572 9 L1572 72 L1449 72 L1449 9 Z"/>
</clipPath>
<clipPath clipPathUnits="userSpaceOnUse" id="clipPath36">
<path d="M330 370 L330 474 L450 474 L450 370 Z"/>
</clipPath>
<clipPath clipPathUnits="userSpaceOnUse" id="clipPath37">
<path d="M355 372 L427 372 L427 390 L355 390 L355 372 Z"/>
</clipPath>
<clipPath clipPathUnits="userSpaceOnUse" id="clipPath38">
<path d="M376 389 L406 389 L406 407 L376 407 L376 389 Z"/>
</clipPath>
<clipPath clipPathUnits="userSpaceOnUse" id="clipPath39">
<path d="M330 406 L452 406 L452 437 L330 437 L330 406 Z"/>
</clipPath>
<clipPath clipPathUnits="userSpaceOnUse" id="clipPath40">
<path d="M335 438 L447 438 L447 456 L335 456 L335 438 Z"/>
</clipPath>
<clipPath clipPathUnits="userSpaceOnUse" id="clipPath41">
<path d="M330 436 L452 436 L452 476 L330 476 L330 436 Z"/>
</clipPath>
<clipPath clipPathUnits="userSpaceOnUse" id="clipPath42">
<path d="M329 369 L452 369 L452 476 L329 476 L329 369 Z"/>
</clipPath>
<clipPath clipPathUnits="userSpaceOnUse" id="clipPath43">
<path d="M1630 130 L1630 450 L2050 450 L2050 130 Z"/>
</clipPath>
<clipPath clipPathUnits="userSpaceOnUse" id="clipPath44">
<path d="M1805 132 L1877 132 L1877 150 L1805 150 L1805 132 Z"/>
</clipPath>
<clipPath clipPathUnits="userSpaceOnUse" id="clipPath45">
<path d="M1785 149 L1898 149 L1898 167 L1785 167 L1785 149 Z"/>
</clipPath>
<clipPath clipPathUnits="userSpaceOnUse" id="clipPath46">
<path d="M1635 168 L1882 168 L1882 186 L1635 186 L1635 168 Z"/>
</clipPath>
<clipPath clipPathUnits="userSpaceOnUse" id="clipPath47">
<path d="M1635 184 L1830 184 L1830 202 L1635 202 L1635 184 Z"/>
</clipPath>
<clipPath clipPathUnits="userSpaceOnUse" id="clipPath48">
<path d="M1635 200 L1858 200 L1858 218 L1635 218 L1635 200 Z"/>
</clipPath>
<clipPath clipPathUnits="userSpaceOnUse" id="clipPath49">
<path d="M1635 216 L1717 216 L1717 234 L1635 234 L1635 216 Z"/>
</clipPath>
<clipPath clipPathUnits="userSpaceOnUse" id="clipPath50">
<path d="M1635 232 L1826 232 L1826 250 L1635 250 L1635 232 Z"/>
</clipPath>
<clipPath clipPathUnits="userSpaceOnUse" id="clipPath51">
<path d="M1635 248 L1812 248 L1812 266 L1635 266 L1635 248 Z"/>
</clipPath>
<clipPath clipPathUnits="userSpaceOnUse" id="clipPath52">
<path d="M1635 264 L1818 264 L1818 282 L1635 282 L1635 264 Z"/>
</clipPath>
<clipPath clipPathUnits="userSpaceOnUse" id="clipPath53">
<path d="M1635 280 L1727 280 L1727 298 L1635 298 L1635 280 Z"/>
</clipPath>
<clipPath clipPathUnits="userSpaceOnUse" id="clipPath54">
<path d="M1635 296 L1807 296 L1807 314 L1635 314 L1635 296 Z"/>
</clipPath>
<clipPath clipPathUnits="userSpaceOnUse" id="clipPath55">
<path d="M1635 312 L1814 312 L1814 330 L1635 330 L1635 312 Z"/>
</clipPath>
<clipPath clipPathUnits="userSpaceOnUse" id="clipPath56">
<path d="M1630 166 L2052 166 L2052 332 L1630 332 L1630 166 Z"/>
</clipPath>
<clipPath clipPathUnits="userSpaceOnUse" id="clipPath57">
<path d="M1635 333 L1824 333 L1824 351 L1635 351 L1635 333 Z"/>
</clipPath>
<clipPath clipPathUnits="userSpaceOnUse" id="clipPath58">
<path d="M1635 349 L1819 349 L1819 367 L1635 367 L1635 349 Z"/>
</clipPath>
<clipPath clipPathUnits="userSpaceOnUse" id="clipPath59">
<path d="M1635 365 L1813 365 L1813 383 L1635 383 L1635 365 Z"/>
</clipPath>
<clipPath clipPathUnits="userSpaceOnUse" id="clipPath60">
<path d="M1635 381 L1836 381 L1836 399 L1635 399 L1635 381 Z"/>
</clipPath>
<clipPath clipPathUnits="userSpaceOnUse" id="clipPath61">
<path d="M1635 397 L1864 397 L1864 415 L1635 415 L1635 397 Z"/>
</clipPath>
<clipPath clipPathUnits="userSpaceOnUse" id="clipPath62">
<path d="M1635 413 L1819 413 L1819 431 L1635 431 L1635 413 Z"/>
</clipPath>
<clipPath clipPathUnits="userSpaceOnUse" id="clipPath63">
<path d="M1635 429 L1831 429 L1831 447 L1635 447 L1635 429 Z"/>
</clipPath>
<clipPath clipPathUnits="userSpaceOnUse" id="clipPath64">
<path d="M1630 331 L2052 331 L2052 452 L1630 452 L1630 331 Z"/>
</clipPath>
<clipPath clipPathUnits="userSpaceOnUse" id="clipPath65">
<path d="M1629 129 L2052 129 L2052 452 L1629 452 L1629 129 Z"/>
</clipPath>
<clipPath clipPathUnits="userSpaceOnUse" id="clipPath66">
<path d="M1730 10 L1730 70 L1850 70 L1850 10 Z"/>
</clipPath>
<clipPath clipPathUnits="userSpaceOnUse" id="clipPath67">
<path d="M1758 23 L1825 23 L1825 41 L1758 41 L1758 23 Z"/>
</clipPath>
<clipPath clipPathUnits="userSpaceOnUse" id="clipPath68">
<path d="M1748 40 L1834 40 L1834 58 L1748 58 L1748 40 Z"/>
</clipPath>
<clipPath clipPathUnits="userSpaceOnUse" id="clipPath69">
<path d="M1729 9 L1852 9 L1852 72 L1729 72 L1729 9 Z"/>
</clipPath>
<clipPath clipPathUnits="userSpaceOnUse" id="clipPath70">
<path d="M10 670 L10 774 L390 774 L390 670 Z"/>
</clipPath>
<clipPath clipPathUnits="userSpaceOnUse" id="clipPath71">
<path d="M165 672 L237 672 L237 690 L165 690 L165 672 Z"/>
</clipPath>
<clipPath clipPathUnits="userSpaceOnUse" id="clipPath72">
<path d="M185 689 L217 689 L217 707 L185 707 L185 689 Z"/>
</clipPath>
<clipPath clipPathUnits="userSpaceOnUse" id="clipPath73">
<path d="M10 706 L392 706 L392 737 L10 737 L10 706 Z"/>
</clipPath>
<clipPath clipPathUnits="userSpaceOnUse" id="clipPath74">
<path d="M15 738 L350 738 L350 756 L15 756 L15 738 Z"/>
</clipPath>
<clipPath clipPathUnits="userSpaceOnUse" id="clipPath75">
<path d="M10 736 L392 736 L392 776 L10 776 L10 736 Z"/>
</clipPath>
<clipPath clipPathUnits="userSpaceOnUse" id="clipPath76">
<path d="M9 669 L392 669 L392 776 L9 776 L9 669 Z"/>
</clipPath>
<clipPath clipPathUnits="userSpaceOnUse" id="clipPath77">
<path d="M470 110 L470 230 L710 230 L710 110 Z"/>
</clipPath>
<clipPath clipPathUnits="userSpaceOnUse" id="clipPath78">
<path d="M555 112 L627 112 L627 130 L555 130 L555 112 Z"/>
</clipPath>
<clipPath clipPathUnits="userSpaceOnUse" id="clipPath79">
<path d="M501 129 L681 129 L681 147 L501 147 L501 129 Z"/>
</clipPath>
<clipPath clipPathUnits="userSpaceOnUse" id="clipPath80">
<path d="M470 146 L712 146 L712 190 L470 190 L470 146 Z"/>
</clipPath>
<clipPath clipPathUnits="userSpaceOnUse" id="clipPath81">
<path d="M470 189 L712 189 L712 232 L470 232 L470 189 Z"/>
</clipPath>
<clipPath clipPathUnits="userSpaceOnUse" id="clipPath82">
<path d="M469 109 L712 109 L712 232 L469 232 L469 109 Z"/>
</clipPath>
<clipPath clipPathUnits="userSpaceOnUse" id="clipPath83">
<path d="M210 110 L210 230 L330 230 L330 110 Z"/>
</clipPath>
<clipPath clipPathUnits="userSpaceOnUse" id="clipPath84">
<path d="M235 112 L307 112 L307 130 L235 130 L235 112 Z"/>
</clipPath>
<clipPath clipPathUnits="userSpaceOnUse" id="clipPath85">
<path d="M256 129 L286 129 L286 147 L256 147 L256 129 Z"/>
</clipPath>
<clipPath clipPathUnits="userSpaceOnUse" id="clipPath86">
<path d="M226 146 L317 146 L317 164 L226 164 L226 146 Z"/>
</clipPath>
<clipPath clipPathUnits="userSpaceOnUse" id="clipPath87">
<path d="M210 163 L332 163 L332 199 L210 199 L210 163 Z"/>
</clipPath>
<clipPath clipPathUnits="userSpaceOnUse" id="clipPath88">
<path d="M210 198 L332 198 L332 232 L210 232 L210 198 Z"/>
</clipPath>
<clipPath clipPathUnits="userSpaceOnUse" id="clipPath89">
<path d="M209 109 L332 109 L332 232 L209 232 L209 109 Z"/>
</clipPath>
<clipPath clipPathUnits="userSpaceOnUse" id="clipPath90">
<path d="M810 670 L810 770 L1170 770 L1170 670 Z"/>
</clipPath>
<clipPath clipPathUnits="userSpaceOnUse" id="clipPath91">
<path d="M955 672 L1027 672 L1027 690 L955 690 L955 672 Z"/>
</clipPath>
<clipPath clipPathUnits="userSpaceOnUse" id="clipPath92">
<path d="M973 689 L1010 689 L1010 707 L973 707 L973 689 Z"/>
</clipPath>
<clipPath clipPathUnits="userSpaceOnUse" id="clipPath93">
<path d="M810 706 L1172 706 L1172 735 L810 735 L810 706 Z"/>
</clipPath>
<clipPath clipPathUnits="userSpaceOnUse" id="clipPath94">
<path d="M815 736 L1154 736 L1154 754 L815 754 L815 736 Z"/>
</clipPath>
<clipPath clipPathUnits="userSpaceOnUse" id="clipPath95">
<path d="M810 734 L1172 734 L1172 772 L810 772 L810 734 Z"/>
</clipPath>
<clipPath clipPathUnits="userSpaceOnUse" id="clipPath96">
<path d="M809 669 L1172 669 L1172 772 L809 772 L809 669 Z"/>
</clipPath>
<clipPath clipPathUnits="userSpaceOnUse" id="clipPath97">
<path d="M850 110 L850 230 L970 230 L970 110 Z"/>
</clipPath>
<clipPath clipPathUnits="userSpaceOnUse" id="clipPath98">
<path d="M875 112 L947 112 L947 130 L875 130 L875 112 Z"/>
</clipPath>
<clipPath clipPathUnits="userSpaceOnUse" id="clipPath99">
<path d="M893 129 L929 129 L929 147 L893 147 L893 129 Z"/>
</clipPath>
<clipPath clipPathUnits="userSpaceOnUse" id="clipPath100">
<path d="M866 146 L957 146 L957 164 L866 164 L866 146 Z"/>
</clipPath>
<clipPath clipPathUnits="userSpaceOnUse" id="clipPath101">
<path d="M850 163 L972 163 L972 199 L850 199 L850 163 Z"/>
</clipPath>
<clipPath clipPathUnits="userSpaceOnUse" id="clipPath102">
<path d="M850 198 L972 198 L972 232 L850 232 L850 198 Z"/>
</clipPath>
<clipPath clipPathUnits="userSpaceOnUse" id="clipPath103">
<path d="M849 109 L972 109 L972 232 L849 232 L849 109 Z"/>
</clipPath>
<clipPath clipPathUnits="userSpaceOnUse" id="clipPath104">
<path d="M450 670 L450 770 L570 770 L570 670 Z"/>
</clipPath>
<clipPath clipPathUnits="userSpaceOnUse" id="clipPath105">
<path d="M475 672 L547 672 L547 690 L475 690 L475 672 Z"/>
</clipPath>
<clipPath clipPathUnits="userSpaceOnUse" id="clipPath106">
<path d="M481 689 L542 689 L542 707 L481 707 L481 689 Z"/>
</clipPath>
<clipPath clipPathUnits="userSpaceOnUse" id="clipPath107">
<path d="M450 706 L572 706 L572 740 L450 740 L450 706 Z"/>
</clipPath>
<clipPath clipPathUnits="userSpaceOnUse" id="clipPath108">
<path d="M450 739 L572 739 L572 772 L450 772 L450 739 Z"/>
</clipPath>
<clipPath clipPathUnits="userSpaceOnUse" id="clipPath109">
<path d="M449 669 L572 669 L572 772 L449 772 L449 669 Z"/>
</clipPath>
<clipPath clipPathUnits="userSpaceOnUse" id="clipPath110">
<path d="M630 670 L630 770 L750 770 L750 670 Z"/>
</clipPath>
<clipPath clipPathUnits="userSpaceOnUse" id="clipPath111">
<path d="M655 672 L727 672 L727 690 L655 690 L655 672 Z"/>
</clipPath>
<clipPath clipPathUnits="userSpaceOnUse" id="clipPath112">
<path d="M676 689 L706 689 L706 707 L676 707 L676 689 Z"/>
</clipPath>
<clipPath clipPathUnits="userSpaceOnUse" id="clipPath113">
<path d="M630 706 L752 706 L752 740 L630 740 L630 706 Z"/>
</clipPath>
<clipPath clipPathUnits="userSpaceOnUse" id="clipPath114">
<path d="M630 739 L752 739 L752 772 L630 772 L630 739 Z"/>
</clipPath>
<clipPath clipPathUnits="userSpaceOnUse" id="clipPath115">
<path d="M629 669 L752 669 L752 772 L629 772 L629 669 Z"/>
</clipPath>
<clipPath clipPathUnits="userSpaceOnUse" id="clipPath116">
<path d="M-1 -1 L2262 -1 L2262 786 L-1 786 L-1 -1 Z"/>
</clipPath>
<clipPath clipPathUnits="userSpaceOnUse" id="clipPath117">
<path d="M784 70 L797 70 L797 88 L784 88 L784 70 Z"/>
</clipPath>
<clipPath clipPathUnits="userSpaceOnUse" id="clipPath118">
<path d="M2184 70 L2197 70 L2197 88 L2184 88 L2184 70 Z"/>
</clipPath>
<clipPath clipPathUnits="userSpaceOnUse" id="clipPath119">
<path d="M1304 70 L1317 70 L1317 88 L1304 88 L1304 70 Z"/>
</clipPath>
<clipPath clipPathUnits="userSpaceOnUse" id="clipPath120">
<path d="M1784 70 L1797 70 L1797 88 L1784 88 L1784 70 Z"/>
</clipPath>
<clipPath clipPathUnits="userSpaceOnUse" id="clipPath121">
<path d="M381 474 L400 474 L400 487 L381 487 L381 474 Z"/>
</clipPath>
<clipPath clipPathUnits="userSpaceOnUse" id="clipPath122">
<path d="M581 230 L600 230 L600 243 L581 243 L581 230 Z"/>
</clipPath>
<clipPath clipPathUnits="userSpaceOnUse" id="clipPath123">
<path d="M261 230 L280 230 L280 243 L261 243 L261 230 Z"/>
</clipPath>
<clipPath clipPathUnits="userSpaceOnUse" id="clipPath124">
<path d="M1504 70 L1517 70 L1517 88 L1504 88 L1504 70 Z"/>
</clipPath>
<clipPath clipPathUnits="userSpaceOnUse" id="clipPath125">
<path d="M1841 450 L1860 450 L1860 463 L1841 463 L1841 450 Z"/>
</clipPath>
<clipPath clipPathUnits="userSpaceOnUse" id="clipPath126">
<path d="M901 230 L920 230 L920 243 L901 243 L901 230 Z"/>
</clipPath>
<clipPath clipPathUnits="userSpaceOnUse" id="clipPath127">
<path d="M384 70 L397 70 L397 88 L384 88 L384 70 Z"/>
</clipPath>
</defs>
<g fill="url(#linearGradient1)" font-family="'Segoe UI'" stroke-linejoin="round" stroke="url(#linearGradient1)" stroke-width="0" stroke-miterlimit="0">
<rect x="730" y="370" clip-path="url(#clipPath1)" width="121" height="105" stroke="none"/>
<text x="756" y="386" clip-path="url(#clipPath2)" fill="black" stroke="none" xml:space="preserve">«Stereotype»</text>
<text x="774" y="403" clip-path="url(#clipPath3)" fill="black" stroke="none" xml:space="preserve">Refine</text>
</g>
<g stroke-width="1.1" font-family="'Segoe UI'" stroke-linecap="butt">
<line clip-path="url(#clipPath4)" fill="none" x1="730" x2="851" y1="407" y2="407"/>
<text xml:space="preserve" x="736" y="452" clip-path="url(#clipPath5)" stroke="none"> + getRefines(  in r...</text>
<line clip-path="url(#clipPath5)" fill="none" x1="736" x2="844" y1="453" y2="453" stroke-width="0.1"/>
<line clip-path="url(#clipPath6)" fill="none" x1="730" x2="851" y1="437" y2="437"/>
<rect x="730" y="370" clip-path="url(#clipPath7)" fill="none" width="120" rx="0" ry="0" height="104"/>
<rect x="10" y="10" clip-path="url(#clipPath8)" fill="url(#linearGradient2)" width="1161" height="61" stroke="none"/>
<text xml:space="preserve" x="559" y="37" clip-path="url(#clipPath9)" stroke="none">«Metaclass»</text>
<text xml:space="preserve" x="561" y="54" clip-path="url(#clipPath10)" stroke="none">Abstraction</text>
<rect x="10" y="10" clip-path="url(#clipPath11)" fill="none" width="1160" rx="0" ry="0" height="60"/>
<rect x="1630" y="570" clip-path="url(#clipPath12)" fill="url(#linearGradient3)" width="421" height="100" stroke="none"/>
<text xml:space="preserve" x="1806" y="586" clip-path="url(#clipPath13)" stroke="none">«Stereotype»</text>
<text xml:space="preserve" x="1807" y="603" clip-path="url(#clipPath14)" stroke="none">Requirement</text>
<line clip-path="url(#clipPath15)" fill="none" x1="1630" x2="2051" y1="607" y2="607"/>
<line clip-path="url(#clipPath16)" fill="none" x1="1630" x2="2051" y1="639" y2="639"/>
<rect x="1630" y="570" clip-path="url(#clipPath17)" fill="none" width="420" rx="0" ry="0" height="99"/>
<rect x="2130" y="10" clip-path="url(#clipPath18)" fill="url(#linearGradient4)" width="121" height="61" stroke="none"/>
<text xml:space="preserve" x="2159" y="37" clip-path="url(#clipPath19)" stroke="none">«Metaclass»</text>
<text xml:space="preserve" x="2178" y="54" clip-path="url(#clipPath20)" stroke="none">Class</text>
<rect x="2130" y="10" clip-path="url(#clipPath21)" fill="none" width="120" rx="0" ry="0" height="60"/>
<rect x="1250" y="210" clip-path="url(#clipPath22)" fill="url(#linearGradient5)" width="321" height="100" stroke="none"/>
<text xml:space="preserve" x="1376" y="226" clip-path="url(#clipPath23)" stroke="none">«Stereotype»</text>
<text xml:space="preserve" x="1388" y="243" clip-path="url(#clipPath24)" stroke="none">TestCase</text>
<line clip-path="url(#clipPath25)" fill="none" x1="1250" x2="1571" y1="247" y2="247"/>
<line clip-path="url(#clipPath26)" fill="none" x1="1250" x2="1571" y1="279" y2="279"/>
<rect x="1250" y="210" clip-path="url(#clipPath27)" fill="none" width="320" rx="0" ry="0" height="99"/>
<rect x="1250" y="10" clip-path="url(#clipPath28)" fill="url(#linearGradient6)" width="121" height="61" stroke="none"/>
<text x="1279" y="37" clip-path="url(#clipPath29)" font-style="italic" stroke="none" xml:space="preserve">«Metaclass»</text>
<text x="1287" y="54" clip-path="url(#clipPath30)" font-style="italic" stroke="none" xml:space="preserve">Behavior</text>
<rect x="1250" y="10" clip-path="url(#clipPath31)" fill="none" width="120" rx="0" ry="0" height="60"/>
<rect x="1450" y="10" clip-path="url(#clipPath32)" fill="url(#linearGradient7)" width="121" height="61" stroke="none"/>
<text xml:space="preserve" x="1479" y="37" clip-path="url(#clipPath33)" stroke="none">«Metaclass»</text>
<text xml:space="preserve" x="1484" y="54" clip-path="url(#clipPath34)" stroke="none">Operation</text>
<rect x="1450" y="10" clip-path="url(#clipPath35)" fill="none" width="120" rx="0" ry="0" height="60"/>
<rect x="330" y="370" clip-path="url(#clipPath36)" fill="url(#linearGradient8)" width="121" height="105" stroke="none"/>
<text xml:space="preserve" x="356" y="386" clip-path="url(#clipPath37)" stroke="none">«Stereotype»</text>
<text xml:space="preserve" x="377" y="403" clip-path="url(#clipPath38)" stroke="none">Trace</text>
<line clip-path="url(#clipPath39)" fill="none" x1="330" x2="451" y1="407" y2="407"/>
<text xml:space="preserve" x="336" y="452" clip-path="url(#clipPath40)" stroke="none"> + getTracedFrom( ...</text>
<line clip-path="url(#clipPath40)" fill="none" x1="336" x2="446" y1="453" y2="453" stroke-width="0.1"/>
<line clip-path="url(#clipPath41)" fill="none" x1="330" x2="451" y1="437" y2="437"/>
<rect x="330" y="370" clip-path="url(#clipPath42)" fill="none" width="120" rx="0" ry="0" height="104"/>
<rect x="1630" y="130" clip-path="url(#clipPath43)" fill="url(#linearGradient9)" width="421" height="321" stroke="none"/>
<text x="1806" y="146" clip-path="url(#clipPath44)" font-style="italic" stroke="none" xml:space="preserve">«Stereotype»</text>
<text x="1786" y="163" clip-path="url(#clipPath45)" font-style="italic" stroke="none" xml:space="preserve">AbstractRequirement</text>
<text xml:space="preserve" x="1636" y="182" clip-path="url(#clipPath46)" stroke="none"> + base_NamedElement: NamedElement [0..1]</text>
<text xml:space="preserve" x="1636" y="198" clip-path="url(#clipPath47)" stroke="none"> +/ derived: AbstractRequirement [*]</text>
<text xml:space="preserve" x="1636" y="214" clip-path="url(#clipPath48)" stroke="none"> +/ derivedFrom: AbstractRequirement [*]</text>
<text xml:space="preserve" x="1636" y="230" clip-path="url(#clipPath49)" stroke="none"> + id: String [1]</text>
<text xml:space="preserve" x="1636" y="246" clip-path="url(#clipPath50)" stroke="none"> +/ master: AbstractRequirement [*]</text>
<text xml:space="preserve" x="1636" y="262" clip-path="url(#clipPath51)" stroke="none"> +/ refinedBy: NamedElement [*]</text>
<text xml:space="preserve" x="1636" y="278" clip-path="url(#clipPath52)" stroke="none"> +/ satisfiedBy: NamedElement [*]</text>
<text xml:space="preserve" x="1636" y="294" clip-path="url(#clipPath53)" stroke="none"> + text: String [1]</text>
<text xml:space="preserve" x="1636" y="310" clip-path="url(#clipPath54)" stroke="none"> +/ tracedTo: NamedElement [*]</text>
<text xml:space="preserve" x="1636" y="326" clip-path="url(#clipPath55)" stroke="none"> +/ verifiedBy: NamedElement [*]</text>
<line clip-path="url(#clipPath56)" fill="none" x1="1630" x2="2051" y1="167" y2="167"/>
<text xml:space="preserve" x="1636" y="347" clip-path="url(#clipPath57)" stroke="none"> + getSatisfiedBy(): NamedElement</text>
<text xml:space="preserve" x="1636" y="363" clip-path="url(#clipPath58)" stroke="none"> + getVerifiedBy(): NamedElement</text>
<text xml:space="preserve" x="1636" y="379" clip-path="url(#clipPath59)" stroke="none"> + getTracedTo(): NamedElement</text>
<text xml:space="preserve" x="1636" y="395" clip-path="url(#clipPath60)" stroke="none"> + getDerived(): AbstractRequirement</text>
<text xml:space="preserve" x="1636" y="411" clip-path="url(#clipPath61)" stroke="none"> + getDerivedFrom(): AbstractRequirement</text>
<text xml:space="preserve" x="1636" y="427" clip-path="url(#clipPath62)" stroke="none"> + getRefinedBy(): NamedElement</text>
<text xml:space="preserve" x="1636" y="443" clip-path="url(#clipPath63)" stroke="none"> + getMaster(): AbstractRequirement</text>
<line clip-path="url(#clipPath64)" fill="none" x1="1630" x2="2051" y1="332" y2="332"/>
<rect x="1630" y="130" clip-path="url(#clipPath65)" fill="none" width="420" rx="0" ry="0" height="320"/>
<rect x="1730" y="10" clip-path="url(#clipPath66)" fill="url(#linearGradient10)" width="121" height="61" stroke="none"/>
<text x="1759" y="37" clip-path="url(#clipPath67)" font-style="italic" stroke="none" xml:space="preserve">«Metaclass»</text>
<text x="1749" y="54" clip-path="url(#clipPath68)" font-style="italic" stroke="none" xml:space="preserve">NamedElement</text>
<rect x="1730" y="10" clip-path="url(#clipPath69)" fill="none" width="120" rx="0" ry="0" height="60"/>
<rect x="10" y="670" clip-path="url(#clipPath70)" fill="url(#linearGradient11)" width="381" height="105" stroke="none"/>
<text xml:space="preserve" x="166" y="686" clip-path="url(#clipPath71)" stroke="none">«Stereotype»</text>
<text xml:space="preserve" x="186" y="703" clip-path="url(#clipPath72)" stroke="none">Verify</text>
<line clip-path="url(#clipPath73)" fill="none" x1="10" x2="391" y1="707" y2="707"/>
<text xml:space="preserve" x="16" y="752" clip-path="url(#clipPath74)" stroke="none"> + getVerifies(  in ref: NamedElement,   in result: Requirement)</text>
<line clip-path="url(#clipPath74)" fill="none" x1="16" x2="349" y1="753" y2="753" stroke-width="0.1"/>
<line clip-path="url(#clipPath75)" fill="none" x1="10" x2="391" y1="737" y2="737"/>
<rect x="10" y="670" clip-path="url(#clipPath76)" fill="none" width="380" rx="0" ry="0" height="104"/>
<rect x="470" y="110" clip-path="url(#clipPath77)" fill="url(#linearGradient12)" width="241" height="121" stroke="none"/>
<text x="556" y="126" clip-path="url(#clipPath78)" font-style="italic" stroke="none" xml:space="preserve">«Stereotype»</text>
<text x="502" y="143" clip-path="url(#clipPath79)" font-style="italic" stroke="none" xml:space="preserve">DirectedRelationshipPropertyPath</text>
<line clip-path="url(#clipPath80)" fill="none" x1="470" x2="711" y1="147" y2="147"/>
<line clip-path="url(#clipPath81)" fill="none" x1="470" x2="711" y1="190" y2="190"/>
<rect x="470" y="110" clip-path="url(#clipPath82)" fill="none" width="240" rx="0" ry="0" height="120"/>
<rect x="210" y="110" clip-path="url(#clipPath83)" fill="url(#linearGradient13)" width="121" height="121" stroke="none"/>
<text xml:space="preserve" x="236" y="126" clip-path="url(#clipPath84)" stroke="none">«Stereotype»</text>
<text xml:space="preserve" x="257" y="143" clip-path="url(#clipPath85)" stroke="none">Trace</text>
<text xml:space="preserve" x="227" y="160" clip-path="url(#clipPath86)" stroke="none">(StandardProfile)</text>
<line clip-path="url(#clipPath87)" fill="none" x1="210" x2="331" y1="164" y2="164"/>
<line clip-path="url(#clipPath88)" fill="none" x1="210" x2="331" y1="199" y2="199"/>
<rect x="210" y="110" clip-path="url(#clipPath89)" fill="none" width="120" rx="0" ry="0" height="120"/>
<rect x="810" y="670" clip-path="url(#clipPath90)" fill="url(#linearGradient14)" width="361" height="101" stroke="none"/>
<text xml:space="preserve" x="956" y="686" clip-path="url(#clipPath91)" stroke="none">«Stereotype»</text>
<text xml:space="preserve" x="974" y="703" clip-path="url(#clipPath92)" stroke="none">Satisfy</text>
<line clip-path="url(#clipPath93)" fill="none" x1="810" x2="1171" y1="707" y2="707"/>
<text xml:space="preserve" x="816" y="750" clip-path="url(#clipPath94)" stroke="none"> + getSatisfies(  in ref: NamedElement,   in result: Requirement)</text>
<line clip-path="url(#clipPath94)" fill="none" x1="816" x2="1153" y1="751" y2="751" stroke-width="0.1"/>
<line clip-path="url(#clipPath95)" fill="none" x1="810" x2="1171" y1="735" y2="735"/>
<rect x="810" y="670" clip-path="url(#clipPath96)" fill="none" width="360" rx="0" ry="0" height="100"/>
<rect x="850" y="110" clip-path="url(#clipPath97)" fill="url(#linearGradient15)" width="121" height="121" stroke="none"/>
<text xml:space="preserve" x="876" y="126" clip-path="url(#clipPath98)" stroke="none">«Stereotype»</text>
<text xml:space="preserve" x="894" y="143" clip-path="url(#clipPath99)" stroke="none">Refine</text>
<text xml:space="preserve" x="867" y="160" clip-path="url(#clipPath100)" stroke="none">(StandardProfile)</text>
<line clip-path="url(#clipPath101)" fill="none" x1="850" x2="971" y1="164" y2="164"/>
<line clip-path="url(#clipPath102)" fill="none" x1="850" x2="971" y1="199" y2="199"/>
<rect x="850" y="110" clip-path="url(#clipPath103)" fill="none" width="120" rx="0" ry="0" height="120"/>
<rect x="450" y="670" clip-path="url(#clipPath104)" fill="url(#linearGradient16)" width="121" height="101" stroke="none"/>
<text xml:space="preserve" x="476" y="686" clip-path="url(#clipPath105)" stroke="none">«Stereotype»</text>
<text xml:space="preserve" x="482" y="703" clip-path="url(#clipPath106)" stroke="none">DeriveReqt</text>
<line clip-path="url(#clipPath107)" fill="none" x1="450" x2="571" y1="707" y2="707"/>
<line clip-path="url(#clipPath108)" fill="none" x1="450" x2="571" y1="740" y2="740"/>
<rect x="450" y="670" clip-path="url(#clipPath109)" fill="none" width="120" rx="0" ry="0" height="100"/>
<rect x="630" y="670" clip-path="url(#clipPath110)" fill="url(#linearGradient17)" width="121" height="101" stroke="none"/>
<text xml:space="preserve" x="656" y="686" clip-path="url(#clipPath111)" stroke="none">«Stereotype»</text>
<text xml:space="preserve" x="677" y="703" clip-path="url(#clipPath112)" stroke="none">Copy</text>
<line clip-path="url(#clipPath113)" fill="none" x1="630" x2="751" y1="707" y2="707"/>
<line clip-path="url(#clipPath114)" fill="none" x1="630" x2="751" y1="740" y2="740"/>
<rect x="630" y="670" clip-path="url(#clipPath115)" fill="none" width="120" rx="0" ry="0" height="100"/>
<line clip-path="url(#clipPath116)" fill="none" text-rendering="optimizeLegibility" x1="790" x2="790" y1="370" y2="71"/>
<polygon text-rendering="optimizeLegibility" clip-path="url(#clipPath117)" points=" 790 71 795 86 785 86" stroke="none"/>
<polygon text-rendering="optimizeLegibility" fill="none" clip-path="url(#clipPath117)" points=" 790 71 795 86 785 86"/>
<line clip-path="url(#clipPath116)" fill="none" text-rendering="optimizeLegibility" x1="2051" x2="2190" y1="610" y2="610"/>
<line clip-path="url(#clipPath116)" fill="none" text-rendering="optimizeLegibility" x1="2190" x2="2190" y1="610" y2="71"/>
<polygon text-rendering="optimizeLegibility" clip-path="url(#clipPath118)" points=" 2190 71 2195 86 2185 86" stroke="none"/>
<polygon text-rendering="optimizeLegibility" fill="none" clip-path="url(#clipPath118)" points=" 2190 71 2195 86 2185 86"/>
<line clip-path="url(#clipPath116)" fill="none" text-rendering="optimizeLegibility" x1="1410" x2="1410" y1="210" y2="150"/>
<line clip-path="url(#clipPath116)" fill="none" text-rendering="optimizeLegibility" x1="1410" x2="1310" y1="150" y2="150"/>
<line clip-path="url(#clipPath116)" fill="none" text-rendering="optimizeLegibility" x1="1310" x2="1310" y1="150" y2="71"/>
<polygon text-rendering="optimizeLegibility" clip-path="url(#clipPath119)" points=" 1310 71 1315 86 1305 86" stroke="none"/>
<polygon text-rendering="optimizeLegibility" fill="none" clip-path="url(#clipPath119)" points=" 1310 71 1315 86 1305 86"/>
<line clip-path="url(#clipPath116)" fill="none" text-rendering="optimizeLegibility" x1="1790" x2="1790" y1="130" y2="71"/>
<polygon text-rendering="optimizeLegibility" clip-path="url(#clipPath120)" points=" 1790 71 1795 86 1785 86" stroke="none"/>
<polygon text-rendering="optimizeLegibility" fill="none" clip-path="url(#clipPath120)" points=" 1790 71 1795 86 1785 86"/>
<line clip-path="url(#clipPath116)" fill="none" text-rendering="optimizeLegibility" x1="190" x2="190" y1="670" y2="590"/>
<line clip-path="url(#clipPath116)" fill="none" text-rendering="optimizeLegibility" x1="190" x2="390" y1="590" y2="590"/>
<line clip-path="url(#clipPath116)" fill="none" text-rendering="optimizeLegibility" x1="390" x2="390" y1="590" y2="475"/>
<polygon fill="white" text-rendering="optimizeLegibility" clip-path="url(#clipPath121)" points=" 390 475 398 485 382 485" stroke="none"/>
<polygon text-rendering="optimizeLegibility" fill="none" clip-path="url(#clipPath121)" points=" 390 475 398 485 382 485"/>
<line clip-path="url(#clipPath116)" fill="none" text-rendering="optimizeLegibility" x1="451" x2="590" y1="410" y2="410"/>
<line clip-path="url(#clipPath116)" fill="none" text-rendering="optimizeLegibility" x1="590" x2="590" y1="410" y2="231"/>
<polygon fill="white" text-rendering="optimizeLegibility" clip-path="url(#clipPath122)" points=" 590 231 598 241 582 241" stroke="none"/>
<polygon text-rendering="optimizeLegibility" fill="none" clip-path="url(#clipPath122)" points=" 590 231 598 241 582 241"/>
<line clip-path="url(#clipPath116)" fill="none" text-rendering="optimizeLegibility" x1="330" x2="270" y1="410" y2="410"/>
<line clip-path="url(#clipPath116)" fill="none" text-rendering="optimizeLegibility" x1="270" x2="270" y1="410" y2="231"/>
<polygon fill="white" text-rendering="optimizeLegibility" clip-path="url(#clipPath123)" points=" 270 231 278 241 262 241" stroke="none"/>
<polygon text-rendering="optimizeLegibility" fill="none" clip-path="url(#clipPath123)" points=" 270 231 278 241 262 241"/>
<line clip-path="url(#clipPath116)" fill="none" text-rendering="optimizeLegibility" x1="1410" x2="1410" y1="210" y2="150"/>
<line clip-path="url(#clipPath116)" fill="none" text-rendering="optimizeLegibility" x1="1410" x2="1510" y1="150" y2="150"/>
<line clip-path="url(#clipPath116)" fill="none" text-rendering="optimizeLegibility" x1="1510" x2="1510" y1="150" y2="71"/>
<polygon text-rendering="optimizeLegibility" clip-path="url(#clipPath124)" points=" 1510 71 1515 86 1505 86" stroke="none"/>
<polygon text-rendering="optimizeLegibility" fill="none" clip-path="url(#clipPath124)" points=" 1510 71 1515 86 1505 86"/>
<line clip-path="url(#clipPath116)" fill="none" text-rendering="optimizeLegibility" x1="990" x2="990" y1="670" y2="590"/>
<line clip-path="url(#clipPath116)" fill="none" text-rendering="optimizeLegibility" x1="990" x2="390" y1="590" y2="590"/>
<line clip-path="url(#clipPath116)" fill="none" text-rendering="optimizeLegibility" x1="390" x2="390" y1="590" y2="475"/>
<polygon fill="white" text-rendering="optimizeLegibility" clip-path="url(#clipPath121)" points=" 390 475 398 485 382 485" stroke="none"/>
<polygon text-rendering="optimizeLegibility" fill="none" clip-path="url(#clipPath121)" points=" 390 475 398 485 382 485"/>
<line clip-path="url(#clipPath116)" fill="none" text-rendering="optimizeLegibility" x1="1850" x2="1850" y1="570" y2="451"/>
<polygon fill="white" text-rendering="optimizeLegibility" clip-path="url(#clipPath125)" points=" 1850 451 1858 461 1842 461" stroke="none"/>
<polygon text-rendering="optimizeLegibility" fill="none" clip-path="url(#clipPath125)" points=" 1850 451 1858 461 1842 461"/>
<line clip-path="url(#clipPath116)" fill="none" text-rendering="optimizeLegibility" x1="730" x2="590" y1="410" y2="410"/>
<line clip-path="url(#clipPath116)" fill="none" text-rendering="optimizeLegibility" x1="590" x2="590" y1="410" y2="231"/>
<polygon fill="white" text-rendering="optimizeLegibility" clip-path="url(#clipPath122)" points=" 590 231 598 241 582 241" stroke="none"/>
<polygon text-rendering="optimizeLegibility" fill="none" clip-path="url(#clipPath122)" points=" 590 231 598 241 582 241"/>
<line clip-path="url(#clipPath116)" fill="none" text-rendering="optimizeLegibility" x1="851" x2="910" y1="410" y2="410"/>
<line clip-path="url(#clipPath116)" fill="none" text-rendering="optimizeLegibility" x1="910" x2="910" y1="410" y2="231"/>
<polygon fill="white" text-rendering="optimizeLegibility" clip-path="url(#clipPath126)" points=" 910 231 918 241 902 241" stroke="none"/>
<polygon text-rendering="optimizeLegibility" fill="none" clip-path="url(#clipPath126)" points=" 910 231 918 241 902 241"/>
<line clip-path="url(#clipPath116)" fill="none" text-rendering="optimizeLegibility" x1="510" x2="510" y1="670" y2="590"/>
<line clip-path="url(#clipPath116)" fill="none" text-rendering="optimizeLegibility" x1="510" x2="390" y1="590" y2="590"/>
<line clip-path="url(#clipPath116)" fill="none" text-rendering="optimizeLegibility" x1="390" x2="390" y1="590" y2="475"/>
<polygon fill="white" text-rendering="optimizeLegibility" clip-path="url(#clipPath121)" points=" 390 475 398 485 382 485" stroke="none"/>
<polygon text-rendering="optimizeLegibility" fill="none" clip-path="url(#clipPath121)" points=" 390 475 398 485 382 485"/>
<line clip-path="url(#clipPath116)" fill="none" text-rendering="optimizeLegibility" x1="690" x2="690" y1="670" y2="590"/>
<line clip-path="url(#clipPath116)" fill="none" text-rendering="optimizeLegibility" x1="690" x2="390" y1="590" y2="590"/>
<line clip-path="url(#clipPath116)" fill="none" text-rendering="optimizeLegibility" x1="390" x2="390" y1="590" y2="475"/>
<polygon fill="white" text-rendering="optimizeLegibility" clip-path="url(#clipPath121)" points=" 390 475 398 485 382 485" stroke="none"/>
<polygon text-rendering="optimizeLegibility" fill="none" clip-path="url(#clipPath121)" points=" 390 475 398 485 382 485"/>
<line clip-path="url(#clipPath116)" fill="none" text-rendering="optimizeLegibility" x1="390" x2="390" y1="370" y2="71"/>
<polygon text-rendering="optimizeLegibility" clip-path="url(#clipPath127)" points=" 390 71 395 86 385 86" stroke="none"/>
<polygon text-rendering="optimizeLegibility" fill="none" clip-path="url(#clipPath127)" points=" 390 71 395 86 385 86"/>
</g>
</g>
</svg>
