<?xml version="1.0" encoding="UTF-8"?><svg xmlns="http://www.w3.org/2000/svg" xmlns:xlink="http://www.w3.org/1999/xlink" stroke-dasharray="none" shape-rendering="auto" font-family="'Dialog'" width="877" text-rendering="auto" fill-opacity="1" contentScriptType="text/ecmascript" color-interpolation="auto" color-rendering="auto" preserveAspectRatio="xMidYMid meet" font-size="12" viewBox="0 0 877 1020" fill="black" stroke="black" image-rendering="auto" stroke-miterlimit="10" zoomAndPan="magnify" version="1.0" stroke-linecap="square" stroke-linejoin="miter" contentStyleType="text/css" font-style="normal" height="1020" stroke-width="1" stroke-dashoffset="0" font-weight="normal" stroke-opacity="1">
<!--Generated by the Batik Graphics2D SVG Generator-->
<defs id="genericDefs"/>
<g>
<defs id="defs1">
<linearGradient x1="10" x2="10" y1="10" gradientUnits="userSpaceOnUse" y2="767" xlink:type="simple" xlink:actuate="onLoad" id="linearGradient1" xlink:show="other" spreadMethod="pad">
<stop stop-opacity="1" stop-color="white" offset="0%"/>
<stop stop-opacity="1" stop-color="white" offset="100%"/>
</linearGradient>
<linearGradient x1="340" x2="340" y1="45" gradientUnits="userSpaceOnUse" y2="745" xlink:type="simple" xlink:actuate="onLoad" id="linearGradient2" xlink:show="other" spreadMethod="pad">
<stop stop-opacity="1" stop-color="white" offset="0%"/>
<stop stop-opacity="1" stop-color="white" offset="100%"/>
</linearGradient>
<linearGradient x1="65" x2="65" y1="45" gradientUnits="userSpaceOnUse" y2="745" xlink:type="simple" xlink:actuate="onLoad" id="linearGradient3" xlink:show="other" spreadMethod="pad">
<stop stop-opacity="1" stop-color="white" offset="0%"/>
<stop stop-opacity="1" stop-color="white" offset="100%"/>
</linearGradient>
<linearGradient x1="615" x2="615" y1="45" gradientUnits="userSpaceOnUse" y2="745" xlink:type="simple" xlink:actuate="onLoad" id="linearGradient4" xlink:show="other" spreadMethod="pad">
<stop stop-opacity="1" stop-color="white" offset="0%"/>
<stop stop-opacity="1" stop-color="white" offset="100%"/>
</linearGradient>
<clipPath clipPathUnits="userSpaceOnUse" id="clipPath1">
<path d="M10 10 L10 766 L866 766 L866 10 Z"/>
</clipPath>
<clipPath clipPathUnits="userSpaceOnUse" id="clipPath2">
<path d="M7 7 L870 7 L870 770 L7 770 L7 7 Z"/>
</clipPath>
<clipPath clipPathUnits="userSpaceOnUse" id="clipPath3">
<path d="M15 12 L232 12 L232 30 L15 30 L15 12 Z"/>
</clipPath>
<clipPath clipPathUnits="userSpaceOnUse" id="clipPath4">
<path d="M339 44 L441 44 L441 746 L339 746 L339 44 Z"/>
</clipPath>
<clipPath clipPathUnits="userSpaceOnUse" id="clipPath5">
<path d="M340 45 L340 744 L439 744 L439 45 Z"/>
</clipPath>
<clipPath clipPathUnits="userSpaceOnUse" id="clipPath6">
<path d="M342 47 L439 47 L439 65 L342 65 L342 47 Z"/>
</clipPath>
<clipPath clipPathUnits="userSpaceOnUse" id="clipPath7">
<path d="M64 44 L166 44 L166 746 L64 746 L64 44 Z"/>
</clipPath>
<clipPath clipPathUnits="userSpaceOnUse" id="clipPath8">
<path d="M65 45 L65 744 L164 744 L164 45 Z"/>
</clipPath>
<clipPath clipPathUnits="userSpaceOnUse" id="clipPath9">
<path d="M92 47 L139 47 L139 65 L92 65 L92 47 Z"/>
</clipPath>
<clipPath clipPathUnits="userSpaceOnUse" id="clipPath10">
<path d="M614 44 L716 44 L716 746 L614 746 L614 44 Z"/>
</clipPath>
<clipPath clipPathUnits="userSpaceOnUse" id="clipPath11">
<path d="M615 45 L615 744 L714 744 L714 45 Z"/>
</clipPath>
<clipPath clipPathUnits="userSpaceOnUse" id="clipPath12">
<path d="M642 47 L689 47 L689 65 L642 65 L642 47 Z"/>
</clipPath>
<clipPath clipPathUnits="userSpaceOnUse" id="clipPath13">
<path d="M9 9 L868 9 L868 768 L9 768 L9 9 Z"/>
</clipPath>
</defs>
<g fill="url(#linearGradient1)" font-family="'Segoe UI'" stroke-linejoin="round" stroke="url(#linearGradient1)" stroke-width="0" stroke-miterlimit="0">
<rect x="10" y="10" clip-path="url(#clipPath1)" width="857" height="757" stroke="none"/>
</g>
<g stroke-width="0.1" font-family="'Segoe UI'" stroke-linecap="butt">
<line clip-path="url(#clipPath2)" fill="none" x1="245" x2="245" y1="10" y2="23"/>
<line clip-path="url(#clipPath2)" fill="none" x1="245" x2="245" y1="23" y2="23"/>
<line clip-path="url(#clipPath2)" fill="none" x1="245" x2="238" y1="23" y2="29"/>
<line clip-path="url(#clipPath2)" fill="none" x1="238" x2="238" y1="29" y2="29"/>
<line clip-path="url(#clipPath2)" fill="none" x1="238" x2="10" y1="29" y2="29"/>
<text xml:space="preserve" x="16" y="26" clip-path="url(#clipPath3)" stroke="none">configureSecurityAccess - scenario #01  </text>
<rect x="340" y="45" clip-path="url(#clipPath4)" fill="none" width="99" height="19" stroke-width="1.1"/>
<line clip-path="url(#clipPath4)" fill="none" x1="390" x2="390" y1="64" y2="744" stroke-dasharray="5,5" stroke-width="1.1"/>
</g>
<g stroke-linecap="butt" fill="url(#linearGradient2)" font-family="'Segoe UI'" stroke-dasharray="5,5" stroke="url(#linearGradient2)" stroke-width="1.1">
<rect x="340" y="45" clip-path="url(#clipPath5)" width="100" opacity="0" height="700" stroke="none"/>
<text x="343" y="61" clip-path="url(#clipPath6)" fill="black" stroke="none" xml:space="preserve">pSUD : SmartHo...</text>
<rect x="65" y="45" clip-path="url(#clipPath7)" fill="none" width="99" stroke-dasharray="none" height="19" stroke="black"/>
<line clip-path="url(#clipPath7)" fill="none" x1="115" x2="115" y1="64" y2="744" stroke="black"/>
<rect x="65" y="45" clip-path="url(#clipPath8)" fill="url(#linearGradient3)" width="100" opacity="0" height="700" stroke="none"/>
<text x="93" y="61" clip-path="url(#clipPath9)" fill="black" stroke="none" xml:space="preserve">Lifeline2</text>
<rect x="615" y="45" clip-path="url(#clipPath10)" fill="none" width="99" stroke-dasharray="none" height="19" stroke="black"/>
<line clip-path="url(#clipPath10)" fill="none" x1="665" x2="665" y1="64" y2="744" stroke="black"/>
<rect x="615" y="45" clip-path="url(#clipPath11)" fill="url(#linearGradient4)" width="100" opacity="0" height="700" stroke="none"/>
<text x="643" y="61" clip-path="url(#clipPath12)" fill="black" stroke="none" xml:space="preserve">Lifeline3</text>
<rect x="10" y="10" clip-path="url(#clipPath13)" fill="none" width="856" stroke-dasharray="none" rx="0" ry="0" height="756" stroke="black"/>
</g>
</g>
</svg>
