<?xml version="1.0" encoding="UTF-8"?><svg xmlns="http://www.w3.org/2000/svg" xmlns:xlink="http://www.w3.org/1999/xlink" stroke-dasharray="none" shape-rendering="auto" font-family="'Dialog'" width="1274" text-rendering="auto" fill-opacity="1" contentScriptType="text/ecmascript" color-interpolation="auto" color-rendering="auto" preserveAspectRatio="xMidYMid meet" font-size="12" viewBox="0 0 1274 629" fill="black" stroke="black" image-rendering="auto" stroke-miterlimit="10" zoomAndPan="magnify" version="1.0" stroke-linecap="square" stroke-linejoin="miter" contentStyleType="text/css" font-style="normal" height="629" stroke-width="1" stroke-dashoffset="0" font-weight="normal" stroke-opacity="1">
<!--Generated by the Batik Graphics2D SVG Generator-->
<defs id="genericDefs"/>
<g>
<defs id="defs1">
<linearGradient x1="428" x2="428" y1="63" gradientUnits="userSpaceOnUse" y2="134" xlink:type="simple" xlink:actuate="onLoad" id="linearGradient1" xlink:show="other" spreadMethod="pad">
<stop stop-opacity="1" stop-color="white" offset="0%"/>
<stop stop-opacity="1" stop-color="white" offset="100%"/>
</linearGradient>
<linearGradient x1="13" x2="13" y1="223" gradientUnits="userSpaceOnUse" y2="363" xlink:type="simple" xlink:actuate="onLoad" id="linearGradient2" xlink:show="other" spreadMethod="pad">
<stop stop-opacity="1" stop-color="white" offset="0%"/>
<stop stop-opacity="1" stop-color="white" offset="100%"/>
</linearGradient>
<linearGradient x1="193" x2="193" y1="223" gradientUnits="userSpaceOnUse" y2="363" xlink:type="simple" xlink:actuate="onLoad" id="linearGradient3" xlink:show="other" spreadMethod="pad">
<stop stop-opacity="1" stop-color="white" offset="0%"/>
<stop stop-opacity="1" stop-color="white" offset="100%"/>
</linearGradient>
<linearGradient x1="553" x2="553" y1="223" gradientUnits="userSpaceOnUse" y2="363" xlink:type="simple" xlink:actuate="onLoad" id="linearGradient4" xlink:show="other" spreadMethod="pad">
<stop stop-opacity="1" stop-color="white" offset="0%"/>
<stop stop-opacity="1" stop-color="white" offset="100%"/>
</linearGradient>
<linearGradient x1="373" x2="373" y1="223" gradientUnits="userSpaceOnUse" y2="363" xlink:type="simple" xlink:actuate="onLoad" id="linearGradient5" xlink:show="other" spreadMethod="pad">
<stop stop-opacity="1" stop-color="white" offset="0%"/>
<stop stop-opacity="1" stop-color="white" offset="100%"/>
</linearGradient>
<linearGradient x1="733" x2="733" y1="223" gradientUnits="userSpaceOnUse" y2="363" xlink:type="simple" xlink:actuate="onLoad" id="linearGradient6" xlink:show="other" spreadMethod="pad">
<stop stop-opacity="1" stop-color="white" offset="0%"/>
<stop stop-opacity="1" stop-color="white" offset="100%"/>
</linearGradient>
<linearGradient x1="913" x2="913" y1="223" gradientUnits="userSpaceOnUse" y2="363" xlink:type="simple" xlink:actuate="onLoad" id="linearGradient7" xlink:show="other" spreadMethod="pad">
<stop stop-opacity="1" stop-color="white" offset="0%"/>
<stop stop-opacity="1" stop-color="white" offset="100%"/>
</linearGradient>
<linearGradient x1="1093" x2="1093" y1="223" gradientUnits="userSpaceOnUse" y2="363" xlink:type="simple" xlink:actuate="onLoad" id="linearGradient8" xlink:show="other" spreadMethod="pad">
<stop stop-opacity="1" stop-color="white" offset="0%"/>
<stop stop-opacity="1" stop-color="white" offset="100%"/>
</linearGradient>
<linearGradient x1="308" x2="308" y1="398" gradientUnits="userSpaceOnUse" y2="504" xlink:type="simple" xlink:actuate="onLoad" id="linearGradient9" xlink:show="other" spreadMethod="pad">
<stop stop-opacity="1" stop-color="white" offset="0%"/>
<stop stop-opacity="1" stop-color="white" offset="100%"/>
</linearGradient>
<linearGradient x1="308" x2="308" y1="513" gradientUnits="userSpaceOnUse" y2="619" xlink:type="simple" xlink:actuate="onLoad" id="linearGradient10" xlink:show="other" spreadMethod="pad">
<stop stop-opacity="1" stop-color="white" offset="0%"/>
<stop stop-opacity="1" stop-color="white" offset="100%"/>
</linearGradient>
<linearGradient x1="58" x2="58" y1="513" gradientUnits="userSpaceOnUse" y2="619" xlink:type="simple" xlink:actuate="onLoad" id="linearGradient11" xlink:show="other" spreadMethod="pad">
<stop stop-opacity="1" stop-color="white" offset="0%"/>
<stop stop-opacity="1" stop-color="white" offset="100%"/>
</linearGradient>
<linearGradient x1="58" x2="58" y1="398" gradientUnits="userSpaceOnUse" y2="504" xlink:type="simple" xlink:actuate="onLoad" id="linearGradient12" xlink:show="other" spreadMethod="pad">
<stop stop-opacity="1" stop-color="white" offset="0%"/>
<stop stop-opacity="1" stop-color="white" offset="100%"/>
</linearGradient>
<linearGradient x1="553" x2="553" y1="428" gradientUnits="userSpaceOnUse" y2="568" xlink:type="simple" xlink:actuate="onLoad" id="linearGradient13" xlink:show="other" spreadMethod="pad">
<stop stop-opacity="1" stop-color="white" offset="0%"/>
<stop stop-opacity="1" stop-color="white" offset="100%"/>
</linearGradient>
<clipPath clipPathUnits="userSpaceOnUse" id="clipPath1">
<path d="M428 63 L428 133 L687 133 L687 63 Z"/>
</clipPath>
<clipPath clipPathUnits="userSpaceOnUse" id="clipPath2">
<path d="M517 62 L600 62 L600 80 L517 80 L517 62 Z"/>
</clipPath>
<clipPath clipPathUnits="userSpaceOnUse" id="clipPath3">
<path d="M515 79 L602 79 L602 97 L515 97 L515 79 Z"/>
</clipPath>
<clipPath clipPathUnits="userSpaceOnUse" id="clipPath4">
<path d="M433 98 L503 98 L503 116 L433 116 L433 98 Z"/>
</clipPath>
<clipPath clipPathUnits="userSpaceOnUse" id="clipPath5">
<path d="M433 114 L663 114 L663 132 L433 132 L433 114 Z"/>
</clipPath>
<clipPath clipPathUnits="userSpaceOnUse" id="clipPath6">
<path d="M428 96 L689 96 L689 135 L428 135 L428 96 Z"/>
</clipPath>
<clipPath clipPathUnits="userSpaceOnUse" id="clipPath7">
<path d="M427 62 L689 62 L689 135 L427 135 L427 62 Z"/>
</clipPath>
<clipPath clipPathUnits="userSpaceOnUse" id="clipPath8">
<path d="M13 223 L13 362 L183 362 L183 223 Z"/>
</clipPath>
<clipPath clipPathUnits="userSpaceOnUse" id="clipPath9">
<path d="M58 222 L141 222 L141 240 L58 240 L58 222 Z"/>
</clipPath>
<clipPath clipPathUnits="userSpaceOnUse" id="clipPath10">
<path d="M54 239 L145 239 L145 257 L54 257 L54 239 Z"/>
</clipPath>
<clipPath clipPathUnits="userSpaceOnUse" id="clipPath11">
<path d="M18 258 L113 258 L113 276 L18 276 L18 258 Z"/>
</clipPath>
<clipPath clipPathUnits="userSpaceOnUse" id="clipPath12">
<path d="M18 274 L160 274 L160 340 L18 340 L18 274 Z"/>
</clipPath>
<clipPath clipPathUnits="userSpaceOnUse" id="clipPath13">
<path d="M13 256 L185 256 L185 351 L13 351 L13 256 Z"/>
</clipPath>
<clipPath clipPathUnits="userSpaceOnUse" id="clipPath14">
<path d="M12 222 L185 222 L185 364 L12 364 L12 222 Z"/>
</clipPath>
<clipPath clipPathUnits="userSpaceOnUse" id="clipPath15">
<path d="M193 223 L193 362 L363 362 L363 223 Z"/>
</clipPath>
<clipPath clipPathUnits="userSpaceOnUse" id="clipPath16">
<path d="M238 222 L321 222 L321 240 L238 240 L238 222 Z"/>
</clipPath>
<clipPath clipPathUnits="userSpaceOnUse" id="clipPath17">
<path d="M228 239 L331 239 L331 257 L228 257 L228 239 Z"/>
</clipPath>
<clipPath clipPathUnits="userSpaceOnUse" id="clipPath18">
<path d="M198 258 L293 258 L293 276 L198 276 L198 258 Z"/>
</clipPath>
<clipPath clipPathUnits="userSpaceOnUse" id="clipPath19">
<path d="M198 274 L340 274 L340 340 L198 340 L198 274 Z"/>
</clipPath>
<clipPath clipPathUnits="userSpaceOnUse" id="clipPath20">
<path d="M193 256 L365 256 L365 351 L193 351 L193 256 Z"/>
</clipPath>
<clipPath clipPathUnits="userSpaceOnUse" id="clipPath21">
<path d="M192 222 L365 222 L365 364 L192 364 L192 222 Z"/>
</clipPath>
<clipPath clipPathUnits="userSpaceOnUse" id="clipPath22">
<path d="M553 223 L553 362 L723 362 L723 223 Z"/>
</clipPath>
<clipPath clipPathUnits="userSpaceOnUse" id="clipPath23">
<path d="M598 222 L681 222 L681 240 L598 240 L598 222 Z"/>
</clipPath>
<clipPath clipPathUnits="userSpaceOnUse" id="clipPath24">
<path d="M593 239 L686 239 L686 257 L593 257 L593 239 Z"/>
</clipPath>
<clipPath clipPathUnits="userSpaceOnUse" id="clipPath25">
<path d="M558 258 L653 258 L653 276 L558 276 L558 258 Z"/>
</clipPath>
<clipPath clipPathUnits="userSpaceOnUse" id="clipPath26">
<path d="M558 274 L716 274 L716 324 L558 324 L558 274 Z"/>
</clipPath>
<clipPath clipPathUnits="userSpaceOnUse" id="clipPath27">
<path d="M553 256 L725 256 L725 335 L553 335 L553 256 Z"/>
</clipPath>
<clipPath clipPathUnits="userSpaceOnUse" id="clipPath28">
<path d="M552 222 L725 222 L725 364 L552 364 L552 222 Z"/>
</clipPath>
<clipPath clipPathUnits="userSpaceOnUse" id="clipPath29">
<path d="M373 223 L373 362 L543 362 L543 223 Z"/>
</clipPath>
<clipPath clipPathUnits="userSpaceOnUse" id="clipPath30">
<path d="M418 222 L501 222 L501 240 L418 240 L418 222 Z"/>
</clipPath>
<clipPath clipPathUnits="userSpaceOnUse" id="clipPath31">
<path d="M414 239 L504 239 L504 257 L414 257 L414 239 Z"/>
</clipPath>
<clipPath clipPathUnits="userSpaceOnUse" id="clipPath32">
<path d="M378 258 L473 258 L473 276 L378 276 L378 258 Z"/>
</clipPath>
<clipPath clipPathUnits="userSpaceOnUse" id="clipPath33">
<path d="M378 274 L541 274 L541 340 L378 340 L378 274 Z"/>
</clipPath>
<clipPath clipPathUnits="userSpaceOnUse" id="clipPath34">
<path d="M373 256 L545 256 L545 351 L373 351 L373 256 Z"/>
</clipPath>
<clipPath clipPathUnits="userSpaceOnUse" id="clipPath35">
<path d="M372 222 L545 222 L545 364 L372 364 L372 222 Z"/>
</clipPath>
<clipPath clipPathUnits="userSpaceOnUse" id="clipPath36">
<path d="M733 223 L733 362 L903 362 L903 223 Z"/>
</clipPath>
<clipPath clipPathUnits="userSpaceOnUse" id="clipPath37">
<path d="M778 222 L861 222 L861 240 L778 240 L778 222 Z"/>
</clipPath>
<clipPath clipPathUnits="userSpaceOnUse" id="clipPath38">
<path d="M797 239 L841 239 L841 257 L797 257 L797 239 Z"/>
</clipPath>
<clipPath clipPathUnits="userSpaceOnUse" id="clipPath39">
<path d="M738 258 L833 258 L833 276 L738 276 L738 258 Z"/>
</clipPath>
<clipPath clipPathUnits="userSpaceOnUse" id="clipPath40">
<path d="M738 274 L880 274 L880 340 L738 340 L738 274 Z"/>
</clipPath>
<clipPath clipPathUnits="userSpaceOnUse" id="clipPath41">
<path d="M733 256 L905 256 L905 351 L733 351 L733 256 Z"/>
</clipPath>
<clipPath clipPathUnits="userSpaceOnUse" id="clipPath42">
<path d="M732 222 L905 222 L905 364 L732 364 L732 222 Z"/>
</clipPath>
<clipPath clipPathUnits="userSpaceOnUse" id="clipPath43">
<path d="M913 223 L913 362 L1083 362 L1083 223 Z"/>
</clipPath>
<clipPath clipPathUnits="userSpaceOnUse" id="clipPath44">
<path d="M958 222 L1041 222 L1041 240 L958 240 L958 222 Z"/>
</clipPath>
<clipPath clipPathUnits="userSpaceOnUse" id="clipPath45">
<path d="M943 239 L1056 239 L1056 257 L943 257 L943 239 Z"/>
</clipPath>
<clipPath clipPathUnits="userSpaceOnUse" id="clipPath46">
<path d="M918 258 L1013 258 L1013 276 L918 276 L918 258 Z"/>
</clipPath>
<clipPath clipPathUnits="userSpaceOnUse" id="clipPath47">
<path d="M918 274 L1079 274 L1079 340 L918 340 L918 274 Z"/>
</clipPath>
<clipPath clipPathUnits="userSpaceOnUse" id="clipPath48">
<path d="M913 256 L1085 256 L1085 351 L913 351 L913 256 Z"/>
</clipPath>
<clipPath clipPathUnits="userSpaceOnUse" id="clipPath49">
<path d="M912 222 L1085 222 L1085 364 L912 364 L912 222 Z"/>
</clipPath>
<clipPath clipPathUnits="userSpaceOnUse" id="clipPath50">
<path d="M1093 223 L1093 362 L1263 362 L1263 223 Z"/>
</clipPath>
<clipPath clipPathUnits="userSpaceOnUse" id="clipPath51">
<path d="M1138 222 L1221 222 L1221 240 L1138 240 L1138 222 Z"/>
</clipPath>
<clipPath clipPathUnits="userSpaceOnUse" id="clipPath52">
<path d="M1105 239 L1253 239 L1253 257 L1105 257 L1105 239 Z"/>
</clipPath>
<clipPath clipPathUnits="userSpaceOnUse" id="clipPath53">
<path d="M1098 258 L1193 258 L1193 276 L1098 276 L1098 258 Z"/>
</clipPath>
<clipPath clipPathUnits="userSpaceOnUse" id="clipPath54">
<path d="M1098 274 L1257 274 L1257 340 L1098 340 L1098 274 Z"/>
</clipPath>
<clipPath clipPathUnits="userSpaceOnUse" id="clipPath55">
<path d="M1093 256 L1265 256 L1265 351 L1093 351 L1093 256 Z"/>
</clipPath>
<clipPath clipPathUnits="userSpaceOnUse" id="clipPath56">
<path d="M1092 222 L1265 222 L1265 364 L1092 364 L1092 222 Z"/>
</clipPath>
<clipPath clipPathUnits="userSpaceOnUse" id="clipPath57">
<path d="M308 398 L308 503 L498 503 L498 398 Z"/>
</clipPath>
<clipPath clipPathUnits="userSpaceOnUse" id="clipPath58">
<path d="M363 397 L446 397 L446 415 L363 415 L363 397 Z"/>
</clipPath>
<clipPath clipPathUnits="userSpaceOnUse" id="clipPath59">
<path d="M324 414 L484 414 L484 432 L324 432 L324 414 Z"/>
</clipPath>
<clipPath clipPathUnits="userSpaceOnUse" id="clipPath60">
<path d="M313 433 L432 433 L432 451 L313 451 L313 433 Z"/>
</clipPath>
<clipPath clipPathUnits="userSpaceOnUse" id="clipPath61">
<path d="M313 449 L479 449 L479 499 L313 499 L313 449 Z"/>
</clipPath>
<clipPath clipPathUnits="userSpaceOnUse" id="clipPath62">
<path d="M308 431 L500 431 L500 505 L308 505 L308 431 Z"/>
</clipPath>
<clipPath clipPathUnits="userSpaceOnUse" id="clipPath63">
<path d="M307 397 L500 397 L500 505 L307 505 L307 397 Z"/>
</clipPath>
<clipPath clipPathUnits="userSpaceOnUse" id="clipPath64">
<path d="M308 513 L308 618 L498 618 L498 513 Z"/>
</clipPath>
<clipPath clipPathUnits="userSpaceOnUse" id="clipPath65">
<path d="M363 512 L446 512 L446 530 L363 530 L363 512 Z"/>
</clipPath>
<clipPath clipPathUnits="userSpaceOnUse" id="clipPath66">
<path d="M327 529 L482 529 L482 547 L327 547 L327 529 Z"/>
</clipPath>
<clipPath clipPathUnits="userSpaceOnUse" id="clipPath67">
<path d="M313 548 L432 548 L432 566 L313 566 L313 548 Z"/>
</clipPath>
<clipPath clipPathUnits="userSpaceOnUse" id="clipPath68">
<path d="M313 564 L479 564 L479 614 L313 614 L313 564 Z"/>
</clipPath>
<clipPath clipPathUnits="userSpaceOnUse" id="clipPath69">
<path d="M308 546 L500 546 L500 620 L308 620 L308 546 Z"/>
</clipPath>
<clipPath clipPathUnits="userSpaceOnUse" id="clipPath70">
<path d="M307 512 L500 512 L500 620 L307 620 L307 512 Z"/>
</clipPath>
<clipPath clipPathUnits="userSpaceOnUse" id="clipPath71">
<path d="M58 513 L58 618 L248 618 L248 513 Z"/>
</clipPath>
<clipPath clipPathUnits="userSpaceOnUse" id="clipPath72">
<path d="M113 512 L196 512 L196 530 L113 530 L113 512 Z"/>
</clipPath>
<clipPath clipPathUnits="userSpaceOnUse" id="clipPath73">
<path d="M83 529 L226 529 L226 547 L83 547 L83 529 Z"/>
</clipPath>
<clipPath clipPathUnits="userSpaceOnUse" id="clipPath74">
<path d="M63 548 L182 548 L182 566 L63 566 L63 548 Z"/>
</clipPath>
<clipPath clipPathUnits="userSpaceOnUse" id="clipPath75">
<path d="M63 564 L229 564 L229 614 L63 614 L63 564 Z"/>
</clipPath>
<clipPath clipPathUnits="userSpaceOnUse" id="clipPath76">
<path d="M58 546 L250 546 L250 620 L58 620 L58 546 Z"/>
</clipPath>
<clipPath clipPathUnits="userSpaceOnUse" id="clipPath77">
<path d="M57 512 L250 512 L250 620 L57 620 L57 512 Z"/>
</clipPath>
<clipPath clipPathUnits="userSpaceOnUse" id="clipPath78">
<path d="M58 398 L58 503 L248 503 L248 398 Z"/>
</clipPath>
<clipPath clipPathUnits="userSpaceOnUse" id="clipPath79">
<path d="M113 397 L196 397 L196 415 L113 415 L113 397 Z"/>
</clipPath>
<clipPath clipPathUnits="userSpaceOnUse" id="clipPath80">
<path d="M80 414 L229 414 L229 432 L80 432 L80 414 Z"/>
</clipPath>
<clipPath clipPathUnits="userSpaceOnUse" id="clipPath81">
<path d="M63 433 L182 433 L182 451 L63 451 L63 433 Z"/>
</clipPath>
<clipPath clipPathUnits="userSpaceOnUse" id="clipPath82">
<path d="M63 449 L229 449 L229 499 L63 499 L63 449 Z"/>
</clipPath>
<clipPath clipPathUnits="userSpaceOnUse" id="clipPath83">
<path d="M58 431 L250 431 L250 505 L58 505 L58 431 Z"/>
</clipPath>
<clipPath clipPathUnits="userSpaceOnUse" id="clipPath84">
<path d="M57 397 L250 397 L250 505 L57 505 L57 397 Z"/>
</clipPath>
<clipPath clipPathUnits="userSpaceOnUse" id="clipPath85">
<path d="M553 428 L553 567 L723 567 L723 428 Z"/>
</clipPath>
<clipPath clipPathUnits="userSpaceOnUse" id="clipPath86">
<path d="M598 427 L681 427 L681 445 L598 445 L598 427 Z"/>
</clipPath>
<clipPath clipPathUnits="userSpaceOnUse" id="clipPath87">
<path d="M605 444 L674 444 L674 462 L605 462 L605 444 Z"/>
</clipPath>
<clipPath clipPathUnits="userSpaceOnUse" id="clipPath88">
<path d="M558 463 L647 463 L647 481 L558 481 L558 463 Z"/>
</clipPath>
<clipPath clipPathUnits="userSpaceOnUse" id="clipPath89">
<path d="M558 479 L712 479 L712 545 L558 545 L558 479 Z"/>
</clipPath>
<clipPath clipPathUnits="userSpaceOnUse" id="clipPath90">
<path d="M553 461 L725 461 L725 556 L553 556 L553 461 Z"/>
</clipPath>
<clipPath clipPathUnits="userSpaceOnUse" id="clipPath91">
<path d="M552 427 L725 427 L725 569 L552 569 L552 427 Z"/>
</clipPath>
<clipPath clipPathUnits="userSpaceOnUse" id="clipPath92">
<path d="M-1 -1 L1275 -1 L1275 630 L-1 630 L-1 -1 Z"/>
</clipPath>
<clipPath clipPathUnits="userSpaceOnUse" id="clipPath93">
<path d="M547 133 L570 133 L570 156 L547 156 L547 133 Z"/>
</clipPath>
<clipPath clipPathUnits="userSpaceOnUse" id="clipPath94">
<path d="M642 384 L715 384 L715 402 L642 402 L642 384 Z"/>
</clipPath>
<clipPath clipPathUnits="userSpaceOnUse" id="clipPath95">
<path d="M627 412 L640 412 L640 430 L627 430 L627 412 Z"/>
</clipPath>
<clipPath clipPathUnits="userSpaceOnUse" id="clipPath96">
<path d="M22 362 L45 362 L45 385 L22 385 L22 362 Z"/>
</clipPath>
<clipPath clipPathUnits="userSpaceOnUse" id="clipPath97">
<path d="M267 362 L290 362 L290 385 L267 385 L267 362 Z"/>
</clipPath>
</defs>
<g fill="url(#linearGradient1)" font-family="'Segoe UI'" stroke-linejoin="round" stroke="url(#linearGradient1)" stroke-width="0" stroke-miterlimit="0">
<rect x="428" y="63" clip-path="url(#clipPath1)" width="260" height="71" stroke="none"/>
<text x="518" y="76" clip-path="url(#clipPath2)" fill="black" stroke="none" xml:space="preserve">«Requirement»</text>
<text x="516" y="93" clip-path="url(#clipPath3)" fill="black" stroke="none" xml:space="preserve">Safety&amp;Security</text>
<text x="434" y="112" clip-path="url(#clipPath4)" fill="black" stroke="none" xml:space="preserve">id=SHS_SEC </text>
<text x="434" y="128" clip-path="url(#clipPath5)" fill="black" stroke="none" xml:space="preserve">text=The system must be safe and secure. </text>
</g>
<g stroke-width="1.1" font-family="'Segoe UI'" stroke-linecap="butt">
<line clip-path="url(#clipPath6)" fill="none" x1="428" x2="688" y1="97" y2="97"/>
<line clip-path="url(#clipPath7)" fill="none" x1="428" x2="688" y1="97" y2="97"/>
<rect x="428" y="63" clip-path="url(#clipPath7)" fill="none" width="259" rx="0" ry="0" height="70"/>
<rect x="13" y="223" clip-path="url(#clipPath8)" fill="url(#linearGradient2)" width="171" height="140" stroke="none"/>
<text xml:space="preserve" x="59" y="236" clip-path="url(#clipPath9)" stroke="none">«Requirement»</text>
<text xml:space="preserve" x="55" y="253" clip-path="url(#clipPath10)" stroke="none">PhyIntrusionMgt</text>
<text xml:space="preserve" x="19" y="272" clip-path="url(#clipPath11)" stroke="none">id=SHS_SEC_010 </text>
<text xml:space="preserve" x="19" y="288" clip-path="url(#clipPath12)" stroke="none">text=The system must</text>
<text xml:space="preserve" x="19" y="304" clip-path="url(#clipPath12)" stroke="none">support prevention and</text>
<text xml:space="preserve" x="19" y="320" clip-path="url(#clipPath12)" stroke="none">detection of unauthorized</text>
<text xml:space="preserve" x="19" y="336" clip-path="url(#clipPath12)" stroke="none">physical intrusion. dddd </text>
<line clip-path="url(#clipPath13)" fill="none" x1="13" x2="184" y1="257" y2="257"/>
<line clip-path="url(#clipPath14)" fill="none" x1="13" x2="184" y1="257" y2="257"/>
<rect x="13" y="223" clip-path="url(#clipPath14)" fill="none" width="170" rx="0" ry="0" height="139"/>
<rect x="193" y="223" clip-path="url(#clipPath15)" fill="url(#linearGradient3)" width="171" height="140" stroke="none"/>
<text xml:space="preserve" x="239" y="236" clip-path="url(#clipPath16)" stroke="none">«Requirement»</text>
<text xml:space="preserve" x="229" y="253" clip-path="url(#clipPath17)" stroke="none">CyberIntrusionMgt</text>
<text xml:space="preserve" x="199" y="272" clip-path="url(#clipPath18)" stroke="none">id=SHS_SEC_020 </text>
<text xml:space="preserve" x="199" y="288" clip-path="url(#clipPath19)" stroke="none">text=The system must</text>
<text xml:space="preserve" x="199" y="304" clip-path="url(#clipPath19)" stroke="none">support prevention and</text>
<text xml:space="preserve" x="199" y="320" clip-path="url(#clipPath19)" stroke="none">detection of unauthorized</text>
<text xml:space="preserve" x="199" y="336" clip-path="url(#clipPath19)" stroke="none">computer intrusion. </text>
<line clip-path="url(#clipPath20)" fill="none" x1="193" x2="364" y1="257" y2="257"/>
<line clip-path="url(#clipPath21)" fill="none" x1="193" x2="364" y1="257" y2="257"/>
<rect x="193" y="223" clip-path="url(#clipPath21)" fill="none" width="170" rx="0" ry="0" height="139"/>
<rect x="553" y="223" clip-path="url(#clipPath22)" fill="url(#linearGradient4)" width="171" height="140" stroke="none"/>
<text xml:space="preserve" x="599" y="236" clip-path="url(#clipPath23)" stroke="none">«Requirement»</text>
<text xml:space="preserve" x="594" y="253" clip-path="url(#clipPath24)" stroke="none">ID_AccessControl</text>
<text xml:space="preserve" x="559" y="272" clip-path="url(#clipPath25)" stroke="none">id=SHS_SEC_030 </text>
<text xml:space="preserve" x="559" y="288" clip-path="url(#clipPath26)" stroke="none">text=The system must</text>
<text xml:space="preserve" x="559" y="304" clip-path="url(#clipPath26)" stroke="none">provide an identification-</text>
<text xml:space="preserve" x="559" y="320" clip-path="url(#clipPath26)" stroke="none">based access control system. </text>
<line clip-path="url(#clipPath27)" fill="none" x1="553" x2="724" y1="257" y2="257"/>
<line clip-path="url(#clipPath28)" fill="none" x1="553" x2="724" y1="257" y2="257"/>
<rect x="553" y="223" clip-path="url(#clipPath28)" fill="none" width="170" rx="0" ry="0" height="139"/>
<rect x="373" y="223" clip-path="url(#clipPath29)" fill="url(#linearGradient5)" width="171" height="140" stroke="none"/>
<text xml:space="preserve" x="419" y="236" clip-path="url(#clipPath30)" stroke="none">«Requirement»</text>
<text xml:space="preserve" x="415" y="253" clip-path="url(#clipPath31)" stroke="none">PoliceStationCall</text>
<text xml:space="preserve" x="379" y="272" clip-path="url(#clipPath32)" stroke="none">id=SHS_SEC_040 </text>
<text xml:space="preserve" x="379" y="288" clip-path="url(#clipPath33)" stroke="none">text=The system must call the</text>
<text xml:space="preserve" x="379" y="304" clip-path="url(#clipPath33)" stroke="none">police station in case of</text>
<text xml:space="preserve" x="379" y="320" clip-path="url(#clipPath33)" stroke="none">burglary or any other</text>
<text xml:space="preserve" x="379" y="336" clip-path="url(#clipPath33)" stroke="none">unauthorized intrusion. </text>
<line clip-path="url(#clipPath34)" fill="none" x1="373" x2="544" y1="257" y2="257"/>
<line clip-path="url(#clipPath35)" fill="none" x1="373" x2="544" y1="257" y2="257"/>
<rect x="373" y="223" clip-path="url(#clipPath35)" fill="none" width="170" rx="0" ry="0" height="139"/>
<rect x="733" y="223" clip-path="url(#clipPath36)" fill="url(#linearGradient6)" width="171" height="140" stroke="none"/>
<text xml:space="preserve" x="779" y="236" clip-path="url(#clipPath37)" stroke="none">«Requirement»</text>
<text xml:space="preserve" x="798" y="253" clip-path="url(#clipPath38)" stroke="none">FireMgt</text>
<text xml:space="preserve" x="739" y="272" clip-path="url(#clipPath39)" stroke="none">id=SHS_SEC_050 </text>
<text xml:space="preserve" x="739" y="288" clip-path="url(#clipPath40)" stroke="none">text=The system must be</text>
<text xml:space="preserve" x="739" y="304" clip-path="url(#clipPath40)" stroke="none">able to detect signs of fire</text>
<text xml:space="preserve" x="739" y="320" clip-path="url(#clipPath40)" stroke="none">and call the fire station in</text>
<text xml:space="preserve" x="739" y="336" clip-path="url(#clipPath40)" stroke="none">case of suspicion of fire. </text>
<line clip-path="url(#clipPath41)" fill="none" x1="733" x2="904" y1="257" y2="257"/>
<line clip-path="url(#clipPath42)" fill="none" x1="733" x2="904" y1="257" y2="257"/>
<rect x="733" y="223" clip-path="url(#clipPath42)" fill="none" width="170" rx="0" ry="0" height="139"/>
<rect x="913" y="223" clip-path="url(#clipPath43)" fill="url(#linearGradient7)" width="171" height="140" stroke="none"/>
<text xml:space="preserve" x="959" y="236" clip-path="url(#clipPath44)" stroke="none">«Requirement»</text>
<text xml:space="preserve" x="944" y="253" clip-path="url(#clipPath45)" stroke="none">HelthEmergencyMgt</text>
<text xml:space="preserve" x="919" y="272" clip-path="url(#clipPath46)" stroke="none">id=SHS_SEC_060 </text>
<text xml:space="preserve" x="919" y="288" clip-path="url(#clipPath47)" stroke="none">text=The system must be</text>
<text xml:space="preserve" x="919" y="304" clip-path="url(#clipPath47)" stroke="none">able to detect certain medical</text>
<text xml:space="preserve" x="919" y="320" clip-path="url(#clipPath47)" stroke="none">emergencies (e.g., accidents,</text>
<text xml:space="preserve" x="919" y="336" clip-path="url(#clipPath47)" stroke="none">falls) and call an ambulance. </text>
<line clip-path="url(#clipPath48)" fill="none" x1="913" x2="1084" y1="257" y2="257"/>
<line clip-path="url(#clipPath49)" fill="none" x1="913" x2="1084" y1="257" y2="257"/>
<rect x="913" y="223" clip-path="url(#clipPath49)" fill="none" width="170" rx="0" ry="0" height="139"/>
<rect x="1093" y="223" clip-path="url(#clipPath50)" fill="url(#linearGradient8)" width="171" height="140" stroke="none"/>
<text xml:space="preserve" x="1139" y="236" clip-path="url(#clipPath51)" stroke="none">«Requirement»</text>
<text xml:space="preserve" x="1106" y="253" clip-path="url(#clipPath52)" stroke="none">EmergencyAccessControlGt</text>
<text xml:space="preserve" x="1099" y="272" clip-path="url(#clipPath53)" stroke="none">id=SHS_SEC_070 </text>
<text xml:space="preserve" x="1099" y="288" clip-path="url(#clipPath54)" stroke="none">text=The system must allow</text>
<text xml:space="preserve" x="1099" y="304" clip-path="url(#clipPath54)" stroke="none">physical access to emergency</text>
<text xml:space="preserve" x="1099" y="320" clip-path="url(#clipPath54)" stroke="none">services (firemen, hospital</text>
<text xml:space="preserve" x="1099" y="336" clip-path="url(#clipPath54)" stroke="none">service, etc.). </text>
<line clip-path="url(#clipPath55)" fill="none" x1="1093" x2="1264" y1="257" y2="257"/>
<line clip-path="url(#clipPath56)" fill="none" x1="1093" x2="1264" y1="257" y2="257"/>
<rect x="1093" y="223" clip-path="url(#clipPath56)" fill="none" width="170" rx="0" ry="0" height="139"/>
<rect x="308" y="398" clip-path="url(#clipPath57)" fill="url(#linearGradient9)" width="191" height="106" stroke="none"/>
<text xml:space="preserve" x="364" y="411" clip-path="url(#clipPath58)" stroke="none">«Requirement»</text>
<text xml:space="preserve" x="325" y="428" clip-path="url(#clipPath59)" stroke="none">CyberIntrusionPreventionMgt</text>
<text xml:space="preserve" x="314" y="447" clip-path="url(#clipPath60)" stroke="none">id=SHS_SEC_020_010 </text>
<text xml:space="preserve" x="314" y="463" clip-path="url(#clipPath61)" stroke="none">text=The system must support</text>
<text xml:space="preserve" x="314" y="479" clip-path="url(#clipPath61)" stroke="none">prevention of unauthorized</text>
<text xml:space="preserve" x="314" y="495" clip-path="url(#clipPath61)" stroke="none">computer intrusion. </text>
<line clip-path="url(#clipPath62)" fill="none" x1="308" x2="499" y1="432" y2="432"/>
<line clip-path="url(#clipPath63)" fill="none" x1="308" x2="499" y1="432" y2="432"/>
<rect x="308" y="398" clip-path="url(#clipPath63)" fill="none" width="190" rx="0" ry="0" height="105"/>
<rect x="308" y="513" clip-path="url(#clipPath64)" fill="url(#linearGradient10)" width="191" height="106" stroke="none"/>
<text xml:space="preserve" x="364" y="526" clip-path="url(#clipPath65)" stroke="none">«Requirement»</text>
<text xml:space="preserve" x="328" y="543" clip-path="url(#clipPath66)" stroke="none">CyberIntrusionDetectionMgt</text>
<text xml:space="preserve" x="314" y="562" clip-path="url(#clipPath67)" stroke="none">id=SHS_SEC_020_020 </text>
<text xml:space="preserve" x="314" y="578" clip-path="url(#clipPath68)" stroke="none">text=The system must support</text>
<text xml:space="preserve" x="314" y="594" clip-path="url(#clipPath68)" stroke="none">detection of unauthorized</text>
<text xml:space="preserve" x="314" y="610" clip-path="url(#clipPath68)" stroke="none">computer intrusion. </text>
<line clip-path="url(#clipPath69)" fill="none" x1="308" x2="499" y1="547" y2="547"/>
<line clip-path="url(#clipPath70)" fill="none" x1="308" x2="499" y1="547" y2="547"/>
<rect x="308" y="513" clip-path="url(#clipPath70)" fill="none" width="190" rx="0" ry="0" height="105"/>
<rect x="58" y="513" clip-path="url(#clipPath71)" fill="url(#linearGradient11)" width="191" height="106" stroke="none"/>
<text xml:space="preserve" x="114" y="526" clip-path="url(#clipPath72)" stroke="none">«Requirement»</text>
<text xml:space="preserve" x="84" y="543" clip-path="url(#clipPath73)" stroke="none">PhyIntrusionDetectionMgt</text>
<text xml:space="preserve" x="64" y="562" clip-path="url(#clipPath74)" stroke="none">id=SHS_SEC_010_020 </text>
<text xml:space="preserve" x="64" y="578" clip-path="url(#clipPath75)" stroke="none">text=The system must support</text>
<text xml:space="preserve" x="64" y="594" clip-path="url(#clipPath75)" stroke="none">detection of unauthorized</text>
<text xml:space="preserve" x="64" y="610" clip-path="url(#clipPath75)" stroke="none">physical intrusion. </text>
<line clip-path="url(#clipPath76)" fill="none" x1="58" x2="249" y1="547" y2="547"/>
<line clip-path="url(#clipPath77)" fill="none" x1="58" x2="249" y1="547" y2="547"/>
<rect x="58" y="513" clip-path="url(#clipPath77)" fill="none" width="190" rx="0" ry="0" height="105"/>
<rect x="58" y="398" clip-path="url(#clipPath78)" fill="url(#linearGradient12)" width="191" height="106" stroke="none"/>
<text xml:space="preserve" x="114" y="411" clip-path="url(#clipPath79)" stroke="none">«Requirement»</text>
<text xml:space="preserve" x="81" y="428" clip-path="url(#clipPath80)" stroke="none">PhyIntrusionPreventionMgt</text>
<text xml:space="preserve" x="64" y="447" clip-path="url(#clipPath81)" stroke="none">id=SHS_SEC_010_010 </text>
<text xml:space="preserve" x="64" y="463" clip-path="url(#clipPath82)" stroke="none">text=The system must support</text>
<text xml:space="preserve" x="64" y="479" clip-path="url(#clipPath82)" stroke="none">prevention of unauthorized</text>
<text xml:space="preserve" x="64" y="495" clip-path="url(#clipPath82)" stroke="none">physical intrusion. </text>
<line clip-path="url(#clipPath83)" fill="none" x1="58" x2="249" y1="432" y2="432"/>
<line clip-path="url(#clipPath84)" fill="none" x1="58" x2="249" y1="432" y2="432"/>
<rect x="58" y="398" clip-path="url(#clipPath84)" fill="none" width="190" rx="0" ry="0" height="105"/>
<rect x="553" y="428" clip-path="url(#clipPath85)" fill="url(#linearGradient13)" width="171" height="140" stroke="none"/>
<text xml:space="preserve" x="599" y="441" clip-path="url(#clipPath86)" stroke="none">«Requirement»</text>
<text xml:space="preserve" x="606" y="458" clip-path="url(#clipPath87)" stroke="none">ListOfPeople</text>
<text xml:space="preserve" x="559" y="477" clip-path="url(#clipPath88)" stroke="none">id=SH_DET_001 </text>
<text xml:space="preserve" x="559" y="493" clip-path="url(#clipPath89)" stroke="none">text=The system must have</text>
<text xml:space="preserve" x="559" y="509" clip-path="url(#clipPath89)" stroke="none">access to a list of authorized</text>
<text xml:space="preserve" x="559" y="525" clip-path="url(#clipPath89)" stroke="none">people with their level of</text>
<text xml:space="preserve" x="559" y="541" clip-path="url(#clipPath89)" stroke="none">access. </text>
<line clip-path="url(#clipPath90)" fill="none" x1="553" x2="724" y1="462" y2="462"/>
<line clip-path="url(#clipPath91)" fill="none" x1="553" x2="724" y1="462" y2="462"/>
<rect x="553" y="428" clip-path="url(#clipPath91)" fill="none" width="170" rx="0" ry="0" height="139"/>
<line clip-path="url(#clipPath92)" fill="none" text-rendering="optimizeLegibility" x1="558" x2="558" y1="134" y2="173"/>
<line clip-path="url(#clipPath92)" fill="none" text-rendering="optimizeLegibility" x1="558" x2="98" y1="173" y2="173"/>
<line clip-path="url(#clipPath92)" fill="none" text-rendering="optimizeLegibility" x1="98" x2="98" y1="173" y2="223"/>
<circle clip-path="url(#clipPath93)" fill="white" text-rendering="optimizeLegibility" r="9.5" cx="557.5" cy="143.5" stroke="none"/>
<line clip-path="url(#clipPath93)" fill="none" text-rendering="optimizeLegibility" x1="548" x2="568" y1="144" y2="144" stroke-width="0.1"/>
<line clip-path="url(#clipPath93)" fill="none" text-rendering="optimizeLegibility" x1="558" x2="558" y1="134" y2="154" stroke-width="0.1"/>
<circle clip-path="url(#clipPath93)" fill="none" text-rendering="optimizeLegibility" r="10" cx="558" cy="144" stroke-width="0.1"/>
<line clip-path="url(#clipPath92)" fill="none" text-rendering="optimizeLegibility" x1="558" x2="558" y1="134" y2="173"/>
<line clip-path="url(#clipPath92)" fill="none" text-rendering="optimizeLegibility" x1="558" x2="638" y1="173" y2="173"/>
<line clip-path="url(#clipPath92)" fill="none" text-rendering="optimizeLegibility" x1="638" x2="638" y1="173" y2="223"/>
<circle clip-path="url(#clipPath93)" fill="white" text-rendering="optimizeLegibility" r="9.5" cx="557.5" cy="143.5" stroke="none"/>
<line clip-path="url(#clipPath93)" fill="none" text-rendering="optimizeLegibility" x1="548" x2="568" y1="144" y2="144" stroke-width="0.1"/>
<line clip-path="url(#clipPath93)" fill="none" text-rendering="optimizeLegibility" x1="558" x2="558" y1="134" y2="154" stroke-width="0.1"/>
<circle clip-path="url(#clipPath93)" fill="none" text-rendering="optimizeLegibility" r="10" cx="558" cy="144" stroke-width="0.1"/>
<line clip-path="url(#clipPath92)" fill="none" text-rendering="optimizeLegibility" x1="558" x2="558" y1="134" y2="173"/>
<line clip-path="url(#clipPath92)" fill="none" text-rendering="optimizeLegibility" x1="558" x2="458" y1="173" y2="173"/>
<line clip-path="url(#clipPath92)" fill="none" text-rendering="optimizeLegibility" x1="458" x2="458" y1="173" y2="223"/>
<circle clip-path="url(#clipPath93)" fill="white" text-rendering="optimizeLegibility" r="9.5" cx="557.5" cy="143.5" stroke="none"/>
<line clip-path="url(#clipPath93)" fill="none" text-rendering="optimizeLegibility" x1="548" x2="568" y1="144" y2="144" stroke-width="0.1"/>
<line clip-path="url(#clipPath93)" fill="none" text-rendering="optimizeLegibility" x1="558" x2="558" y1="134" y2="154" stroke-width="0.1"/>
<circle clip-path="url(#clipPath93)" fill="none" text-rendering="optimizeLegibility" r="10" cx="558" cy="144" stroke-width="0.1"/>
<line clip-path="url(#clipPath92)" fill="none" text-rendering="optimizeLegibility" x1="558" x2="558" y1="134" y2="173"/>
<line clip-path="url(#clipPath92)" fill="none" text-rendering="optimizeLegibility" x1="558" x2="818" y1="173" y2="173"/>
<line clip-path="url(#clipPath92)" fill="none" text-rendering="optimizeLegibility" x1="818" x2="818" y1="173" y2="223"/>
<circle clip-path="url(#clipPath93)" fill="white" text-rendering="optimizeLegibility" r="9.5" cx="557.5" cy="143.5" stroke="none"/>
<line clip-path="url(#clipPath93)" fill="none" text-rendering="optimizeLegibility" x1="548" x2="568" y1="144" y2="144" stroke-width="0.1"/>
<line clip-path="url(#clipPath93)" fill="none" text-rendering="optimizeLegibility" x1="558" x2="558" y1="134" y2="154" stroke-width="0.1"/>
<circle clip-path="url(#clipPath93)" fill="none" text-rendering="optimizeLegibility" r="10" cx="558" cy="144" stroke-width="0.1"/>
<line clip-path="url(#clipPath92)" fill="none" text-rendering="optimizeLegibility" x1="558" x2="558" y1="134" y2="173"/>
<line clip-path="url(#clipPath92)" fill="none" text-rendering="optimizeLegibility" x1="558" x2="998" y1="173" y2="173"/>
<line clip-path="url(#clipPath92)" fill="none" text-rendering="optimizeLegibility" x1="998" x2="998" y1="173" y2="223"/>
<circle clip-path="url(#clipPath93)" fill="white" text-rendering="optimizeLegibility" r="9.5" cx="557.5" cy="143.5" stroke="none"/>
<line clip-path="url(#clipPath93)" fill="none" text-rendering="optimizeLegibility" x1="548" x2="568" y1="144" y2="144" stroke-width="0.1"/>
<line clip-path="url(#clipPath93)" fill="none" text-rendering="optimizeLegibility" x1="558" x2="558" y1="134" y2="154" stroke-width="0.1"/>
<circle clip-path="url(#clipPath93)" fill="none" text-rendering="optimizeLegibility" r="10" cx="558" cy="144" stroke-width="0.1"/>
<line clip-path="url(#clipPath92)" fill="none" text-rendering="optimizeLegibility" x1="558" x2="558" y1="134" y2="173"/>
<line clip-path="url(#clipPath92)" fill="none" text-rendering="optimizeLegibility" x1="558" x2="1178" y1="173" y2="173"/>
<line clip-path="url(#clipPath92)" fill="none" text-rendering="optimizeLegibility" x1="1178" x2="1178" y1="173" y2="223"/>
<circle clip-path="url(#clipPath93)" fill="white" text-rendering="optimizeLegibility" r="9.5" cx="557.5" cy="143.5" stroke="none"/>
<line clip-path="url(#clipPath93)" fill="none" text-rendering="optimizeLegibility" x1="548" x2="568" y1="144" y2="144" stroke-width="0.1"/>
<line clip-path="url(#clipPath93)" fill="none" text-rendering="optimizeLegibility" x1="558" x2="558" y1="134" y2="154" stroke-width="0.1"/>
<circle clip-path="url(#clipPath93)" fill="none" text-rendering="optimizeLegibility" r="10" cx="558" cy="144" stroke-width="0.1"/>
<line clip-path="url(#clipPath92)" fill="none" text-rendering="optimizeLegibility" x1="633" x2="633" y1="363" y2="428" stroke-dasharray="5,5,5,5,5,5,5,5,5,5"/>
<text x="643" y="398" clip-path="url(#clipPath94)" text-rendering="optimizeLegibility" stroke-dasharray="5,5,5,5,5,5,5,5,5,5" stroke="none" xml:space="preserve">«DeriveReqt»</text>
<line clip-path="url(#clipPath95)" fill="none" text-rendering="optimizeLegibility" x1="628" x2="633" y1="413" y2="428"/>
<line clip-path="url(#clipPath95)" fill="none" text-rendering="optimizeLegibility" x1="633" x2="638" y1="428" y2="413"/>
<line clip-path="url(#clipPath92)" fill="none" text-rendering="optimizeLegibility" x1="33" x2="33" y1="363" y2="448"/>
<line clip-path="url(#clipPath92)" fill="none" text-rendering="optimizeLegibility" x1="33" x2="58" y1="448" y2="448"/>
<circle clip-path="url(#clipPath96)" fill="white" text-rendering="optimizeLegibility" r="9.5" cx="32.5" cy="372.5" stroke="none"/>
<line clip-path="url(#clipPath96)" fill="none" text-rendering="optimizeLegibility" x1="23" x2="43" y1="373" y2="373" stroke-width="0.1"/>
<line clip-path="url(#clipPath96)" fill="none" text-rendering="optimizeLegibility" x1="33" x2="33" y1="363" y2="383" stroke-width="0.1"/>
<circle clip-path="url(#clipPath96)" fill="none" text-rendering="optimizeLegibility" r="10" cx="33" cy="373" stroke-width="0.1"/>
<line clip-path="url(#clipPath92)" fill="none" text-rendering="optimizeLegibility" x1="33" x2="33" y1="363" y2="563"/>
<line clip-path="url(#clipPath92)" fill="none" text-rendering="optimizeLegibility" x1="33" x2="58" y1="563" y2="563"/>
<circle clip-path="url(#clipPath96)" fill="white" text-rendering="optimizeLegibility" r="9.5" cx="32.5" cy="372.5" stroke="none"/>
<line clip-path="url(#clipPath96)" fill="none" text-rendering="optimizeLegibility" x1="23" x2="43" y1="373" y2="373" stroke-width="0.1"/>
<line clip-path="url(#clipPath96)" fill="none" text-rendering="optimizeLegibility" x1="33" x2="33" y1="363" y2="383" stroke-width="0.1"/>
<circle clip-path="url(#clipPath96)" fill="none" text-rendering="optimizeLegibility" r="10" cx="33" cy="373" stroke-width="0.1"/>
<line clip-path="url(#clipPath92)" fill="none" text-rendering="optimizeLegibility" x1="278" x2="278" y1="363" y2="448"/>
<line clip-path="url(#clipPath92)" fill="none" text-rendering="optimizeLegibility" x1="278" x2="308" y1="448" y2="448"/>
<circle clip-path="url(#clipPath97)" fill="white" text-rendering="optimizeLegibility" r="9.5" cx="277.5" cy="372.5" stroke="none"/>
<line clip-path="url(#clipPath97)" fill="none" text-rendering="optimizeLegibility" x1="268" x2="288" y1="373" y2="373" stroke-width="0.1"/>
<line clip-path="url(#clipPath97)" fill="none" text-rendering="optimizeLegibility" x1="278" x2="278" y1="363" y2="383" stroke-width="0.1"/>
<circle clip-path="url(#clipPath97)" fill="none" text-rendering="optimizeLegibility" r="10" cx="278" cy="373" stroke-width="0.1"/>
<line clip-path="url(#clipPath92)" fill="none" text-rendering="optimizeLegibility" x1="278" x2="278" y1="363" y2="563"/>
<line clip-path="url(#clipPath92)" fill="none" text-rendering="optimizeLegibility" x1="278" x2="308" y1="563" y2="563"/>
<circle clip-path="url(#clipPath97)" fill="white" text-rendering="optimizeLegibility" r="9.5" cx="277.5" cy="372.5" stroke="none"/>
<line clip-path="url(#clipPath97)" fill="none" text-rendering="optimizeLegibility" x1="268" x2="288" y1="373" y2="373" stroke-width="0.1"/>
<line clip-path="url(#clipPath97)" fill="none" text-rendering="optimizeLegibility" x1="278" x2="278" y1="363" y2="383" stroke-width="0.1"/>
<circle clip-path="url(#clipPath97)" fill="none" text-rendering="optimizeLegibility" r="10" cx="278" cy="373" stroke-width="0.1"/>
<line clip-path="url(#clipPath92)" fill="none" text-rendering="optimizeLegibility" x1="558" x2="558" y1="134" y2="173"/>
<line clip-path="url(#clipPath92)" fill="none" text-rendering="optimizeLegibility" x1="558" x2="278" y1="173" y2="173"/>
<line clip-path="url(#clipPath92)" fill="none" text-rendering="optimizeLegibility" x1="278" x2="278" y1="173" y2="223"/>
<circle clip-path="url(#clipPath93)" fill="white" text-rendering="optimizeLegibility" r="9.5" cx="557.5" cy="143.5" stroke="none"/>
<line clip-path="url(#clipPath93)" fill="none" text-rendering="optimizeLegibility" x1="548" x2="568" y1="144" y2="144" stroke-width="0.1"/>
<line clip-path="url(#clipPath93)" fill="none" text-rendering="optimizeLegibility" x1="558" x2="558" y1="134" y2="154" stroke-width="0.1"/>
<circle clip-path="url(#clipPath93)" fill="none" text-rendering="optimizeLegibility" r="10" cx="558" cy="144" stroke-width="0.1"/>
</g>
</g>
</svg>
