<?xml version="1.0" encoding="UTF-8"?><svg xmlns="http://www.w3.org/2000/svg" xmlns:xlink="http://www.w3.org/1999/xlink" stroke-dasharray="none" shape-rendering="auto" font-family="'Dialog'" width="877" text-rendering="auto" fill-opacity="1" contentScriptType="text/ecmascript" color-interpolation="auto" color-rendering="auto" preserveAspectRatio="xMidYMid meet" font-size="12" viewBox="0 0 877 1020" fill="black" stroke="black" image-rendering="auto" stroke-miterlimit="10" zoomAndPan="magnify" version="1.0" stroke-linecap="square" stroke-linejoin="miter" contentStyleType="text/css" font-style="normal" height="1020" stroke-width="1" stroke-dashoffset="0" font-weight="normal" stroke-opacity="1">
<!--Generated by the Batik Graphics2D SVG Generator-->
<defs id="genericDefs"/>
<g>
<defs id="defs1">
<linearGradient x1="10" x2="10" y1="10" gradientUnits="userSpaceOnUse" y2="767" xlink:type="simple" xlink:actuate="onLoad" id="linearGradient1" xlink:show="other" spreadMethod="pad">
<stop stop-opacity="1" stop-color="white" offset="0%"/>
<stop stop-opacity="1" stop-color="white" offset="100%"/>
</linearGradient>
<clipPath clipPathUnits="userSpaceOnUse" id="clipPath1">
<path d="M10 10 L10 766 L866 766 L866 10 Z"/>
</clipPath>
<clipPath clipPathUnits="userSpaceOnUse" id="clipPath2">
<path d="M7 7 L870 7 L870 770 L7 770 L7 7 Z"/>
</clipPath>
<clipPath clipPathUnits="userSpaceOnUse" id="clipPath3">
<path d="M15 12 L116 12 L116 30 L15 30 L15 12 Z"/>
</clipPath>
<clipPath clipPathUnits="userSpaceOnUse" id="clipPath4">
<path d="M9 9 L868 9 L868 768 L9 768 L9 9 Z"/>
</clipPath>
</defs>
<g fill="url(#linearGradient1)" font-family="'Segoe UI'" stroke-linejoin="round" stroke="url(#linearGradient1)" stroke-width="0" stroke-miterlimit="0">
<rect x="10" y="10" clip-path="url(#clipPath1)" width="857" height="757" stroke="none"/>
</g>
<g stroke-width="0.1" font-family="'Segoe UI'" stroke-linecap="butt">
<line clip-path="url(#clipPath2)" fill="none" x1="129" x2="129" y1="10" y2="23"/>
<line clip-path="url(#clipPath2)" fill="none" x1="129" x2="129" y1="23" y2="23"/>
<line clip-path="url(#clipPath2)" fill="none" x1="129" x2="122" y1="23" y2="29"/>
<line clip-path="url(#clipPath2)" fill="none" x1="122" x2="122" y1="29" y2="29"/>
<line clip-path="url(#clipPath2)" fill="none" x1="122" x2="10" y1="29" y2="29"/>
<text xml:space="preserve" x="16" y="26" clip-path="url(#clipPath3)" stroke="none">MedicalChecking  </text>
<rect x="10" y="10" clip-path="url(#clipPath4)" fill="none" width="856" rx="0" ry="0" height="756" stroke-width="1.1"/>
</g>
</g>
</svg>
