<?xml version="1.0" encoding="UTF-8"?><svg xmlns="http://www.w3.org/2000/svg" xmlns:xlink="http://www.w3.org/1999/xlink" stroke-dasharray="none" shape-rendering="auto" font-family="'Dialog'" width="619" text-rendering="auto" fill-opacity="1" contentScriptType="text/ecmascript" color-interpolation="auto" color-rendering="auto" preserveAspectRatio="xMidYMid meet" font-size="12" viewBox="0 0 619 284" fill="black" stroke="black" image-rendering="auto" stroke-miterlimit="10" zoomAndPan="magnify" version="1.0" stroke-linecap="square" stroke-linejoin="miter" contentStyleType="text/css" font-style="normal" height="284" stroke-width="1" stroke-dashoffset="0" font-weight="normal" stroke-opacity="1">
<!--Generated by the Batik Graphics2D SVG Generator-->
<defs id="genericDefs"/>
<g>
<defs id="defs1">
<clipPath clipPathUnits="userSpaceOnUse" id="clipPath1">
<path d="M22 64 L182 64 L182 77 L22 77 L22 64 Z"/>
</clipPath>
<clipPath clipPathUnits="userSpaceOnUse" id="clipPath2">
<path d="M-1 -1 L620 -1 L620 285 L-1 285 L-1 -1 Z"/>
</clipPath>
<clipPath clipPathUnits="userSpaceOnUse" id="clipPath3">
<path d="M132 32 L174 32 L174 74 L132 74 L132 32 Z"/>
</clipPath>
<clipPath clipPathUnits="userSpaceOnUse" id="clipPath4">
<path d="M48 22 L208 22 L208 35 L48 35 L48 22 Z"/>
</clipPath>
<clipPath clipPathUnits="userSpaceOnUse" id="clipPath5">
<path d="M48 43 L208 43 L208 56 L48 56 L48 43 Z"/>
</clipPath>
<clipPath clipPathUnits="userSpaceOnUse" id="clipPath6">
<path d="M35 42 L195 42 L195 55 L35 55 L35 42 Z"/>
</clipPath>
<clipPath clipPathUnits="userSpaceOnUse" id="clipPath7">
<path d="M68 42 L228 42 L228 55 L68 55 L68 42 Z"/>
</clipPath>
</defs>
<g font-size="9" fill="rgb(255,203,203)" stroke-linejoin="round" stroke="rgb(255,203,203)" stroke-width="0" stroke-miterlimit="0">
<rect width="461" x="148" height="226" y="48" stroke="none"/>
</g>
<g stroke-linecap="butt" font-size="9">
<rect fill="none" width="460" x="148" height="225" y="48"/>
<text xml:space="preserve" x="299" y="164" stroke="none">Invalid view - remove from diagram.</text>
<line fill="none" x1="148" x2="102" y1="48" y2="70" stroke="red" stroke-width="1.1"/>
<line fill="none" x1="102" x2="148" y1="70" y2="48" stroke="red" stroke-width="1.1"/>
<text x="23" y="74" clip-path="url(#clipPath1)" fill="red" stroke="none" stroke-width="1.1" xml:space="preserve">Invalid view - remove from diagram.</text>
<line clip-path="url(#clipPath2)" fill="none" x1="148" x2="148" y1="48" y2="28" stroke="red" stroke-width="1.1"/>
<line clip-path="url(#clipPath2)" fill="none" x1="148" x2="128" y1="28" y2="28" stroke="red" stroke-width="1.1"/>
<line clip-path="url(#clipPath2)" fill="none" x1="128" x2="128" y1="28" y2="48" stroke="red" stroke-width="1.1"/>
<line clip-path="url(#clipPath2)" fill="none" x1="128" x2="148" y1="48" y2="48" stroke="red" stroke-width="1.1"/>
<rect x="133" y="33" clip-path="url(#clipPath3)" fill="rgb(255,203,203)" width="40" height="40" stroke="none" stroke-width="1.1"/>
<rect x="133" y="33" clip-path="url(#clipPath3)" fill="none" width="39" height="39" stroke-width="0.1"/>
<text x="73" y="56" clip-path="url(#clipPath3)" stroke="none" stroke-width="0.1" xml:space="preserve">Invalid view - remove from diagram.</text>
<rect x="133" y="33" clip-path="url(#clipPath3)" fill="rgb(255,203,203)" width="40" height="40" stroke="none" stroke-width="0.1"/>
<rect x="133" y="33" clip-path="url(#clipPath3)" fill="none" width="39" height="39" stroke-width="0.1"/>
<text x="73" y="56" clip-path="url(#clipPath3)" stroke="none" stroke-width="0.1" xml:space="preserve">Invalid view - remove from diagram.</text>
<rect x="133" y="33" clip-path="url(#clipPath3)" fill="rgb(255,203,203)" width="40" height="40" stroke="none" stroke-width="0.1"/>
<rect x="133" y="33" clip-path="url(#clipPath3)" fill="none" width="39" height="39" stroke-width="0.1"/>
<text x="73" y="56" clip-path="url(#clipPath3)" stroke="none" stroke-width="0.1" xml:space="preserve">Invalid view - remove from diagram.</text>
<text x="49" y="32" clip-path="url(#clipPath4)" fill="red" stroke="none" stroke-width="0.1" xml:space="preserve">Invalid view - remove from diagram.</text>
<line clip-path="url(#clipPath2)" fill="none" x1="148" x2="128" y1="48" y2="28" stroke="red" stroke-width="1.1"/>
<line clip-path="url(#clipPath2)" fill="none" x1="128" x2="128" y1="28" y2="69" stroke="red" stroke-width="1.1"/>
<line clip-path="url(#clipPath2)" fill="none" x1="128" x2="148" y1="69" y2="48" stroke="red" stroke-width="1.1"/>
<text x="49" y="53" clip-path="url(#clipPath5)" fill="red" stroke="none" stroke-width="1.1" xml:space="preserve">Invalid view - remove from diagram.</text>
<line clip-path="url(#clipPath2)" fill="none" x1="148" x2="115" y1="48" y2="48" stroke="red" stroke-width="1.1"/>
<line clip-path="url(#clipPath2)" fill="none" x1="115" x2="148" y1="48" y2="48" stroke="red" stroke-width="1.1"/>
<text x="36" y="52" clip-path="url(#clipPath6)" fill="red" stroke="none" stroke-width="1.1" xml:space="preserve">Invalid view - remove from diagram.</text>
<line clip-path="url(#clipPath2)" fill="none" x1="148" x2="148" y1="48" y2="28" stroke="red" stroke-width="1.1"/>
<line clip-path="url(#clipPath2)" fill="none" x1="148" x2="128" y1="28" y2="28" stroke="red" stroke-width="1.1"/>
<line clip-path="url(#clipPath2)" fill="none" x1="128" x2="128" y1="28" y2="48" stroke="red" stroke-width="1.1"/>
<line clip-path="url(#clipPath2)" fill="none" x1="128" x2="148" y1="48" y2="48" stroke="red" stroke-width="1.1"/>
<rect x="133" y="33" clip-path="url(#clipPath3)" fill="rgb(255,203,203)" width="40" height="40" stroke="none" stroke-width="1.1"/>
<rect x="133" y="33" clip-path="url(#clipPath3)" fill="none" width="39" height="39" stroke-width="0.1"/>
<text x="73" y="56" clip-path="url(#clipPath3)" stroke="none" stroke-width="0.1" xml:space="preserve">Invalid view - remove from diagram.</text>
<rect x="133" y="33" clip-path="url(#clipPath3)" fill="rgb(255,203,203)" width="40" height="40" stroke="none" stroke-width="0.1"/>
<rect x="133" y="33" clip-path="url(#clipPath3)" fill="none" width="39" height="39" stroke-width="0.1"/>
<text x="73" y="56" clip-path="url(#clipPath3)" stroke="none" stroke-width="0.1" xml:space="preserve">Invalid view - remove from diagram.</text>
<rect x="133" y="33" clip-path="url(#clipPath3)" fill="rgb(255,203,203)" width="40" height="40" stroke="none" stroke-width="0.1"/>
<rect x="133" y="33" clip-path="url(#clipPath3)" fill="none" width="39" height="39" stroke-width="0.1"/>
<text x="73" y="56" clip-path="url(#clipPath3)" stroke="none" stroke-width="0.1" xml:space="preserve">Invalid view - remove from diagram.</text>
<text x="49" y="32" clip-path="url(#clipPath4)" fill="red" stroke="none" stroke-width="0.1" xml:space="preserve">Invalid view - remove from diagram.</text>
<line clip-path="url(#clipPath2)" fill="none" x1="148" x2="148" y1="48" y2="48" stroke="red" stroke-width="1.1"/>
<text x="69" y="52" clip-path="url(#clipPath7)" fill="red" stroke="none" stroke-width="1.1" xml:space="preserve">Invalid view - remove from diagram.</text>
<line clip-path="url(#clipPath2)" fill="none" x1="148" x2="148" y1="48" y2="28" stroke="red" stroke-width="1.1"/>
<line clip-path="url(#clipPath2)" fill="none" x1="148" x2="128" y1="28" y2="28" stroke="red" stroke-width="1.1"/>
<line clip-path="url(#clipPath2)" fill="none" x1="128" x2="128" y1="28" y2="48" stroke="red" stroke-width="1.1"/>
<line clip-path="url(#clipPath2)" fill="none" x1="128" x2="148" y1="48" y2="48" stroke="red" stroke-width="1.1"/>
<rect x="133" y="33" clip-path="url(#clipPath3)" fill="rgb(255,203,203)" width="40" height="40" stroke="none" stroke-width="1.1"/>
<rect x="133" y="33" clip-path="url(#clipPath3)" fill="none" width="39" height="39" stroke-width="0.1"/>
<text x="73" y="56" clip-path="url(#clipPath3)" stroke="none" stroke-width="0.1" xml:space="preserve">Invalid view - remove from diagram.</text>
<rect x="133" y="33" clip-path="url(#clipPath3)" fill="rgb(255,203,203)" width="40" height="40" stroke="none" stroke-width="0.1"/>
<rect x="133" y="33" clip-path="url(#clipPath3)" fill="none" width="39" height="39" stroke-width="0.1"/>
<text x="73" y="56" clip-path="url(#clipPath3)" stroke="none" stroke-width="0.1" xml:space="preserve">Invalid view - remove from diagram.</text>
<rect x="133" y="33" clip-path="url(#clipPath3)" fill="rgb(255,203,203)" width="40" height="40" stroke="none" stroke-width="0.1"/>
<rect x="133" y="33" clip-path="url(#clipPath3)" fill="none" width="39" height="39" stroke-width="0.1"/>
<text x="73" y="56" clip-path="url(#clipPath3)" stroke="none" stroke-width="0.1" xml:space="preserve">Invalid view - remove from diagram.</text>
<text x="49" y="32" clip-path="url(#clipPath4)" fill="red" stroke="none" stroke-width="0.1" xml:space="preserve">Invalid view - remove from diagram.</text>
<line clip-path="url(#clipPath2)" fill="none" x1="148" x2="128" y1="48" y2="28" stroke="red" stroke-width="1.1"/>
<line clip-path="url(#clipPath2)" fill="none" x1="128" x2="128" y1="28" y2="69" stroke="red" stroke-width="1.1"/>
<line clip-path="url(#clipPath2)" fill="none" x1="128" x2="148" y1="69" y2="48" stroke="red" stroke-width="1.1"/>
<text x="49" y="53" clip-path="url(#clipPath5)" fill="red" stroke="none" stroke-width="1.1" xml:space="preserve">Invalid view - remove from diagram.</text>
<line clip-path="url(#clipPath2)" fill="none" x1="148" x2="148" y1="48" y2="48" stroke="red" stroke-width="1.1"/>
<text x="69" y="52" clip-path="url(#clipPath7)" fill="red" stroke="none" stroke-width="1.1" xml:space="preserve">Invalid view - remove from diagram.</text>
<line clip-path="url(#clipPath2)" fill="none" x1="148" x2="102" y1="48" y2="70" stroke="red" stroke-width="1.1"/>
<line clip-path="url(#clipPath2)" fill="none" x1="102" x2="148" y1="70" y2="48" stroke="red" stroke-width="1.1"/>
<text x="23" y="74" clip-path="url(#clipPath1)" fill="red" stroke="none" stroke-width="1.1" xml:space="preserve">Invalid view - remove from diagram.</text>
<line clip-path="url(#clipPath2)" fill="none" x1="148" x2="115" y1="48" y2="48" stroke="red" stroke-width="1.1"/>
<line clip-path="url(#clipPath2)" fill="none" x1="115" x2="148" y1="48" y2="48" stroke="red" stroke-width="1.1"/>
<text x="36" y="52" clip-path="url(#clipPath6)" fill="red" stroke="none" stroke-width="1.1" xml:space="preserve">Invalid view - remove from diagram.</text>
<line clip-path="url(#clipPath2)" fill="none" x1="148" x2="148" y1="48" y2="28" stroke="red" stroke-width="1.1"/>
<line clip-path="url(#clipPath2)" fill="none" x1="148" x2="128" y1="28" y2="28" stroke="red" stroke-width="1.1"/>
<line clip-path="url(#clipPath2)" fill="none" x1="128" x2="128" y1="28" y2="48" stroke="red" stroke-width="1.1"/>
<line clip-path="url(#clipPath2)" fill="none" x1="128" x2="148" y1="48" y2="48" stroke="red" stroke-width="1.1"/>
<rect x="133" y="33" clip-path="url(#clipPath3)" fill="rgb(255,203,203)" width="40" height="40" stroke="none" stroke-width="1.1"/>
<rect x="133" y="33" clip-path="url(#clipPath3)" fill="none" width="39" height="39" stroke-width="0.1"/>
<text x="73" y="56" clip-path="url(#clipPath3)" stroke="none" stroke-width="0.1" xml:space="preserve">Invalid view - remove from diagram.</text>
<rect x="133" y="33" clip-path="url(#clipPath3)" fill="rgb(255,203,203)" width="40" height="40" stroke="none" stroke-width="0.1"/>
<rect x="133" y="33" clip-path="url(#clipPath3)" fill="none" width="39" height="39" stroke-width="0.1"/>
<text x="73" y="56" clip-path="url(#clipPath3)" stroke="none" stroke-width="0.1" xml:space="preserve">Invalid view - remove from diagram.</text>
<rect x="133" y="33" clip-path="url(#clipPath3)" fill="rgb(255,203,203)" width="40" height="40" stroke="none" stroke-width="0.1"/>
<rect x="133" y="33" clip-path="url(#clipPath3)" fill="none" width="39" height="39" stroke-width="0.1"/>
<text x="73" y="56" clip-path="url(#clipPath3)" stroke="none" stroke-width="0.1" xml:space="preserve">Invalid view - remove from diagram.</text>
<text x="49" y="32" clip-path="url(#clipPath4)" fill="red" stroke="none" stroke-width="0.1" xml:space="preserve">Invalid view - remove from diagram.</text>
</g>
</g>
</svg>
